<svg xmlns="http://www.w3.org/2000/svg" xmlns:xlink="http://www.w3.org/1999/xlink" width="500" zoomAndPan="magnify" viewBox="0 0 375 374.999991" height="500" preserveAspectRatio="xMidYMid meet" version="1.0"><defs><clipPath id="ab8b3256cd"><path d="M 126.738281 108.933594 L 254.148438 108.933594 L 254.148438 275.183594 L 126.738281 275.183594 Z M 126.738281 108.933594 " clip-rule="nonzero"/></clipPath><clipPath id="25e6265d79"><path d="M 178.0625 144.695312 C 178.0625 144.695312 177.378906 177.179688 172.796875 189.652344 C 168.214844 202.125 165.429688 207.632812 165.429688 207.632812 L 177.628906 208.324219 Z M 254.148438 132.898438 C 254.148438 132.898438 253.480469 170.640625 249.015625 185.132812 C 244.546875 199.628906 241.828125 206.023438 241.828125 206.023438 L 253.726562 206.828125 Z M 141.53125 170.25 C 141.53125 170.25 140.921875 189.6875 136.847656 197.152344 C 132.777344 204.617188 130.300781 207.910156 130.300781 207.910156 L 141.144531 208.324219 Z M 208.851562 264.40625 L 212.839844 275.183594 L 225.691406 275.183594 L 225.457031 263.898438 Z M 186.964844 238.933594 L 192.007812 264.171875 L 207.03125 263.410156 C 207.03125 263.410156 199.636719 248.011719 199.636719 243.796875 C 199.636719 239.578125 199.402344 239.402344 199.402344 239.402344 Z M 238.488281 112.019531 C 238.488281 112.019531 243.554688 112.414062 243.613281 114.4375 C 243.671875 116.457031 241.324219 119.121094 241.324219 119.121094 C 241.324219 119.121094 248.601562 119.589844 246.839844 114.964844 C 245.078125 110.335938 242.996094 108.933594 242.996094 108.933594 Z M 198.433594 132.691406 C 198.433594 132.691406 203.5 133.085938 203.558594 135.109375 C 203.617188 137.128906 201.269531 139.792969 201.269531 139.792969 C 201.269531 139.792969 208.546875 140.261719 206.785156 135.632812 C 205.023438 131.007812 202.941406 129.601562 202.941406 129.601562 Z M 160.164062 120.132812 C 160.164062 120.132812 165.230469 120.527344 165.289062 122.546875 C 165.347656 124.570312 163 127.234375 163 127.234375 C 163 127.234375 170.277344 127.703125 168.515625 123.074219 C 166.753906 118.449219 164.671875 117.042969 164.671875 117.042969 Z M 131.246094 145.796875 C 131.246094 145.796875 133.332031 147.203125 135.089844 151.828125 C 136.851562 156.453125 129.574219 155.984375 129.574219 155.984375 C 129.574219 155.984375 131.921875 153.320312 131.863281 151.300781 C 131.804688 149.28125 126.738281 148.882812 126.738281 148.882812 Z M 131.246094 145.796875 " clip-rule="nonzero"/></clipPath><clipPath id="73ff747cff"><path d="M 178.0625 144.695312 C 178.0625 144.695312 177.378906 177.179688 172.796875 189.652344 C 168.214844 202.125 165.429688 207.632812 165.429688 207.632812 L 177.628906 208.324219 Z M 254.148438 132.898438 C 254.148438 132.898438 253.480469 170.640625 249.015625 185.132812 C 244.546875 199.628906 241.828125 206.023438 241.828125 206.023438 L 253.726562 206.828125 Z M 141.53125 170.25 C 141.53125 170.25 140.921875 189.6875 136.847656 197.152344 C 132.777344 204.617188 130.300781 207.910156 130.300781 207.910156 L 141.144531 208.324219 Z M 208.851562 264.40625 L 212.839844 275.183594 L 225.691406 275.183594 L 225.457031 263.898438 Z M 186.964844 238.933594 L 192.007812 264.171875 L 207.03125 263.410156 C 207.03125 263.410156 199.636719 248.011719 199.636719 243.796875 C 199.636719 239.578125 199.402344 239.402344 199.402344 239.402344 Z M 238.488281 112.019531 C 238.488281 112.019531 243.554688 112.414062 243.613281 114.4375 C 243.671875 116.457031 241.324219 119.121094 241.324219 119.121094 C 241.324219 119.121094 248.601562 119.589844 246.839844 114.964844 C 245.078125 110.335938 242.996094 108.933594 242.996094 108.933594 Z M 198.433594 132.691406 C 198.433594 132.691406 203.5 133.085938 203.558594 135.109375 C 203.617188 137.128906 201.269531 139.792969 201.269531 139.792969 C 201.269531 139.792969 208.546875 140.261719 206.785156 135.632812 C 205.023438 131.007812 202.941406 129.601562 202.941406 129.601562 Z M 160.164062 120.132812 C 160.164062 120.132812 165.230469 120.527344 165.289062 122.546875 C 165.347656 124.570312 163 127.234375 163 127.234375 C 163 127.234375 170.277344 127.703125 168.515625 123.074219 C 166.753906 118.449219 164.671875 117.042969 164.671875 117.042969 Z M 131.246094 145.796875 C 131.246094 145.796875 133.332031 147.203125 135.089844 151.828125 C 136.851562 156.453125 129.574219 155.984375 129.574219 155.984375 C 129.574219 155.984375 131.921875 153.320312 131.863281 151.300781 C 131.804688 149.28125 126.738281 148.882812 126.738281 148.882812 L 131.246094 145.796875 " clip-rule="nonzero"/></clipPath><linearGradient x1="-0.000000705442" gradientTransform="matrix(127.410535, 0, 0, 127.151135, 126.739144, 192.057335)" y1="0" x2="0.999999" gradientUnits="userSpaceOnUse" y2="0" id="e23706e9de"><stop stop-opacity="1" stop-color="rgb(63.899231%, 90.59906%, 83.099365%)" offset="0"/><stop stop-opacity="1" stop-color="rgb(63.708496%, 90.39917%, 83.099365%)" offset="0.00390625"/><stop stop-opacity="1" stop-color="rgb(63.517761%, 90.19928%, 83.099365%)" offset="0.0078125"/><stop stop-opacity="1" stop-color="rgb(63.508606%, 89.99939%, 83.099365%)" offset="0.0117188"/><stop stop-opacity="1" stop-color="rgb(63.499451%, 89.7995%, 83.099365%)" offset="0.015625"/><stop stop-opacity="1" stop-color="rgb(63.299561%, 89.576721%, 82.899475%)" offset="0.0195313"/><stop stop-opacity="1" stop-color="rgb(63.09967%, 89.355469%, 82.699585%)" offset="0.0234375"/><stop stop-opacity="1" stop-color="rgb(62.89978%, 89.164734%, 82.699585%)" offset="0.0273438"/><stop stop-opacity="1" stop-color="rgb(62.69989%, 88.973999%, 82.699585%)" offset="0.03125"/><stop stop-opacity="1" stop-color="rgb(62.696838%, 88.783264%, 82.699585%)" offset="0.0390625"/><stop stop-opacity="1" stop-color="rgb(62.547302%, 88.395691%, 82.699585%)" offset="0.0429688"/><stop stop-opacity="1" stop-color="rgb(62.399292%, 88.198853%, 82.699585%)" offset="0.046875"/><stop stop-opacity="1" stop-color="rgb(62.214661%, 87.998962%, 82.56073%)" offset="0.0507812"/><stop stop-opacity="1" stop-color="rgb(62.030029%, 87.799072%, 82.423401%)" offset="0.0546875"/><stop stop-opacity="1" stop-color="rgb(62.014771%, 87.47406%, 82.411194%)" offset="0.0585938"/><stop stop-opacity="1" stop-color="rgb(61.999512%, 87.149048%, 82.398987%)" offset="0.0625"/><stop stop-opacity="1" stop-color="rgb(61.799622%, 86.923218%, 82.398987%)" offset="0.0664063"/><stop stop-opacity="1" stop-color="rgb(61.599731%, 86.698914%, 82.398987%)" offset="0.0703125"/><stop stop-opacity="1" stop-color="rgb(61.593628%, 86.499023%, 82.398987%)" offset="0.0742188"/><stop stop-opacity="1" stop-color="rgb(61.587524%, 86.299133%, 82.398987%)" offset="0.078125"/><stop stop-opacity="1" stop-color="rgb(61.393738%, 86.102295%, 82.398987%)" offset="0.0820313"/><stop stop-opacity="1" stop-color="rgb(61.199951%, 85.905457%, 82.398987%)" offset="0.0859375"/><stop stop-opacity="1" stop-color="rgb(61.012268%, 85.714722%, 82.199097%)" offset="0.0898438"/><stop stop-opacity="1" stop-color="rgb(60.824585%, 85.523987%, 81.999207%)" offset="0.09375"/><stop stop-opacity="1" stop-color="rgb(60.810852%, 85.333252%, 81.999207%)" offset="0.101562"/><stop stop-opacity="1" stop-color="rgb(60.598755%, 84.919739%, 81.999207%)" offset="0.105469"/><stop stop-opacity="1" stop-color="rgb(60.398865%, 84.698486%, 81.999207%)" offset="0.109375"/><stop stop-opacity="1" stop-color="rgb(60.198975%, 84.498596%, 81.999207%)" offset="0.113281"/><stop stop-opacity="1" stop-color="rgb(59.999084%, 84.298706%, 81.999207%)" offset="0.117188"/><stop stop-opacity="1" stop-color="rgb(59.999084%, 84.098816%, 81.799316%)" offset="0.121094"/><stop stop-opacity="1" stop-color="rgb(59.999084%, 83.898926%, 81.599426%)" offset="0.125"/><stop stop-opacity="1" stop-color="rgb(59.799194%, 83.699036%, 81.599426%)" offset="0.128906"/><stop stop-opacity="1" stop-color="rgb(59.599304%, 83.499146%, 81.599426%)" offset="0.132813"/><stop stop-opacity="1" stop-color="rgb(59.417725%, 83.299255%, 81.599426%)" offset="0.136719"/><stop stop-opacity="1" stop-color="rgb(59.236145%, 83.099365%, 81.599426%)" offset="0.140625"/><stop stop-opacity="1" stop-color="rgb(59.194946%, 82.88269%, 81.599426%)" offset="0.144531"/><stop stop-opacity="1" stop-color="rgb(59.155273%, 82.666016%, 81.599426%)" offset="0.148438"/><stop stop-opacity="1" stop-color="rgb(58.976746%, 82.519531%, 81.599426%)" offset="0.15625"/><stop stop-opacity="1" stop-color="rgb(58.599854%, 82.183838%, 81.399536%)" offset="0.160156"/><stop stop-opacity="1" stop-color="rgb(58.399963%, 81.993103%, 81.199646%)" offset="0.164063"/><stop stop-opacity="1" stop-color="rgb(58.399963%, 81.796265%, 81.199646%)" offset="0.167969"/><stop stop-opacity="1" stop-color="rgb(58.399963%, 81.599426%, 81.199646%)" offset="0.171875"/><stop stop-opacity="1" stop-color="rgb(58.198547%, 81.399536%, 81.199646%)" offset="0.175781"/><stop stop-opacity="1" stop-color="rgb(57.998657%, 81.199646%, 81.199646%)" offset="0.179688"/><stop stop-opacity="1" stop-color="rgb(57.823181%, 80.82428%, 81.199646%)" offset="0.183594"/><stop stop-opacity="1" stop-color="rgb(57.649231%, 80.448914%, 81.199646%)" offset="0.1875"/><stop stop-opacity="1" stop-color="rgb(57.61261%, 80.223083%, 81.182861%)" offset="0.191406"/><stop stop-opacity="1" stop-color="rgb(57.575989%, 79.998779%, 81.167603%)" offset="0.195312"/><stop stop-opacity="1" stop-color="rgb(57.437134%, 79.798889%, 80.982971%)" offset="0.199219"/><stop stop-opacity="1" stop-color="rgb(57.299805%, 79.598999%, 80.799866%)" offset="0.203125"/><stop stop-opacity="1" stop-color="rgb(57.102966%, 79.402161%, 80.799866%)" offset="0.207031"/><stop stop-opacity="1" stop-color="rgb(56.906128%, 79.205322%, 80.799866%)" offset="0.210938"/><stop stop-opacity="1" stop-color="rgb(56.90155%, 79.014587%, 80.799866%)" offset="0.21875"/><stop stop-opacity="1" stop-color="rgb(56.719971%, 78.633118%, 80.799866%)" offset="0.226562"/><stop stop-opacity="1" stop-color="rgb(56.50177%, 78.22113%, 80.59845%)" offset="0.230469"/><stop stop-opacity="1" stop-color="rgb(56.462097%, 77.999878%, 80.39856%)" offset="0.234375"/><stop stop-opacity="1" stop-color="rgb(56.280518%, 77.798462%, 80.39856%)" offset="0.238281"/><stop stop-opacity="1" stop-color="rgb(56.098938%, 77.598572%, 80.39856%)" offset="0.242188"/><stop stop-opacity="1" stop-color="rgb(55.899048%, 77.449036%, 80.39856%)" offset="0.246094"/><stop stop-opacity="1" stop-color="rgb(55.699158%, 77.2995%, 80.39856%)" offset="0.25"/><stop stop-opacity="1" stop-color="rgb(55.699158%, 77.099609%, 80.39856%)" offset="0.253906"/><stop stop-opacity="1" stop-color="rgb(55.699158%, 76.899719%, 80.39856%)" offset="0.257812"/><stop stop-opacity="1" stop-color="rgb(55.499268%, 76.699829%, 80.39856%)" offset="0.261719"/><stop stop-opacity="1" stop-color="rgb(55.299377%, 76.499939%, 80.39856%)" offset="0.265625"/><stop stop-opacity="1" stop-color="rgb(55.099487%, 76.277161%, 80.198669%)" offset="0.269531"/><stop stop-opacity="1" stop-color="rgb(54.899597%, 76.055908%, 79.998779%)" offset="0.273438"/><stop stop-opacity="1" stop-color="rgb(54.885864%, 75.865173%, 79.998779%)" offset="0.28125"/><stop stop-opacity="1" stop-color="rgb(54.685974%, 75.483704%, 79.998779%)" offset="0.289063"/><stop stop-opacity="1" stop-color="rgb(54.30603%, 75.09613%, 79.998779%)" offset="0.292969"/><stop stop-opacity="1" stop-color="rgb(54.112244%, 74.899292%, 79.998779%)" offset="0.296875"/><stop stop-opacity="1" stop-color="rgb(54.104614%, 74.699402%, 79.814148%)" offset="0.300781"/><stop stop-opacity="1" stop-color="rgb(54.098511%, 74.499512%, 79.631042%)" offset="0.304688"/><stop stop-opacity="1" stop-color="rgb(53.898621%, 74.124146%, 79.614258%)" offset="0.308594"/><stop stop-opacity="1" stop-color="rgb(53.69873%, 73.748779%, 79.598999%)" offset="0.3125"/><stop stop-opacity="1" stop-color="rgb(53.49884%, 73.522949%, 79.598999%)" offset="0.316406"/><stop stop-opacity="1" stop-color="rgb(53.29895%, 73.298645%, 79.598999%)" offset="0.320313"/><stop stop-opacity="1" stop-color="rgb(53.292847%, 73.098755%, 79.598999%)" offset="0.324219"/><stop stop-opacity="1" stop-color="rgb(53.286743%, 72.898865%, 79.598999%)" offset="0.328125"/><stop stop-opacity="1" stop-color="rgb(53.092957%, 72.702026%, 79.598999%)" offset="0.332031"/><stop stop-opacity="1" stop-color="rgb(52.89917%, 72.505188%, 79.598999%)" offset="0.335938"/><stop stop-opacity="1" stop-color="rgb(52.711487%, 72.361755%, 79.399109%)" offset="0.339844"/><stop stop-opacity="1" stop-color="rgb(52.523804%, 72.218323%, 79.199219%)" offset="0.34375"/><stop stop-opacity="1" stop-color="rgb(52.511597%, 72.03064%, 79.199219%)" offset="0.351563"/><stop stop-opacity="1" stop-color="rgb(52.348328%, 71.620178%, 79.199219%)" offset="0.355469"/><stop stop-opacity="1" stop-color="rgb(52.198792%, 71.398926%, 79.199219%)" offset="0.359375"/><stop stop-opacity="1" stop-color="rgb(52.189636%, 71.199036%, 79.199219%)" offset="0.363281"/><stop stop-opacity="1" stop-color="rgb(52.180481%, 70.999146%, 79.199219%)" offset="0.367188"/><stop stop-opacity="1" stop-color="rgb(51.989746%, 70.799255%, 78.999329%)" offset="0.371094"/><stop stop-opacity="1" stop-color="rgb(51.799011%, 70.599365%, 78.799438%)" offset="0.375"/><stop stop-opacity="1" stop-color="rgb(51.608276%, 70.399475%, 78.799438%)" offset="0.378906"/><stop stop-opacity="1" stop-color="rgb(51.417542%, 70.199585%, 78.799438%)" offset="0.382812"/><stop stop-opacity="1" stop-color="rgb(51.408386%, 69.999695%, 78.799438%)" offset="0.386719"/><stop stop-opacity="1" stop-color="rgb(51.399231%, 69.799805%, 78.799438%)" offset="0.390625"/><stop stop-opacity="1" stop-color="rgb(51.199341%, 69.577026%, 78.799438%)" offset="0.394531"/><stop stop-opacity="1" stop-color="rgb(50.999451%, 69.355774%, 78.799438%)" offset="0.398438"/><stop stop-opacity="1" stop-color="rgb(50.799561%, 69.165039%, 78.799438%)" offset="0.402344"/><stop stop-opacity="1" stop-color="rgb(50.59967%, 68.974304%, 78.799438%)" offset="0.40625"/><stop stop-opacity="1" stop-color="rgb(50.596619%, 68.783569%, 78.599548%)" offset="0.410156"/><stop stop-opacity="1" stop-color="rgb(50.593567%, 68.592834%, 78.399658%)" offset="0.414062"/><stop stop-opacity="1" stop-color="rgb(50.396729%, 68.395996%, 78.399658%)" offset="0.417969"/><stop stop-opacity="1" stop-color="rgb(50.19989%, 68.199158%, 78.399658%)" offset="0.421875"/><stop stop-opacity="1" stop-color="rgb(50.015259%, 67.999268%, 78.399658%)" offset="0.425781"/><stop stop-opacity="1" stop-color="rgb(49.830627%, 67.799377%, 78.399658%)" offset="0.429688"/><stop stop-opacity="1" stop-color="rgb(49.813843%, 67.474365%, 78.399658%)" offset="0.433594"/><stop stop-opacity="1" stop-color="rgb(49.798584%, 67.149353%, 78.399658%)" offset="0.4375"/><stop stop-opacity="1" stop-color="rgb(49.598694%, 66.923523%, 78.382874%)" offset="0.441406"/><stop stop-opacity="1" stop-color="rgb(49.398804%, 66.699219%, 78.367615%)" offset="0.445312"/><stop stop-opacity="1" stop-color="rgb(49.198914%, 66.499329%, 78.182983%)" offset="0.449219"/><stop stop-opacity="1" stop-color="rgb(48.999023%, 66.299438%, 77.999878%)" offset="0.453125"/><stop stop-opacity="1" stop-color="rgb(48.999023%, 66.1026%, 77.999878%)" offset="0.457031"/><stop stop-opacity="1" stop-color="rgb(48.999023%, 65.905762%, 77.999878%)" offset="0.460938"/><stop stop-opacity="1" stop-color="rgb(48.799133%, 65.715027%, 77.999878%)" offset="0.464844"/><stop stop-opacity="1" stop-color="rgb(48.599243%, 65.524292%, 77.999878%)" offset="0.46875"/><stop stop-opacity="1" stop-color="rgb(48.420715%, 65.333557%, 77.999878%)" offset="0.476562"/><stop stop-opacity="1" stop-color="rgb(48.202515%, 64.920044%, 77.798462%)" offset="0.480469"/><stop stop-opacity="1" stop-color="rgb(48.161316%, 64.698792%, 77.598572%)" offset="0.484375"/><stop stop-opacity="1" stop-color="rgb(47.979736%, 64.498901%, 77.598572%)" offset="0.488281"/><stop stop-opacity="1" stop-color="rgb(47.799683%, 64.299011%, 77.598572%)" offset="0.492188"/><stop stop-opacity="1" stop-color="rgb(47.799683%, 64.099121%, 77.598572%)" offset="0.496094"/><stop stop-opacity="1" stop-color="rgb(47.799683%, 63.899231%, 77.598572%)" offset="0.5"/><stop stop-opacity="1" stop-color="rgb(47.648621%, 63.699341%, 77.598572%)" offset="0.503906"/><stop stop-opacity="1" stop-color="rgb(47.499084%, 63.499451%, 77.598572%)" offset="0.507812"/><stop stop-opacity="1" stop-color="rgb(47.317505%, 63.299561%, 77.598572%)" offset="0.511719"/><stop stop-opacity="1" stop-color="rgb(47.137451%, 63.09967%, 77.598572%)" offset="0.515625"/><stop stop-opacity="1" stop-color="rgb(47.096252%, 62.882996%, 77.449036%)" offset="0.519531"/><stop stop-opacity="1" stop-color="rgb(47.055054%, 62.666321%, 77.2995%)" offset="0.523438"/><stop stop-opacity="1" stop-color="rgb(46.876526%, 62.519836%, 77.2995%)" offset="0.53125"/><stop stop-opacity="1" stop-color="rgb(46.499634%, 62.184143%, 77.2995%)" offset="0.535156"/><stop stop-opacity="1" stop-color="rgb(46.299744%, 61.993408%, 77.2995%)" offset="0.539062"/><stop stop-opacity="1" stop-color="rgb(46.299744%, 61.79657%, 77.2995%)" offset="0.542969"/><stop stop-opacity="1" stop-color="rgb(46.299744%, 61.599731%, 77.2995%)" offset="0.546875"/><stop stop-opacity="1" stop-color="rgb(46.099854%, 61.399841%, 77.114868%)" offset="0.550781"/><stop stop-opacity="1" stop-color="rgb(45.899963%, 61.199951%, 76.930237%)" offset="0.554688"/><stop stop-opacity="1" stop-color="rgb(45.724487%, 60.824585%, 76.914978%)" offset="0.558594"/><stop stop-opacity="1" stop-color="rgb(45.549011%, 60.449219%, 76.899719%)" offset="0.5625"/><stop stop-opacity="1" stop-color="rgb(45.507812%, 60.223389%, 76.899719%)" offset="0.566406"/><stop stop-opacity="1" stop-color="rgb(45.46814%, 59.999084%, 76.899719%)" offset="0.570312"/><stop stop-opacity="1" stop-color="rgb(45.283508%, 59.799194%, 76.899719%)" offset="0.574219"/><stop stop-opacity="1" stop-color="rgb(45.098877%, 59.599304%, 76.899719%)" offset="0.578125"/><stop stop-opacity="1" stop-color="rgb(44.902039%, 59.402466%, 76.899719%)" offset="0.582031"/><stop stop-opacity="1" stop-color="rgb(44.7052%, 59.205627%, 76.899719%)" offset="0.585938"/><stop stop-opacity="1" stop-color="rgb(44.702148%, 59.014893%, 76.699829%)" offset="0.589844"/><stop stop-opacity="1" stop-color="rgb(44.699097%, 58.824158%, 76.499939%)" offset="0.59375"/><stop stop-opacity="1" stop-color="rgb(44.499207%, 58.633423%, 76.499939%)" offset="0.597656"/><stop stop-opacity="1" stop-color="rgb(44.299316%, 58.442688%, 76.499939%)" offset="0.601562"/><stop stop-opacity="1" stop-color="rgb(44.099426%, 58.21991%, 76.499939%)" offset="0.605469"/><stop stop-opacity="1" stop-color="rgb(43.899536%, 57.998657%, 76.499939%)" offset="0.609375"/><stop stop-opacity="1" stop-color="rgb(43.890381%, 57.798767%, 76.499939%)" offset="0.613281"/><stop stop-opacity="1" stop-color="rgb(43.881226%, 57.598877%, 76.499939%)" offset="0.617188"/><stop stop-opacity="1" stop-color="rgb(43.690491%, 57.449341%, 76.298523%)" offset="0.621094"/><stop stop-opacity="1" stop-color="rgb(43.499756%, 57.299805%, 76.098633%)" offset="0.625"/><stop stop-opacity="1" stop-color="rgb(43.309021%, 57.098389%, 76.098633%)" offset="0.628906"/><stop stop-opacity="1" stop-color="rgb(43.118286%, 56.898499%, 76.098633%)" offset="0.632812"/><stop stop-opacity="1" stop-color="rgb(43.109131%, 56.698608%, 76.098633%)" offset="0.636719"/><stop stop-opacity="1" stop-color="rgb(43.099976%, 56.498718%, 76.098633%)" offset="0.640625"/><stop stop-opacity="1" stop-color="rgb(42.89856%, 56.277466%, 76.098633%)" offset="0.644531"/><stop stop-opacity="1" stop-color="rgb(42.698669%, 56.056213%, 76.098633%)" offset="0.648438"/><stop stop-opacity="1" stop-color="rgb(42.689514%, 55.865479%, 76.098633%)" offset="0.65625"/><stop stop-opacity="1" stop-color="rgb(42.539978%, 55.484009%, 75.898743%)" offset="0.660156"/><stop stop-opacity="1" stop-color="rgb(42.399597%, 55.293274%, 75.698853%)" offset="0.664062"/><stop stop-opacity="1" stop-color="rgb(42.205811%, 55.096436%, 75.698853%)" offset="0.667969"/><stop stop-opacity="1" stop-color="rgb(42.012024%, 54.899597%, 75.698853%)" offset="0.671875"/><stop stop-opacity="1" stop-color="rgb(42.00592%, 54.699707%, 75.698853%)" offset="0.675781"/><stop stop-opacity="1" stop-color="rgb(41.999817%, 54.499817%, 75.698853%)" offset="0.679688"/><stop stop-opacity="1" stop-color="rgb(41.798401%, 54.124451%, 75.698853%)" offset="0.683594"/><stop stop-opacity="1" stop-color="rgb(41.598511%, 53.749084%, 75.698853%)" offset="0.6875"/><stop stop-opacity="1" stop-color="rgb(41.398621%, 53.523254%, 75.683594%)" offset="0.691406"/><stop stop-opacity="1" stop-color="rgb(41.19873%, 53.29895%, 75.668335%)" offset="0.695312"/><stop stop-opacity="1" stop-color="rgb(41.192627%, 53.09906%, 75.483704%)" offset="0.699219"/><stop stop-opacity="1" stop-color="rgb(41.186523%, 52.89917%, 75.299072%)" offset="0.703125"/><stop stop-opacity="1" stop-color="rgb(40.992737%, 52.702332%, 75.299072%)" offset="0.707031"/><stop stop-opacity="1" stop-color="rgb(40.79895%, 52.505493%, 75.299072%)" offset="0.710938"/><stop stop-opacity="1" stop-color="rgb(40.611267%, 52.362061%, 75.299072%)" offset="0.71875"/><stop stop-opacity="1" stop-color="rgb(40.411377%, 52.030945%, 75.299072%)" offset="0.726562"/><stop stop-opacity="1" stop-color="rgb(40.19928%, 51.620483%, 75.099182%)" offset="0.730469"/><stop stop-opacity="1" stop-color="rgb(39.99939%, 51.399231%, 74.899292%)" offset="0.734375"/><stop stop-opacity="1" stop-color="rgb(39.7995%, 51.199341%, 74.899292%)" offset="0.738281"/><stop stop-opacity="1" stop-color="rgb(39.599609%, 50.999451%, 74.899292%)" offset="0.742188"/><stop stop-opacity="1" stop-color="rgb(39.599609%, 50.799561%, 74.899292%)" offset="0.746094"/><stop stop-opacity="1" stop-color="rgb(39.599609%, 50.59967%, 74.899292%)" offset="0.75"/><stop stop-opacity="1" stop-color="rgb(39.399719%, 50.39978%, 74.899292%)" offset="0.753906"/><stop stop-opacity="1" stop-color="rgb(39.199829%, 50.19989%, 74.899292%)" offset="0.757812"/><stop stop-opacity="1" stop-color="rgb(39.01825%, 49.998474%, 74.899292%)" offset="0.761719"/><stop stop-opacity="1" stop-color="rgb(38.83667%, 49.798584%, 74.899292%)" offset="0.765625"/><stop stop-opacity="1" stop-color="rgb(38.795471%, 49.577332%, 74.699402%)" offset="0.769531"/><stop stop-opacity="1" stop-color="rgb(38.755798%, 49.356079%, 74.499512%)" offset="0.773438"/><stop stop-opacity="1" stop-color="rgb(38.577271%, 49.165344%, 74.499512%)" offset="0.78125"/><stop stop-opacity="1" stop-color="rgb(38.395691%, 48.783875%, 74.499512%)" offset="0.789062"/><stop stop-opacity="1" stop-color="rgb(38.195801%, 48.396301%, 74.499512%)" offset="0.792969"/><stop stop-opacity="1" stop-color="rgb(37.998962%, 48.199463%, 74.499512%)" offset="0.796875"/><stop stop-opacity="1" stop-color="rgb(37.814331%, 47.999573%, 74.31488%)" offset="0.800781"/><stop stop-opacity="1" stop-color="rgb(37.631226%, 47.799683%, 74.130249%)" offset="0.804688"/><stop stop-opacity="1" stop-color="rgb(37.614441%, 47.47467%, 74.11499%)" offset="0.808594"/><stop stop-opacity="1" stop-color="rgb(37.599182%, 47.149658%, 74.099731%)" offset="0.8125"/><stop stop-opacity="1" stop-color="rgb(37.44812%, 46.923828%, 74.099731%)" offset="0.816406"/><stop stop-opacity="1" stop-color="rgb(37.298584%, 46.699524%, 74.099731%)" offset="0.820312"/><stop stop-opacity="1" stop-color="rgb(37.098694%, 46.499634%, 74.099731%)" offset="0.824219"/><stop stop-opacity="1" stop-color="rgb(36.898804%, 46.299744%, 74.099731%)" offset="0.828125"/><stop stop-opacity="1" stop-color="rgb(36.898804%, 46.102905%, 74.099731%)" offset="0.832031"/><stop stop-opacity="1" stop-color="rgb(36.898804%, 45.906067%, 74.099731%)" offset="0.835938"/><stop stop-opacity="1" stop-color="rgb(36.698914%, 45.715332%, 73.899841%)" offset="0.839844"/><stop stop-opacity="1" stop-color="rgb(36.499023%, 45.524597%, 73.699951%)" offset="0.84375"/><stop stop-opacity="1" stop-color="rgb(36.320496%, 45.333862%, 73.699951%)" offset="0.851562"/><stop stop-opacity="1" stop-color="rgb(36.102295%, 44.920349%, 73.699951%)" offset="0.855469"/><stop stop-opacity="1" stop-color="rgb(36.062622%, 44.699097%, 73.699951%)" offset="0.859375"/><stop stop-opacity="1" stop-color="rgb(35.881042%, 44.499207%, 73.699951%)" offset="0.863281"/><stop stop-opacity="1" stop-color="rgb(35.699463%, 44.299316%, 73.699951%)" offset="0.867188"/><stop stop-opacity="1" stop-color="rgb(35.499573%, 44.099426%, 73.498535%)" offset="0.871094"/><stop stop-opacity="1" stop-color="rgb(35.299683%, 43.899536%, 73.298645%)" offset="0.875"/><stop stop-opacity="1" stop-color="rgb(35.299683%, 43.699646%, 73.298645%)" offset="0.878906"/><stop stop-opacity="1" stop-color="rgb(35.299683%, 43.499756%, 73.298645%)" offset="0.882812"/><stop stop-opacity="1" stop-color="rgb(35.099792%, 43.299866%, 73.298645%)" offset="0.886719"/><stop stop-opacity="1" stop-color="rgb(34.899902%, 43.099976%, 73.298645%)" offset="0.890625"/><stop stop-opacity="1" stop-color="rgb(34.698486%, 42.883301%, 73.298645%)" offset="0.894531"/><stop stop-opacity="1" stop-color="rgb(34.498596%, 42.666626%, 73.298645%)" offset="0.898438"/><stop stop-opacity="1" stop-color="rgb(34.486389%, 42.520142%, 73.298645%)" offset="0.90625"/><stop stop-opacity="1" stop-color="rgb(34.286499%, 42.182922%, 73.098755%)" offset="0.910156"/><stop stop-opacity="1" stop-color="rgb(34.098816%, 41.993713%, 72.898865%)" offset="0.914062"/><stop stop-opacity="1" stop-color="rgb(33.905029%, 41.795349%, 72.898865%)" offset="0.917969"/><stop stop-opacity="1" stop-color="rgb(33.711243%, 41.598511%, 72.898865%)" offset="0.921875"/><stop stop-opacity="1" stop-color="rgb(33.705139%, 41.398621%, 72.898865%)" offset="0.925781"/><stop stop-opacity="1" stop-color="rgb(33.699036%, 41.19873%, 72.898865%)" offset="0.929688"/><stop stop-opacity="1" stop-color="rgb(33.52356%, 40.823364%, 72.898865%)" offset="0.933594"/><stop stop-opacity="1" stop-color="rgb(33.349609%, 40.449524%, 72.898865%)" offset="0.9375"/><stop stop-opacity="1" stop-color="rgb(33.308411%, 40.223694%, 72.883606%)" offset="0.941406"/><stop stop-opacity="1" stop-color="rgb(33.268738%, 39.99939%, 72.868347%)" offset="0.945312"/><stop stop-opacity="1" stop-color="rgb(33.084106%, 39.7995%, 72.683716%)" offset="0.949219"/><stop stop-opacity="1" stop-color="rgb(32.899475%, 39.599609%, 72.499084%)" offset="0.953125"/><stop stop-opacity="1" stop-color="rgb(32.702637%, 39.402771%, 72.499084%)" offset="0.957031"/><stop stop-opacity="1" stop-color="rgb(32.505798%, 39.205933%, 72.499084%)" offset="0.960938"/><stop stop-opacity="1" stop-color="rgb(32.502747%, 39.015198%, 72.499084%)" offset="0.96875"/><stop stop-opacity="1" stop-color="rgb(32.348633%, 38.633728%, 72.499084%)" offset="0.976562"/><stop stop-opacity="1" stop-color="rgb(31.999207%, 38.220215%, 72.348022%)" offset="0.980469"/><stop stop-opacity="1" stop-color="rgb(31.799316%, 37.998962%, 72.198486%)" offset="0.984375"/><stop stop-opacity="1" stop-color="rgb(31.790161%, 37.799072%, 72.198486%)" offset="0.988281"/><stop stop-opacity="1" stop-color="rgb(31.781006%, 37.599182%, 72.198486%)" offset="0.992188"/><stop stop-opacity="1" stop-color="rgb(31.590271%, 37.44812%, 72.198486%)" offset="1"/></linearGradient><clipPath id="2a26fdc370"><path d="M 90.507812 96.683594 L 284.738281 96.683594 L 284.738281 278.183594 L 90.507812 278.183594 Z M 90.507812 96.683594 " clip-rule="nonzero"/></clipPath></defs><g clip-path="url(#ab8b3256cd)"><g clip-path="url(#25e6265d79)"><g clip-path="url(#73ff747cff)"><path fill="url(#e23706e9de)" d="M 126.738281 108.933594 L 126.738281 275.183594 L 254.148438 275.183594 L 254.148438 108.933594 Z M 126.738281 108.933594 " fill-rule="nonzero"/></g></g></g><g clip-path="url(#2a26fdc370)"><path fill="#373a64" d="M 244.6875 117.566406 C 244.683594 117.570312 244.683594 117.574219 244.679688 117.578125 C 244.675781 117.578125 244.675781 117.582031 244.675781 117.585938 C 244.660156 117.601562 244.644531 117.617188 244.632812 117.632812 C 244.613281 117.648438 244.617188 117.636719 244.6875 117.566406 Z M 239.003906 112.105469 C 239.003906 112.101562 239.007812 112.101562 239.007812 112.097656 C 239.027344 112.078125 239.050781 112.046875 239.070312 112.019531 C 239.082031 112.027344 239.054688 112.078125 239.003906 112.105469 Z M 204.878906 138.664062 C 204.878906 138.667969 204.875 138.671875 204.871094 138.671875 C 204.871094 138.675781 204.867188 138.679688 204.867188 138.683594 C 204.851562 138.699219 204.839844 138.714844 204.824219 138.730469 C 204.804688 138.746094 204.808594 138.734375 204.878906 138.664062 Z M 199.195312 133.203125 C 199.199219 133.199219 199.199219 133.199219 199.199219 133.195312 C 199.21875 133.175781 199.246094 133.144531 199.265625 133.117188 C 199.273438 133.125 199.25 133.175781 199.195312 133.203125 Z M 166.886719 125.816406 C 166.886719 125.820312 166.882812 125.824219 166.882812 125.828125 C 166.878906 125.832031 166.875 125.835938 166.875 125.839844 C 166.859375 125.855469 166.847656 125.871094 166.832031 125.886719 C 166.8125 125.902344 166.816406 125.886719 166.886719 125.816406 Z M 161.203125 120.359375 C 161.207031 120.355469 161.207031 120.351562 161.207031 120.351562 C 161.226562 120.332031 161.253906 120.300781 161.273438 120.273438 C 161.28125 120.28125 161.257812 120.332031 161.203125 120.359375 Z M 133.1875 154.34375 C 133.183594 154.347656 133.179688 154.351562 133.179688 154.355469 C 133.175781 154.359375 133.175781 154.359375 133.171875 154.363281 C 133.160156 154.378906 133.144531 154.394531 133.132812 154.410156 C 133.113281 154.425781 133.113281 154.414062 133.1875 154.34375 Z M 126.742188 151.449219 C 126.75 151.320312 126.761719 151.195312 126.773438 151.070312 C 126.785156 151.003906 126.796875 150.9375 126.808594 150.871094 C 126.859375 150.605469 126.921875 150.347656 126.996094 150.089844 C 127.066406 149.84375 127.152344 149.605469 127.234375 149.363281 C 127.242188 149.339844 127.25 149.320312 127.253906 149.308594 C 127.269531 149.28125 127.285156 149.253906 127.296875 149.230469 C 127.359375 149.109375 127.429688 148.996094 127.5 148.882812 C 127.496094 148.886719 127.492188 148.890625 127.488281 148.890625 C 127.492188 148.890625 127.5 148.882812 127.507812 148.875 C 127.511719 148.867188 127.519531 148.855469 127.523438 148.847656 C 127.550781 148.804688 127.566406 148.792969 127.570312 148.796875 C 127.578125 148.785156 127.585938 148.777344 127.59375 148.769531 C 127.671875 148.683594 127.757812 148.601562 127.84375 148.519531 C 127.933594 148.4375 128.023438 148.359375 128.113281 148.28125 C 128.15625 148.25 128.195312 148.214844 128.238281 148.179688 C 128.242188 148.175781 128.246094 148.175781 128.246094 148.171875 C 128.253906 148.167969 128.257812 148.164062 128.265625 148.160156 C 128.679688 147.863281 129.109375 147.621094 129.566406 147.398438 C 129.566406 147.394531 129.566406 147.394531 129.570312 147.394531 C 129.613281 147.378906 129.65625 147.359375 129.703125 147.34375 C 129.804688 147.304688 129.90625 147.273438 130.007812 147.242188 C 130.136719 147.199219 130.265625 147.167969 130.394531 147.136719 C 130.417969 147.132812 130.480469 147.125 130.542969 147.117188 C 130.585938 147.128906 130.628906 147.144531 130.667969 147.15625 C 130.804688 147.207031 130.945312 147.261719 131.082031 147.3125 C 131.304688 147.398438 131.53125 147.480469 131.75 147.578125 C 131.777344 147.589844 131.804688 147.601562 131.820312 147.609375 C 131.886719 147.640625 131.953125 147.667969 132.019531 147.703125 C 132.160156 147.769531 132.300781 147.847656 132.4375 147.929688 C 132.535156 147.988281 132.632812 148.058594 132.730469 148.125 C 132.773438 148.164062 132.820312 148.207031 132.867188 148.246094 C 132.871094 148.25 132.875 148.253906 132.875 148.253906 C 132.882812 148.261719 132.890625 148.265625 132.898438 148.273438 C 132.988281 148.355469 133.070312 148.445312 133.152344 148.535156 C 133.1875 148.570312 133.21875 148.609375 133.25 148.648438 C 133.25 148.648438 133.253906 148.648438 133.253906 148.652344 C 133.394531 148.851562 133.523438 149.058594 133.632812 149.28125 C 133.632812 149.28125 133.632812 149.285156 133.632812 149.285156 C 133.636719 149.296875 133.691406 149.421875 133.699219 149.449219 C 133.746094 149.582031 133.785156 149.71875 133.820312 149.855469 C 133.832031 149.914062 133.847656 149.972656 133.859375 150.03125 C 133.863281 150.058594 133.878906 150.117188 133.886719 150.160156 C 133.902344 150.28125 133.90625 150.410156 133.910156 150.53125 C 133.9375 151.125 133.875 151.71875 133.796875 152.308594 C 133.738281 152.742188 133.667969 153.171875 133.542969 153.589844 C 133.507812 153.703125 133.46875 153.816406 133.425781 153.925781 C 133.421875 153.945312 133.417969 153.957031 133.410156 153.96875 C 133.390625 154 133.371094 154.035156 133.363281 154.050781 C 133.308594 154.152344 133.246094 154.246094 133.1875 154.34375 C 133.195312 154.332031 133.207031 154.320312 133.222656 154.308594 C 133.203125 154.324219 133.1875 154.34375 133.171875 154.363281 C 133.15625 154.386719 133.140625 154.402344 133.132812 154.410156 C 133.109375 154.4375 133.089844 154.460938 133.070312 154.484375 C 132.992188 154.566406 132.910156 154.648438 132.824219 154.726562 C 132.792969 154.753906 132.761719 154.777344 132.730469 154.804688 C 132.726562 154.808594 132.726562 154.808594 132.722656 154.808594 C 132.527344 154.9375 132.332031 155.058594 132.121094 155.164062 C 132.097656 155.171875 131.882812 155.296875 132.050781 155.199219 C 132.210938 155.105469 132.003906 155.214844 131.972656 155.226562 C 131.878906 155.261719 131.78125 155.292969 131.683594 155.324219 C 131.574219 155.355469 131.460938 155.382812 131.351562 155.410156 C 131.289062 155.421875 131.222656 155.4375 131.164062 155.449219 C 131.15625 155.449219 131.152344 155.449219 131.148438 155.449219 C 131.058594 155.445312 130.566406 155.488281 130.515625 155.484375 C 130.398438 155.484375 130.285156 155.480469 130.167969 155.472656 C 130.121094 155.46875 130.074219 155.464844 130.023438 155.457031 C 130.023438 155.457031 130.019531 155.457031 130.019531 155.457031 C 129.792969 155.414062 129.570312 155.367188 129.347656 155.296875 C 129.25 155.269531 129.15625 155.230469 129.058594 155.199219 C 129.054688 155.199219 129.050781 155.199219 129.050781 155.195312 C 128.992188 155.167969 128.933594 155.144531 128.875 155.113281 C 128.6875 155.019531 128.503906 154.914062 128.328125 154.792969 C 128.289062 154.765625 128.253906 154.742188 128.21875 154.714844 C 128.21875 154.714844 128.214844 154.710938 128.214844 154.710938 C 128.125 154.632812 128.03125 154.554688 127.945312 154.472656 C 127.878906 154.40625 127.808594 154.335938 127.746094 154.265625 C 127.71875 154.238281 127.5625 154.023438 127.519531 154 C 127.503906 153.976562 127.488281 153.957031 127.472656 153.9375 C 127.40625 153.839844 127.339844 153.734375 127.28125 153.632812 C 127.167969 153.445312 127.082031 153.25 126.984375 153.054688 C 127.136719 153.363281 126.988281 153.046875 126.957031 152.960938 C 126.921875 152.847656 126.886719 152.734375 126.855469 152.617188 C 126.828125 152.511719 126.804688 152.40625 126.785156 152.300781 C 126.777344 152.265625 126.769531 152.230469 126.765625 152.195312 C 126.746094 151.945312 126.730469 151.699219 126.742188 151.449219 Z M 127.230469 149.359375 C 127.226562 149.367188 127.222656 149.378906 127.21875 149.386719 C 127.222656 149.378906 127.226562 149.367188 127.230469 149.359375 Z M 130.789062 147.0625 C 130.785156 147.066406 130.78125 147.066406 130.773438 147.070312 C 130.777344 147.066406 130.785156 147.0625 130.789062 147.0625 Z M 133.425781 153.941406 C 133.4375 153.914062 133.445312 153.886719 133.449219 153.875 C 133.449219 153.890625 133.441406 153.914062 133.425781 153.941406 Z M 127.558594 154.054688 C 127.546875 154.039062 127.539062 154.027344 127.527344 154.015625 C 127.570312 154.066406 127.65625 154.191406 127.558594 154.054688 Z M 160.445312 122.921875 C 160.453125 122.796875 160.464844 122.671875 160.476562 122.546875 C 160.488281 122.480469 160.496094 122.410156 160.511719 122.34375 C 160.5625 122.082031 160.625 121.820312 160.699219 121.5625 C 160.769531 121.320312 160.855469 121.078125 160.9375 120.839844 C 160.945312 120.8125 160.953125 120.796875 160.957031 120.78125 C 160.972656 120.757812 160.988281 120.726562 161 120.703125 C 161.058594 120.582031 161.132812 120.472656 161.203125 120.359375 C 161.199219 120.359375 161.195312 120.363281 161.191406 120.367188 C 161.195312 120.363281 161.203125 120.355469 161.207031 120.351562 C 161.214844 120.339844 161.222656 120.332031 161.226562 120.320312 C 161.253906 120.28125 161.269531 120.269531 161.273438 120.273438 C 161.28125 120.261719 161.289062 120.25 161.296875 120.246094 C 161.375 120.160156 161.460938 120.074219 161.546875 119.992188 C 161.632812 119.914062 161.726562 119.835938 161.816406 119.757812 C 161.859375 119.722656 161.898438 119.6875 161.941406 119.65625 C 161.945312 119.652344 161.945312 119.648438 161.949219 119.648438 C 161.957031 119.644531 161.960938 119.640625 161.96875 119.636719 C 162.382812 119.339844 162.8125 119.097656 163.269531 118.871094 C 163.316406 118.851562 163.359375 118.835938 163.40625 118.816406 C 163.507812 118.78125 163.609375 118.746094 163.710938 118.714844 C 163.839844 118.675781 163.96875 118.640625 164.097656 118.609375 C 164.121094 118.605469 164.179688 118.597656 164.246094 118.589844 C 164.289062 118.605469 164.328125 118.617188 164.371094 118.632812 C 164.507812 118.683594 164.644531 118.734375 164.785156 118.785156 C 165.007812 118.871094 165.234375 118.957031 165.453125 119.050781 C 165.480469 119.0625 165.507812 119.074219 165.523438 119.082031 C 165.589844 119.113281 165.65625 119.144531 165.71875 119.175781 C 165.863281 119.246094 166.003906 119.320312 166.140625 119.402344 C 166.238281 119.464844 166.335938 119.53125 166.433594 119.597656 C 166.488281 119.648438 166.542969 119.695312 166.597656 119.746094 C 166.6875 119.828125 166.773438 119.917969 166.855469 120.007812 C 166.890625 120.046875 166.921875 120.085938 166.953125 120.121094 C 166.953125 120.125 166.957031 120.125 166.957031 120.125 C 167.097656 120.328125 167.226562 120.535156 167.332031 120.753906 C 167.335938 120.757812 167.335938 120.757812 167.335938 120.761719 C 167.339844 120.773438 167.394531 120.898438 167.402344 120.921875 C 167.449219 121.058594 167.488281 121.191406 167.523438 121.328125 C 167.535156 121.386719 167.550781 121.445312 167.5625 121.503906 C 167.566406 121.53125 167.578125 121.59375 167.589844 121.636719 C 167.605469 121.757812 167.609375 121.882812 167.613281 122.007812 C 167.640625 122.601562 167.578125 123.195312 167.5 123.785156 C 167.441406 124.214844 167.371094 124.644531 167.242188 125.0625 C 167.210938 125.179688 167.171875 125.289062 167.128906 125.402344 C 167.125 125.417969 167.117188 125.429688 167.113281 125.441406 C 167.09375 125.476562 167.074219 125.507812 167.066406 125.523438 C 167.011719 125.625 166.949219 125.71875 166.886719 125.816406 C 166.898438 125.808594 166.910156 125.796875 166.925781 125.78125 C 166.90625 125.800781 166.890625 125.820312 166.875 125.839844 C 166.859375 125.859375 166.84375 125.878906 166.832031 125.886719 C 166.8125 125.910156 166.792969 125.9375 166.773438 125.957031 C 166.695312 126.042969 166.613281 126.125 166.527344 126.199219 C 166.496094 126.226562 166.464844 126.253906 166.433594 126.28125 C 166.429688 126.28125 166.429688 126.28125 166.425781 126.285156 C 166.230469 126.410156 166.035156 126.535156 165.824219 126.636719 C 165.800781 126.648438 165.585938 126.773438 165.75 126.675781 C 165.914062 126.582031 165.707031 126.691406 165.675781 126.703125 C 165.582031 126.738281 165.484375 126.769531 165.386719 126.796875 C 165.277344 126.832031 165.164062 126.859375 165.050781 126.882812 C 164.992188 126.898438 164.925781 126.910156 164.863281 126.921875 C 164.859375 126.921875 164.855469 126.921875 164.851562 126.925781 C 164.761719 126.921875 164.269531 126.960938 164.21875 126.960938 C 164.101562 126.960938 163.988281 126.957031 163.871094 126.945312 C 163.824219 126.941406 163.777344 126.9375 163.726562 126.933594 C 163.726562 126.933594 163.722656 126.933594 163.722656 126.933594 C 163.496094 126.890625 163.269531 126.84375 163.050781 126.773438 C 162.953125 126.742188 162.855469 126.707031 162.761719 126.671875 C 162.757812 126.671875 162.753906 126.671875 162.75 126.671875 C 162.695312 126.644531 162.636719 126.617188 162.578125 126.589844 C 162.390625 126.496094 162.207031 126.386719 162.03125 126.265625 C 161.992188 126.242188 161.957031 126.214844 161.921875 126.1875 C 161.921875 126.1875 161.917969 126.1875 161.917969 126.1875 C 161.828125 126.105469 161.734375 126.027344 161.648438 125.945312 C 161.578125 125.878906 161.511719 125.808594 161.445312 125.738281 C 161.421875 125.714844 161.265625 125.5 161.222656 125.472656 C 161.207031 125.453125 161.191406 125.429688 161.175781 125.410156 C 161.109375 125.3125 161.042969 125.210938 160.980469 125.109375 C 160.871094 124.921875 160.785156 124.726562 160.6875 124.53125 C 160.839844 124.835938 160.691406 124.519531 160.660156 124.4375 C 160.625 124.324219 160.589844 124.207031 160.558594 124.089844 C 160.53125 123.988281 160.507812 123.882812 160.484375 123.777344 C 160.480469 123.742188 160.472656 123.707031 160.46875 123.671875 C 160.449219 123.421875 160.433594 123.171875 160.445312 122.921875 Z M 160.933594 120.832031 C 160.929688 120.84375 160.925781 120.851562 160.921875 120.863281 C 160.925781 120.851562 160.929688 120.84375 160.933594 120.832031 Z M 164.492188 118.535156 C 164.488281 118.539062 164.484375 118.542969 164.476562 118.542969 C 164.480469 118.542969 164.488281 118.539062 164.492188 118.535156 Z M 167.128906 125.414062 C 167.140625 125.390625 167.148438 125.363281 167.152344 125.351562 C 167.152344 125.367188 167.144531 125.390625 167.128906 125.414062 Z M 161.261719 125.527344 C 161.25 125.515625 161.242188 125.5 161.230469 125.488281 C 161.273438 125.539062 161.355469 125.667969 161.261719 125.527344 Z M 199.183594 133.210938 C 199.1875 133.207031 199.195312 133.203125 199.199219 133.195312 C 199.207031 133.1875 199.210938 133.175781 199.21875 133.167969 C 199.246094 133.125 199.261719 133.113281 199.265625 133.117188 C 199.273438 133.105469 199.28125 133.097656 199.285156 133.089844 C 199.367188 133.003906 199.453125 132.917969 199.539062 132.839844 C 199.625 132.757812 199.71875 132.679688 199.808594 132.601562 C 199.851562 132.566406 199.890625 132.535156 199.933594 132.5 C 199.9375 132.496094 199.9375 132.496094 199.941406 132.492188 C 199.949219 132.488281 199.953125 132.484375 199.957031 132.480469 C 200.375 132.183594 200.804688 131.941406 201.261719 131.714844 C 201.308594 131.699219 201.351562 131.679688 201.398438 131.664062 C 201.5 131.625 201.601562 131.589844 201.703125 131.558594 C 201.832031 131.519531 201.960938 131.484375 202.089844 131.457031 C 202.113281 131.449219 202.171875 131.441406 202.238281 131.433594 C 202.28125 131.449219 202.320312 131.464844 202.359375 131.476562 C 202.5 131.527344 202.636719 131.578125 202.777344 131.632812 C 203 131.71875 203.226562 131.800781 203.445312 131.894531 C 203.472656 131.90625 203.5 131.921875 203.515625 131.929688 C 203.582031 131.957031 203.648438 131.988281 203.710938 132.019531 C 203.855469 132.089844 203.996094 132.164062 204.128906 132.246094 C 204.230469 132.308594 204.328125 132.375 204.425781 132.445312 C 204.480469 132.492188 204.535156 132.539062 204.589844 132.589844 C 204.679688 132.675781 204.765625 132.761719 204.847656 132.855469 C 204.882812 132.890625 204.910156 132.929688 204.945312 132.964844 C 204.945312 132.96875 204.945312 132.96875 204.949219 132.96875 C 205.066406 133.140625 205.171875 133.316406 205.269531 133.496094 C 205.273438 133.503906 205.277344 133.507812 205.277344 133.515625 C 205.292969 133.542969 205.3125 133.570312 205.324219 133.597656 C 205.328125 133.601562 205.328125 133.605469 205.328125 133.605469 C 205.332031 133.617188 205.386719 133.742188 205.394531 133.769531 C 205.441406 133.902344 205.480469 134.039062 205.515625 134.175781 C 205.527344 134.234375 205.542969 134.292969 205.554688 134.351562 C 205.558594 134.375 205.570312 134.4375 205.582031 134.480469 C 205.597656 134.601562 205.601562 134.730469 205.605469 134.851562 C 205.632812 135.445312 205.570312 136.039062 205.492188 136.628906 C 205.433594 137.0625 205.359375 137.492188 205.234375 137.910156 C 205.203125 138.023438 205.164062 138.132812 205.121094 138.246094 C 205.113281 138.261719 205.109375 138.277344 205.105469 138.285156 C 205.085938 138.320312 205.066406 138.351562 205.054688 138.367188 C 205.003906 138.46875 204.941406 138.5625 204.878906 138.664062 C 204.890625 138.652344 204.902344 138.640625 204.914062 138.628906 C 204.898438 138.644531 204.882812 138.664062 204.867188 138.683594 C 204.851562 138.703125 204.835938 138.722656 204.824219 138.730469 C 204.804688 138.753906 204.785156 138.78125 204.765625 138.800781 C 204.6875 138.886719 204.605469 138.96875 204.519531 139.042969 C 204.488281 139.074219 204.457031 139.097656 204.425781 139.125 C 204.421875 139.125 204.421875 139.128906 204.417969 139.128906 C 204.21875 139.253906 204.027344 139.378906 203.816406 139.480469 C 203.792969 139.492188 203.574219 139.617188 203.742188 139.519531 C 203.90625 139.425781 203.699219 139.535156 203.667969 139.546875 C 203.570312 139.582031 203.476562 139.613281 203.378906 139.644531 C 203.269531 139.675781 203.15625 139.703125 203.042969 139.730469 C 202.980469 139.742188 202.917969 139.753906 202.855469 139.765625 C 202.851562 139.765625 202.847656 139.765625 202.84375 139.769531 C 202.753906 139.765625 202.261719 139.804688 202.210938 139.804688 C 202.09375 139.804688 201.980469 139.800781 201.863281 139.789062 C 201.816406 139.789062 201.769531 139.78125 201.71875 139.777344 C 201.714844 139.777344 201.714844 139.777344 201.714844 139.777344 C 201.488281 139.734375 201.261719 139.6875 201.042969 139.617188 C 200.945312 139.589844 200.847656 139.550781 200.753906 139.519531 C 200.75 139.515625 200.746094 139.515625 200.742188 139.515625 C 200.6875 139.488281 200.628906 139.464844 200.570312 139.433594 C 200.378906 139.339844 200.195312 139.230469 200.023438 139.113281 C 199.984375 139.085938 199.949219 139.058594 199.914062 139.035156 C 199.910156 139.03125 199.910156 139.03125 199.910156 139.03125 C 199.820312 138.949219 199.726562 138.875 199.640625 138.789062 C 199.570312 138.722656 199.503906 138.65625 199.4375 138.585938 C 199.414062 138.558594 199.257812 138.34375 199.210938 138.316406 C 199.199219 138.296875 199.183594 138.277344 199.167969 138.253906 C 199.101562 138.15625 199.035156 138.054688 198.972656 137.953125 C 198.863281 137.765625 198.777344 137.570312 198.679688 137.375 C 198.832031 137.679688 198.683594 137.367188 198.652344 137.28125 C 198.613281 137.167969 198.578125 137.050781 198.550781 136.9375 C 198.523438 136.832031 198.5 136.726562 198.476562 136.621094 C 198.472656 136.585938 198.464844 136.550781 198.460938 136.515625 C 198.441406 136.265625 198.425781 136.019531 198.4375 135.765625 C 198.445312 135.640625 198.457031 135.515625 198.46875 135.390625 C 198.480469 135.324219 198.488281 135.257812 198.503906 135.1875 C 198.554688 134.925781 198.617188 134.664062 198.691406 134.410156 C 198.753906 134.199219 198.824219 133.992188 198.894531 133.785156 C 198.917969 133.734375 198.9375 133.679688 198.949219 133.628906 C 198.949219 133.625 198.949219 133.625 198.949219 133.621094 C 198.964844 133.597656 198.980469 133.570312 198.992188 133.546875 C 199.050781 133.425781 199.125 133.316406 199.195312 133.203125 C 199.191406 133.207031 199.1875 133.207031 199.183594 133.210938 Z M 202.480469 131.378906 C 202.480469 131.382812 202.472656 131.386719 202.46875 131.386719 C 202.472656 131.386719 202.480469 131.382812 202.480469 131.378906 Z M 205.121094 138.261719 C 205.128906 138.234375 205.140625 138.207031 205.144531 138.195312 C 205.144531 138.210938 205.132812 138.234375 205.121094 138.261719 Z M 199.253906 138.371094 C 199.242188 138.359375 199.234375 138.347656 199.222656 138.332031 C 199.265625 138.386719 199.347656 138.511719 199.253906 138.371094 Z M 238.273438 114.292969 C 238.285156 114.226562 238.296875 114.160156 238.308594 114.09375 C 238.359375 113.828125 238.425781 113.566406 238.5 113.3125 C 238.570312 113.066406 238.652344 112.828125 238.738281 112.585938 C 238.746094 112.5625 238.75 112.542969 238.753906 112.53125 C 238.769531 112.503906 238.785156 112.476562 238.796875 112.453125 C 238.859375 112.328125 238.929688 112.21875 239.003906 112.105469 C 239 112.109375 238.996094 112.109375 238.988281 112.113281 C 238.992188 112.109375 239 112.105469 239.007812 112.097656 C 239.011719 112.089844 239.019531 112.078125 239.027344 112.070312 C 239.050781 112.027344 239.066406 112.015625 239.070312 112.019531 C 239.082031 112.007812 239.089844 112 239.09375 111.992188 C 239.175781 111.90625 239.257812 111.820312 239.34375 111.742188 C 239.433594 111.660156 239.523438 111.582031 239.617188 111.503906 C 239.65625 111.46875 239.699219 111.4375 239.742188 111.402344 C 239.742188 111.398438 239.746094 111.398438 239.75 111.394531 C 239.753906 111.390625 239.757812 111.386719 239.765625 111.382812 C 240.179688 111.085938 240.609375 110.84375 241.066406 110.617188 C 241.070312 110.617188 241.070312 110.617188 241.070312 110.617188 C 241.113281 110.601562 241.160156 110.582031 241.203125 110.566406 C 241.304688 110.527344 241.40625 110.492188 241.511719 110.460938 C 241.636719 110.421875 241.765625 110.386719 241.898438 110.359375 C 241.921875 110.351562 241.980469 110.347656 242.046875 110.335938 C 242.085938 110.351562 242.128906 110.367188 242.167969 110.378906 C 242.304688 110.429688 242.445312 110.480469 242.582031 110.535156 C 242.804688 110.621094 243.03125 110.703125 243.253906 110.796875 C 243.277344 110.808594 243.304688 110.824219 243.324219 110.832031 C 243.390625 110.859375 243.453125 110.890625 243.519531 110.921875 C 243.660156 110.992188 243.800781 111.066406 243.9375 111.148438 C 244.039062 111.210938 244.132812 111.277344 244.230469 111.347656 C 244.285156 111.394531 244.34375 111.441406 244.394531 111.492188 C 244.488281 111.578125 244.574219 111.664062 244.65625 111.757812 C 244.6875 111.792969 244.71875 111.832031 244.75 111.867188 C 244.753906 111.871094 244.753906 111.871094 244.753906 111.871094 C 244.894531 112.074219 245.023438 112.28125 245.132812 112.503906 C 245.132812 112.503906 245.136719 112.507812 245.136719 112.507812 C 245.136719 112.519531 245.191406 112.644531 245.199219 112.671875 C 245.25 112.804688 245.289062 112.941406 245.320312 113.078125 C 245.335938 113.136719 245.347656 113.195312 245.359375 113.253906 C 245.367188 113.28125 245.378906 113.339844 245.386719 113.382812 C 245.40625 113.503906 245.40625 113.632812 245.414062 113.753906 C 245.4375 114.347656 245.375 114.941406 245.300781 115.53125 C 245.238281 115.960938 245.167969 116.394531 245.042969 116.8125 C 245.007812 116.925781 244.96875 117.039062 244.929688 117.148438 C 244.921875 117.164062 244.917969 117.179688 244.914062 117.191406 C 244.894531 117.222656 244.871094 117.253906 244.863281 117.269531 C 244.808594 117.371094 244.746094 117.464844 244.6875 117.566406 C 244.699219 117.554688 244.707031 117.542969 244.722656 117.53125 C 244.707031 117.546875 244.691406 117.566406 244.675781 117.585938 C 244.660156 117.605469 244.644531 117.625 244.632812 117.632812 C 244.613281 117.660156 244.59375 117.683594 244.574219 117.707031 C 244.496094 117.789062 244.410156 117.871094 244.324219 117.949219 C 244.292969 117.976562 244.261719 118 244.230469 118.027344 C 244.230469 118.027344 244.226562 118.03125 244.226562 118.03125 C 244.027344 118.15625 243.835938 118.28125 243.625 118.382812 C 243.601562 118.394531 243.382812 118.519531 243.550781 118.421875 C 243.710938 118.328125 243.503906 118.4375 243.472656 118.449219 C 243.378906 118.484375 243.28125 118.515625 243.183594 118.546875 C 243.074219 118.578125 242.964844 118.605469 242.851562 118.632812 C 242.789062 118.644531 242.726562 118.65625 242.664062 118.667969 C 242.660156 118.671875 242.65625 118.671875 242.652344 118.671875 C 242.5625 118.667969 242.066406 118.710938 242.015625 118.707031 C 241.902344 118.707031 241.785156 118.703125 241.671875 118.695312 C 241.621094 118.691406 241.574219 118.683594 241.527344 118.679688 C 241.523438 118.679688 241.523438 118.679688 241.519531 118.679688 C 241.292969 118.636719 241.070312 118.589844 240.847656 118.519531 C 240.75 118.492188 240.65625 118.453125 240.558594 118.421875 C 240.554688 118.417969 240.554688 118.417969 240.550781 118.417969 C 240.492188 118.390625 240.433594 118.367188 240.378906 118.335938 C 240.1875 118.242188 240.003906 118.132812 239.828125 118.015625 C 239.792969 117.988281 239.757812 117.960938 239.71875 117.9375 C 239.71875 117.933594 239.71875 117.933594 239.714844 117.933594 C 239.625 117.851562 239.535156 117.777344 239.449219 117.691406 C 239.378906 117.625 239.3125 117.558594 239.246094 117.488281 C 239.222656 117.460938 239.0625 117.246094 239.019531 117.21875 C 239.003906 117.199219 238.992188 117.179688 238.976562 117.15625 C 238.90625 117.058594 238.84375 116.957031 238.78125 116.855469 C 238.671875 116.667969 238.582031 116.472656 238.488281 116.277344 C 238.636719 116.582031 238.488281 116.269531 238.460938 116.183594 C 238.421875 116.070312 238.386719 115.953125 238.355469 115.839844 C 238.328125 115.734375 238.304688 115.628906 238.285156 115.523438 C 238.277344 115.488281 238.273438 115.453125 238.265625 115.417969 C 238.257812 115.308594 238.25 115.199219 238.246094 115.089844 C 238.246094 115.066406 238.246094 115.035156 238.246094 115.011719 C 238.242188 114.898438 238.238281 114.785156 238.246094 114.667969 C 238.25 114.542969 238.265625 114.417969 238.273438 114.292969 Z M 238.730469 112.578125 C 238.726562 112.589844 238.722656 112.601562 238.71875 112.609375 C 238.722656 112.597656 238.726562 112.589844 238.730469 112.578125 Z M 242.289062 110.28125 C 242.285156 110.285156 242.28125 110.289062 242.273438 110.292969 C 242.28125 110.289062 242.285156 110.285156 242.289062 110.28125 Z M 244.925781 117.164062 C 244.9375 117.136719 244.949219 117.109375 244.949219 117.097656 C 244.953125 117.113281 244.941406 117.136719 244.925781 117.164062 Z M 239.058594 117.277344 C 239.050781 117.261719 239.039062 117.25 239.03125 117.234375 C 239.074219 117.289062 239.15625 117.414062 239.058594 117.277344 Z M 130.476562 157.785156 C 131.890625 157.808594 133.277344 157.332031 134.363281 156.425781 C 135.476562 155.5 135.859375 154.117188 136.042969 152.742188 C 136.050781 152.6875 136.058594 152.632812 136.0625 152.582031 C 136.070312 152.535156 136.078125 152.484375 136.085938 152.4375 C 136.253906 151.171875 136.332031 149.839844 135.84375 148.632812 C 135.679688 148.234375 135.476562 147.859375 135.238281 147.511719 C 138.191406 144.507812 141.113281 141.472656 144.15625 138.566406 C 147.425781 135.445312 150.847656 132.488281 154.242188 129.503906 C 155.71875 128.203125 157.191406 126.90625 158.664062 125.609375 C 158.667969 125.613281 158.667969 125.621094 158.671875 125.625 C 159.613281 127.8125 161.808594 129.21875 164.179688 129.257812 C 165.59375 129.285156 166.980469 128.804688 168.066406 127.902344 C 169.179688 126.976562 169.5625 125.589844 169.746094 124.214844 C 169.753906 124.160156 169.761719 124.109375 169.765625 124.054688 C 169.773438 124.007812 169.78125 123.960938 169.789062 123.910156 C 169.820312 123.683594 169.84375 123.457031 169.867188 123.226562 C 173.21875 124.222656 176.441406 125.632812 179.664062 126.976562 C 183.46875 128.566406 187.277344 130.152344 191.082031 131.742188 C 192.859375 132.480469 194.636719 133.222656 196.417969 133.964844 C 196.363281 134.183594 196.3125 134.402344 196.273438 134.621094 C 196.03125 135.949219 196.128906 137.226562 196.664062 138.46875 C 197.605469 140.65625 199.800781 142.0625 202.171875 142.105469 C 203.585938 142.128906 204.972656 141.648438 206.058594 140.746094 C 207.171875 139.820312 207.554688 138.433594 207.738281 137.0625 C 207.746094 137.007812 207.753906 136.953125 207.757812 136.898438 C 207.765625 136.851562 207.773438 136.804688 207.78125 136.753906 C 207.921875 135.671875 208 134.539062 207.710938 133.476562 C 211.34375 131.039062 215.023438 128.675781 218.753906 126.394531 C 220.757812 125.167969 222.777344 123.96875 224.808594 122.789062 C 226.824219 121.621094 228.835938 120.441406 230.925781 119.410156 C 232.695312 118.535156 234.546875 117.824219 236.289062 116.902344 C 236.34375 117.058594 236.402344 117.214844 236.46875 117.371094 C 237.410156 119.558594 239.605469 120.964844 241.976562 121.007812 C 243.394531 121.03125 244.78125 120.550781 245.867188 119.648438 C 246.980469 118.722656 247.359375 117.335938 247.546875 115.964844 C 247.554688 115.910156 247.558594 115.855469 247.5625 115.800781 C 247.574219 115.757812 247.582031 115.707031 247.585938 115.660156 C 247.753906 114.394531 247.832031 113.0625 247.34375 111.851562 C 246.867188 110.671875 246.042969 109.675781 244.914062 109.058594 C 244.339844 108.746094 243.71875 108.515625 243.113281 108.285156 C 242.773438 108.160156 242.429688 108 242.0625 108.015625 C 241.703125 108.03125 241.320312 108.121094 240.976562 108.222656 C 239.769531 108.574219 238.667969 109.246094 237.746094 110.089844 C 236.777344 110.976562 236.3125 112.257812 236.082031 113.523438 C 236.023438 113.832031 235.988281 114.140625 235.96875 114.445312 C 234.25 115.457031 232.382812 116.195312 230.574219 117.035156 C 228.46875 118.015625 226.457031 119.183594 224.449219 120.339844 C 220.378906 122.6875 216.363281 125.125 212.40625 127.652344 C 210.46875 128.890625 208.546875 130.148438 206.636719 131.429688 C 206.214844 130.917969 205.703125 130.480469 205.105469 130.15625 C 204.535156 129.84375 203.914062 129.613281 203.304688 129.382812 C 202.964844 129.257812 202.621094 129.097656 202.253906 129.113281 C 201.898438 129.125 201.511719 129.21875 201.167969 129.320312 C 199.964844 129.671875 198.863281 130.34375 197.941406 131.1875 C 197.710938 131.394531 197.511719 131.628906 197.335938 131.875 C 193.789062 130.398438 190.242188 128.917969 186.695312 127.4375 C 182.941406 125.871094 179.199219 124.253906 175.417969 122.753906 C 173.5625 122.019531 171.6875 121.339844 169.765625 120.808594 C 169.710938 120.570312 169.636719 120.335938 169.542969 120.105469 C 169.066406 118.925781 168.242188 117.925781 167.113281 117.308594 C 166.542969 116.996094 165.921875 116.769531 165.3125 116.539062 C 164.972656 116.410156 164.628906 116.25 164.261719 116.265625 C 163.90625 116.28125 163.519531 116.375 163.175781 116.476562 C 161.972656 116.828125 160.871094 117.5 159.949219 118.339844 C 158.980469 119.226562 158.511719 120.511719 158.28125 121.777344 C 158.207031 122.1875 158.167969 122.59375 158.160156 122.996094 C 154.828125 125.929688 151.484375 128.855469 148.160156 131.800781 C 146.464844 133.300781 144.78125 134.8125 143.132812 136.367188 C 141.507812 137.902344 139.929688 139.488281 138.355469 141.078125 C 136.757812 142.695312 135.164062 144.3125 133.566406 145.929688 C 133.515625 145.898438 133.464844 145.863281 133.410156 145.835938 C 132.839844 145.523438 132.21875 145.292969 131.609375 145.066406 C 131.273438 144.9375 130.929688 144.777344 130.558594 144.792969 C 130.203125 144.808594 129.816406 144.898438 129.472656 145 C 128.269531 145.355469 127.167969 146.023438 126.246094 146.867188 C 125.277344 147.753906 124.8125 149.039062 124.578125 150.304688 C 124.335938 151.628906 124.433594 152.90625 124.96875 154.148438 C 125.910156 156.335938 128.105469 157.742188 130.476562 157.785156 Z M 127.5 148.882812 C 127.503906 148.882812 127.503906 148.878906 127.507812 148.875 C 127.527344 148.855469 127.550781 148.824219 127.570312 148.796875 C 127.578125 148.804688 127.554688 148.855469 127.5 148.882812 Z M 136.984375 171.714844 C 138.125 171.636719 139.265625 171.519531 140.402344 171.382812 C 140.402344 172.183594 140.402344 172.984375 140.402344 173.785156 C 140.402344 175.128906 140.402344 176.46875 140.402344 177.8125 C 140.402344 179.441406 140.402344 181.070312 140.402344 182.703125 C 140.402344 184.488281 140.402344 186.273438 140.402344 188.058594 C 140.402344 189.859375 140.402344 191.664062 140.402344 193.464844 C 140.402344 195.152344 140.402344 196.84375 140.402344 198.53125 C 140.402344 199.949219 140.402344 201.371094 140.402344 202.789062 C 140.402344 203.8125 140.402344 204.832031 140.402344 205.855469 C 140.402344 205.964844 140.402344 206.070312 140.398438 206.179688 C 138.9375 206.128906 137.472656 206.082031 136.011719 206.066406 C 135.824219 206.0625 135.636719 206.0625 135.453125 206.058594 C 135.363281 206.058594 135.273438 206.058594 135.1875 206.058594 C 135.058594 206.058594 134.933594 206.054688 134.804688 206.054688 C 134.695312 206.054688 134.582031 206.058594 134.472656 206.058594 C 134.300781 206.0625 134.128906 206.0625 133.953125 206.066406 C 133.828125 206.066406 133.703125 206.070312 133.578125 206.070312 C 133.453125 206.074219 133.332031 206.074219 133.207031 206.078125 C 130.4375 206.140625 127.671875 206.347656 124.910156 206.5625 C 123.730469 206.65625 122.550781 206.746094 121.371094 206.828125 C 121.371094 205.980469 121.371094 205.136719 121.371094 204.289062 C 121.371094 202.929688 121.371094 201.570312 121.371094 200.210938 C 121.371094 198.546875 121.371094 196.878906 121.371094 195.214844 C 121.371094 193.394531 121.371094 191.578125 121.371094 189.761719 C 121.371094 187.925781 121.371094 186.089844 121.371094 184.257812 C 121.371094 182.546875 121.371094 180.835938 121.371094 179.125 C 121.371094 177.679688 121.371094 176.234375 121.371094 174.789062 C 121.371094 173.746094 121.371094 172.707031 121.371094 171.667969 C 121.371094 171.558594 121.371094 171.453125 121.371094 171.347656 C 126.566406 171.691406 131.78125 172.066406 136.984375 171.714844 Z M 163.1875 147.496094 C 166.292969 147.4375 169.398438 147.238281 172.5 147.015625 C 173.875 146.914062 175.25 146.816406 176.628906 146.714844 C 176.8125 154.355469 176.9375 161.992188 176.996094 169.632812 C 177.058594 177.683594 177.046875 185.734375 176.96875 193.78125 C 176.929688 197.941406 176.867188 202.097656 176.789062 206.253906 C 173.234375 206.269531 169.679688 206.28125 166.121094 206.289062 C 163.566406 206.296875 161.007812 206.300781 158.453125 206.304688 C 157.34375 206.304688 156.234375 206.304688 155.125 206.304688 C 155.265625 198.695312 155.347656 191.082031 155.367188 183.46875 C 155.382812 175.511719 155.332031 167.558594 155.214844 159.605469 C 155.152344 155.511719 155.070312 151.421875 154.972656 147.335938 C 157.710938 147.460938 160.445312 147.546875 163.1875 147.496094 Z M 200.355469 156.523438 C 203.476562 156.472656 206.597656 156.300781 209.714844 156.109375 C 211.089844 156.027344 212.460938 155.9375 213.832031 155.855469 C 214.011719 162.285156 214.136719 168.71875 214.195312 175.148438 C 214.257812 181.988281 214.253906 188.828125 214.179688 195.667969 C 214.140625 199.144531 214.082031 202.621094 214.011719 206.09375 C 208.136719 206.121094 202.261719 206.152344 196.382812 206.175781 C 195.035156 206.179688 193.6875 206.1875 192.339844 206.191406 C 192.476562 199.777344 192.554688 193.359375 192.566406 186.941406 C 192.582031 180.175781 192.53125 173.410156 192.414062 166.644531 C 192.351562 163.222656 192.273438 159.804688 192.179688 156.382812 C 194.902344 156.492188 197.625 156.566406 200.355469 156.523438 Z M 239.4375 134.414062 C 242.5625 134.347656 245.679688 134.105469 248.792969 133.839844 C 250.183594 133.71875 251.570312 133.597656 252.957031 133.472656 C 253.144531 142.792969 253.273438 152.109375 253.332031 161.429688 C 253.390625 171.167969 253.382812 180.902344 253.304688 190.640625 C 253.261719 195.75 253.199219 200.855469 253.121094 205.964844 C 252.730469 205.964844 252.34375 205.964844 251.957031 205.964844 C 250.867188 205.96875 249.777344 205.972656 248.6875 205.972656 C 244.511719 205.980469 240.339844 205.992188 236.167969 206.007812 C 234.597656 206.011719 233.023438 206.019531 231.453125 206.023438 C 231.597656 196.738281 231.683594 187.453125 231.703125 178.164062 C 231.71875 168.542969 231.671875 158.921875 231.550781 149.300781 C 231.488281 144.273438 231.402344 139.246094 231.300781 134.21875 C 234.011719 134.367188 236.722656 134.472656 239.4375 134.414062 Z M 109.328125 209.230469 C 112.945312 209.546875 116.5625 209.4375 120.175781 209.210938 C 120.191406 209.207031 120.207031 209.210938 120.21875 209.210938 C 120.417969 209.195312 120.613281 209.179688 120.8125 209.167969 C 121.296875 209.132812 121.78125 209.101562 122.265625 209.066406 C 122.3125 209.0625 122.355469 209.058594 122.402344 209.054688 C 123.757812 208.953125 125.113281 208.84375 126.46875 208.742188 C 131.484375 208.363281 136.441406 208.363281 141.464844 208.519531 C 141.492188 208.519531 141.523438 208.519531 141.554688 208.519531 C 141.558594 208.519531 141.566406 208.519531 141.570312 208.519531 C 143.828125 208.589844 146.085938 208.585938 148.339844 208.59375 C 152.367188 208.609375 156.394531 208.609375 160.421875 208.601562 C 161.039062 208.601562 161.660156 208.597656 162.28125 208.597656 C 163.128906 208.597656 163.980469 208.59375 164.828125 208.589844 C 167.1875 208.585938 169.546875 208.578125 171.90625 208.570312 C 171.929688 208.570312 171.957031 208.570312 171.980469 208.570312 C 172.039062 208.570312 172.09375 208.570312 172.152344 208.570312 C 173.539062 208.566406 174.925781 208.5625 176.3125 208.558594 C 176.824219 208.554688 177.335938 208.554688 177.847656 208.550781 C 177.871094 208.550781 177.898438 208.550781 177.921875 208.550781 C 183.433594 208.53125 188.941406 208.507812 194.449219 208.484375 C 200.8125 208.457031 207.175781 208.425781 213.539062 208.398438 C 219.289062 208.375 225.039062 208.347656 230.785156 208.328125 C 231.414062 208.324219 232.046875 208.320312 232.675781 208.320312 C 237.910156 208.300781 243.144531 208.28125 248.378906 208.269531 C 249.484375 208.269531 250.589844 208.269531 251.695312 208.265625 C 252.546875 208.265625 253.402344 208.265625 254.253906 208.265625 C 254.265625 208.265625 254.277344 208.261719 254.285156 208.261719 C 256.613281 208.261719 258.941406 208.261719 261.265625 208.265625 C 263.894531 208.273438 266.519531 208.273438 269.148438 208.328125 C 269.476562 208.335938 269.808594 208.34375 270.140625 208.355469 C 271.621094 208.410156 271.621094 206.109375 270.140625 206.054688 C 267.996094 205.976562 265.847656 205.984375 263.699219 205.976562 C 260.941406 205.964844 258.183594 205.960938 255.421875 205.964844 C 255.570312 196.613281 255.652344 187.261719 255.671875 177.90625 C 255.6875 168.171875 255.636719 158.433594 255.511719 148.699219 C 255.441406 143.207031 255.351562 137.714844 255.234375 132.226562 C 255.222656 131.648438 254.714844 131.019531 254.085938 131.078125 C 247.886719 131.632812 241.671875 132.273438 235.441406 132.101562 C 233.667969 132.050781 231.898438 131.957031 230.128906 131.851562 C 229.515625 131.816406 228.964844 132.40625 228.976562 133 C 229.175781 142.667969 229.304688 152.339844 229.367188 162.011719 C 229.425781 171.632812 229.414062 181.257812 229.332031 190.878906 C 229.292969 195.929688 229.226562 200.984375 229.148438 206.035156 C 225.480469 206.050781 221.8125 206.0625 218.148438 206.078125 C 217.535156 206.082031 216.925781 206.085938 216.316406 206.085938 C 216.449219 199.632812 216.527344 193.179688 216.539062 186.722656 C 216.554688 179.882812 216.5 173.046875 216.378906 166.207031 C 216.308594 162.351562 216.214844 158.492188 216.105469 154.636719 C 216.085938 154.042969 215.589844 153.449219 214.953125 153.488281 C 208.722656 153.855469 202.496094 154.339844 196.253906 154.214844 C 194.5 154.179688 192.746094 154.109375 190.996094 154.035156 C 190.386719 154.007812 189.828125 154.582031 189.84375 155.183594 C 190.039062 161.984375 190.167969 168.78125 190.226562 175.585938 C 190.289062 182.351562 190.28125 189.117188 190.207031 195.882812 C 190.167969 199.324219 190.109375 202.761719 190.035156 206.203125 C 186.886719 206.214844 183.734375 206.230469 180.582031 206.242188 C 180.085938 206.246094 179.589844 206.246094 179.09375 206.246094 C 179.238281 198.585938 179.320312 190.921875 179.335938 183.253906 C 179.351562 175.207031 179.300781 167.15625 179.179688 159.105469 C 179.109375 154.566406 179.015625 150.023438 178.902344 145.484375 C 178.886719 144.898438 178.386719 144.289062 177.75 144.335938 C 171.550781 144.796875 165.339844 145.324219 159.117188 145.1875 C 157.339844 145.148438 155.566406 145.066406 153.792969 144.980469 C 153.183594 144.949219 152.628906 145.53125 152.644531 146.128906 C 152.839844 154.121094 152.96875 162.117188 153.027344 170.113281 C 153.085938 178.066406 153.078125 186.023438 153 193.976562 C 152.960938 198.085938 152.898438 202.195312 152.824219 206.304688 C 152.179688 206.304688 151.539062 206.304688 150.898438 206.304688 C 148.167969 206.296875 145.433594 206.296875 142.707031 206.246094 C 142.707031 205.390625 142.707031 204.53125 142.707031 203.667969 C 142.707031 202.328125 142.707031 200.988281 142.707031 199.644531 C 142.707031 198.015625 142.707031 196.382812 142.707031 194.753906 C 142.707031 192.96875 142.707031 191.183594 142.707031 189.398438 C 142.707031 187.59375 142.707031 185.792969 142.707031 183.988281 C 142.707031 182.300781 142.707031 180.613281 142.707031 178.925781 C 142.707031 177.507812 142.707031 176.085938 142.707031 174.664062 C 142.707031 173.644531 142.707031 172.621094 142.707031 171.601562 C 142.707031 171.117188 142.714844 170.632812 142.707031 170.148438 C 142.703125 170.125 142.707031 170.105469 142.707031 170.085938 C 142.707031 170.078125 142.703125 170.074219 142.703125 170.070312 C 142.707031 169.96875 142.695312 169.871094 142.664062 169.777344 C 142.574219 169.5 142.402344 169.230469 142.136719 169.09375 C 142.132812 169.089844 142.132812 169.089844 142.132812 169.089844 C 141.960938 168.984375 141.761719 168.925781 141.554688 168.933594 C 141.476562 168.9375 141.398438 168.949219 141.320312 168.96875 C 141.296875 168.96875 141.273438 168.972656 141.246094 168.976562 C 141.15625 168.988281 141.0625 169 140.96875 169.015625 C 140.953125 169.015625 140.941406 169.019531 140.929688 169.019531 C 140.921875 169.023438 140.914062 169.023438 140.902344 169.023438 C 140.75 169.042969 140.59375 169.0625 140.4375 169.082031 C 140.097656 169.125 139.753906 169.164062 139.414062 169.203125 C 138.730469 169.277344 138.042969 169.335938 137.359375 169.386719 C 135.980469 169.488281 134.597656 169.542969 133.210938 169.554688 C 130.433594 169.578125 127.652344 169.441406 124.878906 169.269531 C 123.324219 169.171875 121.773438 169.074219 120.21875 168.972656 C 119.597656 168.933594 119.066406 169.53125 119.066406 170.121094 C 119.066406 170.460938 119.066406 170.796875 119.066406 171.132812 C 119.066406 172.054688 119.066406 172.972656 119.066406 173.890625 C 119.066406 175.25 119.066406 176.609375 119.066406 177.96875 C 119.066406 179.636719 119.066406 181.300781 119.066406 182.96875 C 119.066406 184.785156 119.066406 186.601562 119.066406 188.421875 C 119.066406 190.253906 119.066406 192.089844 119.066406 193.925781 C 119.066406 195.636719 119.066406 197.347656 119.066406 199.058594 C 119.066406 200.503906 119.066406 201.949219 119.066406 203.394531 C 119.066406 204.433594 119.066406 205.476562 119.066406 206.515625 C 119.066406 206.671875 119.066406 206.828125 119.066406 206.984375 C 118.59375 207.007812 118.125 207.035156 117.65625 207.054688 C 114.878906 207.175781 112.097656 207.171875 109.328125 206.933594 C 107.851562 206.804688 107.859375 209.101562 109.328125 209.230469 Z M 184.347656 229.875 C 184.074219 230.113281 183.800781 230.351562 183.519531 230.574219 C 183.46875 230.617188 183.417969 230.65625 183.367188 230.695312 C 183.378906 230.683594 183.390625 230.675781 183.402344 230.667969 C 183.390625 230.675781 183.382812 230.683594 183.371094 230.6875 C 183.371094 230.691406 183.367188 230.691406 183.363281 230.695312 C 183.359375 230.691406 183.355469 230.6875 183.351562 230.6875 C 183.066406 230.496094 182.789062 230.292969 182.511719 230.089844 C 182.457031 230.046875 182.40625 230.007812 182.351562 229.964844 C 182.328125 229.949219 182.308594 229.933594 182.285156 229.914062 C 182.113281 229.777344 181.941406 229.640625 181.773438 229.503906 C 181.207031 229.039062 180.640625 228.558594 180.132812 228.03125 C 180.160156 227.992188 180.1875 227.957031 180.214844 227.917969 C 180.441406 227.632812 180.683594 227.359375 180.925781 227.089844 C 181.542969 226.414062 182.195312 225.765625 182.878906 225.148438 C 183.03125 225.011719 183.1875 224.875 183.34375 224.742188 C 183.386719 224.710938 183.425781 224.675781 183.464844 224.644531 C 183.542969 224.710938 183.621094 224.773438 183.699219 224.84375 C 184.121094 225.214844 184.523438 225.609375 184.910156 226.019531 C 185.121094 226.242188 185.324219 226.472656 185.523438 226.703125 C 185.617188 226.808594 185.703125 226.914062 185.792969 227.023438 C 185.832031 227.074219 185.871094 227.121094 185.910156 227.171875 C 186.058594 227.367188 186.203125 227.570312 186.335938 227.78125 C 186.347656 227.796875 186.355469 227.816406 186.367188 227.832031 C 186.359375 227.839844 186.355469 227.851562 186.347656 227.859375 C 186.242188 227.988281 186.136719 228.117188 186.023438 228.238281 C 185.5 228.820312 184.929688 229.359375 184.347656 229.875 Z M 183.730469 230.917969 C 183.925781 230.976562 183.851562 230.972656 183.730469 230.917969 Z M 183 230.933594 C 182.902344 230.980469 182.835938 230.988281 183 230.933594 Z M 183.691406 230.898438 C 183.6875 230.894531 183.679688 230.890625 183.675781 230.886719 C 183.695312 230.890625 183.695312 230.894531 183.691406 230.898438 Z M 183.976562 224.304688 C 183.90625 224.347656 183.859375 224.371094 183.820312 224.390625 C 183.828125 224.386719 183.839844 224.378906 183.847656 224.371094 C 183.890625 224.347656 183.933594 224.332031 183.976562 224.304688 Z M 188.734375 227.464844 C 188.710938 227.390625 188.679688 227.320312 188.640625 227.253906 C 188.15625 226.144531 187.300781 225.195312 186.472656 224.328125 C 186.054688 223.886719 185.617188 223.460938 185.15625 223.066406 C 184.605469 222.605469 183.957031 222 183.179688 222.171875 C 182.796875 222.257812 182.460938 222.53125 182.160156 222.765625 C 181.757812 223.074219 181.375 223.40625 181 223.75 C 180.214844 224.480469 179.457031 225.25 178.769531 226.070312 C 178.125 226.839844 177.308594 227.773438 177.851562 228.824219 C 178.035156 229.175781 178.339844 229.488281 178.621094 229.773438 C 178.96875 230.121094 179.335938 230.449219 179.714844 230.769531 C 180.523438 231.460938 181.367188 232.136719 182.261719 232.71875 C 182.59375 232.933594 182.988281 233.175781 183.398438 233.160156 C 183.824219 233.144531 184.175781 232.9375 184.507812 232.695312 C 185.351562 232.074219 186.144531 231.378906 186.890625 230.648438 C 187.242188 230.308594 187.585938 229.953125 187.902344 229.578125 C 188.222656 229.191406 188.558594 228.785156 188.714844 228.296875 C 188.75 228.179688 188.773438 228.050781 188.785156 227.917969 C 188.785156 227.914062 188.785156 227.90625 188.785156 227.898438 C 188.785156 227.894531 188.785156 227.886719 188.785156 227.878906 C 188.800781 227.746094 188.789062 227.605469 188.734375 227.464844 Z M 183.402344 230.667969 C 183.625 230.488281 183.492188 230.597656 183.402344 230.667969 Z M 274.167969 236.414062 C 271.011719 238.5625 267.125 237.550781 263.554688 237.484375 C 258.847656 237.402344 254.144531 237.671875 249.4375 237.796875 C 238.429688 238.089844 227.40625 238.113281 216.398438 238.164062 C 210.636719 238.191406 204.871094 238.203125 199.109375 238.140625 C 199.09375 238.140625 199.074219 238.136719 199.058594 238.136719 C 198.042969 238.128906 197.027344 238.113281 196.007812 238.097656 C 195.753906 238.09375 195.496094 238.089844 195.242188 238.085938 C 194.230469 238.070312 193.222656 238.050781 192.210938 238.023438 C 192.160156 238.023438 192.109375 238.023438 192.054688 238.019531 C 191.691406 238.011719 191.328125 238 190.960938 237.992188 C 190.835938 237.988281 190.710938 237.984375 190.585938 237.980469 C 190.285156 237.96875 189.984375 237.960938 189.683594 237.949219 C 189.414062 237.941406 189.144531 237.929688 188.871094 237.917969 C 188.210938 237.894531 187.550781 237.867188 186.886719 237.898438 C 186.640625 237.910156 186.390625 237.917969 186.144531 237.929688 C 185.539062 237.949219 184.933594 237.972656 184.328125 237.992188 C 182.335938 238.050781 180.34375 238.089844 178.351562 238.113281 C 178.335938 238.113281 178.324219 238.113281 178.308594 238.113281 C 177.621094 238.125 176.9375 238.128906 176.25 238.136719 C 175.953125 238.140625 175.652344 238.140625 175.355469 238.144531 C 174.171875 238.15625 172.984375 238.164062 171.800781 238.167969 C 170.90625 238.171875 170.007812 238.175781 169.113281 238.175781 C 168.46875 238.179688 167.824219 238.179688 167.179688 238.183594 C 167.167969 238.183594 167.160156 238.183594 167.148438 238.183594 C 154.613281 238.203125 142.078125 238.050781 129.542969 237.867188 C 126.007812 237.8125 122.472656 237.679688 118.9375 237.570312 C 116.585938 237.496094 114.234375 237.445312 111.882812 237.484375 C 109.691406 237.515625 107.480469 237.839844 105.296875 237.78125 C 97.800781 237.589844 95.390625 228.007812 94.640625 222.125 C 94.414062 220.359375 94.265625 218.582031 94.117188 216.804688 C 99.277344 216.746094 104.4375 216.695312 109.601562 216.644531 C 126.328125 216.488281 143.054688 216.371094 159.78125 216.222656 C 161.1875 216.210938 162.589844 216.199219 163.996094 216.191406 C 164.375 216.1875 164.753906 216.183594 165.132812 216.183594 C 166.34375 216.175781 167.554688 216.171875 168.765625 216.167969 C 169.339844 216.164062 169.917969 216.160156 170.492188 216.160156 C 171.21875 216.15625 171.945312 216.160156 172.671875 216.15625 C 173.734375 216.15625 174.800781 216.152344 175.863281 216.152344 C 176.246094 216.152344 176.625 216.15625 177.007812 216.15625 C 178.410156 216.15625 179.8125 216.15625 181.214844 216.160156 C 183.054688 216.167969 184.890625 216.171875 186.726562 216.179688 C 195.464844 216.207031 204.199219 216.234375 212.9375 216.257812 C 212.945312 216.257812 212.957031 216.257812 212.96875 216.257812 C 213.007812 216.261719 213.050781 216.261719 213.09375 216.261719 C 224.613281 216.296875 236.136719 216.328125 247.65625 216.363281 C 248.726562 216.367188 249.796875 216.371094 250.867188 216.371094 C 260.609375 216.398438 270.355469 216.429688 280.097656 216.445312 C 280.101562 216.445312 280.105469 216.445312 280.109375 216.445312 C 280.113281 216.445312 280.121094 216.445312 280.125 216.445312 C 280.46875 216.445312 280.8125 216.445312 281.160156 216.445312 C 280.84375 220.429688 280.523438 224.457031 279.324219 228.28125 C 278.390625 231.269531 276.847656 234.59375 274.167969 236.414062 Z M 198.601562 244.613281 C 198.898438 246.28125 199.179688 247.949219 199.613281 249.585938 C 200.066406 251.304688 200.710938 252.953125 201.414062 254.582031 C 202.09375 256.152344 202.792969 257.714844 203.519531 259.265625 C 204.074219 260.453125 204.648438 261.632812 205.230469 262.808594 C 200.855469 262.910156 196.480469 263.019531 192.105469 263.125 C 191.960938 263.128906 191.8125 263.132812 191.667969 263.132812 C 190.347656 263.164062 189.027344 263.195312 187.707031 263.230469 C 181.277344 263.382812 174.84375 263.535156 168.414062 263.6875 C 165.515625 263.757812 162.617188 263.828125 159.71875 263.898438 C 160.238281 263.109375 160.75 262.3125 161.261719 261.515625 C 162.164062 260.117188 163.089844 258.734375 163.894531 257.269531 C 165.785156 253.824219 167.214844 250.089844 167.898438 246.210938 C 168.230469 244.320312 168.40625 242.398438 168.371094 240.480469 C 168.835938 240.476562 169.300781 240.476562 169.761719 240.476562 C 170.167969 240.472656 170.574219 240.472656 170.980469 240.472656 C 171.578125 240.46875 172.171875 240.464844 172.769531 240.460938 C 173.421875 240.457031 174.074219 240.453125 174.726562 240.449219 C 175.089844 240.445312 175.449219 240.441406 175.8125 240.4375 C 176.585938 240.429688 177.363281 240.421875 178.136719 240.414062 C 178.25 240.410156 178.359375 240.410156 178.472656 240.410156 C 178.5625 240.40625 178.648438 240.40625 178.738281 240.402344 C 179.5 240.390625 180.265625 240.382812 181.027344 240.367188 C 182.804688 240.332031 184.578125 240.289062 186.351562 240.21875 C 186.628906 240.207031 186.90625 240.195312 187.183594 240.183594 C 187.734375 240.1875 188.285156 240.195312 188.832031 240.214844 C 188.921875 240.21875 189.011719 240.222656 189.105469 240.226562 C 189.578125 240.246094 190.054688 240.261719 190.53125 240.277344 C 193.015625 240.359375 195.503906 240.414062 197.992188 240.445312 C 198.121094 241.84375 198.355469 243.230469 198.601562 244.613281 Z M 224.261719 265.226562 C 224.078125 268.144531 224.148438 271.074219 224.230469 274 C 224.238281 274.15625 224.242188 274.308594 224.25 274.464844 C 219.148438 274.140625 214.035156 274.164062 208.929688 274.265625 C 203.429688 274.378906 197.929688 274.523438 192.429688 274.65625 C 181.402344 274.917969 170.375 275.183594 159.347656 275.445312 C 153.492188 275.585938 147.640625 275.726562 141.785156 275.867188 C 141.613281 274.300781 141.460938 272.734375 141.425781 271.164062 C 141.394531 269.648438 141.480469 268.144531 141.363281 266.640625 C 150.261719 266.425781 159.164062 266.210938 168.066406 265.996094 C 170.476562 265.9375 172.886719 265.882812 175.296875 265.824219 C 185.6875 265.574219 196.082031 265.324219 206.472656 265.082031 C 206.625 265.078125 206.777344 265.074219 206.929688 265.070312 C 212.707031 264.933594 218.492188 264.851562 224.261719 265.226562 Z M 92.855469 172.238281 C 93 157.820312 93.289062 143.398438 93.636719 128.980469 C 93.800781 122.191406 94.015625 115.113281 96.046875 108.574219 C 96.820312 106.089844 98.023438 103.523438 100.144531 101.910156 C 101.847656 100.613281 103.941406 99.945312 106.019531 99.539062 C 110.648438 98.636719 115.460938 99.019531 120.140625 99.214844 C 126.402344 99.480469 132.683594 99.328125 138.949219 99.476562 C 153.347656 99.816406 167.734375 100.566406 182.136719 100.601562 C 189.375 100.617188 196.613281 100.636719 203.851562 100.46875 C 210.996094 100.304688 218.136719 100.023438 225.28125 99.792969 C 232.5625 99.558594 239.84375 99.351562 247.132812 99.3125 C 249.792969 99.296875 252.449219 99.328125 255.109375 99.214844 C 257.429688 99.117188 259.75 98.996094 262.074219 98.992188 C 266.398438 98.984375 271.507812 99.175781 275.097656 101.910156 C 277.222656 103.523438 278.429688 106.089844 279.203125 108.574219 C 280.191406 111.753906 280.691406 115.097656 281.027344 118.398438 C 281.746094 125.382812 281.683594 132.441406 281.820312 139.453125 C 281.957031 146.710938 282.105469 153.96875 282.234375 161.226562 C 282.488281 175.714844 282.613281 190.214844 281.917969 204.695312 C 281.765625 207.847656 281.570312 211 281.335938 214.148438 C 277.15625 214.140625 272.976562 214.132812 268.796875 214.121094 C 265.28125 214.113281 261.765625 214.105469 258.253906 214.09375 C 257.242188 214.089844 256.226562 214.089844 255.214844 214.085938 C 247.332031 214.0625 239.453125 214.039062 231.570312 214.015625 C 226.863281 214.003906 222.152344 213.988281 217.441406 213.976562 C 206.351562 213.941406 195.261719 213.90625 184.171875 213.871094 C 178.832031 213.855469 173.492188 213.800781 168.152344 213.847656 C 145.746094 214.050781 123.339844 214.242188 100.933594 214.441406 C 98.601562 214.464844 96.269531 214.484375 93.933594 214.507812 C 92.875 200.445312 92.714844 186.335938 92.855469 172.238281 Z M 284.679688 170.910156 C 284.515625 156.207031 284.332031 141.484375 283.855469 126.789062 C 283.738281 123.257812 283.535156 119.730469 283.078125 116.222656 C 282.65625 112.980469 282.121094 109.664062 280.953125 106.59375 C 279.980469 104.039062 278.566406 101.644531 276.347656 99.988281 C 274.582031 98.671875 272.449219 97.882812 270.308594 97.421875 C 265.554688 96.390625 260.621094 96.675781 255.800781 96.886719 C 249.5 97.167969 243.175781 97.019531 236.871094 97.164062 C 222.21875 97.5 207.578125 98.273438 192.921875 98.300781 C 185.558594 98.316406 178.195312 98.332031 170.835938 98.15625 C 163.496094 97.980469 156.164062 97.691406 148.828125 97.457031 C 141.421875 97.222656 134.011719 97.023438 126.597656 97.007812 C 121.660156 96.996094 116.710938 96.601562 111.773438 96.707031 C 107.210938 96.800781 102.179688 97.355469 98.492188 100.300781 C 93.726562 104.109375 92.761719 111.304688 92.078125 116.949219 C 91.222656 124.027344 91.285156 131.203125 91.148438 138.320312 C 91.007812 145.703125 90.859375 153.085938 90.726562 160.464844 C 90.457031 175.269531 90.320312 190.085938 91.035156 204.878906 C 91.207031 208.476562 91.433594 212.074219 91.71875 215.667969 C 92.089844 220.097656 92.367188 224.625 93.703125 228.894531 C 94.722656 232.148438 96.34375 235.53125 99.035156 237.738281 C 100.238281 238.71875 101.628906 239.464844 103.144531 239.8125 C 105.066406 240.253906 106.96875 239.976562 108.910156 239.878906 C 113.734375 239.628906 118.570312 239.855469 123.394531 240.019531 C 137.207031 240.492188 151.0625 240.464844 164.878906 240.480469 C 165.277344 240.480469 165.675781 240.480469 166.070312 240.480469 C 166.082031 241.085938 166.078125 241.691406 166.046875 242.296875 C 166.023438 242.773438 165.988281 243.25 165.9375 243.726562 C 165.914062 243.964844 165.886719 244.203125 165.859375 244.441406 C 165.851562 244.476562 165.847656 244.515625 165.84375 244.554688 C 165.84375 244.558594 165.84375 244.558594 165.84375 244.5625 C 165.820312 244.703125 165.800781 244.84375 165.777344 244.988281 C 165.480469 246.890625 165.011719 248.773438 164.375 250.59375 C 164.21875 251.050781 164.046875 251.503906 163.871094 251.957031 C 163.789062 252.160156 163.707031 252.363281 163.625 252.566406 C 163.605469 252.609375 163.585938 252.652344 163.570312 252.699219 C 163.566406 252.707031 163.5625 252.710938 163.558594 252.722656 C 163.507812 252.835938 163.460938 252.953125 163.410156 253.066406 C 163.027344 253.933594 162.609375 254.789062 162.167969 255.625 C 161.378906 257.113281 160.464844 258.511719 159.550781 259.925781 C 158.679688 261.277344 157.8125 262.632812 156.910156 263.964844 C 151.296875 264.101562 145.683594 264.238281 140.066406 264.375 C 139.273438 264.394531 138.820312 265.089844 138.957031 265.828125 C 139.296875 267.632812 139.078125 269.503906 139.128906 271.328125 C 139.179688 273.238281 139.398438 275.140625 139.613281 277.039062 C 139.679688 277.644531 140.085938 278.203125 140.765625 278.1875 C 151.847656 277.925781 162.929688 277.660156 174.015625 277.394531 C 185.035156 277.128906 196.050781 276.859375 207.070312 276.605469 C 213.199219 276.464844 219.335938 276.382812 225.449219 276.84375 C 226.050781 276.886719 226.632812 276.277344 226.601562 275.695312 C 226.574219 275.128906 226.558594 274.5625 226.535156 274 C 226.4375 270.71875 226.363281 267.433594 226.640625 264.160156 C 226.695312 263.507812 226.066406 263.054688 225.488281 263.011719 C 219.925781 262.585938 214.339844 262.617188 208.765625 262.730469 C 208.4375 262.738281 208.105469 262.746094 207.777344 262.753906 C 206.347656 259.925781 204.996094 257.058594 203.726562 254.160156 C 203.644531 253.96875 203.558594 253.78125 203.476562 253.59375 C 203.441406 253.507812 203.402344 253.421875 203.367188 253.332031 C 203.339844 253.277344 203.316406 253.21875 203.292969 253.160156 C 203.289062 253.152344 203.285156 253.144531 203.28125 253.140625 C 203.121094 252.777344 202.976562 252.402344 202.832031 252.035156 C 202.53125 251.253906 202.257812 250.464844 202.023438 249.660156 C 201.550781 248.050781 201.242188 246.402344 200.953125 244.753906 C 200.789062 243.820312 200.621094 242.890625 200.480469 241.953125 C 200.460938 241.84375 200.445312 241.730469 200.429688 241.621094 C 200.421875 241.570312 200.417969 241.523438 200.410156 241.476562 C 200.410156 241.46875 200.410156 241.464844 200.40625 241.460938 C 200.40625 241.457031 200.40625 241.453125 200.40625 241.445312 C 200.378906 241.222656 200.351562 241 200.324219 240.773438 C 200.316406 240.671875 200.308594 240.570312 200.296875 240.46875 C 204.078125 240.496094 207.863281 240.484375 211.640625 240.476562 C 223.273438 240.457031 234.902344 240.316406 246.53125 240.152344 C 250.90625 240.089844 255.277344 239.851562 259.65625 239.785156 C 262.070312 239.746094 264.488281 239.765625 266.898438 239.910156 C 268.78125 240.019531 270.597656 240.230469 272.449219 239.722656 C 279.894531 237.6875 282.15625 228.371094 282.953125 221.78125 C 283.210938 219.625 283.378906 217.460938 283.554688 215.300781 C 284.707031 200.535156 284.847656 185.714844 284.679688 170.910156 " fill-opacity="1" fill-rule="nonzero"/></g></svg>