<svg xmlns="http://www.w3.org/2000/svg" xmlns:xlink="http://www.w3.org/1999/xlink" width="500" zoomAndPan="magnify" viewBox="0 0 375 374.999991" height="500" preserveAspectRatio="xMidYMid meet" version="1.0"><defs><clipPath id="ffe26f6cfe"><path d="M 76 69.5625 L 328 69.5625 L 328 239 L 76 239 Z M 76 69.5625 " clip-rule="nonzero"/></clipPath><clipPath id="fb80559afd"><path d="M 37.5 296 L 48 296 L 48 305.8125 L 37.5 305.8125 Z M 37.5 296 " clip-rule="nonzero"/></clipPath><clipPath id="30b4b5d5a4"><path d="M 240 168 L 337.5 168 L 337.5 230 L 240 230 Z M 240 168 " clip-rule="nonzero"/></clipPath><clipPath id="77e89a13ef"><path d="M 240 168 L 337.5 168 L 337.5 178 L 240 178 Z M 240 168 " clip-rule="nonzero"/></clipPath><clipPath id="7df0a527f1"><path d="M 239 168 L 337.5 168 L 337.5 230 L 239 230 Z M 239 168 " clip-rule="nonzero"/></clipPath></defs><path fill="#77abd5" d="M 174.289062 232.855469 L 245.332031 232.855469 L 258.25 267.945312 C 258.398438 268.351562 258.496094 268.769531 258.542969 269.199219 C 258.59375 269.625 258.589844 270.054688 258.535156 270.484375 C 258.480469 270.910156 258.375 271.324219 258.21875 271.726562 C 258.066406 272.128906 257.863281 272.507812 257.617188 272.863281 C 257.371094 273.214844 257.085938 273.535156 256.761719 273.820312 C 256.4375 274.105469 256.085938 274.347656 255.703125 274.546875 C 255.324219 274.746094 254.921875 274.898438 254.503906 275 C 254.085938 275.105469 253.660156 275.15625 253.230469 275.15625 L 166.394531 275.15625 C 165.960938 275.15625 165.539062 275.105469 165.121094 275 C 164.699219 274.898438 164.300781 274.746094 163.917969 274.546875 C 163.535156 274.347656 163.183594 274.105469 162.859375 273.820312 C 162.539062 273.535156 162.253906 273.214844 162.007812 272.863281 C 161.761719 272.507812 161.558594 272.128906 161.402344 271.726562 C 161.25 271.324219 161.144531 270.910156 161.089844 270.480469 C 161.035156 270.054688 161.03125 269.625 161.078125 269.199219 C 161.128906 268.769531 161.226562 268.351562 161.375 267.945312 Z M 174.289062 232.855469 " fill-opacity="1" fill-rule="nonzero"/><path fill="#1c3144" d="M 174.289062 232.855469 L 166.894531 252.945312 C 170.707031 252.460938 213.195312 247.039062 248.96875 242.730469 L 245.332031 232.855469 Z M 174.289062 232.855469 " fill-opacity="1" fill-rule="nonzero"/><g clip-path="url(#ffe26f6cfe)"><path fill="#77abd5" d="M 89.941406 69.5625 L 314.113281 69.5625 C 321.328125 69.5625 327.132812 75.378906 327.132812 82.601562 L 327.132812 225.484375 C 327.132812 232.707031 321.328125 238.523438 314.113281 238.523438 L 89.941406 238.523438 C 82.730469 238.523438 76.921875 232.707031 76.921875 225.484375 L 76.921875 82.601562 C 76.921875 75.378906 82.730469 69.5625 89.941406 69.5625 Z M 89.941406 69.5625 " fill-opacity="1" fill-rule="nonzero"/></g><path fill="#f9f9f9" d="M 86.707031 78.757812 L 317.351562 78.757812 L 317.351562 225.320312 L 86.707031 225.320312 Z M 86.707031 78.757812 " fill-opacity="1" fill-rule="nonzero"/><path fill="#c4c4c4" d="M 107.300781 205.933594 C 107.082031 205.933594 106.902344 206.011719 106.75 206.164062 C 106.597656 206.316406 106.519531 206.5 106.519531 206.714844 C 106.519531 206.929688 106.597656 207.113281 106.75 207.265625 C 106.902344 207.417969 107.085938 207.496094 107.300781 207.496094 L 233.386719 207.496094 C 233.601562 207.496094 233.78125 207.417969 233.933594 207.265625 C 234.085938 207.113281 234.164062 206.929688 234.164062 206.714844 C 234.164062 206.5 234.085938 206.316406 233.933594 206.164062 C 233.785156 206.011719 233.601562 205.933594 233.386719 205.933594 Z M 107.300781 205.933594 " fill-opacity="1" fill-rule="nonzero"/><path fill="#3f88c5" d="M 113.203125 142.007812 L 129.414062 142.007812 L 129.414062 201.542969 L 113.203125 201.542969 Z M 113.203125 142.007812 " fill-opacity="1" fill-rule="nonzero"/><path fill="#ffab00" d="M 145.890625 124.871094 L 162.101562 124.871094 L 162.101562 201.542969 L 145.890625 201.542969 Z M 145.890625 124.871094 " fill-opacity="1" fill-rule="nonzero"/><path fill="#3f88c5" d="M 178.582031 110.890625 L 194.792969 110.890625 L 194.792969 201.542969 L 178.582031 201.542969 Z M 178.582031 110.890625 " fill-opacity="1" fill-rule="nonzero"/><path fill="#ffab00" d="M 211.269531 104.125 L 227.480469 104.125 L 227.480469 201.542969 L 211.269531 201.542969 Z M 211.269531 104.125 " fill-opacity="1" fill-rule="nonzero"/><path fill="#f5987c" d="M 119.425781 167.582031 C 119.199219 167.839844 116.03125 171.144531 115.398438 171.785156 C 114.859375 172.332031 114.445312 172.226562 114.535156 171.925781 C 114.625 171.625 114.738281 170.519531 114.363281 169.878906 C 114.097656 169.429688 113.789062 169.429688 113.632812 169.472656 C 113.570312 169.488281 113.511719 169.5625 113.503906 169.625 C 112.847656 173.085938 111.398438 174.15625 111.023438 175.832031 C 110.996094 175.949219 110.980469 176.066406 110.972656 176.179688 L 108.503906 177.03125 L 112.710938 183.222656 L 114.378906 179.882812 C 116.6875 179.8125 119.367188 177.347656 119.605469 177.199219 C 120.113281 176.878906 121.980469 175.042969 122.40625 174.644531 C 122.585938 174.476562 122.667969 174.277344 122.613281 174.082031 C 122.5625 173.882812 122.378906 173.671875 122.082031 173.722656 C 121.78125 173.773438 120.070312 175.488281 119.753906 175.453125 C 119.4375 175.414062 119.507812 175.203125 119.675781 175.046875 C 119.84375 174.890625 122.75 172.097656 122.894531 171.960938 C 123.46875 171.421875 123.460938 171.007812 123.214844 170.773438 C 123.011719 170.582031 122.628906 170.589844 122.28125 170.910156 C 121.378906 171.746094 119.285156 173.695312 118.941406 173.75 C 118.554688 173.808594 118.496094 173.554688 118.613281 173.394531 C 118.871094 173.042969 121.765625 170 122.414062 169.332031 C 122.792969 168.941406 122.601562 168.632812 122.417969 168.414062 C 122.183594 168.128906 121.832031 168.28125 121.546875 168.488281 C 121.265625 168.691406 118.628906 171.328125 118.050781 171.753906 C 117.472656 172.179688 117.367188 172.3125 117.308594 172.054688 C 117.246094 171.796875 120.183594 168.667969 120.382812 168.28125 C 120.582031 167.894531 120.609375 167.578125 120.265625 167.335938 C 119.960938 167.152344 119.6875 167.308594 119.421875 167.582031 Z M 119.425781 167.582031 " fill-opacity="1" fill-rule="nonzero"/><path fill="#3f88c5" d="M 63.953125 168.070312 C 65.847656 167.945312 67.71875 168.507812 69.230469 169.652344 C 69.640625 169.972656 70.015625 170.328125 70.355469 170.71875 L 88.453125 187.902344 L 108.253906 175.84375 C 108.515625 175.761719 109.652344 174.402344 111.828125 177.140625 C 114 179.882812 113.0625 181.425781 112.609375 181.914062 L 92.019531 198.210938 C 90.046875 200.078125 87.164062 201.042969 84.230469 199.300781 L 59.714844 182.238281 C 56.246094 179.605469 55.5625 174.65625 58.191406 171.179688 C 59.570312 169.355469 61.675781 168.21875 63.953125 168.070312 Z M 63.953125 168.070312 " fill-opacity="1" fill-rule="nonzero"/><path fill="#2e5171" d="M 126.976562 162.316406 L 122.140625 159.917969 L 96.414062 211.894531 L 101.25 214.296875 Z M 126.976562 162.316406 " fill-opacity="1" fill-rule="nonzero"/><path fill="#c4c4c4" d="M 227.03125 86.070312 L 107.789062 129.445312 C 107.589844 129.515625 107.441406 129.652344 107.351562 129.847656 C 107.261719 130.042969 107.25 130.238281 107.324219 130.441406 C 107.398438 130.644531 107.53125 130.792969 107.726562 130.882812 C 107.921875 130.972656 108.121094 130.980469 108.324219 130.910156 L 227.5625 87.535156 C 227.765625 87.464844 227.910156 87.328125 228 87.132812 C 228.09375 86.9375 228.101562 86.742188 228.027344 86.539062 C 227.953125 86.335938 227.820312 86.1875 227.625 86.097656 C 227.429688 86.007812 227.230469 86 227.03125 86.070312 Z M 227.03125 86.070312 " fill-opacity="1" fill-rule="nonzero"/><path fill="#2e5171" d="M 146.527344 86.597656 C 147.875 86.777344 149.210938 87.023438 150.535156 87.335938 C 151.855469 87.644531 153.160156 88.019531 154.445312 88.460938 C 155.730469 88.898438 156.992188 89.402344 158.230469 89.964844 C 159.46875 90.527344 160.671875 91.148438 161.847656 91.832031 C 163.023438 92.515625 164.164062 93.253906 165.265625 94.046875 C 166.371094 94.839844 167.433594 95.6875 168.453125 96.585938 C 169.472656 97.484375 170.445312 98.433594 171.375 99.425781 C 172.300781 100.421875 173.175781 101.457031 174.003906 102.539062 C 174.828125 103.621094 175.597656 104.738281 176.316406 105.894531 C 177.03125 107.050781 177.6875 108.242188 178.289062 109.460938 C 178.886719 110.683594 179.425781 111.933594 179.902344 113.207031 C 180.378906 114.480469 180.792969 115.773438 181.140625 117.089844 C 181.492188 118.40625 181.773438 119.734375 181.996094 121.078125 C 182.214844 122.417969 182.367188 123.769531 182.453125 125.128906 C 182.539062 126.488281 182.5625 127.84375 182.515625 129.207031 C 182.46875 130.566406 182.355469 131.921875 182.175781 133.269531 C 181.996094 134.617188 181.753906 135.953125 181.441406 137.28125 C 181.132812 138.605469 180.757812 139.910156 180.316406 141.199219 C 179.878906 142.488281 179.378906 143.75 178.816406 144.988281 C 178.253906 146.226562 177.632812 147.4375 176.949219 148.613281 C 176.269531 149.789062 175.53125 150.933594 174.738281 152.035156 C 173.945312 153.140625 173.101562 154.207031 172.203125 155.226562 C 171.308594 156.25 170.363281 157.222656 169.371094 158.152344 C 168.375 159.082031 167.339844 159.960938 166.261719 160.785156 C 165.183594 161.613281 164.066406 162.386719 162.910156 163.101562 C 161.753906 163.820312 160.570312 164.476562 159.347656 165.078125 C 158.128906 165.679688 156.882812 166.214844 155.613281 166.695312 C 154.339844 167.171875 153.046875 167.585938 151.734375 167.9375 C 150.421875 168.285156 149.09375 168.570312 147.753906 168.789062 C 146.414062 169.011719 145.0625 169.164062 143.707031 169.25 C 142.351562 169.339844 140.996094 169.359375 139.636719 169.3125 C 138.28125 169.265625 136.925781 169.152344 135.582031 168.972656 C 134.234375 168.792969 132.898438 168.546875 131.578125 168.238281 C 130.253906 167.925781 128.949219 167.550781 127.664062 167.113281 C 126.378906 166.671875 125.117188 166.171875 123.878906 165.609375 C 122.644531 165.042969 121.4375 164.421875 120.261719 163.738281 C 119.085938 163.058594 117.945312 162.320312 116.84375 161.523438 C 115.738281 160.730469 114.675781 159.882812 113.65625 158.984375 C 112.636719 158.085938 111.664062 157.140625 110.734375 156.144531 C 109.808594 155.152344 108.933594 154.113281 108.105469 153.03125 C 107.28125 151.953125 106.511719 150.832031 105.792969 149.675781 C 105.078125 148.519531 104.421875 147.332031 103.824219 146.109375 C 103.222656 144.886719 102.683594 143.640625 102.207031 142.367188 C 101.730469 141.089844 101.320312 139.796875 100.96875 138.480469 C 100.617188 137.167969 100.335938 135.839844 100.113281 134.496094 C 99.894531 133.152344 99.742188 131.800781 99.65625 130.445312 C 99.570312 129.085938 99.546875 127.726562 99.59375 126.367188 C 99.640625 125.007812 99.753906 123.652344 99.933594 122.304688 C 100.113281 120.953125 100.359375 119.617188 100.667969 118.292969 C 100.976562 116.96875 101.351562 115.660156 101.792969 114.375 C 102.230469 113.085938 102.730469 111.820312 103.292969 110.582031 C 103.855469 109.34375 104.476562 108.136719 105.160156 106.960938 C 105.839844 105.78125 106.578125 104.640625 107.371094 103.535156 C 108.164062 102.429688 109.007812 101.367188 109.90625 100.34375 C 110.800781 99.324219 111.746094 98.347656 112.742188 97.417969 C 113.734375 96.488281 114.769531 95.613281 115.847656 94.785156 C 116.925781 93.957031 118.042969 93.1875 119.199219 92.46875 C 120.355469 91.753906 121.542969 91.09375 122.761719 90.492188 C 123.980469 89.894531 125.226562 89.355469 126.5 88.878906 C 127.769531 88.398438 129.0625 87.984375 130.375 87.636719 C 131.6875 87.285156 133.015625 87 134.355469 86.78125 C 135.695312 86.5625 137.046875 86.40625 138.402344 86.320312 C 139.757812 86.234375 141.113281 86.214844 142.472656 86.261719 C 143.828125 86.304688 145.183594 86.417969 146.527344 86.597656 Z M 145.300781 95.832031 C 144.257812 95.695312 143.207031 95.605469 142.15625 95.570312 C 141.101562 95.535156 140.046875 95.550781 138.996094 95.617188 C 137.945312 95.683594 136.898438 95.804688 135.859375 95.976562 C 134.816406 96.144531 133.789062 96.367188 132.769531 96.636719 C 131.75 96.910156 130.75 97.230469 129.761719 97.601562 C 128.773438 97.972656 127.808594 98.390625 126.863281 98.855469 C 125.917969 99.320312 124.996094 99.832031 124.097656 100.386719 C 123.203125 100.945312 122.335938 101.542969 121.5 102.183594 C 120.664062 102.824219 119.859375 103.507812 119.089844 104.226562 C 118.320312 104.949219 117.585938 105.703125 116.890625 106.496094 C 116.191406 107.289062 115.539062 108.117188 114.921875 108.972656 C 114.308594 109.828125 113.734375 110.714844 113.207031 111.628906 C 112.679688 112.542969 112.195312 113.480469 111.761719 114.441406 C 111.324219 115.402344 110.933594 116.382812 110.59375 117.378906 C 110.253906 118.378906 109.964844 119.394531 109.722656 120.421875 C 109.484375 121.449219 109.292969 122.484375 109.152344 123.53125 C 109.015625 124.578125 108.925781 125.628906 108.890625 126.683594 C 108.855469 127.738281 108.871094 128.792969 108.9375 129.847656 C 109.003906 130.902344 109.125 131.949219 109.292969 132.992188 C 109.464844 134.03125 109.683594 135.0625 109.957031 136.085938 C 110.226562 137.105469 110.546875 138.109375 110.917969 139.097656 C 111.289062 140.085938 111.707031 141.054688 112.171875 142 C 112.636719 142.949219 113.144531 143.871094 113.699219 144.769531 C 114.257812 145.664062 114.855469 146.535156 115.496094 147.371094 C 116.132812 148.210938 116.816406 149.015625 117.535156 149.785156 C 118.253906 150.558594 119.007812 151.292969 119.800781 151.992188 C 120.59375 152.6875 121.414062 153.34375 122.269531 153.960938 C 123.128906 154.578125 124.011719 155.148438 124.921875 155.679688 C 125.835938 156.207031 126.769531 156.691406 127.730469 157.128906 C 128.691406 157.566406 129.667969 157.953125 130.667969 158.292969 C 131.664062 158.636719 132.675781 158.925781 133.703125 159.167969 C 134.726562 159.410156 135.761719 159.597656 136.808594 159.738281 C 137.851562 159.878906 138.902344 159.964844 139.957031 160 C 141.007812 160.039062 142.0625 160.023438 143.113281 159.953125 C 144.164062 159.886719 145.210938 159.769531 146.25 159.597656 C 147.292969 159.425781 148.320312 159.207031 149.339844 158.933594 C 150.359375 158.660156 151.359375 158.339844 152.347656 157.96875 C 153.335938 157.601562 154.300781 157.183594 155.246094 156.714844 C 156.191406 156.25 157.113281 155.738281 158.011719 155.183594 C 158.90625 154.628906 159.773438 154.027344 160.609375 153.386719 C 161.445312 152.746094 162.25 152.066406 163.019531 151.34375 C 163.792969 150.625 164.523438 149.867188 165.21875 149.074219 C 165.917969 148.28125 166.574219 147.457031 167.1875 146.597656 C 167.800781 145.742188 168.375 144.855469 168.902344 143.945312 C 169.429688 143.03125 169.914062 142.09375 170.351562 141.132812 C 170.785156 140.171875 171.175781 139.191406 171.515625 138.191406 C 171.855469 137.191406 172.144531 136.179688 172.386719 135.152344 C 172.628906 134.125 172.816406 133.085938 172.957031 132.039062 C 173.09375 130.992188 173.183594 129.941406 173.21875 128.886719 C 173.253906 127.832031 173.238281 126.777344 173.171875 125.722656 C 173.105469 124.671875 172.984375 123.625 172.816406 122.582031 C 172.644531 121.539062 172.425781 120.507812 172.152344 119.488281 C 171.882812 118.46875 171.5625 117.464844 171.191406 116.476562 C 170.820312 115.488281 170.402344 114.519531 169.941406 113.570312 C 169.476562 112.625 168.964844 111.699219 168.410156 110.804688 C 167.855469 109.90625 167.257812 109.039062 166.617188 108.199219 C 165.976562 107.363281 165.296875 106.554688 164.574219 105.785156 C 163.855469 105.011719 163.101562 104.277344 162.308594 103.582031 C 161.519531 102.882812 160.695312 102.226562 159.839844 101.613281 C 158.984375 100.996094 158.097656 100.421875 157.1875 99.894531 C 156.273438 99.363281 155.339844 98.882812 154.378906 98.445312 C 153.421875 98.007812 152.441406 97.617188 151.445312 97.277344 C 150.445312 96.9375 149.433594 96.644531 148.40625 96.402344 C 147.382812 96.164062 146.347656 95.972656 145.300781 95.832031 Z M 145.300781 95.832031 " fill-opacity="1" fill-rule="nonzero"/><path fill="#2e5171" d="M 117.582031 178.886719 L 114.84375 177.527344 C 112.257812 176.242188 109.140625 177.296875 107.855469 179.890625 L 89.890625 216.1875 C 88.605469 218.78125 89.65625 221.902344 92.246094 223.1875 L 94.980469 224.546875 C 97.570312 225.832031 100.6875 224.777344 101.972656 222.1875 L 119.9375 185.886719 C 121.21875 183.292969 120.167969 180.171875 117.582031 178.886719 Z M 117.582031 178.886719 " fill-opacity="1" fill-rule="nonzero"/><path fill="#ffffff" d="M 126.203125 106.109375 C 126.3125 106.339844 126.460938 106.550781 126.640625 106.742188 C 126.824219 106.929688 127.039062 107.097656 127.289062 107.238281 C 127.539062 107.378906 127.816406 107.496094 128.121094 107.585938 C 128.425781 107.671875 128.753906 107.734375 129.105469 107.765625 C 129.457031 107.796875 129.820312 107.800781 130.203125 107.777344 C 130.585938 107.75 130.976562 107.695312 131.375 107.613281 C 131.773438 107.53125 132.171875 107.421875 132.574219 107.285156 C 132.972656 107.152344 133.367188 106.992188 133.75 106.804688 C 134.136719 106.621094 134.507812 106.417969 134.867188 106.191406 C 135.222656 105.964844 135.558594 105.722656 135.875 105.464844 C 136.1875 105.207031 136.476562 104.9375 136.734375 104.65625 C 136.996094 104.375 137.222656 104.085938 137.417969 103.792969 C 137.613281 103.5 137.773438 103.207031 137.898438 102.914062 C 138.019531 102.617188 138.105469 102.332031 138.152344 102.046875 C 138.199219 101.765625 138.203125 101.492188 138.171875 101.230469 C 138.140625 100.96875 138.070312 100.722656 137.960938 100.492188 C 137.851562 100.261719 137.703125 100.050781 137.519531 99.863281 C 137.339844 99.671875 137.121094 99.507812 136.875 99.363281 C 136.625 99.222656 136.347656 99.105469 136.042969 99.019531 C 135.734375 98.929688 135.40625 98.867188 135.058594 98.835938 C 134.707031 98.804688 134.339844 98.800781 133.960938 98.828125 C 133.578125 98.851562 133.1875 98.90625 132.789062 98.988281 C 132.390625 99.070312 131.992188 99.179688 131.589844 99.316406 C 131.191406 99.453125 130.796875 99.613281 130.410156 99.796875 C 130.027344 99.980469 129.652344 100.1875 129.296875 100.414062 C 128.941406 100.636719 128.605469 100.878906 128.289062 101.140625 C 127.976562 101.398438 127.6875 101.667969 127.425781 101.949219 C 127.167969 102.230469 126.941406 102.515625 126.746094 102.808594 C 126.550781 103.101562 126.390625 103.398438 126.265625 103.691406 C 126.144531 103.984375 126.058594 104.273438 126.011719 104.554688 C 125.964844 104.839844 125.957031 105.113281 125.992188 105.375 C 126.023438 105.636719 126.09375 105.882812 126.203125 106.109375 Z M 126.203125 106.109375 " fill-opacity="1" fill-rule="nonzero"/><path fill="#1c3144" d="M 84.160156 298.753906 L 90.488281 304.292969 L 79.214844 303.839844 L 79.417969 298.722656 Z M 84.160156 298.753906 " fill-opacity="1" fill-rule="nonzero"/><path fill="#1c3144" d="M 79.257812 298.558594 L 79.042969 304 L 90.953125 304.480469 L 84.222656 298.589844 L 84.164062 298.589844 Z M 79.578125 298.890625 L 84.097656 298.921875 L 90.023438 304.109375 L 79.386719 303.683594 Z M 79.578125 298.890625 " fill-opacity="1" fill-rule="nonzero"/><path fill="#ffab00" d="M 77.917969 214.625 L 88.457031 256.273438 C 88.773438 257.054688 88.9375 257.867188 88.941406 258.710938 L 86.632812 298.457031 C 86.632812 298.457031 86.976562 299.867188 82.597656 300.105469 C 78.214844 300.339844 78.589844 298.460938 78.589844 298.460938 L 75.960938 260.472656 L 57.910156 221.773438 Z M 77.917969 214.625 " fill-opacity="1" fill-rule="nonzero"/><g clip-path="url(#fb80559afd)"><path fill="#1c3144" d="M 44.09375 298.269531 L 47.828125 305.808594 L 37.582031 301.078125 L 39.71875 296.425781 Z M 44.09375 298.269531 " fill-opacity="1" fill-rule="nonzero"/></g><path fill="#1c3144" d="M 69.402344 225.6875 L 68.804688 245.128906 L 65.132812 237.261719 Z M 69.402344 225.6875 " fill-opacity="1" fill-rule="nonzero"/><path fill="#ffab00" d="M 49.308594 217.140625 L 70.527344 218.183594 L 64.394531 260.707031 C 64.390625 261.550781 64.230469 262.363281 63.914062 263.144531 L 46.632812 299 C 46.632812 299 46.414062 300.433594 42.273438 298.976562 C 38.132812 297.519531 39.199219 295.925781 39.199219 295.925781 L 51.246094 259.8125 Z M 49.308594 217.140625 " fill-opacity="1" fill-rule="nonzero"/><path fill="#3f88c5" d="M 72.242188 160.921875 C 71.957031 161.019531 80.398438 173.433594 80.824219 223.472656 C 70.65625 225.765625 58.652344 226.757812 48.25 223.9375 C 46.066406 218.15625 48.125 142.414062 72.242188 160.921875 Z M 72.242188 160.921875 " fill-opacity="1" fill-rule="nonzero"/><path fill="#1c3144" d="M 63.976562 167.992188 C 67.578125 167.890625 71.855469 170.226562 72.050781 176.484375 L 72.289062 201.460938 L 80.132812 203.519531 C 80.316406 206.496094 80.484375 209.597656 80.597656 212.976562 L 67.371094 211.195312 C 64.574219 210.738281 61.828125 209.933594 61.160156 206.34375 L 56.386719 176.828125 C 55.863281 172.5 58.945312 168.570312 63.265625 168.046875 C 63.496094 168.019531 63.734375 168 63.976562 167.992188 Z M 63.976562 167.992188 " fill-opacity="1" fill-rule="nonzero"/><path fill="#f5987c" d="M 108.277344 207.398438 C 107.933594 207.414062 103.363281 207.421875 102.457031 207.410156 C 101.691406 207.402344 101.480469 207.027344 101.761719 206.886719 C 102.039062 206.742188 102.914062 206.054688 103.113281 205.339844 C 103.253906 204.835938 103.039062 204.617188 102.898438 204.53125 C 102.847656 204.5 102.75 204.511719 102.699219 204.546875 C 99.757812 206.476562 97.980469 206.171875 96.515625 207.0625 C 96.414062 207.125 96.320312 207.195312 96.230469 207.265625 L 93.90625 206.078125 L 91.496094 212.738281 L 95.933594 212.296875 C 97.585938 213.910156 101.214844 214.132812 101.488281 214.203125 C 102.070312 214.347656 104.683594 214.421875 105.269531 214.449219 C 105.511719 214.460938 105.710938 214.386719 105.816406 214.210938 C 105.925781 214.035156 105.949219 213.757812 105.703125 213.574219 C 105.460938 213.394531 103.039062 213.347656 102.847656 213.097656 C 102.652344 212.84375 102.855469 212.746094 103.085938 212.757812 C 103.3125 212.769531 107.339844 212.929688 107.53125 212.941406 C 108.320312 212.980469 108.613281 212.6875 108.609375 212.347656 C 108.605469 212.070312 108.339844 211.796875 107.867188 211.769531 C 106.636719 211.695312 103.785156 211.539062 103.507812 211.328125 C 103.199219 211.09375 103.335938 210.875 103.53125 210.847656 C 103.964844 210.789062 108.160156 210.765625 109.09375 210.769531 C 109.636719 210.773438 109.722656 210.421875 109.757812 210.136719 C 109.796875 209.769531 109.445312 209.621094 109.097656 209.558594 C 108.757812 209.5 105.03125 209.425781 104.324219 209.304688 C 103.617188 209.183594 103.449219 209.199219 103.59375 208.976562 C 103.738281 208.753906 108.023438 208.699219 108.441406 208.574219 C 108.855469 208.453125 109.101562 208.253906 109.039062 207.835938 C 108.957031 207.488281 108.65625 207.398438 108.277344 207.398438 Z M 108.277344 207.398438 " fill-opacity="1" fill-rule="nonzero"/><path fill="#3f88c5" d="M 72.269531 175.164062 L 72.511719 200.144531 L 94.929688 206.027344 C 95.167969 206.15625 96.605469 206.527344 96.148438 209.996094 C 95.695312 213.464844 94.261719 213.367188 93.59375 213.378906 L 67.589844 209.875 C 64.792969 209.421875 62.046875 208.617188 61.382812 205.027344 L 56.605469 175.511719 C 56.082031 171.183594 59.164062 167.25 63.484375 166.730469 C 67.207031 166.277344 72.0625 168.488281 72.269531 175.164062 Z M 72.269531 175.164062 " fill-opacity="1" fill-rule="nonzero"/><path fill="#1c3144" d="M 71.957031 178.609375 C 71.800781 178.617188 71.726562 178.695312 71.730469 178.851562 L 72.347656 200.105469 C 72.351562 200.21875 72.40625 200.292969 72.519531 200.324219 L 80.113281 202.4375 C 80.261719 202.480469 80.355469 202.425781 80.398438 202.273438 C 80.441406 202.125 80.386719 202.03125 80.238281 201.988281 L 72.808594 199.917969 L 72.195312 178.839844 C 72.191406 178.683594 72.113281 178.605469 71.957031 178.609375 Z M 71.957031 178.609375 " fill-opacity="1" fill-rule="nonzero"/><path fill="#f5987c" d="M 63.3125 150.671875 L 63.617188 159.066406 C 65.710938 160.015625 66.878906 160.648438 71.386719 161.40625 L 70.996094 154.273438 Z M 63.3125 150.671875 " fill-opacity="1" fill-rule="nonzero"/><path fill="#1c3144" d="M 64.347656 153.585938 C 64.347656 153.585938 67.507812 158.621094 71.265625 159.21875 L 70.996094 154.277344 L 70.996094 154.273438 L 70.296875 153.945312 Z M 64.347656 153.585938 " fill-opacity="1" fill-rule="nonzero"/><path fill="#f5987c" d="M 61.703125 151.539062 C 61.703125 151.539062 67.121094 157.253906 70.980469 156.8125 C 74.839844 156.371094 75.335938 142.792969 72.097656 139.785156 C 68.859375 136.777344 60.234375 140.84375 60.234375 140.84375 Z M 61.703125 151.539062 " fill-opacity="1" fill-rule="nonzero"/><path fill="#1c3144" d="M 67.933594 143.949219 C 67.933594 143.949219 73.464844 146.523438 74.9375 142.9375 C 76.40625 139.351562 69.261719 133.632812 63.035156 138.164062 C 63.046875 138.179688 59.039062 138.300781 58.109375 141.441406 C 56.984375 145.253906 58.476562 150.101562 62.953125 152.835938 C 62.953125 152.835938 63.9375 151.515625 64.710938 150.296875 C 65.816406 148.554688 67.089844 146.683594 66.753906 147.839844 Z M 67.933594 143.949219 " fill-opacity="1" fill-rule="nonzero"/><path fill="#f5987c" d="M 63.683594 148.421875 C 63.824219 148.816406 64.003906 149.1875 64.21875 149.523438 C 64.433594 149.863281 64.667969 150.144531 64.925781 150.371094 C 65.179688 150.59375 65.4375 150.75 65.695312 150.828125 C 65.953125 150.90625 66.191406 150.910156 66.410156 150.832031 C 66.632812 150.75 66.816406 150.601562 66.964844 150.375 C 67.113281 150.152344 67.214844 149.871094 67.269531 149.53125 C 67.324219 149.195312 67.328125 148.828125 67.28125 148.429688 C 67.234375 148.03125 67.140625 147.632812 67 147.234375 C 66.855469 146.839844 66.675781 146.46875 66.460938 146.132812 C 66.246094 145.792969 66.011719 145.511719 65.753906 145.285156 C 65.5 145.0625 65.242188 144.90625 64.984375 144.828125 C 64.726562 144.746094 64.488281 144.746094 64.269531 144.824219 C 64.050781 144.902344 63.867188 145.054688 63.71875 145.28125 C 63.566406 145.503906 63.464844 145.785156 63.410156 146.125 C 63.355469 146.460938 63.351562 146.828125 63.398438 147.226562 C 63.445312 147.625 63.542969 148.023438 63.683594 148.421875 Z M 63.683594 148.421875 " fill-opacity="1" fill-rule="nonzero"/><path fill="#c4c4c4" d="M 225.886719 84.347656 L 228.195312 89.363281 L 233.089844 83.84375 Z M 225.886719 84.347656 " fill-opacity="1" fill-rule="nonzero"/><path fill="#c4c4c4" d="M 255.300781 95.21875 L 303.058594 95.21875 L 303.058594 98.726562 L 255.300781 98.726562 Z M 255.300781 95.21875 " fill-opacity="1" fill-rule="nonzero"/><path fill="#c4c4c4" d="M 255.300781 104.6875 L 293.152344 104.6875 L 293.152344 108.195312 L 255.300781 108.195312 Z M 255.300781 104.6875 " fill-opacity="1" fill-rule="nonzero"/><path fill="#c4c4c4" d="M 255.300781 114.160156 L 302.609375 114.160156 L 302.609375 117.667969 L 255.300781 117.667969 Z M 255.300781 114.160156 " fill-opacity="1" fill-rule="nonzero"/><path fill="#c4c4c4" d="M 255.300781 123.628906 L 302.609375 123.628906 L 302.609375 127.136719 L 255.300781 127.136719 Z M 255.300781 123.628906 " fill-opacity="1" fill-rule="nonzero"/><path fill="#c4c4c4" d="M 255.300781 141.667969 L 303.058594 141.667969 L 303.058594 145.179688 L 255.300781 145.179688 Z M 255.300781 141.667969 " fill-opacity="1" fill-rule="nonzero"/><path fill="#c4c4c4" d="M 255.300781 151.140625 L 293.152344 151.140625 L 293.152344 154.648438 L 255.300781 154.648438 Z M 255.300781 151.140625 " fill-opacity="1" fill-rule="nonzero"/><path fill="#c4c4c4" d="M 255.300781 160.613281 L 302.609375 160.613281 L 302.609375 164.121094 L 255.300781 164.121094 Z M 255.300781 160.613281 " fill-opacity="1" fill-rule="nonzero"/><path fill="#3f88c5" d="M 255.300781 170.082031 L 302.609375 170.082031 L 302.609375 173.589844 L 255.300781 173.589844 Z M 255.300781 170.082031 " fill-opacity="1" fill-rule="nonzero"/><g clip-path="url(#30b4b5d5a4)"><path fill="#f9f9f9" d="M 240.203125 168.761719 L 337.1875 168.761719 L 337.1875 229.652344 L 240.203125 229.652344 Z M 240.203125 168.761719 " fill-opacity="1" fill-rule="nonzero"/></g><g clip-path="url(#77e89a13ef)"><path fill="#2e5171" d="M 240.203125 168.761719 L 240.203125 177.335938 L 337.1875 177.335938 L 337.1875 168.761719 Z M 240.203125 168.761719 " fill-opacity="1" fill-rule="nonzero"/></g><g clip-path="url(#7df0a527f1)"><path fill="#2e5171" d="M 239.972656 168.53125 L 239.972656 229.882812 L 337.414062 229.882812 L 337.414062 168.53125 Z M 240.433594 168.992188 L 336.957031 168.992188 L 336.957031 229.421875 L 240.433594 229.421875 Z M 240.433594 168.992188 " fill-opacity="1" fill-rule="nonzero"/></g><path fill="#c4c4c4" d="M 298.460938 189.371094 L 298.460938 205.574219 L 286.503906 205.574219 L 286.503906 207.132812 L 300.015625 207.132812 L 300.015625 190.929688 L 310.542969 190.929688 L 310.542969 189.371094 Z M 298.460938 189.371094 " fill-opacity="1" fill-rule="nonzero"/><path fill="#3f88c5" d="M 269.914062 182.101562 C 268.539062 182.101562 267.175781 182.234375 265.828125 182.503906 C 264.480469 182.773438 263.167969 183.171875 261.898438 183.695312 C 260.628906 184.222656 259.421875 184.871094 258.28125 185.636719 C 257.136719 186.398438 256.078125 187.269531 255.105469 188.242188 C 254.621094 188.730469 254.160156 189.238281 253.726562 189.769531 C 253.292969 190.300781 252.882812 190.851562 252.503906 191.421875 C 252.121094 191.992188 251.769531 192.582031 251.445312 193.1875 C 251.125 193.792969 250.832031 194.410156 250.566406 195.046875 C 250.304688 195.679688 250.074219 196.328125 249.875 196.984375 C 249.675781 197.640625 249.511719 198.308594 249.375 198.980469 C 249.242188 199.65625 249.140625 200.332031 249.074219 201.015625 C 249.007812 201.699219 248.972656 202.386719 248.972656 203.070312 C 248.972656 203.757812 249.007812 204.445312 249.074219 205.128906 C 249.140625 205.8125 249.242188 206.488281 249.375 207.164062 C 249.511719 207.835938 249.675781 208.503906 249.875 209.160156 C 250.074219 209.816406 250.304688 210.460938 250.566406 211.097656 C 250.832031 211.730469 251.125 212.351562 251.445312 212.957031 C 251.769531 213.5625 252.121094 214.152344 252.503906 214.722656 C 252.882812 215.292969 253.292969 215.84375 253.726562 216.375 C 254.160156 216.90625 254.621094 217.414062 255.105469 217.902344 C 255.59375 218.386719 256.097656 218.847656 256.628906 219.28125 C 257.160156 219.71875 257.710938 220.128906 258.28125 220.507812 C 258.851562 220.890625 259.4375 221.242188 260.042969 221.566406 C 260.648438 221.890625 261.265625 222.183594 261.898438 222.445312 C 262.535156 222.710938 263.179688 222.941406 263.835938 223.140625 C 264.492188 223.339844 265.15625 223.507812 265.828125 223.640625 C 266.5 223.773438 267.175781 223.875 267.859375 223.941406 C 268.542969 224.007812 269.226562 224.042969 269.914062 224.042969 C 270.597656 224.042969 271.28125 224.007812 271.964844 223.941406 C 272.648438 223.875 273.324219 223.773438 273.996094 223.640625 C 274.667969 223.507812 275.335938 223.339844 275.992188 223.140625 C 276.648438 222.941406 277.292969 222.710938 277.925781 222.445312 C 278.558594 222.183594 279.175781 221.890625 279.78125 221.566406 C 280.386719 221.242188 280.976562 220.890625 281.542969 220.507812 C 282.113281 220.128906 282.664062 219.71875 283.195312 219.28125 C 283.726562 218.847656 284.234375 218.386719 284.71875 217.902344 C 285.203125 217.414062 285.664062 216.90625 286.097656 216.375 C 286.53125 215.84375 286.941406 215.292969 287.320312 214.722656 C 287.703125 214.152344 288.054688 213.5625 288.378906 212.957031 C 288.703125 212.351562 288.992188 211.730469 289.257812 211.097656 C 289.519531 210.460938 289.75 209.816406 289.949219 209.160156 C 290.148438 208.503906 290.3125 207.835938 290.449219 207.164062 C 290.582031 206.488281 290.683594 205.8125 290.75 205.128906 C 290.816406 204.445312 290.851562 203.757812 290.851562 203.070312 C 290.851562 202.386719 290.816406 201.699219 290.75 201.015625 C 290.683594 200.332031 290.582031 199.652344 290.449219 198.980469 C 290.3125 198.308594 290.148438 197.640625 289.949219 196.984375 C 289.75 196.328125 289.519531 195.679688 289.257812 195.046875 C 288.992188 194.410156 288.703125 193.792969 288.378906 193.1875 C 288.054688 192.582031 287.703125 191.992188 287.320312 191.421875 C 286.941406 190.847656 286.53125 190.296875 286.097656 189.769531 C 285.664062 189.238281 285.203125 188.726562 284.71875 188.242188 C 283.746094 187.269531 282.6875 186.398438 281.542969 185.632812 C 280.402344 184.871094 279.195312 184.222656 277.925781 183.695312 C 276.65625 183.167969 275.34375 182.773438 273.996094 182.503906 C 272.648438 182.234375 271.285156 182.101562 269.910156 182.101562 Z M 269.914062 188.320312 C 271.867188 188.320312 273.746094 188.691406 275.550781 189.441406 C 277.355469 190.191406 278.945312 191.257812 280.328125 192.640625 C 281.011719 193.324219 281.621094 194.070312 282.160156 194.875 C 282.695312 195.679688 283.152344 196.53125 283.519531 197.425781 C 283.890625 198.320312 284.171875 199.242188 284.359375 200.195312 C 284.546875 201.144531 284.640625 202.101562 284.640625 203.070312 C 284.640625 204.039062 284.546875 205 284.359375 205.949219 C 284.171875 206.898438 283.890625 207.824219 283.519531 208.71875 C 283.152344 209.613281 282.695312 210.460938 282.160156 211.269531 C 281.621094 212.074219 281.011719 212.820312 280.328125 213.503906 C 279.644531 214.1875 278.898438 214.800781 278.097656 215.339844 C 277.292969 215.875 276.441406 216.332031 275.550781 216.703125 C 274.65625 217.074219 273.734375 217.351562 272.785156 217.542969 C 271.835938 217.730469 270.878906 217.824219 269.914062 217.824219 C 268.945312 217.824219 267.988281 217.730469 267.039062 217.542969 C 266.089844 217.351562 265.167969 217.074219 264.277344 216.703125 C 263.382812 216.332031 262.535156 215.875 261.730469 215.339844 C 260.925781 214.800781 260.179688 214.1875 259.496094 213.503906 C 258.8125 212.820312 258.203125 212.074219 257.664062 211.269531 C 257.128906 210.460938 256.675781 209.613281 256.304688 208.71875 C 255.933594 207.824219 255.65625 206.898438 255.464844 205.949219 C 255.277344 205 255.183594 204.039062 255.183594 203.070312 C 255.183594 202.101562 255.277344 201.144531 255.464844 200.195312 C 255.65625 199.242188 255.933594 198.320312 256.304688 197.425781 C 256.675781 196.53125 257.128906 195.679688 257.664062 194.875 C 258.203125 194.070312 258.8125 193.324219 259.496094 192.640625 C 260.878906 191.257812 262.472656 190.191406 264.277344 189.441406 C 266.082031 188.691406 267.960938 188.316406 269.914062 188.316406 Z M 269.914062 188.320312 " fill-opacity="1" fill-rule="nonzero"/><path fill="#c4c4c4" d="M 314.527344 184.941406 L 331.738281 184.941406 L 331.738281 186.855469 L 314.527344 186.855469 Z M 314.527344 184.941406 " fill-opacity="1" fill-rule="nonzero"/><path fill="#c4c4c4" d="M 314.527344 189.566406 L 327.835938 189.566406 L 327.835938 191.480469 L 314.527344 191.480469 Z M 314.527344 189.566406 " fill-opacity="1" fill-rule="nonzero"/><path fill="#c4c4c4" d="M 314.527344 194.191406 L 331.175781 194.191406 L 331.175781 196.105469 L 314.527344 196.105469 Z M 314.527344 194.191406 " fill-opacity="1" fill-rule="nonzero"/><path fill="#c4c4c4" d="M 306.199219 204.636719 L 325.714844 204.636719 L 325.714844 206.550781 L 306.199219 206.550781 Z M 306.199219 204.636719 " fill-opacity="1" fill-rule="nonzero"/><path fill="#c4c4c4" d="M 306.199219 209.261719 L 327.386719 209.261719 L 327.386719 211.171875 L 306.199219 211.171875 Z M 306.199219 209.261719 " fill-opacity="1" fill-rule="nonzero"/><path fill="#c4c4c4" d="M 306.199219 213.882812 L 325.714844 213.882812 L 325.714844 215.796875 L 306.199219 215.796875 Z M 306.199219 213.882812 " fill-opacity="1" fill-rule="nonzero"/><path fill="#c4c4c4" d="M 306.199219 218.507812 L 327.386719 218.507812 L 327.386719 220.421875 L 306.199219 220.421875 Z M 306.199219 218.507812 " fill-opacity="1" fill-rule="nonzero"/><path fill="#c4c4c4" d="M 312.765625 190.03125 C 312.765625 190.261719 312.71875 190.484375 312.632812 190.699219 C 312.542969 190.914062 312.417969 191.101562 312.253906 191.265625 C 312.089844 191.429688 311.902344 191.558594 311.6875 191.644531 C 311.472656 191.734375 311.25 191.78125 311.019531 191.78125 C 310.789062 191.78125 310.566406 191.734375 310.351562 191.644531 C 310.136719 191.558594 309.949219 191.429688 309.785156 191.265625 C 309.621094 191.101562 309.496094 190.914062 309.40625 190.699219 C 309.316406 190.484375 309.273438 190.261719 309.273438 190.03125 C 309.273438 189.800781 309.316406 189.578125 309.40625 189.363281 C 309.496094 189.148438 309.621094 188.960938 309.785156 188.796875 C 309.949219 188.632812 310.136719 188.503906 310.351562 188.417969 C 310.566406 188.328125 310.789062 188.28125 311.019531 188.28125 C 311.25 188.28125 311.472656 188.328125 311.6875 188.417969 C 311.902344 188.503906 312.089844 188.632812 312.253906 188.796875 C 312.417969 188.960938 312.542969 189.148438 312.632812 189.363281 C 312.71875 189.578125 312.765625 189.800781 312.765625 190.03125 Z M 312.765625 190.03125 " fill-opacity="1" fill-rule="nonzero"/><path fill="#f9f9f9" d="M 324.234375 173.0625 C 324.234375 173.296875 324.191406 173.519531 324.101562 173.734375 C 324.011719 173.953125 323.886719 174.140625 323.722656 174.308594 C 323.554688 174.472656 323.367188 174.597656 323.152344 174.6875 C 322.9375 174.777344 322.710938 174.824219 322.480469 174.824219 C 322.246094 174.824219 322.023438 174.777344 321.804688 174.6875 C 321.589844 174.597656 321.402344 174.472656 321.234375 174.308594 C 321.070312 174.140625 320.945312 173.953125 320.855469 173.734375 C 320.765625 173.519531 320.722656 173.296875 320.722656 173.0625 C 320.722656 172.828125 320.765625 172.605469 320.855469 172.390625 C 320.945312 172.171875 321.070312 171.984375 321.234375 171.816406 C 321.402344 171.652344 321.589844 171.527344 321.804688 171.4375 C 322.023438 171.347656 322.246094 171.300781 322.480469 171.300781 C 322.710938 171.300781 322.9375 171.347656 323.152344 171.4375 C 323.367188 171.527344 323.558594 171.652344 323.722656 171.816406 C 323.886719 171.984375 324.011719 172.171875 324.101562 172.390625 C 324.191406 172.605469 324.234375 172.828125 324.234375 173.0625 Z M 324.234375 173.0625 " fill-opacity="1" fill-rule="nonzero"/><path fill="#f9f9f9" d="M 329.453125 173.0625 C 329.453125 173.296875 329.410156 173.519531 329.320312 173.734375 C 329.230469 173.953125 329.105469 174.140625 328.941406 174.308594 C 328.777344 174.472656 328.585938 174.597656 328.371094 174.6875 C 328.15625 174.777344 327.929688 174.824219 327.699219 174.824219 C 327.464844 174.824219 327.242188 174.777344 327.023438 174.6875 C 326.808594 174.597656 326.621094 174.472656 326.453125 174.308594 C 326.289062 174.140625 326.164062 173.953125 326.074219 173.734375 C 325.984375 173.519531 325.941406 173.296875 325.941406 173.0625 C 325.941406 172.828125 325.984375 172.605469 326.074219 172.390625 C 326.164062 172.171875 326.289062 171.984375 326.453125 171.816406 C 326.621094 171.652344 326.808594 171.527344 327.023438 171.4375 C 327.242188 171.347656 327.464844 171.300781 327.699219 171.300781 C 327.929688 171.300781 328.15625 171.347656 328.371094 171.4375 C 328.585938 171.527344 328.777344 171.652344 328.941406 171.816406 C 329.105469 171.984375 329.230469 172.171875 329.320312 172.390625 C 329.410156 172.605469 329.453125 172.828125 329.453125 173.0625 Z M 329.453125 173.0625 " fill-opacity="1" fill-rule="nonzero"/><path fill="#f9f9f9" d="M 334.671875 173.0625 C 334.671875 173.296875 334.628906 173.519531 334.539062 173.734375 C 334.449219 173.953125 334.324219 174.140625 334.160156 174.308594 C 333.996094 174.472656 333.804688 174.597656 333.589844 174.6875 C 333.375 174.777344 333.148438 174.824219 332.917969 174.824219 C 332.683594 174.824219 332.457031 174.777344 332.242188 174.6875 C 332.027344 174.597656 331.839844 174.472656 331.671875 174.308594 C 331.507812 174.140625 331.382812 173.953125 331.292969 173.734375 C 331.203125 173.519531 331.160156 173.296875 331.160156 173.0625 C 331.160156 172.828125 331.203125 172.605469 331.292969 172.390625 C 331.382812 172.171875 331.507812 171.984375 331.671875 171.816406 C 331.839844 171.652344 332.027344 171.527344 332.242188 171.4375 C 332.460938 171.347656 332.683594 171.300781 332.917969 171.300781 C 333.148438 171.300781 333.375 171.347656 333.589844 171.4375 C 333.804688 171.527344 333.996094 171.652344 334.160156 171.816406 C 334.324219 171.984375 334.449219 172.171875 334.539062 172.390625 C 334.628906 172.605469 334.671875 172.828125 334.671875 173.0625 Z M 334.671875 173.0625 " fill-opacity="1" fill-rule="nonzero"/><path fill="#ffab00" d="M 284.71875 188.242188 L 280.328125 192.640625 C 281.011719 193.324219 281.621094 194.070312 282.160156 194.875 C 282.699219 195.679688 283.152344 196.53125 283.519531 197.425781 C 283.890625 198.320312 284.171875 199.242188 284.359375 200.195312 C 284.546875 201.144531 284.640625 202.101562 284.640625 203.070312 C 284.640625 204.039062 284.546875 205 284.359375 205.949219 C 284.171875 206.902344 283.890625 207.824219 283.519531 208.71875 C 283.152344 209.613281 282.699219 210.464844 282.160156 211.269531 C 281.621094 212.074219 281.011719 212.820312 280.328125 213.503906 L 284.71875 217.902344 C 285.203125 217.414062 285.664062 216.90625 286.097656 216.375 C 286.535156 215.84375 286.941406 215.292969 287.320312 214.722656 C 287.703125 214.152344 288.054688 213.5625 288.378906 212.957031 C 288.703125 212.351562 288.996094 211.730469 289.257812 211.097656 C 289.519531 210.464844 289.75 209.816406 289.949219 209.160156 C 290.148438 208.503906 290.316406 207.835938 290.449219 207.164062 C 290.582031 206.488281 290.683594 205.8125 290.75 205.128906 C 290.816406 204.445312 290.851562 203.757812 290.851562 203.070312 C 290.851562 202.386719 290.816406 201.699219 290.75 201.015625 C 290.683594 200.332031 290.582031 199.65625 290.449219 198.980469 C 290.316406 198.308594 290.148438 197.640625 289.949219 196.984375 C 289.75 196.328125 289.519531 195.679688 289.257812 195.046875 C 288.996094 194.414062 288.703125 193.792969 288.378906 193.1875 C 288.054688 192.582031 287.703125 191.992188 287.320312 191.421875 C 286.941406 190.851562 286.535156 190.300781 286.097656 189.769531 C 285.664062 189.238281 285.203125 188.730469 284.71875 188.242188 Z M 284.71875 188.242188 " fill-opacity="1" fill-rule="nonzero"/><path fill="#376187" d="M 269.914062 182.101562 C 268.539062 182.101562 267.175781 182.234375 265.828125 182.503906 C 264.480469 182.773438 263.167969 183.171875 261.898438 183.695312 C 260.628906 184.222656 259.421875 184.871094 258.28125 185.636719 C 257.136719 186.398438 256.078125 187.269531 255.105469 188.242188 C 254.621094 188.730469 254.160156 189.238281 253.726562 189.769531 C 253.292969 190.300781 252.882812 190.851562 252.503906 191.421875 C 252.121094 191.992188 251.769531 192.582031 251.445312 193.1875 C 251.125 193.792969 250.832031 194.410156 250.566406 195.046875 C 250.304688 195.679688 250.074219 196.328125 249.875 196.984375 C 249.675781 197.640625 249.511719 198.308594 249.375 198.980469 C 249.242188 199.65625 249.140625 200.332031 249.074219 201.015625 C 249.007812 201.699219 248.972656 202.386719 248.972656 203.070312 C 248.972656 203.757812 249.007812 204.445312 249.074219 205.128906 C 249.140625 205.8125 249.242188 206.488281 249.375 207.164062 C 249.511719 207.835938 249.675781 208.503906 249.875 209.160156 C 250.074219 209.816406 250.304688 210.460938 250.566406 211.097656 C 250.832031 211.730469 251.125 212.351562 251.445312 212.957031 C 251.769531 213.5625 252.121094 214.152344 252.503906 214.722656 C 252.882812 215.292969 253.292969 215.84375 253.726562 216.375 C 254.160156 216.90625 254.621094 217.414062 255.105469 217.902344 L 259.496094 213.503906 C 258.8125 212.820312 258.203125 212.074219 257.664062 211.269531 C 257.128906 210.464844 256.675781 209.613281 256.304688 208.71875 C 255.933594 207.824219 255.65625 206.902344 255.464844 205.949219 C 255.277344 205 255.183594 204.039062 255.183594 203.074219 C 255.183594 202.105469 255.277344 201.144531 255.464844 200.195312 C 255.65625 199.242188 255.933594 198.320312 256.304688 197.425781 C 256.675781 196.53125 257.128906 195.679688 257.664062 194.875 C 258.203125 194.070312 258.8125 193.324219 259.496094 192.640625 C 260.878906 191.257812 262.472656 190.191406 264.277344 189.441406 C 266.082031 188.691406 267.960938 188.320312 269.914062 188.320312 C 271.867188 188.320312 273.746094 188.691406 275.550781 189.441406 C 277.355469 190.191406 278.945312 191.257812 280.328125 192.640625 L 284.71875 188.242188 C 283.746094 187.269531 282.6875 186.398438 281.546875 185.636719 C 280.402344 184.871094 279.195312 184.222656 277.925781 183.695312 C 276.65625 183.171875 275.347656 182.773438 273.996094 182.503906 C 272.648438 182.234375 271.289062 182.101562 269.914062 182.101562 Z M 269.914062 182.101562 " fill-opacity="1" fill-rule="nonzero"/></svg>