<svg xmlns="http://www.w3.org/2000/svg" xmlns:xlink="http://www.w3.org/1999/xlink" width="500" zoomAndPan="magnify" viewBox="0 0 375 374.999991" height="500" preserveAspectRatio="xMidYMid meet" version="1.0"><defs><clipPath id="41306e2efa"><path d="M 112.5 125 L 201 125 L 201 222 L 112.5 222 Z M 112.5 125 " clip-rule="nonzero"/></clipPath><clipPath id="c049d9702e"><path d="M 112.5 112.5 L 201 112.5 L 201 139 L 112.5 139 Z M 112.5 112.5 " clip-rule="nonzero"/></clipPath><clipPath id="4c00afee3b"><path d="M 112.5 146 L 201 146 L 201 170 L 112.5 170 Z M 112.5 146 " clip-rule="nonzero"/></clipPath><clipPath id="4db8dc944f"><path d="M 112.5 177 L 179 177 L 179 201 L 112.5 201 Z M 112.5 177 " clip-rule="nonzero"/></clipPath><clipPath id="76191ebe93"><path d="M 169 169 L 262.5 169 L 262.5 262.5 L 169 262.5 Z M 169 169 " clip-rule="nonzero"/></clipPath></defs><g clip-path="url(#41306e2efa)"><path fill="#4184a9" d="M 112.5 125.429688 L 112.5 208.191406 C 112.5 215.332031 132.179688 221.121094 156.464844 221.121094 C 161.042969 221.121094 165.464844 220.910156 169.628906 220.554688 L 200.429688 172.0625 L 200.429688 125.429688 L 112.5 125.429688 " fill-opacity="1" fill-rule="nonzero"/></g><g clip-path="url(#c049d9702e)"><path fill="#35718a" d="M 200.429688 125.429688 C 200.429688 132.574219 180.75 138.363281 156.464844 138.363281 C 132.191406 138.363281 112.5 132.574219 112.5 125.429688 C 112.5 118.289062 132.191406 112.5 156.464844 112.5 C 180.75 112.5 200.429688 118.289062 200.429688 125.429688 " fill-opacity="1" fill-rule="nonzero"/></g><g clip-path="url(#4c00afee3b)"><path fill="#6de08e" d="M 112.5 156.464844 C 112.5 163.609375 132.191406 169.398438 156.464844 169.398438 C 180.75 169.398438 200.429688 163.609375 200.429688 156.464844 L 200.429688 146.121094 C 200.429688 153.261719 180.75 159.050781 156.464844 159.050781 C 132.191406 159.050781 112.5 153.261719 112.5 146.121094 L 112.5 156.464844 " fill-opacity="1" fill-rule="nonzero"/></g><g clip-path="url(#4db8dc944f)"><path fill="#6de08e" d="M 172.375 199.574219 C 167.425781 200.117188 162.074219 200.429688 156.464844 200.429688 C 132.179688 200.429688 112.5 194.640625 112.5 187.5 L 112.5 177.15625 C 112.5 184.296875 132.179688 190.085938 156.464844 190.085938 C 164.476562 190.085938 172.011719 189.46875 178.480469 188.359375 L 172.375 199.574219 " fill-opacity="1" fill-rule="nonzero"/></g><g clip-path="url(#76191ebe93)"><path fill="#35718a" d="M 262.5 215.949219 C 262.5 241.660156 241.660156 262.5 215.949219 262.5 C 190.238281 262.5 169.398438 241.660156 169.398438 215.949219 C 169.398438 190.238281 190.238281 169.398438 215.949219 169.398438 C 241.660156 169.398438 262.5 190.238281 262.5 215.949219 " fill-opacity="1" fill-rule="nonzero"/></g><path fill="#ffffff" d="M 192.671875 203.015625 C 195.519531 203.015625 197.84375 205.339844 197.84375 208.191406 C 197.84375 209.613281 199.007812 210.777344 200.429688 210.777344 C 201.855469 210.777344 203.015625 209.613281 203.015625 208.191406 C 203.015625 202.480469 198.378906 197.84375 192.671875 197.84375 C 186.964844 197.84375 182.328125 202.480469 182.328125 208.191406 C 182.328125 213.898438 186.964844 218.535156 192.671875 218.535156 C 195.519531 218.535156 197.84375 220.859375 197.84375 223.707031 C 197.84375 226.554688 195.519531 228.878906 192.671875 228.878906 C 189.824219 228.878906 187.5 226.554688 187.5 223.707031 C 187.5 222.28125 186.339844 221.121094 184.914062 221.121094 C 183.488281 221.121094 182.328125 222.28125 182.328125 223.707031 C 182.328125 229.414062 186.964844 234.050781 192.671875 234.050781 C 198.378906 234.050781 203.015625 229.414062 203.015625 223.707031 C 203.015625 218 198.378906 213.363281 192.671875 213.363281 C 189.824219 213.363281 187.5 211.039062 187.5 208.191406 C 187.5 205.339844 189.824219 203.015625 192.671875 203.015625 " fill-opacity="1" fill-rule="nonzero"/><path fill="#ffffff" d="M 223.273438 222.273438 C 222.484375 221.082031 220.878906 220.765625 219.6875 221.554688 C 218.492188 222.34375 218.171875 223.949219 218.96875 225.140625 L 221.019531 228.210938 C 220.273438 228.625 219.433594 228.878906 218.535156 228.878906 C 215.6875 228.878906 213.363281 226.554688 213.363281 223.707031 L 213.363281 208.191406 C 213.363281 205.339844 215.6875 203.015625 218.535156 203.015625 C 221.382812 203.015625 223.707031 205.339844 223.707031 208.191406 L 223.707031 222.929688 Z M 218.535156 197.84375 C 212.828125 197.84375 208.191406 202.480469 208.191406 208.191406 L 208.191406 223.707031 C 208.191406 229.414062 212.828125 234.050781 218.535156 234.050781 C 220.503906 234.050781 222.324219 233.476562 223.890625 232.515625 L 224.140625 232.898438 C 224.636719 233.648438 225.453125 234.050781 226.292969 234.050781 C 226.789062 234.050781 227.28125 233.910156 227.726562 233.617188 C 228.917969 232.828125 229.242188 231.222656 228.445312 230.03125 L 227.546875 228.6875 C 228.363281 227.203125 228.878906 225.523438 228.878906 223.707031 L 228.878906 208.191406 C 228.878906 202.480469 224.242188 197.84375 218.535156 197.84375 " fill-opacity="1" fill-rule="nonzero"/><path fill="#ffffff" d="M 246.984375 228.878906 L 239.222656 228.878906 L 239.222656 200.429688 C 239.222656 199.007812 238.0625 197.84375 236.636719 197.84375 C 235.214844 197.84375 234.050781 199.007812 234.050781 200.429688 L 234.050781 231.464844 C 234.050781 232.890625 235.214844 234.050781 236.636719 234.050781 L 246.984375 234.050781 C 248.40625 234.050781 249.570312 232.890625 249.570312 231.464844 C 249.570312 230.042969 248.40625 228.878906 246.984375 228.878906 " fill-opacity="1" fill-rule="nonzero"/></svg>