<svg xmlns="http://www.w3.org/2000/svg" xmlns:xlink="http://www.w3.org/1999/xlink" width="500" zoomAndPan="magnify" viewBox="0 0 375 374.999991" height="500" preserveAspectRatio="xMidYMid meet" version="1.0"><defs><clipPath id="ca1a82b0ad"><path d="M 163 231 L 212 231 L 212 253.867188 L 163 253.867188 Z M 163 231 " clip-rule="nonzero"/></clipPath><clipPath id="2a1bfb7ffc"><path d="M 121.117188 134 L 253.867188 134 L 253.867188 237 L 121.117188 237 Z M 121.117188 134 " clip-rule="nonzero"/></clipPath><clipPath id="20ed9f6d75"><path d="M 121.117188 214 L 253.867188 214 L 253.867188 237 L 121.117188 237 Z M 121.117188 214 " clip-rule="nonzero"/></clipPath><clipPath id="d9a9a62b13"><path d="M 196 200 L 253.867188 200 L 253.867188 253.867188 L 196 253.867188 Z M 196 200 " clip-rule="nonzero"/></clipPath><clipPath id="f520083814"><path d="M 196 200 L 253.867188 200 L 253.867188 215 L 196 215 Z M 196 200 " clip-rule="nonzero"/></clipPath><clipPath id="0e498bb058"><path d="M 205 121.117188 L 253.867188 121.117188 L 253.867188 170 L 205 170 Z M 205 121.117188 " clip-rule="nonzero"/></clipPath></defs><g clip-path="url(#ca1a82b0ad)"><path fill="#0a0f26" d="M 211.585938 250.660156 L 202.734375 232.957031 C 202.359375 232.207031 201.585938 231.742188 200.765625 231.742188 L 174.214844 231.742188 C 173.375 231.742188 172.625 232.207031 172.246094 232.957031 L 163.398438 250.660156 C 163.042969 251.34375 163.085938 252.164062 163.484375 252.804688 C 163.882812 253.445312 164.59375 253.84375 165.367188 253.84375 L 209.617188 253.84375 C 210.390625 253.84375 211.097656 253.445312 211.496094 252.804688 C 211.894531 252.164062 211.941406 251.34375 211.585938 250.660156 Z M 211.585938 250.660156 " fill-opacity="1" fill-rule="nonzero"/></g><g clip-path="url(#2a1bfb7ffc)"><path fill="#f1f2f2" d="M 132.179688 134.390625 L 242.804688 134.390625 C 243.53125 134.390625 244.25 134.460938 244.960938 134.605469 C 245.675781 134.746094 246.367188 134.957031 247.039062 135.234375 C 247.707031 135.511719 248.347656 135.851562 248.949219 136.257812 C 249.554688 136.660156 250.113281 137.117188 250.625 137.632812 C 251.140625 138.144531 251.597656 138.703125 252.003906 139.308594 C 252.40625 139.914062 252.746094 140.550781 253.023438 141.222656 C 253.300781 141.890625 253.511719 142.582031 253.652344 143.296875 C 253.796875 144.007812 253.867188 144.726562 253.867188 145.453125 L 253.867188 225.105469 C 253.867188 225.832031 253.796875 226.550781 253.652344 227.261719 C 253.511719 227.976562 253.300781 228.667969 253.023438 229.335938 C 252.746094 230.007812 252.40625 230.644531 252.003906 231.25 C 251.597656 231.855469 251.140625 232.414062 250.625 232.925781 C 250.113281 233.441406 249.554688 233.898438 248.949219 234.300781 C 248.347656 234.707031 247.707031 235.046875 247.039062 235.324219 C 246.367188 235.601562 245.675781 235.8125 244.960938 235.953125 C 244.25 236.097656 243.53125 236.167969 242.804688 236.167969 L 132.179688 236.167969 C 131.453125 236.167969 130.734375 236.097656 130.019531 235.953125 C 129.308594 235.8125 128.617188 235.601562 127.945312 235.324219 C 127.273438 235.046875 126.636719 234.707031 126.035156 234.300781 C 125.429688 233.898438 124.871094 233.441406 124.355469 232.925781 C 123.84375 232.414062 123.382812 231.855469 122.980469 231.25 C 122.578125 230.644531 122.238281 230.007812 121.957031 229.335938 C 121.679688 228.667969 121.472656 227.976562 121.328125 227.261719 C 121.1875 226.550781 121.117188 225.832031 121.117188 225.105469 L 121.117188 145.453125 C 121.117188 144.726562 121.1875 144.007812 121.328125 143.296875 C 121.472656 142.582031 121.679688 141.890625 121.957031 141.222656 C 122.238281 140.550781 122.578125 139.914062 122.980469 139.308594 C 123.382812 138.703125 123.84375 138.144531 124.355469 137.632812 C 124.871094 137.117188 125.429688 136.660156 126.035156 136.257812 C 126.636719 135.851562 127.273438 135.511719 127.945312 135.234375 C 128.617188 134.957031 129.308594 134.746094 130.019531 134.605469 C 130.734375 134.460938 131.453125 134.390625 132.179688 134.390625 Z M 132.179688 134.390625 " fill-opacity="1" fill-rule="nonzero"/></g><g clip-path="url(#20ed9f6d75)"><path fill="#6b71f2" d="M 253.867188 214.042969 L 121.117188 214.042969 L 121.117188 225.105469 C 121.117188 231.210938 126.074219 236.167969 132.179688 236.167969 L 242.804688 236.167969 C 248.910156 236.167969 253.867188 231.210938 253.867188 225.105469 Z M 253.867188 214.042969 " fill-opacity="1" fill-rule="nonzero"/></g><path fill="#ffffff" d="M 191.917969 227.316406 L 183.066406 227.316406 C 181.851562 227.316406 180.855469 226.320312 180.855469 225.105469 C 180.855469 223.886719 181.851562 222.890625 183.066406 222.890625 L 191.917969 222.890625 C 193.132812 222.890625 194.128906 223.886719 194.128906 225.105469 C 194.128906 226.320312 193.132812 227.316406 191.917969 227.316406 Z M 191.917969 227.316406 " fill-opacity="1" fill-rule="nonzero"/><path fill="#0a0f26" d="M 211.828125 205.191406 C 210.613281 205.191406 209.617188 204.195312 209.617188 202.980469 L 209.617188 196.339844 C 209.617188 195.125 210.613281 194.128906 211.828125 194.128906 C 213.046875 194.128906 214.042969 195.125 214.042969 196.339844 L 214.042969 202.980469 C 214.042969 204.195312 213.046875 205.191406 211.828125 205.191406 Z M 211.828125 205.191406 " fill-opacity="1" fill-rule="nonzero"/><path fill="#0a0f26" d="M 238.378906 205.191406 C 237.164062 205.191406 236.167969 204.195312 236.167969 202.980469 L 236.167969 196.339844 C 236.167969 195.125 237.164062 194.128906 238.378906 194.128906 C 239.597656 194.128906 240.589844 195.125 240.589844 196.339844 L 240.589844 202.980469 C 240.589844 204.195312 239.597656 205.191406 238.378906 205.191406 Z M 238.378906 205.191406 " fill-opacity="1" fill-rule="nonzero"/><g clip-path="url(#d9a9a62b13)"><path fill="#0ff2b2" d="M 202.980469 200.765625 L 247.230469 200.765625 C 247.664062 200.765625 248.097656 200.808594 248.523438 200.894531 C 248.953125 200.980469 249.367188 201.105469 249.769531 201.273438 C 250.171875 201.4375 250.554688 201.644531 250.917969 201.886719 C 251.277344 202.128906 251.613281 202.402344 251.921875 202.710938 C 252.230469 203.019531 252.507812 203.355469 252.75 203.714844 C 252.988281 204.078125 253.195312 204.460938 253.363281 204.863281 C 253.527344 205.265625 253.652344 205.683594 253.738281 206.109375 C 253.824219 206.535156 253.867188 206.96875 253.867188 207.402344 L 253.867188 247.230469 C 253.867188 247.664062 253.824219 248.097656 253.738281 248.523438 C 253.652344 248.953125 253.527344 249.367188 253.363281 249.769531 C 253.195312 250.171875 252.988281 250.554688 252.75 250.917969 C 252.507812 251.277344 252.230469 251.613281 251.921875 251.921875 C 251.613281 252.230469 251.277344 252.507812 250.917969 252.75 C 250.554688 252.988281 250.171875 253.195312 249.769531 253.363281 C 249.367188 253.527344 248.953125 253.652344 248.523438 253.738281 C 248.097656 253.824219 247.664062 253.867188 247.230469 253.867188 L 202.980469 253.867188 C 202.542969 253.867188 202.113281 253.824219 201.683594 253.738281 C 201.257812 253.652344 200.839844 253.527344 200.4375 253.363281 C 200.035156 253.195312 199.652344 252.988281 199.292969 252.75 C 198.929688 252.507812 198.59375 252.230469 198.285156 251.921875 C 197.976562 251.613281 197.703125 251.277344 197.460938 250.917969 C 197.21875 250.554688 197.015625 250.171875 196.847656 249.769531 C 196.679688 249.367188 196.554688 248.953125 196.46875 248.523438 C 196.382812 248.097656 196.339844 247.664062 196.339844 247.230469 L 196.339844 207.402344 C 196.339844 206.96875 196.382812 206.535156 196.46875 206.109375 C 196.554688 205.683594 196.679688 205.265625 196.847656 204.863281 C 197.015625 204.460938 197.21875 204.078125 197.460938 203.714844 C 197.703125 203.355469 197.976562 203.019531 198.285156 202.710938 C 198.59375 202.402344 198.929688 202.128906 199.292969 201.886719 C 199.652344 201.644531 200.035156 201.4375 200.4375 201.273438 C 200.839844 201.105469 201.257812 200.980469 201.683594 200.894531 C 202.113281 200.808594 202.542969 200.765625 202.980469 200.765625 Z M 202.980469 200.765625 " fill-opacity="1" fill-rule="nonzero"/></g><g clip-path="url(#f520083814)"><path fill="#0a0f26" d="M 247.230469 200.765625 L 202.980469 200.765625 C 199.328125 200.765625 196.339844 203.753906 196.339844 207.402344 L 196.339844 214.042969 L 253.867188 214.042969 L 253.867188 207.402344 C 253.867188 203.753906 250.878906 200.765625 247.230469 200.765625 Z M 247.230469 200.765625 " fill-opacity="1" fill-rule="nonzero"/></g><path fill="#0ff2b2" d="M 136.605469 183.066406 L 147.667969 183.066406 C 147.960938 183.066406 148.242188 183.121094 148.511719 183.234375 C 148.785156 183.347656 149.023438 183.507812 149.230469 183.714844 C 149.4375 183.921875 149.597656 184.160156 149.710938 184.433594 C 149.824219 184.703125 149.878906 184.984375 149.878906 185.277344 L 149.878906 202.980469 C 149.878906 203.273438 149.824219 203.554688 149.710938 203.824219 C 149.597656 204.097656 149.4375 204.335938 149.230469 204.542969 C 149.023438 204.75 148.785156 204.910156 148.511719 205.023438 C 148.242188 205.136719 147.960938 205.191406 147.667969 205.191406 L 136.605469 205.191406 C 136.3125 205.191406 136.027344 205.136719 135.757812 205.023438 C 135.488281 204.910156 135.246094 204.75 135.039062 204.542969 C 134.832031 204.335938 134.671875 204.097656 134.558594 203.824219 C 134.449219 203.554688 134.390625 203.273438 134.390625 202.980469 L 134.390625 185.277344 C 134.390625 184.984375 134.449219 184.703125 134.558594 184.433594 C 134.671875 184.160156 134.832031 183.921875 135.039062 183.714844 C 135.246094 183.507812 135.488281 183.347656 135.757812 183.234375 C 136.027344 183.121094 136.3125 183.066406 136.605469 183.066406 Z M 136.605469 183.066406 " fill-opacity="1" fill-rule="nonzero"/><path fill="#0ff2b2" d="M 156.515625 169.792969 L 167.578125 169.792969 C 167.871094 169.792969 168.15625 169.847656 168.425781 169.960938 C 168.695312 170.074219 168.9375 170.230469 169.144531 170.441406 C 169.351562 170.648438 169.511719 170.886719 169.625 171.15625 C 169.734375 171.429688 169.792969 171.710938 169.792969 172.003906 L 169.792969 202.980469 C 169.792969 203.273438 169.734375 203.554688 169.625 203.824219 C 169.511719 204.097656 169.351562 204.335938 169.144531 204.542969 C 168.9375 204.75 168.695312 204.910156 168.425781 205.023438 C 168.15625 205.136719 167.871094 205.191406 167.578125 205.191406 L 156.515625 205.191406 C 156.222656 205.191406 155.941406 205.136719 155.671875 205.023438 C 155.398438 204.910156 155.160156 204.75 154.953125 204.542969 C 154.746094 204.335938 154.585938 204.097656 154.472656 203.824219 C 154.359375 203.554688 154.304688 203.273438 154.304688 202.980469 L 154.304688 172.003906 C 154.304688 171.710938 154.359375 171.429688 154.472656 171.15625 C 154.585938 170.886719 154.746094 170.648438 154.953125 170.441406 C 155.160156 170.230469 155.398438 170.074219 155.671875 169.960938 C 155.941406 169.847656 156.222656 169.792969 156.515625 169.792969 Z M 156.515625 169.792969 " fill-opacity="1" fill-rule="nonzero"/><path fill="#0ff2b2" d="M 176.429688 176.429688 L 187.492188 176.429688 C 187.785156 176.429688 188.066406 176.484375 188.339844 176.597656 C 188.609375 176.710938 188.847656 176.871094 189.054688 177.078125 C 189.261719 177.285156 189.421875 177.523438 189.535156 177.796875 C 189.648438 178.066406 189.703125 178.347656 189.703125 178.640625 L 189.703125 202.980469 C 189.703125 203.273438 189.648438 203.554688 189.535156 203.824219 C 189.421875 204.097656 189.261719 204.335938 189.054688 204.542969 C 188.847656 204.75 188.609375 204.910156 188.339844 205.023438 C 188.066406 205.136719 187.785156 205.191406 187.492188 205.191406 L 176.429688 205.191406 C 176.136719 205.191406 175.855469 205.136719 175.582031 205.023438 C 175.3125 204.910156 175.070312 204.75 174.863281 204.542969 C 174.65625 204.335938 174.496094 204.097656 174.386719 203.824219 C 174.273438 203.554688 174.214844 203.273438 174.214844 202.980469 L 174.214844 178.640625 C 174.214844 178.347656 174.273438 178.066406 174.386719 177.796875 C 174.496094 177.523438 174.65625 177.285156 174.863281 177.078125 C 175.070312 176.871094 175.3125 176.710938 175.582031 176.597656 C 175.855469 176.484375 176.136719 176.429688 176.429688 176.429688 Z M 176.429688 176.429688 " fill-opacity="1" fill-rule="nonzero"/><path fill="#0a0f26" d="M 163.152344 149.878906 L 136.605469 149.878906 C 135.386719 149.878906 134.390625 148.882812 134.390625 147.667969 C 134.390625 146.449219 135.386719 145.453125 136.605469 145.453125 L 163.152344 145.453125 C 164.371094 145.453125 165.367188 146.449219 165.367188 147.667969 C 165.367188 148.882812 164.371094 149.878906 163.152344 149.878906 Z M 163.152344 149.878906 " fill-opacity="1" fill-rule="nonzero"/><path fill="#0a0f26" d="M 163.152344 158.730469 L 136.605469 158.730469 C 135.386719 158.730469 134.390625 157.734375 134.390625 156.515625 C 134.390625 155.300781 135.386719 154.304688 136.605469 154.304688 L 163.152344 154.304688 C 164.371094 154.304688 165.367188 155.300781 165.367188 156.515625 C 165.367188 157.734375 164.371094 158.730469 163.152344 158.730469 Z M 163.152344 158.730469 " fill-opacity="1" fill-rule="nonzero"/><path fill="#0a0f26" d="M 147.667969 167.578125 L 136.605469 167.578125 C 135.386719 167.578125 134.390625 166.582031 134.390625 165.367188 C 134.390625 164.148438 135.386719 163.152344 136.605469 163.152344 L 147.667969 163.152344 C 148.882812 163.152344 149.878906 164.148438 149.878906 165.367188 C 149.878906 166.582031 148.882812 167.578125 147.667969 167.578125 Z M 147.667969 167.578125 " fill-opacity="1" fill-rule="nonzero"/><g clip-path="url(#0e498bb058)"><path fill="#6b71f2" d="M 253.867188 145.453125 C 253.867188 146.25 253.828125 147.046875 253.75 147.839844 C 253.671875 148.632812 253.554688 149.421875 253.398438 150.203125 C 253.242188 150.984375 253.050781 151.757812 252.820312 152.519531 C 252.585938 153.28125 252.320312 154.03125 252.015625 154.769531 C 251.710938 155.503906 251.367188 156.222656 250.992188 156.925781 C 250.617188 157.628906 250.207031 158.3125 249.765625 158.976562 C 249.320312 159.636719 248.847656 160.277344 248.34375 160.894531 C 247.835938 161.511719 247.300781 162.101562 246.738281 162.664062 C 246.175781 163.226562 245.585938 163.761719 244.96875 164.265625 C 244.351562 164.773438 243.714844 165.246094 243.050781 165.691406 C 242.386719 166.132812 241.703125 166.542969 241 166.917969 C 240.300781 167.292969 239.578125 167.632812 238.84375 167.9375 C 238.105469 168.246094 237.355469 168.511719 236.59375 168.742188 C 235.832031 168.976562 235.058594 169.167969 234.277344 169.324219 C 233.496094 169.480469 232.707031 169.597656 231.914062 169.675781 C 231.121094 169.753906 230.328125 169.792969 229.527344 169.792969 C 228.730469 169.792969 227.9375 169.753906 227.144531 169.675781 C 226.351562 169.597656 225.5625 169.480469 224.78125 169.324219 C 224 169.167969 223.226562 168.976562 222.464844 168.742188 C 221.703125 168.511719 220.953125 168.246094 220.214844 167.9375 C 219.480469 167.632812 218.757812 167.292969 218.054688 166.917969 C 217.355469 166.542969 216.671875 166.132812 216.007812 165.691406 C 215.34375 165.246094 214.707031 164.773438 214.089844 164.265625 C 213.472656 163.761719 212.882812 163.226562 212.320312 162.664062 C 211.757812 162.101562 211.222656 161.511719 210.714844 160.894531 C 210.210938 160.277344 209.734375 159.636719 209.292969 158.976562 C 208.851562 158.3125 208.441406 157.628906 208.066406 156.925781 C 207.691406 156.222656 207.347656 155.503906 207.042969 154.769531 C 206.738281 154.03125 206.472656 153.28125 206.238281 152.519531 C 206.007812 151.757812 205.816406 150.984375 205.660156 150.203125 C 205.503906 149.421875 205.386719 148.632812 205.308594 147.839844 C 205.230469 147.046875 205.191406 146.25 205.191406 145.453125 C 205.191406 144.65625 205.230469 143.863281 205.308594 143.070312 C 205.386719 142.277344 205.503906 141.488281 205.660156 140.707031 C 205.816406 139.925781 206.007812 139.152344 206.238281 138.390625 C 206.472656 137.625 206.738281 136.878906 207.042969 136.140625 C 207.347656 135.402344 207.691406 134.683594 208.066406 133.980469 C 208.441406 133.277344 208.851562 132.597656 209.292969 131.933594 C 209.734375 131.269531 210.210938 130.628906 210.714844 130.015625 C 211.222656 129.398438 211.757812 128.808594 212.320312 128.246094 C 212.882812 127.679688 213.472656 127.148438 214.089844 126.640625 C 214.707031 126.136719 215.34375 125.660156 216.007812 125.21875 C 216.671875 124.777344 217.355469 124.367188 218.054688 123.992188 C 218.757812 123.613281 219.480469 123.273438 220.214844 122.96875 C 220.953125 122.664062 221.703125 122.394531 222.464844 122.164062 C 223.226562 121.933594 224 121.738281 224.78125 121.585938 C 225.5625 121.429688 226.351562 121.3125 227.144531 121.234375 C 227.9375 121.15625 228.730469 121.117188 229.527344 121.117188 C 230.328125 121.117188 231.121094 121.15625 231.914062 121.234375 C 232.707031 121.3125 233.496094 121.429688 234.277344 121.585938 C 235.058594 121.738281 235.832031 121.933594 236.59375 122.164062 C 237.355469 122.394531 238.105469 122.664062 238.84375 122.96875 C 239.578125 123.273438 240.300781 123.613281 241 123.992188 C 241.703125 124.367188 242.386719 124.777344 243.050781 125.21875 C 243.714844 125.660156 244.351562 126.136719 244.96875 126.640625 C 245.585938 127.148438 246.175781 127.679688 246.738281 128.246094 C 247.300781 128.808594 247.835938 129.398438 248.34375 130.015625 C 248.847656 130.628906 249.320312 131.269531 249.765625 131.933594 C 250.207031 132.597656 250.617188 133.277344 250.992188 133.980469 C 251.367188 134.683594 251.710938 135.402344 252.015625 136.140625 C 252.320312 136.878906 252.585938 137.625 252.820312 138.390625 C 253.050781 139.152344 253.242188 139.925781 253.398438 140.707031 C 253.554688 141.488281 253.671875 142.277344 253.75 143.070312 C 253.828125 143.863281 253.867188 144.65625 253.867188 145.453125 Z M 253.867188 145.453125 " fill-opacity="1" fill-rule="nonzero"/></g><path fill="#ffffff" d="M 236.167969 152.089844 C 235.746094 152.089844 235.324219 151.980469 234.949219 151.714844 L 228.3125 147.289062 C 227.691406 146.871094 227.316406 146.183594 227.316406 145.453125 L 227.316406 134.390625 C 227.316406 133.175781 228.3125 132.179688 229.527344 132.179688 C 230.746094 132.179688 231.742188 133.175781 231.742188 134.390625 L 231.742188 144.257812 L 237.382812 148.019531 C 238.402344 148.707031 238.667969 150.078125 238.003906 151.097656 C 237.582031 151.738281 236.875 152.089844 236.167969 152.089844 Z M 236.167969 152.089844 " fill-opacity="1" fill-rule="nonzero"/><path fill="#ffffff" d="M 207.402344 222.890625 L 216.253906 222.890625 C 216.546875 222.890625 216.828125 222.949219 217.101562 223.058594 C 217.371094 223.171875 217.609375 223.332031 217.820312 223.539062 C 218.027344 223.746094 218.1875 223.988281 218.296875 224.257812 C 218.410156 224.527344 218.464844 224.8125 218.464844 225.105469 L 218.464844 233.953125 C 218.464844 234.246094 218.410156 234.53125 218.296875 234.800781 C 218.1875 235.070312 218.027344 235.3125 217.820312 235.519531 C 217.609375 235.726562 217.371094 235.886719 217.101562 236 C 216.828125 236.109375 216.546875 236.167969 216.253906 236.167969 L 207.402344 236.167969 C 207.109375 236.167969 206.828125 236.109375 206.558594 236 C 206.285156 235.886719 206.046875 235.726562 205.839844 235.519531 C 205.632812 235.3125 205.472656 235.070312 205.359375 234.800781 C 205.246094 234.53125 205.191406 234.246094 205.191406 233.953125 L 205.191406 225.105469 C 205.191406 224.8125 205.246094 224.527344 205.359375 224.257812 C 205.472656 223.988281 205.632812 223.746094 205.839844 223.539062 C 206.046875 223.332031 206.285156 223.171875 206.558594 223.058594 C 206.828125 222.949219 207.109375 222.890625 207.402344 222.890625 Z M 207.402344 222.890625 " fill-opacity="1" fill-rule="nonzero"/></svg>