<svg xmlns="http://www.w3.org/2000/svg" xmlns:xlink="http://www.w3.org/1999/xlink" width="500" zoomAndPan="magnify" viewBox="0 0 375 374.999991" height="500" preserveAspectRatio="xMidYMid meet" version="1.0"><defs><clipPath id="6b1458febc"><path d="M 110.433594 110.433594 L 264.933594 110.433594 L 264.933594 264.933594 L 110.433594 264.933594 Z M 110.433594 110.433594 " clip-rule="nonzero"/></clipPath><clipPath id="25f689e159"><path d="M 167.746094 249.980469 L 168.441406 249.980469 L 168.917969 251.410156 C 171.613281 259.496094 179.15625 264.933594 187.683594 264.933594 C 196.210938 264.933594 203.75 259.496094 206.445312 251.410156 L 206.921875 249.980469 L 207.617188 249.980469 C 210.367188 249.980469 212.601562 247.746094 212.601562 244.996094 L 212.601562 223.113281 C 212.601562 217.71875 215.136719 212.566406 219.375 209.335938 C 232.488281 199.339844 240.011719 184.183594 240.011719 167.746094 C 240.011719 159.464844 238.132812 151.539062 234.425781 144.195312 L 229.976562 146.441406 C 233.328125 153.082031 235.027344 160.25 235.027344 167.746094 C 235.027344 182.613281 228.222656 196.328125 216.355469 205.371094 C 210.882812 209.539062 207.617188 216.167969 207.617188 223.113281 L 207.617188 225.0625 L 200.140625 225.0625 L 200.140625 211.140625 L 205.125 206.15625 L 205.125 200.140625 L 210.109375 200.140625 L 210.109375 190.175781 L 215.09375 190.175781 L 215.09375 185.191406 L 210.109375 185.191406 L 210.109375 180.207031 L 215.09375 180.207031 L 215.09375 175.222656 L 210.109375 175.222656 L 210.109375 170.238281 L 215.09375 170.238281 L 215.09375 165.253906 L 210.109375 165.253906 L 210.109375 155.285156 L 200.140625 155.285156 L 200.140625 150.304688 L 195.15625 150.304688 L 195.15625 155.285156 L 190.175781 155.285156 L 190.175781 150.304688 L 185.191406 150.304688 L 185.191406 155.285156 L 180.207031 155.285156 L 180.207031 150.304688 L 175.222656 150.304688 L 175.222656 155.285156 L 165.253906 155.285156 L 165.253906 165.253906 L 160.269531 165.253906 L 160.269531 170.238281 L 165.253906 170.238281 L 165.253906 175.222656 L 160.269531 175.222656 L 160.269531 180.207031 L 165.253906 180.207031 L 165.253906 185.191406 L 160.269531 185.191406 L 160.269531 190.175781 L 165.253906 190.175781 L 165.253906 200.140625 L 170.238281 200.140625 L 170.238281 206.15625 L 175.222656 211.140625 L 175.222656 225.0625 L 167.746094 225.0625 L 167.746094 223.113281 C 167.746094 216.167969 164.476562 209.535156 159.003906 205.367188 C 147.132812 196.320312 140.328125 182.601562 140.335938 167.730469 C 140.335938 160.398438 142.121094 153.042969 145.496094 146.457031 L 141.058594 144.183594 C 137.328125 151.46875 135.355469 159.613281 135.351562 167.730469 C 135.347656 184.171875 142.867188 199.335938 155.984375 209.332031 C 160.226562 212.566406 162.761719 217.71875 162.761719 223.113281 L 162.761719 244.996094 C 162.761719 247.746094 164.996094 249.980469 167.746094 249.980469 Z M 187.683594 259.949219 C 181.359375 259.949219 175.769531 255.945312 173.710938 249.980469 L 201.652344 249.980469 C 199.59375 255.945312 194.007812 259.949219 187.683594 259.949219 Z M 167.746094 244.996094 L 167.746094 240.011719 L 207.617188 240.011719 L 207.617188 244.996094 Z M 170.238281 160.269531 L 205.125 160.269531 L 205.125 195.15625 L 170.238281 195.15625 Z M 175.222656 204.09375 L 175.222656 200.140625 L 185.191406 200.140625 L 185.191406 205.125 L 190.175781 205.125 L 190.175781 200.140625 L 200.140625 200.140625 L 200.140625 204.09375 L 195.15625 209.078125 L 195.15625 225.0625 L 190.175781 225.0625 L 190.175781 210.109375 L 185.191406 210.109375 L 185.191406 225.0625 L 180.207031 225.0625 L 180.207031 209.078125 Z M 207.617188 230.042969 L 207.617188 235.027344 L 167.746094 235.027344 L 167.746094 230.042969 Z M 175.222656 190.175781 L 200.140625 190.175781 L 200.140625 165.253906 L 175.222656 165.253906 Z M 180.207031 170.238281 L 195.15625 170.238281 L 195.15625 185.191406 L 180.207031 185.191406 Z M 187.683594 110.433594 C 183.558594 110.433594 180.207031 113.785156 180.207031 117.90625 C 180.207031 122.03125 183.558594 125.382812 187.683594 125.382812 C 191.804688 125.382812 195.15625 122.03125 195.15625 117.90625 C 195.15625 113.785156 191.804688 110.433594 187.683594 110.433594 Z M 187.683594 120.398438 C 186.308594 120.398438 185.191406 119.28125 185.191406 117.90625 C 185.191406 116.535156 186.308594 115.414062 187.683594 115.414062 C 189.054688 115.414062 190.175781 116.535156 190.175781 117.90625 C 190.175781 119.28125 189.054688 120.398438 187.683594 120.398438 Z M 185.191406 130.367188 L 190.175781 130.367188 L 190.175781 145.320312 L 185.191406 145.320312 Z M 170.238281 115.414062 L 165.253906 115.414062 L 165.253906 110.433594 L 170.238281 110.433594 Z M 165.253906 120.398438 L 170.238281 120.398438 L 170.238281 123.84375 L 180.207031 128.828125 L 180.207031 145.320312 L 175.222656 145.320312 L 175.222656 131.90625 L 165.253906 126.921875 Z M 145.320312 135.351562 L 170.238281 135.351562 L 170.238281 150.304688 L 165.253906 150.304688 L 165.253906 140.335938 L 145.320312 140.335938 Z M 140.335938 135.351562 L 140.335938 140.335938 L 135.351562 140.335938 L 135.351562 135.351562 Z M 157.777344 264.933594 L 152.792969 264.933594 L 152.792969 259.949219 L 157.777344 259.949219 Z M 147.8125 227.554688 C 147.8125 226.179688 146.691406 225.0625 145.320312 225.0625 L 122.890625 225.0625 C 118.769531 225.0625 115.414062 221.707031 115.414062 217.585938 C 115.414062 213.464844 118.769531 210.109375 122.890625 210.109375 L 135.351562 210.109375 C 136.722656 210.109375 137.84375 208.992188 137.84375 207.617188 C 137.84375 206.246094 136.722656 205.125 135.351562 205.125 L 117.90625 205.125 C 113.785156 205.125 110.433594 201.769531 110.433594 197.648438 C 110.433594 193.527344 113.785156 190.175781 117.90625 190.175781 L 125.382812 190.175781 L 125.382812 195.15625 L 117.90625 195.15625 C 116.535156 195.15625 115.414062 196.277344 115.414062 197.648438 C 115.414062 199.023438 116.535156 200.140625 117.90625 200.140625 L 135.351562 200.140625 C 139.472656 200.140625 142.828125 203.496094 142.828125 207.617188 C 142.828125 211.738281 139.472656 215.09375 135.351562 215.09375 L 122.890625 215.09375 C 121.519531 215.09375 120.398438 216.210938 120.398438 217.585938 C 120.398438 218.957031 121.519531 220.078125 122.890625 220.078125 L 145.320312 220.078125 C 149.441406 220.078125 152.792969 223.429688 152.792969 227.554688 C 152.792969 231.675781 149.441406 235.027344 145.320312 235.027344 L 117.90625 235.027344 C 116.535156 235.027344 115.414062 236.148438 115.414062 237.519531 C 115.414062 238.894531 116.535156 240.011719 117.90625 240.011719 L 150.304688 240.011719 C 154.425781 240.011719 157.777344 243.367188 157.777344 247.488281 C 157.777344 251.609375 154.425781 254.964844 150.304688 254.964844 L 132.859375 254.964844 C 131.488281 254.964844 130.367188 256.082031 130.367188 257.457031 C 130.367188 258.828125 131.488281 259.949219 132.859375 259.949219 L 147.8125 259.949219 L 147.8125 264.933594 L 132.859375 264.933594 C 128.738281 264.933594 125.382812 261.578125 125.382812 257.457031 C 125.382812 253.335938 128.738281 249.980469 132.859375 249.980469 L 150.304688 249.980469 C 151.675781 249.980469 152.792969 248.863281 152.792969 247.488281 C 152.792969 246.117188 151.675781 244.996094 150.304688 244.996094 L 117.90625 244.996094 C 113.785156 244.996094 110.433594 241.640625 110.433594 237.519531 C 110.433594 233.398438 113.785156 230.042969 117.90625 230.042969 L 145.320312 230.042969 C 146.691406 230.042969 147.8125 228.925781 147.8125 227.554688 Z M 205.125 110.433594 L 210.109375 110.433594 L 210.109375 115.414062 L 205.125 115.414062 Z M 205.125 120.398438 L 210.109375 120.398438 L 210.109375 126.921875 L 200.140625 131.90625 L 200.140625 145.320312 L 195.15625 145.320312 L 195.15625 128.828125 L 205.125 123.84375 Z M 205.125 135.351562 L 230.042969 135.351562 L 230.042969 140.335938 L 210.109375 140.335938 L 210.109375 150.304688 L 205.125 150.304688 Z M 240.011719 140.335938 L 235.027344 140.335938 L 235.027344 135.351562 L 240.011719 135.351562 Z M 222.570312 264.933594 L 217.585938 264.933594 L 217.585938 259.949219 L 222.570312 259.949219 Z M 237.519531 207.617188 C 237.519531 208.992188 238.640625 210.109375 240.011719 210.109375 L 252.472656 210.109375 C 256.59375 210.109375 259.949219 213.464844 259.949219 217.585938 C 259.949219 221.707031 256.59375 225.0625 252.472656 225.0625 L 230.042969 225.0625 C 228.671875 225.0625 227.554688 226.179688 227.554688 227.554688 C 227.554688 228.925781 228.671875 230.042969 230.042969 230.042969 L 257.457031 230.042969 C 261.578125 230.042969 264.933594 233.398438 264.933594 237.519531 C 264.933594 241.640625 261.578125 244.996094 257.457031 244.996094 L 225.0625 244.996094 C 223.6875 244.996094 222.570312 246.117188 222.570312 247.488281 C 222.570312 248.863281 223.6875 249.980469 225.0625 249.980469 L 242.503906 249.980469 C 246.625 249.980469 249.980469 253.335938 249.980469 257.457031 C 249.980469 261.578125 246.625 264.933594 242.503906 264.933594 L 227.554688 264.933594 L 227.554688 259.949219 L 242.503906 259.949219 C 243.878906 259.949219 244.996094 258.828125 244.996094 257.457031 C 244.996094 256.082031 243.878906 254.964844 242.503906 254.964844 L 225.0625 254.964844 C 220.9375 254.964844 217.585938 251.609375 217.585938 247.488281 C 217.585938 243.367188 220.9375 240.011719 225.0625 240.011719 L 257.457031 240.011719 C 258.828125 240.011719 259.949219 238.894531 259.949219 237.519531 C 259.949219 236.148438 258.828125 235.027344 257.457031 235.027344 L 230.042969 235.027344 C 225.921875 235.027344 222.570312 231.675781 222.570312 227.554688 C 222.570312 223.429688 225.921875 220.078125 230.042969 220.078125 L 252.472656 220.078125 C 253.84375 220.078125 254.964844 218.957031 254.964844 217.585938 C 254.964844 216.210938 253.84375 215.09375 252.472656 215.09375 L 240.011719 215.09375 C 235.890625 215.09375 232.535156 211.738281 232.535156 207.617188 C 232.535156 203.496094 235.890625 200.140625 240.011719 200.140625 L 257.457031 200.140625 C 258.828125 200.140625 259.949219 199.023438 259.949219 197.648438 C 259.949219 196.277344 258.828125 195.15625 257.457031 195.15625 L 249.980469 195.15625 L 249.980469 190.175781 L 257.457031 190.175781 C 261.578125 190.175781 264.933594 193.527344 264.933594 197.648438 C 264.933594 201.769531 261.578125 205.125 257.457031 205.125 L 240.011719 205.125 C 238.640625 205.125 237.519531 206.246094 237.519531 207.617188 Z M 237.519531 207.617188 " clip-rule="nonzero"/></clipPath><linearGradient x1="31" gradientTransform="matrix(2.491935, 0, 0, 2.491935, 110.431986, 110.432007)" y1="61.999992" x2="31" gradientUnits="userSpaceOnUse" y2="-0.00000906979" id="e18edbdd0a"><stop stop-opacity="1" stop-color="rgb(62.399292%, 18.399048%, 99.998474%)" offset="0"/><stop stop-opacity="1" stop-color="rgb(62.171936%, 18.597412%, 99.931335%)" offset="0.00390625"/><stop stop-opacity="1" stop-color="rgb(61.94458%, 18.797302%, 99.864197%)" offset="0.0078125"/><stop stop-opacity="1" stop-color="rgb(61.717224%, 18.995667%, 99.795532%)" offset="0.0117187"/><stop stop-opacity="1" stop-color="rgb(61.491394%, 19.195557%, 99.728394%)" offset="0.015625"/><stop stop-opacity="1" stop-color="rgb(61.264038%, 19.393921%, 99.661255%)" offset="0.0195312"/><stop stop-opacity="1" stop-color="rgb(61.038208%, 19.593811%, 99.594116%)" offset="0.0234375"/><stop stop-opacity="1" stop-color="rgb(60.810852%, 19.793701%, 99.525452%)" offset="0.0273438"/><stop stop-opacity="1" stop-color="rgb(60.583496%, 19.993591%, 99.458313%)" offset="0.03125"/><stop stop-opacity="1" stop-color="rgb(60.35614%, 20.191956%, 99.391174%)" offset="0.0351562"/><stop stop-opacity="1" stop-color="rgb(60.13031%, 20.391846%, 99.324036%)" offset="0.0390625"/><stop stop-opacity="1" stop-color="rgb(59.902954%, 20.59021%, 99.255371%)" offset="0.0429688"/><stop stop-opacity="1" stop-color="rgb(59.675598%, 20.7901%, 99.188232%)" offset="0.046875"/><stop stop-opacity="1" stop-color="rgb(59.448242%, 20.988464%, 99.119568%)" offset="0.0507812"/><stop stop-opacity="1" stop-color="rgb(59.222412%, 21.188354%, 99.052429%)" offset="0.0546875"/><stop stop-opacity="1" stop-color="rgb(58.995056%, 21.386719%, 98.985291%)" offset="0.0585938"/><stop stop-opacity="1" stop-color="rgb(58.7677%, 21.586609%, 98.918152%)" offset="0.0625"/><stop stop-opacity="1" stop-color="rgb(58.540344%, 21.784973%, 98.849487%)" offset="0.0664062"/><stop stop-opacity="1" stop-color="rgb(58.314514%, 21.984863%, 98.782349%)" offset="0.0703125"/><stop stop-opacity="1" stop-color="rgb(58.087158%, 22.183228%, 98.71521%)" offset="0.0742187"/><stop stop-opacity="1" stop-color="rgb(57.859802%, 22.383118%, 98.648071%)" offset="0.078125"/><stop stop-opacity="1" stop-color="rgb(57.632446%, 22.581482%, 98.579407%)" offset="0.0820312"/><stop stop-opacity="1" stop-color="rgb(57.406616%, 22.781372%, 98.512268%)" offset="0.0859375"/><stop stop-opacity="1" stop-color="rgb(57.17926%, 22.981262%, 98.445129%)" offset="0.0898437"/><stop stop-opacity="1" stop-color="rgb(56.951904%, 23.181152%, 98.377991%)" offset="0.09375"/><stop stop-opacity="1" stop-color="rgb(56.724548%, 23.379517%, 98.309326%)" offset="0.0976562"/><stop stop-opacity="1" stop-color="rgb(56.498718%, 23.579407%, 98.242188%)" offset="0.101562"/><stop stop-opacity="1" stop-color="rgb(56.271362%, 23.777771%, 98.173523%)" offset="0.105469"/><stop stop-opacity="1" stop-color="rgb(56.044006%, 23.977661%, 98.106384%)" offset="0.109375"/><stop stop-opacity="1" stop-color="rgb(55.81665%, 24.176025%, 98.039246%)" offset="0.113281"/><stop stop-opacity="1" stop-color="rgb(55.59082%, 24.375916%, 97.972107%)" offset="0.117187"/><stop stop-opacity="1" stop-color="rgb(55.363464%, 24.57428%, 97.903442%)" offset="0.121094"/><stop stop-opacity="1" stop-color="rgb(55.136108%, 24.77417%, 97.836304%)" offset="0.125"/><stop stop-opacity="1" stop-color="rgb(54.908752%, 24.972534%, 97.769165%)" offset="0.128906"/><stop stop-opacity="1" stop-color="rgb(54.682922%, 25.172424%, 97.702026%)" offset="0.132812"/><stop stop-opacity="1" stop-color="rgb(54.455566%, 25.370789%, 97.633362%)" offset="0.136719"/><stop stop-opacity="1" stop-color="rgb(54.22821%, 25.570679%, 97.566223%)" offset="0.140625"/><stop stop-opacity="1" stop-color="rgb(54.000854%, 25.769043%, 97.499084%)" offset="0.144531"/><stop stop-opacity="1" stop-color="rgb(53.775024%, 25.968933%, 97.431946%)" offset="0.148437"/><stop stop-opacity="1" stop-color="rgb(53.547668%, 26.168823%, 97.363281%)" offset="0.152344"/><stop stop-opacity="1" stop-color="rgb(53.321838%, 26.368713%, 97.296143%)" offset="0.15625"/><stop stop-opacity="1" stop-color="rgb(53.094482%, 26.567078%, 97.227478%)" offset="0.160156"/><stop stop-opacity="1" stop-color="rgb(52.867126%, 26.766968%, 97.160339%)" offset="0.164062"/><stop stop-opacity="1" stop-color="rgb(52.639771%, 26.965332%, 97.093201%)" offset="0.167969"/><stop stop-opacity="1" stop-color="rgb(52.41394%, 27.165222%, 97.026062%)" offset="0.171875"/><stop stop-opacity="1" stop-color="rgb(52.186584%, 27.363586%, 96.957397%)" offset="0.175781"/><stop stop-opacity="1" stop-color="rgb(51.959229%, 27.563477%, 96.890259%)" offset="0.179687"/><stop stop-opacity="1" stop-color="rgb(51.731873%, 27.761841%, 96.82312%)" offset="0.183594"/><stop stop-opacity="1" stop-color="rgb(51.506042%, 27.961731%, 96.755981%)" offset="0.1875"/><stop stop-opacity="1" stop-color="rgb(51.278687%, 28.160095%, 96.687317%)" offset="0.191406"/><stop stop-opacity="1" stop-color="rgb(51.051331%, 28.359985%, 96.620178%)" offset="0.195312"/><stop stop-opacity="1" stop-color="rgb(50.823975%, 28.55835%, 96.55304%)" offset="0.199219"/><stop stop-opacity="1" stop-color="rgb(50.598145%, 28.75824%, 96.485901%)" offset="0.203125"/><stop stop-opacity="1" stop-color="rgb(50.370789%, 28.956604%, 96.417236%)" offset="0.207031"/><stop stop-opacity="1" stop-color="rgb(50.143433%, 29.156494%, 96.350098%)" offset="0.210937"/><stop stop-opacity="1" stop-color="rgb(49.916077%, 29.354858%, 96.281433%)" offset="0.214844"/><stop stop-opacity="1" stop-color="rgb(49.690247%, 29.554749%, 96.214294%)" offset="0.21875"/><stop stop-opacity="1" stop-color="rgb(49.462891%, 29.754639%, 96.147156%)" offset="0.222656"/><stop stop-opacity="1" stop-color="rgb(49.235535%, 29.954529%, 96.080017%)" offset="0.226562"/><stop stop-opacity="1" stop-color="rgb(49.008179%, 30.152893%, 96.011353%)" offset="0.230469"/><stop stop-opacity="1" stop-color="rgb(48.782349%, 30.352783%, 95.944214%)" offset="0.234375"/><stop stop-opacity="1" stop-color="rgb(48.554993%, 30.551147%, 95.877075%)" offset="0.238281"/><stop stop-opacity="1" stop-color="rgb(48.327637%, 30.751038%, 95.809937%)" offset="0.242187"/><stop stop-opacity="1" stop-color="rgb(48.100281%, 30.949402%, 95.741272%)" offset="0.246094"/><stop stop-opacity="1" stop-color="rgb(47.874451%, 31.149292%, 95.674133%)" offset="0.25"/><stop stop-opacity="1" stop-color="rgb(47.647095%, 31.347656%, 95.605469%)" offset="0.253906"/><stop stop-opacity="1" stop-color="rgb(47.419739%, 31.547546%, 95.53833%)" offset="0.257812"/><stop stop-opacity="1" stop-color="rgb(47.192383%, 31.745911%, 95.471191%)" offset="0.261719"/><stop stop-opacity="1" stop-color="rgb(46.966553%, 31.945801%, 95.404053%)" offset="0.265625"/><stop stop-opacity="1" stop-color="rgb(46.739197%, 32.144165%, 95.335388%)" offset="0.269531"/><stop stop-opacity="1" stop-color="rgb(46.511841%, 32.344055%, 95.26825%)" offset="0.273437"/><stop stop-opacity="1" stop-color="rgb(46.284485%, 32.542419%, 95.201111%)" offset="0.277344"/><stop stop-opacity="1" stop-color="rgb(46.058655%, 32.74231%, 95.133972%)" offset="0.28125"/><stop stop-opacity="1" stop-color="rgb(45.831299%, 32.9422%, 95.065308%)" offset="0.285156"/><stop stop-opacity="1" stop-color="rgb(45.603943%, 33.14209%, 94.998169%)" offset="0.289062"/><stop stop-opacity="1" stop-color="rgb(45.376587%, 33.340454%, 94.93103%)" offset="0.292969"/><stop stop-opacity="1" stop-color="rgb(45.150757%, 33.540344%, 94.863892%)" offset="0.296875"/><stop stop-opacity="1" stop-color="rgb(44.923401%, 33.738708%, 94.795227%)" offset="0.300781"/><stop stop-opacity="1" stop-color="rgb(44.697571%, 33.938599%, 94.728088%)" offset="0.304687"/><stop stop-opacity="1" stop-color="rgb(44.470215%, 34.136963%, 94.659424%)" offset="0.308594"/><stop stop-opacity="1" stop-color="rgb(44.242859%, 34.336853%, 94.592285%)" offset="0.3125"/><stop stop-opacity="1" stop-color="rgb(44.015503%, 34.535217%, 94.525146%)" offset="0.316406"/><stop stop-opacity="1" stop-color="rgb(43.789673%, 34.735107%, 94.458008%)" offset="0.320312"/><stop stop-opacity="1" stop-color="rgb(43.562317%, 34.933472%, 94.389343%)" offset="0.324219"/><stop stop-opacity="1" stop-color="rgb(43.334961%, 35.133362%, 94.322205%)" offset="0.328125"/><stop stop-opacity="1" stop-color="rgb(43.107605%, 35.331726%, 94.255066%)" offset="0.332031"/><stop stop-opacity="1" stop-color="rgb(42.881775%, 35.531616%, 94.187927%)" offset="0.335937"/><stop stop-opacity="1" stop-color="rgb(42.654419%, 35.72998%, 94.119263%)" offset="0.339844"/><stop stop-opacity="1" stop-color="rgb(42.427063%, 35.929871%, 94.052124%)" offset="0.34375"/><stop stop-opacity="1" stop-color="rgb(42.199707%, 36.129761%, 93.984985%)" offset="0.347656"/><stop stop-opacity="1" stop-color="rgb(41.973877%, 36.329651%, 93.917847%)" offset="0.351562"/><stop stop-opacity="1" stop-color="rgb(41.746521%, 36.528015%, 93.849182%)" offset="0.355469"/><stop stop-opacity="1" stop-color="rgb(41.519165%, 36.727905%, 93.782043%)" offset="0.359375"/><stop stop-opacity="1" stop-color="rgb(41.291809%, 36.92627%, 93.713379%)" offset="0.363281"/><stop stop-opacity="1" stop-color="rgb(41.065979%, 37.12616%, 93.64624%)" offset="0.367187"/><stop stop-opacity="1" stop-color="rgb(40.838623%, 37.324524%, 93.579102%)" offset="0.371094"/><stop stop-opacity="1" stop-color="rgb(40.611267%, 37.524414%, 93.511963%)" offset="0.375"/><stop stop-opacity="1" stop-color="rgb(40.383911%, 37.722778%, 93.443298%)" offset="0.378906"/><stop stop-opacity="1" stop-color="rgb(40.158081%, 37.922668%, 93.37616%)" offset="0.382812"/><stop stop-opacity="1" stop-color="rgb(39.930725%, 38.121033%, 93.309021%)" offset="0.386719"/><stop stop-opacity="1" stop-color="rgb(39.703369%, 38.320923%, 93.241882%)" offset="0.390625"/><stop stop-opacity="1" stop-color="rgb(39.476013%, 38.519287%, 93.173218%)" offset="0.394531"/><stop stop-opacity="1" stop-color="rgb(39.250183%, 38.719177%, 93.106079%)" offset="0.398437"/><stop stop-opacity="1" stop-color="rgb(39.022827%, 38.917542%, 93.03894%)" offset="0.402344"/><stop stop-opacity="1" stop-color="rgb(38.795471%, 39.117432%, 92.971802%)" offset="0.40625"/><stop stop-opacity="1" stop-color="rgb(38.568115%, 39.315796%, 92.903137%)" offset="0.410156"/><stop stop-opacity="1" stop-color="rgb(38.342285%, 39.515686%, 92.835999%)" offset="0.414062"/><stop stop-opacity="1" stop-color="rgb(38.114929%, 39.715576%, 92.767334%)" offset="0.417969"/><stop stop-opacity="1" stop-color="rgb(37.887573%, 39.915466%, 92.700195%)" offset="0.421875"/><stop stop-opacity="1" stop-color="rgb(37.660217%, 40.113831%, 92.633057%)" offset="0.425781"/><stop stop-opacity="1" stop-color="rgb(37.434387%, 40.313721%, 92.565918%)" offset="0.429687"/><stop stop-opacity="1" stop-color="rgb(37.207031%, 40.512085%, 92.497253%)" offset="0.433594"/><stop stop-opacity="1" stop-color="rgb(36.981201%, 40.711975%, 92.430115%)" offset="0.4375"/><stop stop-opacity="1" stop-color="rgb(36.753845%, 40.910339%, 92.362976%)" offset="0.441406"/><stop stop-opacity="1" stop-color="rgb(36.526489%, 41.110229%, 92.295837%)" offset="0.445312"/><stop stop-opacity="1" stop-color="rgb(36.299133%, 41.308594%, 92.227173%)" offset="0.449219"/><stop stop-opacity="1" stop-color="rgb(36.073303%, 41.508484%, 92.160034%)" offset="0.453125"/><stop stop-opacity="1" stop-color="rgb(35.845947%, 41.706848%, 92.092896%)" offset="0.457031"/><stop stop-opacity="1" stop-color="rgb(35.618591%, 41.906738%, 92.025757%)" offset="0.460937"/><stop stop-opacity="1" stop-color="rgb(35.391235%, 42.105103%, 91.957092%)" offset="0.464844"/><stop stop-opacity="1" stop-color="rgb(35.165405%, 42.304993%, 91.889954%)" offset="0.46875"/><stop stop-opacity="1" stop-color="rgb(34.938049%, 42.503357%, 91.821289%)" offset="0.472656"/><stop stop-opacity="1" stop-color="rgb(34.710693%, 42.703247%, 91.75415%)" offset="0.476562"/><stop stop-opacity="1" stop-color="rgb(34.483337%, 42.903137%, 91.687012%)" offset="0.480469"/><stop stop-opacity="1" stop-color="rgb(34.257507%, 43.103027%, 91.619873%)" offset="0.484375"/><stop stop-opacity="1" stop-color="rgb(34.030151%, 43.301392%, 91.551208%)" offset="0.488281"/><stop stop-opacity="1" stop-color="rgb(33.802795%, 43.501282%, 91.48407%)" offset="0.492187"/><stop stop-opacity="1" stop-color="rgb(33.575439%, 43.699646%, 91.416931%)" offset="0.496094"/><stop stop-opacity="1" stop-color="rgb(33.349609%, 43.899536%, 91.349792%)" offset="0.5"/><stop stop-opacity="1" stop-color="rgb(33.122253%, 44.0979%, 91.281128%)" offset="0.503906"/><stop stop-opacity="1" stop-color="rgb(32.894897%, 44.297791%, 91.213989%)" offset="0.507812"/><stop stop-opacity="1" stop-color="rgb(32.667542%, 44.496155%, 91.145325%)" offset="0.511719"/><stop stop-opacity="1" stop-color="rgb(32.441711%, 44.696045%, 91.078186%)" offset="0.515625"/><stop stop-opacity="1" stop-color="rgb(32.214355%, 44.894409%, 91.011047%)" offset="0.519531"/><stop stop-opacity="1" stop-color="rgb(31.987%, 45.094299%, 90.943909%)" offset="0.523438"/><stop stop-opacity="1" stop-color="rgb(31.759644%, 45.292664%, 90.875244%)" offset="0.527344"/><stop stop-opacity="1" stop-color="rgb(31.533813%, 45.492554%, 90.808105%)" offset="0.53125"/><stop stop-opacity="1" stop-color="rgb(31.306458%, 45.690918%, 90.740967%)" offset="0.535156"/><stop stop-opacity="1" stop-color="rgb(31.079102%, 45.890808%, 90.673828%)" offset="0.539062"/><stop stop-opacity="1" stop-color="rgb(30.851746%, 46.090698%, 90.605164%)" offset="0.542969"/><stop stop-opacity="1" stop-color="rgb(30.625916%, 46.290588%, 90.538025%)" offset="0.546875"/><stop stop-opacity="1" stop-color="rgb(30.39856%, 46.488953%, 90.470886%)" offset="0.550781"/><stop stop-opacity="1" stop-color="rgb(30.171204%, 46.688843%, 90.403748%)" offset="0.554688"/><stop stop-opacity="1" stop-color="rgb(29.943848%, 46.887207%, 90.335083%)" offset="0.558594"/><stop stop-opacity="1" stop-color="rgb(29.718018%, 47.087097%, 90.267944%)" offset="0.5625"/><stop stop-opacity="1" stop-color="rgb(29.490662%, 47.285461%, 90.19928%)" offset="0.566406"/><stop stop-opacity="1" stop-color="rgb(29.264832%, 47.485352%, 90.132141%)" offset="0.570312"/><stop stop-opacity="1" stop-color="rgb(29.037476%, 47.683716%, 90.065002%)" offset="0.574219"/><stop stop-opacity="1" stop-color="rgb(28.81012%, 47.883606%, 89.997864%)" offset="0.578125"/><stop stop-opacity="1" stop-color="rgb(28.582764%, 48.08197%, 89.929199%)" offset="0.582031"/><stop stop-opacity="1" stop-color="rgb(28.356934%, 48.28186%, 89.862061%)" offset="0.585938"/><stop stop-opacity="1" stop-color="rgb(28.129578%, 48.480225%, 89.794922%)" offset="0.589844"/><stop stop-opacity="1" stop-color="rgb(27.902222%, 48.680115%, 89.727783%)" offset="0.59375"/><stop stop-opacity="1" stop-color="rgb(27.674866%, 48.878479%, 89.659119%)" offset="0.597656"/><stop stop-opacity="1" stop-color="rgb(27.449036%, 49.078369%, 89.59198%)" offset="0.601562"/><stop stop-opacity="1" stop-color="rgb(27.22168%, 49.276733%, 89.524841%)" offset="0.605469"/><stop stop-opacity="1" stop-color="rgb(26.994324%, 49.476624%, 89.457703%)" offset="0.609375"/><stop stop-opacity="1" stop-color="rgb(26.766968%, 49.676514%, 89.389038%)" offset="0.613281"/><stop stop-opacity="1" stop-color="rgb(26.541138%, 49.876404%, 89.321899%)" offset="0.617188"/><stop stop-opacity="1" stop-color="rgb(26.313782%, 50.074768%, 89.253235%)" offset="0.621094"/><stop stop-opacity="1" stop-color="rgb(26.086426%, 50.274658%, 89.186096%)" offset="0.625"/><stop stop-opacity="1" stop-color="rgb(25.85907%, 50.473022%, 89.118958%)" offset="0.628906"/><stop stop-opacity="1" stop-color="rgb(25.63324%, 50.672913%, 89.051819%)" offset="0.632812"/><stop stop-opacity="1" stop-color="rgb(25.405884%, 50.871277%, 88.983154%)" offset="0.636719"/><stop stop-opacity="1" stop-color="rgb(25.178528%, 51.071167%, 88.916016%)" offset="0.640625"/><stop stop-opacity="1" stop-color="rgb(24.951172%, 51.269531%, 88.848877%)" offset="0.644531"/><stop stop-opacity="1" stop-color="rgb(24.725342%, 51.469421%, 88.781738%)" offset="0.648438"/><stop stop-opacity="1" stop-color="rgb(24.497986%, 51.667786%, 88.713074%)" offset="0.652344"/><stop stop-opacity="1" stop-color="rgb(24.27063%, 51.867676%, 88.645935%)" offset="0.65625"/><stop stop-opacity="1" stop-color="rgb(24.043274%, 52.06604%, 88.578796%)" offset="0.660156"/><stop stop-opacity="1" stop-color="rgb(23.817444%, 52.26593%, 88.511658%)" offset="0.664062"/><stop stop-opacity="1" stop-color="rgb(23.590088%, 52.464294%, 88.442993%)" offset="0.667969"/><stop stop-opacity="1" stop-color="rgb(23.362732%, 52.664185%, 88.375854%)" offset="0.671875"/><stop stop-opacity="1" stop-color="rgb(23.135376%, 52.864075%, 88.30719%)" offset="0.675781"/><stop stop-opacity="1" stop-color="rgb(22.909546%, 53.063965%, 88.240051%)" offset="0.679688"/><stop stop-opacity="1" stop-color="rgb(22.68219%, 53.262329%, 88.172913%)" offset="0.683594"/><stop stop-opacity="1" stop-color="rgb(22.454834%, 53.462219%, 88.105774%)" offset="0.6875"/><stop stop-opacity="1" stop-color="rgb(22.227478%, 53.660583%, 88.037109%)" offset="0.691406"/><stop stop-opacity="1" stop-color="rgb(22.001648%, 53.860474%, 87.969971%)" offset="0.695312"/><stop stop-opacity="1" stop-color="rgb(21.774292%, 54.058838%, 87.902832%)" offset="0.699219"/><stop stop-opacity="1" stop-color="rgb(21.546936%, 54.258728%, 87.835693%)" offset="0.703125"/><stop stop-opacity="1" stop-color="rgb(21.31958%, 54.457092%, 87.767029%)" offset="0.707031"/><stop stop-opacity="1" stop-color="rgb(21.09375%, 54.656982%, 87.69989%)" offset="0.710938"/><stop stop-opacity="1" stop-color="rgb(20.866394%, 54.855347%, 87.632751%)" offset="0.714844"/><stop stop-opacity="1" stop-color="rgb(20.640564%, 55.055237%, 87.565613%)" offset="0.71875"/><stop stop-opacity="1" stop-color="rgb(20.413208%, 55.253601%, 87.496948%)" offset="0.722656"/><stop stop-opacity="1" stop-color="rgb(20.185852%, 55.453491%, 87.42981%)" offset="0.726562"/><stop stop-opacity="1" stop-color="rgb(19.958496%, 55.651855%, 87.361145%)" offset="0.730469"/><stop stop-opacity="1" stop-color="rgb(19.732666%, 55.851746%, 87.294006%)" offset="0.734375"/><stop stop-opacity="1" stop-color="rgb(19.50531%, 56.051636%, 87.226868%)" offset="0.738281"/><stop stop-opacity="1" stop-color="rgb(19.277954%, 56.251526%, 87.159729%)" offset="0.742188"/><stop stop-opacity="1" stop-color="rgb(19.050598%, 56.44989%, 87.091064%)" offset="0.746094"/><stop stop-opacity="1" stop-color="rgb(18.824768%, 56.64978%, 87.023926%)" offset="0.75"/><stop stop-opacity="1" stop-color="rgb(18.597412%, 56.848145%, 86.956787%)" offset="0.753906"/><stop stop-opacity="1" stop-color="rgb(18.370056%, 57.048035%, 86.889648%)" offset="0.757812"/><stop stop-opacity="1" stop-color="rgb(18.1427%, 57.246399%, 86.820984%)" offset="0.761719"/><stop stop-opacity="1" stop-color="rgb(17.91687%, 57.446289%, 86.753845%)" offset="0.765625"/><stop stop-opacity="1" stop-color="rgb(17.689514%, 57.644653%, 86.685181%)" offset="0.769531"/><stop stop-opacity="1" stop-color="rgb(17.462158%, 57.844543%, 86.618042%)" offset="0.773438"/><stop stop-opacity="1" stop-color="rgb(17.234802%, 58.042908%, 86.550903%)" offset="0.777344"/><stop stop-opacity="1" stop-color="rgb(17.008972%, 58.242798%, 86.483765%)" offset="0.78125"/><stop stop-opacity="1" stop-color="rgb(16.781616%, 58.441162%, 86.4151%)" offset="0.785156"/><stop stop-opacity="1" stop-color="rgb(16.55426%, 58.641052%, 86.347961%)" offset="0.789062"/><stop stop-opacity="1" stop-color="rgb(16.326904%, 58.839417%, 86.280823%)" offset="0.792969"/><stop stop-opacity="1" stop-color="rgb(16.101074%, 59.039307%, 86.213684%)" offset="0.796875"/><stop stop-opacity="1" stop-color="rgb(15.873718%, 59.237671%, 86.14502%)" offset="0.800781"/><stop stop-opacity="1" stop-color="rgb(15.646362%, 59.437561%, 86.077881%)" offset="0.804688"/><stop stop-opacity="1" stop-color="rgb(15.419006%, 59.637451%, 86.010742%)" offset="0.808594"/><stop stop-opacity="1" stop-color="rgb(15.193176%, 59.837341%, 85.943604%)" offset="0.8125"/><stop stop-opacity="1" stop-color="rgb(14.96582%, 60.035706%, 85.874939%)" offset="0.816406"/><stop stop-opacity="1" stop-color="rgb(14.738464%, 60.235596%, 85.8078%)" offset="0.820312"/><stop stop-opacity="1" stop-color="rgb(14.511108%, 60.43396%, 85.739136%)" offset="0.824219"/><stop stop-opacity="1" stop-color="rgb(14.285278%, 60.63385%, 85.671997%)" offset="0.828125"/><stop stop-opacity="1" stop-color="rgb(14.057922%, 60.832214%, 85.604858%)" offset="0.832031"/><stop stop-opacity="1" stop-color="rgb(13.830566%, 61.032104%, 85.53772%)" offset="0.835938"/><stop stop-opacity="1" stop-color="rgb(13.60321%, 61.230469%, 85.469055%)" offset="0.839844"/><stop stop-opacity="1" stop-color="rgb(13.37738%, 61.430359%, 85.401917%)" offset="0.84375"/><stop stop-opacity="1" stop-color="rgb(13.150024%, 61.628723%, 85.334778%)" offset="0.847656"/><stop stop-opacity="1" stop-color="rgb(12.924194%, 61.828613%, 85.267639%)" offset="0.851562"/><stop stop-opacity="1" stop-color="rgb(12.696838%, 62.026978%, 85.198975%)" offset="0.855469"/><stop stop-opacity="1" stop-color="rgb(12.469482%, 62.226868%, 85.131836%)" offset="0.859375"/><stop stop-opacity="1" stop-color="rgb(12.242126%, 62.425232%, 85.064697%)" offset="0.863281"/><stop stop-opacity="1" stop-color="rgb(12.016296%, 62.625122%, 84.997559%)" offset="0.867188"/><stop stop-opacity="1" stop-color="rgb(11.78894%, 62.825012%, 84.928894%)" offset="0.871094"/><stop stop-opacity="1" stop-color="rgb(11.561584%, 63.024902%, 84.861755%)" offset="0.875"/><stop stop-opacity="1" stop-color="rgb(11.334229%, 63.223267%, 84.793091%)" offset="0.878906"/><stop stop-opacity="1" stop-color="rgb(11.108398%, 63.423157%, 84.725952%)" offset="0.882812"/><stop stop-opacity="1" stop-color="rgb(10.881042%, 63.621521%, 84.658813%)" offset="0.886719"/><stop stop-opacity="1" stop-color="rgb(10.653687%, 63.821411%, 84.591675%)" offset="0.890625"/><stop stop-opacity="1" stop-color="rgb(10.426331%, 64.019775%, 84.52301%)" offset="0.894531"/><stop stop-opacity="1" stop-color="rgb(10.2005%, 64.219666%, 84.455872%)" offset="0.898438"/><stop stop-opacity="1" stop-color="rgb(9.973145%, 64.41803%, 84.388733%)" offset="0.902344"/><stop stop-opacity="1" stop-color="rgb(9.745789%, 64.61792%, 84.321594%)" offset="0.90625"/><stop stop-opacity="1" stop-color="rgb(9.518433%, 64.816284%, 84.25293%)" offset="0.910156"/><stop stop-opacity="1" stop-color="rgb(9.292603%, 65.016174%, 84.185791%)" offset="0.914062"/><stop stop-opacity="1" stop-color="rgb(9.065247%, 65.214539%, 84.118652%)" offset="0.917969"/><stop stop-opacity="1" stop-color="rgb(8.837891%, 65.414429%, 84.051514%)" offset="0.921875"/><stop stop-opacity="1" stop-color="rgb(8.610535%, 65.612793%, 83.982849%)" offset="0.925781"/><stop stop-opacity="1" stop-color="rgb(8.384705%, 65.812683%, 83.91571%)" offset="0.929688"/><stop stop-opacity="1" stop-color="rgb(8.157349%, 66.012573%, 83.847046%)" offset="0.933594"/><stop stop-opacity="1" stop-color="rgb(7.929993%, 66.212463%, 83.779907%)" offset="0.9375"/><stop stop-opacity="1" stop-color="rgb(7.702637%, 66.410828%, 83.712769%)" offset="0.941406"/><stop stop-opacity="1" stop-color="rgb(7.476807%, 66.610718%, 83.64563%)" offset="0.945312"/><stop stop-opacity="1" stop-color="rgb(7.249451%, 66.809082%, 83.576965%)" offset="0.949219"/><stop stop-opacity="1" stop-color="rgb(7.022095%, 67.008972%, 83.509827%)" offset="0.953125"/><stop stop-opacity="1" stop-color="rgb(6.794739%, 67.207336%, 83.442688%)" offset="0.957031"/><stop stop-opacity="1" stop-color="rgb(6.568909%, 67.407227%, 83.375549%)" offset="0.960938"/><stop stop-opacity="1" stop-color="rgb(6.341553%, 67.605591%, 83.306885%)" offset="0.964844"/><stop stop-opacity="1" stop-color="rgb(6.114197%, 67.805481%, 83.239746%)" offset="0.96875"/><stop stop-opacity="1" stop-color="rgb(5.886841%, 68.003845%, 83.171082%)" offset="0.972656"/><stop stop-opacity="1" stop-color="rgb(5.661011%, 68.203735%, 83.103943%)" offset="0.976562"/><stop stop-opacity="1" stop-color="rgb(5.433655%, 68.4021%, 83.036804%)" offset="0.980469"/><stop stop-opacity="1" stop-color="rgb(5.206299%, 68.60199%, 82.969666%)" offset="0.984375"/><stop stop-opacity="1" stop-color="rgb(4.978943%, 68.800354%, 82.901001%)" offset="0.988281"/><stop stop-opacity="1" stop-color="rgb(4.753113%, 69.000244%, 82.833862%)" offset="0.992188"/><stop stop-opacity="1" stop-color="rgb(4.525757%, 69.198608%, 82.766724%)" offset="0.996094"/><stop stop-opacity="1" stop-color="rgb(4.299927%, 69.398499%, 82.699585%)" offset="1"/></linearGradient></defs><g clip-path="url(#6b1458febc)"><g clip-path="url(#25f689e159)"><path fill="url(#e18edbdd0a)" d="M 110.433594 110.433594 L 110.433594 264.933594 L 264.933594 264.933594 L 264.933594 110.433594 Z M 110.433594 110.433594 " fill-rule="nonzero"/></g></g></svg>