<svg xmlns="http://www.w3.org/2000/svg" xmlns:xlink="http://www.w3.org/1999/xlink" width="500" zoomAndPan="magnify" viewBox="0 0 375 374.999991" height="500" preserveAspectRatio="xMidYMid meet" version="1.0"><defs><clipPath id="cf581e7b52"><path d="M 159 195 L 216 195 L 216 262.5 L 159 262.5 Z M 159 195 " clip-rule="nonzero"/></clipPath><clipPath id="ed458c3036"><path d="M 117.1875 112.5 L 258.1875 112.5 L 258.1875 127 L 117.1875 127 Z M 117.1875 112.5 " clip-rule="nonzero"/></clipPath><clipPath id="ced6637ba6"><path d="M 117.1875 113 L 132 113 L 132 127 L 117.1875 127 Z M 117.1875 113 " clip-rule="nonzero"/></clipPath><clipPath id="435ce3f358"><path d="M 244 113 L 258.1875 113 L 258.1875 127 L 244 127 Z M 244 113 " clip-rule="nonzero"/></clipPath></defs><path fill="#ffc344" d="M 187.6875 156.949219 C 186.433594 156.949219 185.417969 155.9375 185.417969 154.6875 L 185.417969 122.394531 C 185.417969 121.144531 186.433594 120.132812 187.6875 120.132812 C 188.941406 120.132812 189.957031 121.144531 189.957031 122.394531 L 189.957031 154.6875 C 189.957031 155.9375 188.941406 156.949219 187.6875 156.949219 Z M 187.6875 156.949219 " fill-opacity="1" fill-rule="nonzero"/><path fill="#ffc344" d="M 164.1875 156.949219 C 163.605469 156.949219 163.027344 156.730469 162.582031 156.289062 L 144.449219 138.199219 L 124.238281 138.199219 C 122.984375 138.199219 121.96875 137.1875 121.96875 135.9375 L 121.96875 119.53125 C 121.96875 118.28125 122.984375 117.269531 124.238281 117.269531 C 125.492188 117.269531 126.507812 118.28125 126.507812 119.53125 L 126.507812 133.675781 L 145.386719 133.675781 C 145.988281 133.675781 146.566406 133.914062 146.992188 134.335938 L 165.792969 153.085938 C 166.679688 153.972656 166.679688 155.402344 165.792969 156.289062 C 165.347656 156.730469 164.769531 156.949219 164.1875 156.949219 Z M 164.1875 156.949219 " fill-opacity="1" fill-rule="nonzero"/><path fill="#ffc344" d="M 211.1875 156.949219 C 210.605469 156.949219 210.027344 156.730469 209.582031 156.289062 C 208.695312 155.402344 208.695312 153.972656 209.582031 153.085938 L 228.382812 134.335938 C 228.808594 133.914062 229.386719 133.671875 229.988281 133.671875 L 248.867188 133.671875 L 248.867188 119.53125 C 248.867188 118.28125 249.882812 117.269531 251.136719 117.269531 C 252.390625 117.269531 253.40625 118.28125 253.40625 119.53125 L 253.40625 135.9375 C 253.40625 137.1875 252.390625 138.199219 251.136719 138.199219 L 230.925781 138.199219 L 212.792969 156.289062 C 212.347656 156.730469 211.769531 156.949219 211.1875 156.949219 Z M 211.1875 156.949219 " fill-opacity="1" fill-rule="nonzero"/><path fill="#ffc344" d="M 201.789062 156.949219 C 200.535156 156.949219 199.519531 155.9375 199.519531 154.6875 L 199.519531 137.109375 C 199.519531 136.507812 199.757812 135.933594 200.183594 135.507812 L 219.652344 116.089844 C 220.539062 115.207031 221.976562 115.207031 222.863281 116.089844 C 223.75 116.972656 223.75 118.40625 222.863281 119.292969 L 204.058594 138.046875 L 204.058594 154.6875 C 204.058594 155.9375 203.042969 156.949219 201.789062 156.949219 Z M 201.789062 156.949219 " fill-opacity="1" fill-rule="nonzero"/><path fill="#ffc344" d="M 173.585938 156.949219 C 172.332031 156.949219 171.316406 155.9375 171.316406 154.6875 L 171.316406 138.046875 L 154.359375 121.132812 C 153.472656 120.246094 153.472656 118.816406 154.359375 117.929688 C 155.246094 117.046875 156.679688 117.046875 157.566406 117.929688 L 175.191406 135.507812 C 175.617188 135.933594 175.859375 136.507812 175.859375 137.109375 L 175.859375 154.6875 C 175.855469 155.9375 174.839844 156.949219 173.585938 156.949219 Z M 173.585938 156.949219 " fill-opacity="1" fill-rule="nonzero"/><g clip-path="url(#cf581e7b52)"><path fill="#b3dafe" d="M 215.886719 251.953125 C 215.886719 257.777344 203.261719 262.5 187.6875 262.5 C 172.113281 262.5 159.488281 257.777344 159.488281 251.953125 L 159.488281 195.703125 C 159.488281 201.527344 215.886719 201.527344 215.886719 195.703125 Z M 215.886719 251.953125 " fill-opacity="1" fill-rule="nonzero"/></g><path fill="#d8ecfe" d="M 215.886719 195.703125 C 215.886719 196.046875 215.84375 196.394531 215.75 196.738281 C 215.660156 197.082031 215.527344 197.421875 215.34375 197.761719 C 215.164062 198.097656 214.941406 198.433594 214.671875 198.765625 C 214.40625 199.09375 214.09375 199.421875 213.742188 199.738281 C 213.386719 200.058594 212.992188 200.371094 212.558594 200.675781 C 212.121094 200.980469 211.648438 201.277344 211.136719 201.5625 C 210.621094 201.851562 210.074219 202.125 209.488281 202.394531 C 208.902344 202.660156 208.28125 202.917969 207.628906 203.160156 C 206.976562 203.40625 206.292969 203.636719 205.578125 203.855469 C 204.863281 204.074219 204.121094 204.28125 203.355469 204.472656 C 202.585938 204.664062 201.796875 204.839844 200.980469 205.003906 C 200.167969 205.167969 199.332031 205.316406 198.480469 205.445312 C 197.625 205.578125 196.757812 205.695312 195.875 205.796875 C 194.988281 205.894531 194.09375 205.980469 193.1875 206.046875 C 192.28125 206.113281 191.371094 206.164062 190.453125 206.199219 C 189.53125 206.234375 188.609375 206.25 187.6875 206.25 C 186.765625 206.25 185.84375 206.234375 184.921875 206.199219 C 184.003906 206.164062 183.089844 206.113281 182.1875 206.046875 C 181.28125 205.980469 180.386719 205.894531 179.5 205.796875 C 178.617188 205.695312 177.75 205.578125 176.894531 205.445312 C 176.042969 205.316406 175.207031 205.167969 174.394531 205.003906 C 173.578125 204.839844 172.789062 204.664062 172.019531 204.472656 C 171.253906 204.28125 170.511719 204.074219 169.796875 203.855469 C 169.082031 203.636719 168.398438 203.40625 167.746094 203.160156 C 167.09375 202.917969 166.472656 202.660156 165.886719 202.394531 C 165.300781 202.125 164.753906 201.851562 164.238281 201.5625 C 163.726562 201.277344 163.253906 200.980469 162.816406 200.675781 C 162.382812 200.371094 161.988281 200.058594 161.632812 199.738281 C 161.28125 199.421875 160.96875 199.09375 160.703125 198.765625 C 160.433594 198.433594 160.210938 198.097656 160.03125 197.761719 C 159.847656 197.421875 159.714844 197.082031 159.625 196.738281 C 159.53125 196.394531 159.488281 196.046875 159.488281 195.703125 C 159.488281 195.359375 159.53125 195.011719 159.625 194.667969 C 159.714844 194.324219 159.847656 193.984375 160.03125 193.644531 C 160.210938 193.308594 160.433594 192.972656 160.703125 192.640625 C 160.96875 192.3125 161.28125 191.984375 161.632812 191.667969 C 161.988281 191.347656 162.382812 191.035156 162.816406 190.730469 C 163.253906 190.425781 163.726562 190.128906 164.238281 189.84375 C 164.753906 189.554688 165.300781 189.277344 165.886719 189.011719 C 166.472656 188.746094 167.09375 188.488281 167.746094 188.246094 C 168.398438 188 169.082031 187.769531 169.796875 187.550781 C 170.511719 187.332031 171.253906 187.125 172.019531 186.933594 C 172.789062 186.742188 173.578125 186.5625 174.394531 186.402344 C 175.207031 186.238281 176.042969 186.089844 176.894531 185.960938 C 177.75 185.828125 178.617188 185.710938 179.5 185.609375 C 180.386719 185.511719 181.28125 185.425781 182.1875 185.359375 C 183.089844 185.292969 184.003906 185.242188 184.921875 185.207031 C 185.84375 185.171875 186.765625 185.15625 187.6875 185.15625 C 188.609375 185.15625 189.53125 185.171875 190.453125 185.207031 C 191.371094 185.242188 192.28125 185.292969 193.1875 185.359375 C 194.09375 185.425781 194.988281 185.511719 195.875 185.609375 C 196.757812 185.710938 197.625 185.828125 198.480469 185.960938 C 199.332031 186.089844 200.167969 186.238281 200.980469 186.402344 C 201.796875 186.5625 202.585938 186.742188 203.355469 186.933594 C 204.121094 187.125 204.863281 187.332031 205.578125 187.550781 C 206.292969 187.769531 206.976562 188 207.628906 188.246094 C 208.28125 188.488281 208.902344 188.746094 209.488281 189.011719 C 210.074219 189.277344 210.621094 189.554688 211.136719 189.84375 C 211.648438 190.128906 212.121094 190.425781 212.558594 190.730469 C 212.992188 191.035156 213.386719 191.347656 213.742188 191.667969 C 214.09375 191.984375 214.40625 192.3125 214.671875 192.640625 C 214.941406 192.972656 215.164062 193.308594 215.34375 193.644531 C 215.527344 193.984375 215.660156 194.324219 215.75 194.667969 C 215.84375 195.011719 215.886719 195.359375 215.886719 195.703125 Z M 215.886719 195.703125 " fill-opacity="1" fill-rule="nonzero"/><path fill="#60b7ff" d="M 182.988281 217.722656 C 182.933594 217.722656 182.878906 217.722656 182.824219 217.71875 C 173.773438 217.070312 169.039062 214.832031 167.804688 214.164062 C 166.703125 213.566406 166.292969 212.191406 166.894531 211.09375 C 167.492188 209.996094 168.871094 209.589844 169.972656 210.1875 C 172.003906 211.289062 176.671875 212.738281 183.148438 213.203125 C 184.402344 213.292969 185.339844 214.375 185.25 215.621094 C 185.164062 216.816406 184.167969 217.722656 182.988281 217.722656 Z M 182.988281 217.722656 " fill-opacity="1" fill-rule="nonzero"/><path fill="#60b7ff" d="M 182.988281 236.476562 C 182.933594 236.476562 182.878906 236.476562 182.824219 236.472656 C 173.773438 235.824219 169.039062 233.585938 167.804688 232.917969 C 166.703125 232.320312 166.292969 230.945312 166.894531 229.847656 C 167.492188 228.75 168.871094 228.34375 169.972656 228.941406 C 172.003906 230.039062 176.671875 231.492188 183.148438 231.957031 C 184.402344 232.046875 185.339844 233.128906 185.25 234.375 C 185.164062 235.566406 184.167969 236.476562 182.988281 236.476562 Z M 182.988281 236.476562 " fill-opacity="1" fill-rule="nonzero"/><path fill="#60b7ff" d="M 182.988281 255.203125 C 182.933594 255.203125 182.878906 255.203125 182.824219 255.195312 C 173.773438 254.546875 169.039062 252.3125 167.804688 251.644531 C 166.703125 251.046875 166.292969 249.671875 166.894531 248.574219 C 167.492188 247.476562 168.871094 247.070312 169.972656 247.664062 C 172.003906 248.765625 176.671875 250.21875 183.148438 250.679688 C 184.402344 250.769531 185.339844 251.855469 185.25 253.101562 C 185.164062 254.292969 184.167969 255.203125 182.988281 255.203125 Z M 182.988281 255.203125 " fill-opacity="1" fill-rule="nonzero"/><path fill="#8ac9fe" d="M 215.886719 230.925781 C 215.886719 233.703125 212.875 236.417969 207.628906 238.382812 C 202.300781 240.375 195.21875 241.472656 187.6875 241.472656 C 180.15625 241.472656 173.074219 240.375 167.746094 238.382812 C 162.496094 236.417969 159.488281 233.703125 159.488281 230.925781 L 159.488281 239.050781 C 161.238281 240.417969 163.472656 241.617188 166.152344 242.621094 C 171.976562 244.800781 179.625 246 187.6875 246 C 195.75 246 203.398438 244.800781 209.222656 242.621094 C 211.902344 241.617188 214.136719 240.414062 215.886719 239.050781 Z M 215.886719 230.925781 " fill-opacity="1" fill-rule="nonzero"/><path fill="#8ac9fe" d="M 166.152344 223.871094 C 171.976562 226.050781 179.625 227.25 187.6875 227.25 C 195.75 227.25 203.398438 226.050781 209.222656 223.871094 C 211.902344 222.871094 214.136719 221.667969 215.886719 220.304688 L 215.886719 212.175781 C 215.886719 214.953125 212.875 217.671875 207.628906 219.632812 C 202.300781 221.625 195.21875 222.722656 187.6875 222.722656 C 180.15625 222.722656 173.074219 221.625 167.746094 219.632812 C 162.496094 217.667969 159.488281 214.953125 159.488281 212.175781 L 159.488281 220.300781 C 161.238281 221.667969 163.472656 222.871094 166.152344 223.871094 Z M 166.152344 223.871094 " fill-opacity="1" fill-rule="nonzero"/><path fill="#26a6fe" d="M 208.757812 212.277344 C 208.757812 212.578125 208.699219 212.867188 208.585938 213.144531 C 208.46875 213.421875 208.304688 213.664062 208.09375 213.878906 C 207.878906 214.089844 207.632812 214.253906 207.355469 214.367188 C 207.078125 214.484375 206.789062 214.539062 206.488281 214.539062 C 206.1875 214.539062 205.898438 214.484375 205.617188 214.367188 C 205.339844 214.253906 205.09375 214.089844 204.882812 213.878906 C 204.667969 213.664062 204.507812 213.421875 204.390625 213.144531 C 204.277344 212.867188 204.21875 212.578125 204.21875 212.277344 C 204.21875 211.976562 204.277344 211.6875 204.390625 211.410156 C 204.507812 211.132812 204.667969 210.886719 204.882812 210.675781 C 205.09375 210.464844 205.339844 210.300781 205.617188 210.1875 C 205.898438 210.070312 206.1875 210.011719 206.488281 210.011719 C 206.789062 210.011719 207.078125 210.070312 207.355469 210.1875 C 207.632812 210.300781 207.878906 210.464844 208.09375 210.675781 C 208.304688 210.886719 208.46875 211.132812 208.585938 211.410156 C 208.699219 211.6875 208.757812 211.976562 208.757812 212.277344 Z M 208.757812 212.277344 " fill-opacity="1" fill-rule="nonzero"/><path fill="#26a6fe" d="M 199.355469 214.90625 C 199.355469 215.207031 199.300781 215.496094 199.183594 215.773438 C 199.070312 216.050781 198.90625 216.292969 198.691406 216.507812 C 198.480469 216.71875 198.234375 216.882812 197.957031 216.996094 C 197.679688 217.113281 197.386719 217.167969 197.085938 217.167969 C 196.785156 217.167969 196.496094 217.113281 196.21875 216.996094 C 195.941406 216.882812 195.695312 216.71875 195.484375 216.507812 C 195.269531 216.292969 195.105469 216.050781 194.992188 215.773438 C 194.875 215.496094 194.816406 215.207031 194.816406 214.90625 C 194.816406 214.605469 194.875 214.316406 194.992188 214.039062 C 195.105469 213.761719 195.269531 213.519531 195.484375 213.304688 C 195.695312 213.09375 195.941406 212.929688 196.21875 212.816406 C 196.496094 212.699219 196.785156 212.644531 197.085938 212.644531 C 197.386719 212.644531 197.679688 212.699219 197.957031 212.816406 C 198.234375 212.929688 198.480469 213.09375 198.691406 213.304688 C 198.90625 213.519531 199.070312 213.761719 199.183594 214.039062 C 199.300781 214.316406 199.355469 214.605469 199.355469 214.90625 Z M 199.355469 214.90625 " fill-opacity="1" fill-rule="nonzero"/><path fill="#26a6fe" d="M 208.757812 231.03125 C 208.757812 231.332031 208.699219 231.617188 208.585938 231.894531 C 208.46875 232.171875 208.304688 232.417969 208.09375 232.628906 C 207.878906 232.84375 207.632812 233.007812 207.355469 233.121094 C 207.078125 233.234375 206.789062 233.292969 206.488281 233.292969 C 206.1875 233.292969 205.898438 233.234375 205.617188 233.121094 C 205.339844 233.007812 205.09375 232.84375 204.882812 232.628906 C 204.667969 232.417969 204.507812 232.171875 204.390625 231.894531 C 204.277344 231.617188 204.21875 231.332031 204.21875 231.03125 C 204.21875 230.730469 204.277344 230.441406 204.390625 230.164062 C 204.507812 229.886719 204.667969 229.640625 204.882812 229.429688 C 205.09375 229.21875 205.339844 229.054688 205.617188 228.9375 C 205.898438 228.824219 206.1875 228.765625 206.488281 228.765625 C 206.789062 228.765625 207.078125 228.824219 207.355469 228.9375 C 207.632812 229.054688 207.878906 229.21875 208.09375 229.429688 C 208.304688 229.640625 208.46875 229.886719 208.585938 230.164062 C 208.699219 230.441406 208.757812 230.730469 208.757812 231.03125 Z M 208.757812 231.03125 " fill-opacity="1" fill-rule="nonzero"/><path fill="#26a6fe" d="M 199.355469 233.660156 C 199.355469 233.960938 199.300781 234.25 199.183594 234.527344 C 199.070312 234.804688 198.90625 235.046875 198.691406 235.261719 C 198.480469 235.472656 198.234375 235.636719 197.957031 235.75 C 197.679688 235.867188 197.386719 235.921875 197.085938 235.921875 C 196.785156 235.921875 196.496094 235.867188 196.21875 235.75 C 195.941406 235.636719 195.695312 235.472656 195.484375 235.261719 C 195.269531 235.046875 195.105469 234.804688 194.992188 234.527344 C 194.875 234.25 194.816406 233.960938 194.816406 233.660156 C 194.816406 233.359375 194.875 233.070312 194.992188 232.792969 C 195.105469 232.515625 195.269531 232.269531 195.484375 232.058594 C 195.695312 231.847656 195.941406 231.683594 196.21875 231.570312 C 196.496094 231.453125 196.785156 231.394531 197.085938 231.394531 C 197.386719 231.394531 197.679688 231.453125 197.957031 231.570312 C 198.234375 231.683594 198.480469 231.847656 198.691406 232.058594 C 198.90625 232.269531 199.070312 232.515625 199.183594 232.792969 C 199.300781 233.070312 199.355469 233.359375 199.355469 233.660156 Z M 199.355469 233.660156 " fill-opacity="1" fill-rule="nonzero"/><path fill="#26a6fe" d="M 208.757812 249.753906 C 208.757812 250.054688 208.699219 250.34375 208.585938 250.621094 C 208.46875 250.898438 208.304688 251.144531 208.09375 251.355469 C 207.878906 251.566406 207.632812 251.730469 207.355469 251.847656 C 207.078125 251.960938 206.789062 252.019531 206.488281 252.019531 C 206.1875 252.019531 205.898438 251.960938 205.617188 251.847656 C 205.339844 251.730469 205.09375 251.566406 204.882812 251.355469 C 204.667969 251.144531 204.507812 250.898438 204.390625 250.621094 C 204.277344 250.34375 204.21875 250.054688 204.21875 249.753906 C 204.21875 249.457031 204.277344 249.167969 204.390625 248.890625 C 204.507812 248.613281 204.667969 248.367188 204.882812 248.15625 C 205.09375 247.941406 205.339844 247.777344 205.617188 247.664062 C 205.898438 247.550781 206.1875 247.492188 206.488281 247.492188 C 206.789062 247.492188 207.078125 247.550781 207.355469 247.664062 C 207.632812 247.777344 207.878906 247.941406 208.09375 248.15625 C 208.304688 248.367188 208.46875 248.613281 208.585938 248.890625 C 208.699219 249.167969 208.757812 249.457031 208.757812 249.753906 Z M 208.757812 249.753906 " fill-opacity="1" fill-rule="nonzero"/><path fill="#26a6fe" d="M 199.355469 252.386719 C 199.355469 252.683594 199.300781 252.972656 199.183594 253.25 C 199.070312 253.527344 198.90625 253.773438 198.691406 253.984375 C 198.480469 254.199219 198.234375 254.359375 197.957031 254.476562 C 197.679688 254.589844 197.386719 254.648438 197.085938 254.648438 C 196.785156 254.648438 196.496094 254.589844 196.21875 254.476562 C 195.941406 254.359375 195.695312 254.199219 195.484375 253.984375 C 195.269531 253.773438 195.105469 253.527344 194.992188 253.25 C 194.875 252.972656 194.816406 252.683594 194.816406 252.386719 C 194.816406 252.085938 194.875 251.796875 194.992188 251.519531 C 195.105469 251.242188 195.269531 250.996094 195.484375 250.785156 C 195.695312 250.570312 195.941406 250.410156 196.21875 250.292969 C 196.496094 250.179688 196.785156 250.121094 197.085938 250.121094 C 197.386719 250.121094 197.679688 250.179688 197.957031 250.292969 C 198.234375 250.410156 198.480469 250.570312 198.691406 250.785156 C 198.90625 250.996094 199.070312 251.242188 199.183594 251.519531 C 199.300781 251.796875 199.355469 252.085938 199.355469 252.386719 Z M 199.355469 252.386719 " fill-opacity="1" fill-rule="nonzero"/><path fill="#26a6fe" d="M 154.789062 154.6875 L 180.773438 180.601562 C 182.191406 182.019531 182.988281 183.9375 182.988281 185.9375 L 182.988281 194.433594 C 182.988281 195.554688 184.171875 196.285156 185.175781 195.78125 L 191.550781 192.605469 C 192.0625 192.347656 192.386719 191.828125 192.386719 191.253906 L 192.386719 185.9375 C 192.386719 183.9375 193.183594 182.019531 194.601562 180.601562 L 220.585938 154.6875 Z M 154.789062 154.6875 " fill-opacity="1" fill-rule="nonzero"/><path fill="#0593fc" d="M 212.71875 154.6875 L 190.96875 176.382812 C 189.164062 178.179688 188.152344 180.621094 188.152344 183.164062 L 188.152344 185.753906 C 188.152344 187.476562 187.175781 189.050781 185.628906 189.824219 L 182.988281 191.140625 L 182.988281 194.433594 C 182.988281 195.554688 184.171875 196.285156 185.175781 195.78125 L 191.550781 192.605469 C 192.0625 192.347656 192.386719 191.828125 192.386719 191.253906 L 192.386719 185.9375 C 192.386719 183.9375 193.183594 182.019531 194.601562 180.601562 L 220.585938 154.6875 Z M 212.71875 154.6875 " fill-opacity="1" fill-rule="nonzero"/><g clip-path="url(#ed458c3036)"><path fill="#ffe177" d="M 194.738281 119.53125 C 194.738281 122.621094 192.738281 125.246094 189.957031 126.191406 L 187.6875 124.558594 L 185.417969 126.191406 C 182.636719 125.246094 180.636719 122.621094 180.636719 119.53125 C 180.636719 115.648438 183.792969 112.5 187.6875 112.5 C 191.582031 112.5 194.738281 115.648438 194.738281 119.53125 Z M 124.238281 112.5 C 120.34375 112.5 117.1875 115.648438 117.1875 119.53125 C 117.1875 122.621094 119.1875 125.246094 121.96875 126.191406 L 124.238281 124.167969 L 126.507812 126.191406 C 129.289062 125.246094 131.289062 122.621094 131.289062 119.53125 C 131.289062 115.648438 128.132812 112.5 124.238281 112.5 Z M 212.363281 119.53125 C 212.363281 120.695312 212.644531 121.792969 213.148438 122.761719 L 215.847656 124.363281 L 216.296875 125.839844 C 217.234375 126.300781 218.292969 126.5625 219.414062 126.5625 C 223.304688 126.5625 226.460938 123.414062 226.460938 119.53125 C 226.460938 115.648438 223.304688 112.5 219.414062 112.5 C 215.519531 112.5 212.363281 115.648438 212.363281 119.53125 Z M 244.085938 119.53125 C 244.085938 122.621094 246.085938 125.246094 248.867188 126.191406 L 251.136719 125.5 L 253.40625 126.191406 C 256.1875 125.246094 258.1875 122.621094 258.1875 119.53125 C 258.1875 115.648438 255.03125 112.5 251.136719 112.5 C 247.242188 112.5 244.085938 115.648438 244.085938 119.53125 Z M 155.960938 112.5 C 152.070312 112.5 148.914062 115.648438 148.914062 119.53125 C 148.914062 123.414062 152.070312 126.5625 155.960938 126.5625 C 157.082031 126.5625 158.136719 126.300781 159.078125 125.839844 L 158.902344 122.523438 L 162.289062 122.640625 C 162.75 121.703125 163.011719 120.648438 163.011719 119.53125 C 163.011719 115.648438 159.855469 112.5 155.960938 112.5 Z M 155.960938 112.5 " fill-opacity="1" fill-rule="nonzero"/></g><path fill="#ffd15b" d="M 159.199219 113.285156 C 159.703125 114.25 159.988281 115.347656 159.988281 116.511719 C 159.988281 120.398438 156.832031 123.542969 152.9375 123.542969 C 151.769531 123.542969 150.667969 123.261719 149.699219 122.761719 C 150.871094 125.019531 153.234375 126.5625 155.960938 126.5625 C 159.855469 126.5625 163.011719 123.414062 163.011719 119.53125 C 163.011719 116.8125 161.464844 114.453125 159.199219 113.285156 Z M 159.199219 113.285156 " fill-opacity="1" fill-rule="nonzero"/><g clip-path="url(#ced6637ba6)"><path fill="#ffd15b" d="M 127.476562 113.285156 C 127.976562 114.25 128.261719 115.347656 128.261719 116.511719 C 128.261719 120.398438 125.105469 123.542969 121.210938 123.542969 C 120.042969 123.542969 118.941406 123.261719 117.972656 122.761719 C 119.148438 125.019531 121.511719 126.5625 124.238281 126.5625 C 128.132812 126.5625 131.289062 123.414062 131.289062 119.53125 C 131.289062 116.8125 129.738281 114.453125 127.476562 113.285156 Z M 127.476562 113.285156 " fill-opacity="1" fill-rule="nonzero"/></g><path fill="#ffd15b" d="M 190.925781 113.285156 C 191.429688 114.25 191.710938 115.347656 191.710938 116.511719 C 191.710938 120.398438 188.554688 123.542969 184.660156 123.542969 C 183.496094 123.542969 182.394531 123.261719 181.421875 122.761719 C 182.597656 125.019531 184.960938 126.5625 187.6875 126.5625 C 191.582031 126.5625 194.738281 123.414062 194.738281 119.53125 C 194.738281 116.8125 193.191406 114.453125 190.925781 113.285156 Z M 190.925781 113.285156 " fill-opacity="1" fill-rule="nonzero"/><g clip-path="url(#435ce3f358)"><path fill="#ffd15b" d="M 254.375 113.285156 C 254.878906 114.25 255.160156 115.347656 255.160156 116.511719 C 255.160156 120.398438 252.003906 123.542969 248.113281 123.542969 C 246.945312 123.542969 245.84375 123.261719 244.875 122.761719 C 246.046875 125.019531 248.410156 126.5625 251.136719 126.5625 C 255.03125 126.5625 258.1875 123.414062 258.1875 119.53125 C 258.1875 116.8125 256.640625 114.453125 254.375 113.285156 Z M 254.375 113.285156 " fill-opacity="1" fill-rule="nonzero"/></g><path fill="#ffd15b" d="M 222.652344 113.285156 C 223.152344 114.25 223.4375 115.347656 223.4375 116.511719 C 223.4375 120.398438 220.28125 123.542969 216.386719 123.542969 C 215.21875 123.542969 214.117188 123.261719 213.148438 122.761719 C 214.320312 125.019531 216.6875 126.5625 219.414062 126.5625 C 223.304688 126.5625 226.460938 123.414062 226.460938 119.53125 C 226.460938 116.8125 224.914062 114.453125 222.652344 113.285156 Z M 222.652344 113.285156 " fill-opacity="1" fill-rule="nonzero"/><path fill="#60b7ff" d="M 225.289062 156.949219 L 150.085938 156.949219 C 148.832031 156.949219 147.816406 155.9375 147.816406 154.6875 C 147.816406 153.4375 148.835938 152.425781 150.085938 152.425781 L 225.289062 152.425781 C 226.542969 152.425781 227.558594 153.4375 227.558594 154.6875 C 227.558594 155.9375 226.542969 156.949219 225.289062 156.949219 Z M 225.289062 156.949219 " fill-opacity="1" fill-rule="nonzero"/></svg>