<svg xmlns="http://www.w3.org/2000/svg" xmlns:xlink="http://www.w3.org/1999/xlink" width="500" zoomAndPan="magnify" viewBox="0 0 375 374.999991" height="500" preserveAspectRatio="xMidYMid meet" version="1.0"><defs><clipPath id="fe31c7df77"><path d="M 98.367188 98.367188 L 276.867188 98.367188 L 276.867188 264 L 98.367188 264 Z M 98.367188 98.367188 " clip-rule="nonzero"/></clipPath><clipPath id="23f17527fd"><path d="M 131 241 L 141 241 L 141 276.867188 L 131 276.867188 Z M 131 241 " clip-rule="nonzero"/></clipPath><clipPath id="d3dccc8c2e"><path d="M 131 205 L 276.867188 205 L 276.867188 264 L 131 264 Z M 131 205 " clip-rule="nonzero"/></clipPath><clipPath id="125d9130e5"><path d="M 131 174 L 276.867188 174 L 276.867188 260 L 131 260 Z M 131 174 " clip-rule="nonzero"/></clipPath><clipPath id="51aedb2f6b"><path d="M 208 98.367188 L 259 98.367188 L 259 133 L 208 133 Z M 208 98.367188 " clip-rule="nonzero"/></clipPath><clipPath id="62fd492cad"><path d="M 98.367188 200 L 101 200 L 101 233 L 98.367188 233 Z M 98.367188 200 " clip-rule="nonzero"/></clipPath><clipPath id="8a1ca6a6a9"><path d="M 98.367188 200 L 99 200 L 99 231 L 98.367188 231 Z M 98.367188 200 " clip-rule="nonzero"/></clipPath><clipPath id="cbacc771e9"><path d="M 98.367188 171 L 143 171 L 143 202 L 98.367188 202 Z M 98.367188 171 " clip-rule="nonzero"/></clipPath><clipPath id="980e6b8f1b"><path d="M 131 244 L 141 244 L 141 276.867188 L 131 276.867188 Z M 131 244 " clip-rule="nonzero"/></clipPath></defs><g clip-path="url(#fe31c7df77)"><path fill="#bac1ce" d="M 276.429688 210.082031 C 276.429688 210.820312 275.945312 211.570312 274.984375 212.125 L 188.464844 262.898438 C 186.558594 264.011719 183.46875 264.011719 181.578125 262.898438 L 131.753906 235.105469 L 131.722656 229.234375 L 131.710938 229.234375 L 128.316406 227.136719 L 128.316406 216.773438 L 101.914062 232.03125 C 101.371094 232.335938 100.914062 232.226562 100.707031 231.808594 C 100.746094 231.949219 100.832031 232.058594 100.941406 232.128906 L 98.898438 230.933594 C 98.648438 230.777344 98.492188 230.472656 98.492188 230.042969 L 98.410156 200.371094 L 98.382812 197.671875 C 98.382812 196.671875 99.078125 195.488281 99.953125 194.976562 L 128.316406 178.601562 L 128.316406 162.953125 C 128.316406 160.726562 129.859375 158.015625 131.765625 156.890625 L 218.285156 106.117188 C 219.246094 105.5625 220.121094 105.503906 220.75 105.878906 L 223.921875 107.757812 C 224.558594 108.121094 224.964844 108.898438 224.964844 110.027344 L 224.992188 116.105469 L 255.09375 98.730469 C 255.578125 98.453125 256.023438 98.425781 256.34375 98.59375 L 258.667969 99.941406 C 258.640625 99.925781 258.613281 99.914062 258.570312 99.914062 C 258.945312 100.066406 259.183594 100.46875 259.183594 101.097656 L 259.195312 104.140625 L 259.308594 141.65625 C 259.308594 142.617188 258.613281 143.8125 257.761719 144.316406 L 225.117188 163.164062 L 225.144531 174.414062 L 225.15625 174.402344 L 274.984375 203.835938 C 275.957031 204.40625 276.417969 205.15625 276.402344 205.90625 Z M 276.429688 210.082031 " fill-opacity="1" fill-rule="nonzero"/></g><path fill="#bac1ce" d="M 117.777344 230.007812 C 115.996094 228.980469 113.125 228.988281 111.371094 230.007812 C 110.492188 230.519531 110.050781 231.1875 110.054688 231.855469 C 110.054688 231.851562 110.050781 231.851562 110.050781 231.847656 L 109.933594 261.535156 C 109.929688 262.210938 110.378906 262.886719 111.273438 263.402344 C 113.050781 264.429688 115.910156 264.429688 117.675781 263.402344 C 118.550781 262.898438 118.988281 262.230469 118.992188 261.5625 L 119.113281 231.875 C 119.109375 231.964844 119.082031 232.054688 119.066406 232.148438 C 119.207031 231.386719 118.792969 230.59375 117.777344 230.007812 Z M 110.675781 233.160156 C 110.722656 233.207031 110.753906 233.257812 110.804688 233.304688 C 110.753906 233.257812 110.722656 233.207031 110.675781 233.160156 Z M 110.101562 232.140625 C 110.113281 232.214844 110.113281 232.285156 110.136719 232.355469 C 110.113281 232.285156 110.113281 232.214844 110.101562 232.140625 Z M 110.285156 232.648438 C 110.324219 232.714844 110.34375 232.78125 110.386719 232.84375 C 110.34375 232.78125 110.320312 232.714844 110.285156 232.648438 Z M 117.796875 233.714844 C 118.015625 233.589844 118.207031 233.453125 118.371094 233.308594 C 118.207031 233.453125 118.015625 233.589844 117.796875 233.714844 Z M 118.882812 232.65625 C 118.933594 232.5625 118.996094 232.464844 119.027344 232.367188 C 118.996094 232.464844 118.933594 232.5625 118.882812 232.65625 Z M 118.503906 233.164062 C 118.601562 233.0625 118.707031 232.960938 118.78125 232.851562 C 118.707031 232.960938 118.601562 233.0625 118.503906 233.164062 Z M 118.503906 233.164062 " fill-opacity="1" fill-rule="nonzero"/><path fill="#bac1ce" d="M 128.480469 236.1875 C 126.703125 235.160156 123.828125 235.167969 122.074219 236.1875 C 121.195312 236.699219 120.757812 237.367188 120.757812 238.035156 C 120.757812 238.03125 120.753906 238.03125 120.753906 238.027344 L 120.636719 267.714844 C 120.632812 268.390625 121.082031 269.066406 121.976562 269.582031 C 123.753906 270.609375 126.613281 270.609375 128.382812 269.582031 C 129.253906 269.074219 129.691406 268.410156 129.695312 267.738281 L 129.816406 238.050781 C 129.816406 238.144531 129.785156 238.238281 129.769531 238.328125 C 129.910156 237.566406 129.496094 236.773438 128.480469 236.1875 Z M 121.359375 239.316406 C 121.410156 239.371094 121.449219 239.429688 121.511719 239.484375 C 121.449219 239.429688 121.414062 239.371094 121.359375 239.316406 Z M 120.800781 238.308594 C 120.816406 238.386719 120.816406 238.460938 120.839844 238.539062 C 120.816406 238.460938 120.816406 238.386719 120.800781 238.308594 Z M 120.980469 238.8125 C 121.019531 238.882812 121.042969 238.957031 121.09375 239.023438 C 121.042969 238.957031 121.019531 238.882812 120.980469 238.8125 Z M 128.5 239.894531 C 128.71875 239.769531 128.910156 239.632812 129.074219 239.488281 C 128.910156 239.632812 128.71875 239.769531 128.5 239.894531 Z M 129.585938 238.835938 C 129.636719 238.738281 129.699219 238.644531 129.730469 238.546875 C 129.699219 238.644531 129.636719 238.738281 129.585938 238.835938 Z M 129.191406 239.359375 C 129.296875 239.253906 129.40625 239.144531 129.484375 239.03125 C 129.40625 239.144531 129.296875 239.253906 129.191406 239.359375 Z M 129.191406 239.359375 " fill-opacity="1" fill-rule="nonzero"/><g clip-path="url(#23f17527fd)"><path fill="#bac1ce" d="M 139.191406 242.371094 C 137.410156 241.34375 134.539062 241.351562 132.785156 242.371094 C 131.902344 242.882812 131.464844 243.550781 131.464844 244.21875 C 131.464844 244.214844 131.464844 244.214844 131.464844 244.210938 L 131.347656 273.898438 C 131.34375 274.574219 131.792969 275.25 132.6875 275.765625 C 134.464844 276.792969 137.324219 276.792969 139.089844 275.765625 C 139.964844 275.257812 140.402344 274.59375 140.40625 273.925781 L 140.523438 244.234375 C 140.523438 244.328125 140.496094 244.421875 140.480469 244.511719 C 140.621094 243.75 140.207031 242.957031 139.191406 242.371094 Z M 132.070312 245.5 C 132.121094 245.554688 132.160156 245.613281 132.21875 245.664062 C 132.160156 245.613281 132.121094 245.554688 132.070312 245.5 Z M 131.511719 244.492188 C 131.527344 244.570312 131.523438 244.644531 131.550781 244.722656 C 131.527344 244.644531 131.527344 244.570312 131.511719 244.492188 Z M 131.691406 244.996094 C 131.730469 245.066406 131.753906 245.140625 131.800781 245.207031 C 131.753906 245.140625 131.730469 245.066406 131.691406 244.996094 Z M 139.210938 246.078125 C 139.429688 245.953125 139.621094 245.816406 139.785156 245.671875 C 139.621094 245.816406 139.429688 245.953125 139.210938 246.078125 Z M 140.292969 245.023438 C 140.347656 244.925781 140.410156 244.832031 140.441406 244.730469 C 140.410156 244.832031 140.347656 244.925781 140.292969 245.023438 Z M 139.898438 245.542969 C 140.007812 245.4375 140.117188 245.328125 140.195312 245.214844 C 140.117188 245.328125 140.007812 245.4375 139.898438 245.542969 Z M 139.898438 245.542969 " fill-opacity="1" fill-rule="nonzero"/></g><path fill="#bac1ce" d="M 252.15625 262.078125 L 257.597656 261.644531 L 257.570312 258.347656 L 257.484375 254.316406 L 253.8125 254.105469 L 253.828125 254.09375 L 253.773438 249.308594 L 248.820312 246.527344 L 244.605469 248.527344 C 243.421875 248.140625 242.113281 247.859375 240.78125 247.707031 L 240.042969 244.550781 L 233.101562 244.660156 L 232.488281 247.984375 C 231.320312 248.207031 230.222656 248.515625 229.179688 248.917969 L 224.421875 246.859375 L 219.582031 249.765625 L 219.621094 254.566406 L 216.074219 254.859375 L 216.132812 259.65625 L 216.1875 262.160156 L 221.695312 262.496094 L 219.84375 263.898438 L 219.871094 267.183594 L 224.839844 269.964844 L 230.265625 267.40625 C 231.042969 267.640625 231.863281 267.851562 232.710938 267.976562 L 233.628906 271.925781 L 240.570312 271.84375 L 241.265625 268.042969 C 242.253906 267.917969 243.199219 267.699219 244.160156 267.417969 L 249.238281 269.632812 L 254.078125 266.722656 L 254.050781 263.441406 Z M 243.253906 260.199219 C 239.777344 262.285156 234.0625 262.371094 230.515625 260.378906 C 229.664062 259.90625 229.011719 259.351562 228.566406 258.753906 C 228.996094 258.167969 229.609375 257.613281 230.429688 257.113281 C 233.90625 255.039062 239.597656 254.941406 243.15625 256.929688 C 244.007812 257.417969 244.660156 257.972656 245.105469 258.570312 C 244.675781 259.15625 244.0625 259.710938 243.253906 260.199219 Z M 243.253906 260.199219 " fill-opacity="1" fill-rule="nonzero"/><path fill="#bac1ce" d="M 269.433594 240.085938 L 273.300781 239.78125 L 273.289062 237.441406 L 273.230469 234.5625 L 270.617188 234.410156 L 270.589844 230.988281 L 267.054688 229.011719 L 264.050781 230.433594 C 263.203125 230.152344 262.257812 229.960938 261.3125 229.847656 L 260.796875 227.609375 L 255.84375 227.679688 L 255.398438 230.042969 C 254.566406 230.210938 253.785156 230.417969 253.046875 230.710938 L 249.65625 229.25 L 246.191406 231.320312 L 246.230469 234.730469 L 246.230469 234.742188 L 243.699219 234.953125 L 243.742188 238.375 L 243.769531 240.15625 L 247.707031 240.390625 L 246.386719 241.394531 L 246.414062 243.742188 L 249.945312 245.71875 L 253.8125 243.898438 C 254.371094 244.0625 254.953125 244.214844 255.566406 244.300781 L 256.21875 247.125 L 261.171875 247.054688 L 261.660156 244.355469 C 262.367188 244.257812 263.050781 244.105469 263.71875 243.898438 L 267.347656 245.480469 L 270.796875 243.410156 L 270.785156 241.058594 Z M 263.078125 238.765625 C 260.601562 240.253906 256.527344 240.292969 253.992188 238.890625 C 253.382812 238.542969 252.9375 238.152344 252.617188 237.734375 C 252.921875 237.304688 253.355469 236.914062 253.9375 236.550781 C 256.414062 235.078125 260.476562 235.007812 263.007812 236.425781 C 263.621094 236.773438 264.078125 237.164062 264.398438 237.59375 C 264.09375 238.011719 263.660156 238.417969 263.078125 238.765625 Z M 263.078125 238.765625 " fill-opacity="1" fill-rule="nonzero"/><path fill="#e4e8f4" d="M 223.964844 107.777344 C 223.339844 107.402344 222.460938 107.445312 221.496094 108.023438 L 134.984375 158.785156 C 133.066406 159.910156 131.535156 162.621094 131.535156 164.855469 L 131.71875 229.242188 L 128.324219 227.140625 L 128.324219 162.957031 C 128.324219 160.722656 129.855469 158.011719 131.769531 156.886719 L 218.28125 106.125 C 219.246094 105.5625 220.125 105.503906 220.75 105.878906 Z M 223.964844 107.777344 " fill-opacity="1" fill-rule="nonzero"/><path fill="#3f434f" d="M 221.5 108.019531 C 223.410156 106.894531 224.964844 107.796875 224.96875 110.027344 L 225.148438 174.410156 L 131.714844 229.238281 L 131.535156 164.855469 C 131.527344 162.625 133.074219 159.90625 134.984375 158.785156 Z M 221.5 108.019531 " fill-opacity="1" fill-rule="nonzero"/><path fill="#ffffff" d="M 135.792969 164.84375 C 135.789062 164.15625 136.515625 162.878906 137.113281 162.53125 L 220.722656 113.464844 L 220.886719 171.917969 L 135.949219 221.761719 Z M 135.792969 164.84375 " fill-opacity="1" fill-rule="nonzero"/><g clip-path="url(#d3dccc8c2e)"><path fill="#bac1ce" d="M 131.71875 229.238281 L 131.75 235.109375 L 181.574219 262.890625 C 183.476562 264.015625 186.554688 264.015625 188.46875 262.890625 L 274.980469 212.128906 C 275.945312 211.566406 276.425781 210.816406 276.425781 210.082031 L 276.398438 205.878906 C 276.398438 206.613281 275.917969 207.347656 274.953125 207.910156 Z M 131.71875 229.238281 " fill-opacity="1" fill-rule="nonzero"/></g><g clip-path="url(#125d9130e5)"><path fill="#e4e8f4" d="M 131.726562 229.238281 L 181.554688 258.667969 C 183.453125 259.789062 186.539062 259.789062 188.449219 258.667969 L 274.957031 207.90625 C 276.878906 206.777344 276.886719 204.960938 274.988281 203.839844 L 225.160156 174.40625 Z M 131.726562 229.238281 " fill-opacity="1" fill-rule="nonzero"/></g><path fill="#5b5e71" d="M 145.828125 239.097656 L 145.824219 241.488281 L 147.871094 242.691406 L 147.878906 240.300781 Z M 145.828125 239.097656 " fill-opacity="1" fill-rule="nonzero"/><path fill="#5b5e71" d="M 140.597656 236.027344 L 140.589844 238.417969 L 144.230469 240.554688 L 144.238281 238.164062 Z M 140.597656 236.027344 " fill-opacity="1" fill-rule="nonzero"/><path fill="#5b5e71" d="M 137.109375 233.980469 L 137.101562 236.371094 L 139.152344 237.574219 L 139.15625 235.183594 Z M 137.109375 233.980469 " fill-opacity="1" fill-rule="nonzero"/><path fill="#5b5e71" d="M 133.460938 231.839844 L 133.457031 234.230469 L 135.503906 235.433594 L 135.511719 233.042969 Z M 133.460938 231.839844 " fill-opacity="1" fill-rule="nonzero"/><path fill="#bac1ce" d="M 227.191406 231.738281 L 208.511719 242.78125 C 207.496094 243.378906 206.246094 243.378906 205.269531 242.78125 L 193.347656 235.792969 C 192.253906 235.15625 192.253906 233.566406 193.347656 232.929688 L 211.988281 221.929688 C 213.003906 221.335938 214.253906 221.292969 215.273438 221.890625 L 227.152344 228.878906 C 228.246094 229.515625 228.246094 231.105469 227.191406 231.738281 Z M 227.191406 231.738281 " fill-opacity="1" fill-rule="nonzero"/><path fill="#3f434f" d="M 148.792969 218.582031 C 149.027344 218.445312 149.347656 218.464844 149.710938 218.667969 C 150.46875 219.105469 151.042969 220.167969 151.042969 221.019531 L 213.96875 184.703125 C 213.96875 183.851562 213.394531 182.785156 212.648438 182.359375 C 212.285156 182.148438 211.953125 182.136719 211.71875 182.273438 Z M 148.792969 218.582031 " fill-opacity="1" fill-rule="nonzero"/><path fill="#363a44" d="M 149.714844 218.667969 C 148.972656 218.242188 148.386719 218.632812 148.382812 219.484375 L 151.042969 221.015625 C 151.042969 220.164062 150.460938 219.101562 149.714844 218.667969 Z M 149.714844 218.667969 " fill-opacity="1" fill-rule="nonzero"/><path fill="#bac1ce" d="M 254.789062 194.597656 L 166.863281 245.359375 L 140.824219 230.191406 L 228.75 179.429688 Z M 254.789062 194.597656 " fill-opacity="1" fill-rule="nonzero"/><path fill="#5b5e71" d="M 223.449219 185.171875 L 225.871094 186.582031 L 231.167969 183.523438 L 228.746094 182.113281 Z M 223.449219 185.171875 " fill-opacity="1" fill-rule="nonzero"/><path fill="#5b5e71" d="M 145.460938 230.199219 L 147.886719 231.605469 L 153.179688 228.550781 L 150.757812 227.140625 Z M 145.460938 230.199219 " fill-opacity="1" fill-rule="nonzero"/><path fill="#5b5e71" d="M 215.632812 189.683594 L 218.054688 191.09375 L 223.371094 188.023438 L 220.949219 186.617188 Z M 215.632812 189.683594 " fill-opacity="1" fill-rule="nonzero"/><path fill="#5b5e71" d="M 207.835938 194.1875 L 210.257812 195.59375 L 215.574219 192.527344 L 213.152344 191.117188 Z M 207.835938 194.1875 " fill-opacity="1" fill-rule="nonzero"/><path fill="#5b5e71" d="M 200.039062 198.6875 L 202.460938 200.097656 L 207.777344 197.027344 L 205.355469 195.621094 Z M 200.039062 198.6875 " fill-opacity="1" fill-rule="nonzero"/><path fill="#5b5e71" d="M 192.242188 203.191406 L 194.664062 204.597656 L 199.980469 201.527344 L 197.558594 200.121094 Z M 192.242188 203.191406 " fill-opacity="1" fill-rule="nonzero"/><path fill="#5b5e71" d="M 184.445312 207.691406 L 186.867188 209.097656 L 192.183594 206.03125 L 189.761719 204.621094 Z M 184.445312 207.691406 " fill-opacity="1" fill-rule="nonzero"/><path fill="#5b5e71" d="M 176.648438 212.191406 L 179.070312 213.601562 L 184.386719 210.53125 L 181.964844 209.125 Z M 176.648438 212.191406 " fill-opacity="1" fill-rule="nonzero"/><path fill="#5b5e71" d="M 168.851562 216.695312 L 171.273438 218.101562 L 176.589844 215.03125 L 174.167969 213.625 Z M 168.851562 216.695312 " fill-opacity="1" fill-rule="nonzero"/><path fill="#5b5e71" d="M 161.054688 221.195312 L 163.476562 222.605469 L 168.792969 219.535156 L 166.371094 218.125 Z M 161.054688 221.195312 " fill-opacity="1" fill-rule="nonzero"/><path fill="#5b5e71" d="M 153.257812 225.695312 L 155.683594 227.105469 L 160.976562 224.046875 L 158.554688 222.640625 Z M 153.257812 225.695312 " fill-opacity="1" fill-rule="nonzero"/><path fill="#5b5e71" d="M 150.226562 232.96875 L 152.628906 234.363281 L 235.910156 186.277344 L 233.507812 184.882812 Z M 150.226562 232.96875 " fill-opacity="1" fill-rule="nonzero"/><path fill="#5b5e71" d="M 154.96875 235.722656 L 157.390625 237.132812 L 240.675781 189.046875 L 238.25 187.640625 Z M 154.96875 235.722656 " fill-opacity="1" fill-rule="nonzero"/><path fill="#5b5e71" d="M 159.730469 238.492188 L 162.15625 239.898438 L 245.4375 191.816406 L 243.015625 190.40625 Z M 159.730469 238.492188 " fill-opacity="1" fill-rule="nonzero"/><path fill="#5b5e71" d="M 164.496094 241.257812 L 166.898438 242.65625 L 250.179688 194.570312 L 247.777344 193.175781 Z M 164.496094 241.257812 " fill-opacity="1" fill-rule="nonzero"/><path fill="#bac1ce" d="M 208.238281 130.859375 L 210.558594 132.210938 L 210.667969 169.722656 C 210.667969 170.214844 210.835938 170.554688 211.113281 170.726562 L 208.792969 169.375 C 208.515625 169.203125 208.34375 168.863281 208.34375 168.375 " fill-opacity="1" fill-rule="nonzero"/><path fill="#e4e8f4" d="M 208.34375 168.375 L 208.238281 130.859375 " fill-opacity="1" fill-rule="nonzero"/><path fill="#d4dae8" d="M 210.554688 132.203125 L 259.191406 104.136719 L 259.300781 141.652344 C 259.304688 142.621094 258.613281 143.816406 257.757812 144.3125 L 212.207031 170.609375 C 211.363281 171.097656 210.667969 170.703125 210.664062 169.734375 Z M 210.554688 132.203125 " fill-opacity="1" fill-rule="nonzero"/><path fill="#e4e8f4" d="M 212.234375 133.171875 L 257.519531 107.039062 L 257.625 141.65625 C 257.625 142.027344 257.25 142.667969 256.917969 142.859375 L 212.339844 168.597656 Z M 212.234375 133.171875 " fill-opacity="1" fill-rule="nonzero"/><path fill="#f9607f" d="M 257.410156 100.078125 C 258.386719 99.515625 259.179688 99.964844 259.183594 101.089844 L 259.191406 104.136719 L 210.554688 132.21875 L 210.542969 129.171875 C 210.542969 128.046875 211.328125 126.683594 212.308594 126.117188 Z M 257.410156 100.078125 " fill-opacity="1" fill-rule="nonzero"/><g clip-path="url(#51aedb2f6b)"><path fill="#f34858" d="M 258.667969 99.945312 C 258.351562 99.777344 257.902344 99.796875 257.414062 100.074219 L 212.304688 126.121094 C 211.324219 126.675781 210.539062 128.039062 210.539062 129.167969 L 210.558594 132.210938 L 208.238281 130.863281 L 208.214844 127.816406 C 208.214844 126.6875 209.003906 125.347656 209.984375 124.769531 L 255.089844 98.722656 C 255.582031 98.449219 256.027344 98.425781 256.347656 98.597656 Z M 258.667969 99.945312 " fill-opacity="1" fill-rule="nonzero"/></g><path fill="#ffffff" d="M 212.554688 127.519531 C 213.15625 127.171875 213.636719 127.457031 213.636719 128.148438 C 213.640625 128.839844 213.164062 129.664062 212.5625 130.011719 C 211.960938 130.359375 211.480469 130.085938 211.480469 129.394531 C 211.476562 128.703125 211.953125 127.863281 212.554688 127.519531 Z M 212.554688 127.519531 " fill-opacity="1" fill-rule="nonzero"/><path fill="#ffffff" d="M 216.320312 125.34375 C 216.921875 124.996094 217.402344 125.28125 217.402344 125.976562 C 217.40625 126.667969 216.929688 127.492188 216.328125 127.839844 C 215.726562 128.1875 215.234375 127.921875 215.230469 127.226562 C 215.230469 126.535156 215.71875 125.691406 216.320312 125.34375 Z M 216.320312 125.34375 " fill-opacity="1" fill-rule="nonzero"/><path fill="#ffffff" d="M 220.070312 123.175781 C 220.675781 122.832031 221.164062 123.109375 221.167969 123.800781 C 221.167969 124.492188 220.679688 125.324219 220.078125 125.671875 C 219.488281 126.011719 219 125.746094 218.996094 125.054688 C 218.996094 124.363281 219.480469 123.519531 220.070312 123.175781 Z M 220.070312 123.175781 " fill-opacity="1" fill-rule="nonzero"/><path fill="#cad0dd" d="M 229.011719 129.820312 L 229.015625 130.785156 L 214.703125 139.050781 L 214.703125 138.085938 Z M 229.011719 129.820312 " fill-opacity="1" fill-rule="nonzero"/><path fill="#cad0dd" d="M 225.6875 134.484375 L 225.691406 135.449219 L 214.703125 141.792969 L 214.703125 140.828125 Z M 225.6875 134.484375 " fill-opacity="1" fill-rule="nonzero"/><path fill="#cad0dd" d="M 225.6875 137.226562 L 225.691406 138.191406 L 214.703125 144.535156 L 214.703125 143.570312 Z M 225.6875 137.226562 " fill-opacity="1" fill-rule="nonzero"/><path fill="#cad0dd" d="M 229.011719 126.992188 L 229.015625 127.957031 L 214.703125 136.222656 L 214.703125 135.257812 Z M 229.011719 126.992188 " fill-opacity="1" fill-rule="nonzero"/><path fill="#f9bb4a" d="M 233.441406 134.714844 C 234.433594 134.140625 235.449219 133.980469 236.230469 134.261719 C 237.476562 134.703125 238.164062 136.113281 238.359375 137.804688 C 238.453125 138.878906 238.410156 140.027344 238.621094 141.015625 C 238.847656 141.960938 239.441406 142.722656 240.378906 142.476562 C 240.5625 142.433594 240.746094 142.355469 240.929688 142.25 C 241.886719 141.695312 242.808594 140.363281 243.367188 139.113281 C 244.042969 137.578125 244.382812 136.035156 245.03125 134.535156 C 245.960938 132.3125 247.570312 130.203125 249.304688 128.929688 C 249.554688 128.746094 249.808594 128.582031 250.0625 128.4375 C 251.542969 127.582031 253.035156 127.347656 254.140625 127.859375 C 256.027344 128.714844 256.671875 131.394531 257.050781 134.023438 C 257.429688 136.707031 257.617188 139.515625 257.625 142.441406 L 212.328125 168.597656 C 212.761719 165.121094 212.605469 163.027344 216.019531 157.304688 C 216.433594 156.621094 216.890625 155.964844 217.410156 155.480469 C 217.613281 155.296875 217.816406 155.148438 218.015625 155.03125 C 219.117188 154.398438 220.144531 154.714844 221.164062 155.035156 C 222.171875 155.351562 223.179688 155.683594 224.273438 155.050781 C 224.484375 154.929688 224.699219 154.773438 224.917969 154.574219 C 226.558594 153.0625 226.984375 150.445312 227.320312 148.308594 C 227.742188 145.726562 228.492188 142.992188 229.523438 140.316406 C 230.082031 138.851562 230.746094 137.34375 231.765625 136.140625 C 232.285156 135.527344 232.859375 135.050781 233.441406 134.714844 Z M 233.441406 134.714844 " fill-opacity="1" fill-rule="nonzero"/><g clip-path="url(#62fd492cad)"><path fill="#bac1ce" d="M 98.40625 200.367188 L 100.457031 201.5625 L 100.550781 231.242188 C 100.550781 231.675781 100.703125 231.976562 100.949219 232.125 L 98.894531 230.933594 C 98.648438 230.78125 98.5 230.480469 98.5 230.046875 " fill-opacity="1" fill-rule="nonzero"/></g><g clip-path="url(#8a1ca6a6a9)"><path fill="#e4e8f4" d="M 98.5 230.046875 L 98.402344 200.367188 " fill-opacity="1" fill-rule="nonzero"/></g><path fill="#d4dae8" d="M 100.453125 201.554688 L 143.460938 176.738281 L 143.558594 206.417969 C 143.5625 207.273438 142.949219 208.332031 142.191406 208.769531 L 101.914062 232.023438 C 101.167969 232.457031 100.554688 232.105469 100.550781 231.25 Z M 100.453125 201.554688 " fill-opacity="1" fill-rule="nonzero"/><path fill="#e4e8f4" d="M 101.9375 202.410156 L 141.984375 179.300781 L 142.074219 206.421875 C 142.074219 206.75 141.742188 207.316406 141.449219 207.484375 L 102.03125 230.242188 Z M 101.9375 202.410156 " fill-opacity="1" fill-rule="nonzero"/><path fill="#748bfd" d="M 141.882812 173.148438 C 142.75 172.648438 143.449219 173.046875 143.453125 174.042969 L 143.460938 176.738281 L 100.453125 201.566406 L 100.445312 198.871094 C 100.441406 197.878906 101.136719 196.675781 102.003906 196.175781 Z M 141.882812 173.148438 " fill-opacity="1" fill-rule="nonzero"/><g clip-path="url(#cbacc771e9)"><path fill="#576cfb" d="M 142.996094 173.03125 C 142.714844 172.878906 142.320312 172.898438 141.886719 173.144531 L 102.003906 196.175781 C 101.136719 196.664062 100.4375 197.871094 100.4375 198.867188 L 100.457031 201.5625 L 98.40625 200.367188 L 98.386719 197.675781 C 98.386719 196.675781 99.082031 195.488281 99.949219 194.980469 L 139.832031 171.949219 C 140.265625 171.707031 140.664062 171.6875 140.945312 171.835938 Z M 142.996094 173.03125 " fill-opacity="1" fill-rule="nonzero"/></g><path fill="#ffffff" d="M 102.222656 197.410156 C 102.753906 197.101562 103.179688 197.355469 103.179688 197.96875 C 103.183594 198.582031 102.761719 199.308594 102.230469 199.617188 C 101.695312 199.921875 101.273438 199.683594 101.273438 199.070312 C 101.269531 198.457031 101.691406 197.71875 102.222656 197.410156 Z M 102.222656 197.410156 " fill-opacity="1" fill-rule="nonzero"/><path fill="#ffffff" d="M 105.550781 195.488281 C 106.085938 195.179688 106.507812 195.433594 106.507812 196.046875 C 106.511719 196.660156 106.089844 197.386719 105.558594 197.695312 C 105.027344 198 104.589844 197.765625 104.589844 197.15625 C 104.585938 196.542969 105.019531 195.796875 105.550781 195.488281 Z M 105.550781 195.488281 " fill-opacity="1" fill-rule="nonzero"/><path fill="#ffffff" d="M 108.867188 193.574219 C 109.402344 193.265625 109.835938 193.511719 109.835938 194.125 C 109.839844 194.738281 109.40625 195.472656 108.875 195.777344 C 108.351562 196.082031 107.917969 195.84375 107.917969 195.234375 C 107.914062 194.621094 108.347656 193.875 108.867188 193.574219 Z M 108.867188 193.574219 " fill-opacity="1" fill-rule="nonzero"/><path fill="#cad0dd" d="M 140.1875 204.101562 L 140.191406 204.976562 L 103.703125 226.042969 L 103.703125 225.167969 Z M 140.1875 204.101562 " fill-opacity="1" fill-rule="nonzero"/><path fill="#cad0dd" d="M 140.1875 200.820312 L 140.191406 201.691406 L 103.703125 222.761719 L 103.703125 221.886719 Z M 140.1875 200.820312 " fill-opacity="1" fill-rule="nonzero"/><path fill="#cad0dd" d="M 140.1875 197.539062 L 140.191406 198.410156 L 103.703125 219.476562 L 103.703125 218.605469 Z M 140.1875 197.539062 " fill-opacity="1" fill-rule="nonzero"/><path fill="#cad0dd" d="M 140.1875 194.253906 L 140.191406 195.128906 L 103.703125 216.195312 L 103.703125 215.320312 Z M 140.1875 194.253906 " fill-opacity="1" fill-rule="nonzero"/><path fill="#cad0dd" d="M 140.1875 190.972656 L 140.191406 191.847656 L 103.703125 212.914062 L 103.703125 212.039062 Z M 140.1875 190.972656 " fill-opacity="1" fill-rule="nonzero"/><path fill="#cad0dd" d="M 140.1875 187.691406 L 140.191406 188.566406 L 103.703125 209.628906 L 103.703125 208.757812 Z M 140.1875 187.691406 " fill-opacity="1" fill-rule="nonzero"/><path fill="#cad0dd" d="M 130.480469 190.015625 L 130.484375 190.886719 L 103.703125 206.347656 L 103.703125 205.476562 Z M 130.480469 190.015625 " fill-opacity="1" fill-rule="nonzero"/><path fill="#f9bb4a" d="M 119.109375 231.875 L 118.992188 261.5625 C 118.988281 262.230469 118.550781 262.898438 117.675781 263.402344 C 115.910156 264.429688 113.050781 264.429688 111.273438 263.402344 C 110.378906 262.886719 109.929688 262.210938 109.933594 261.535156 L 110.050781 231.847656 C 110.050781 232.523438 110.496094 233.199219 111.390625 233.714844 C 113.171875 234.742188 116.03125 234.742188 117.796875 233.714844 C 118.671875 233.210938 119.109375 232.542969 119.109375 231.875 Z M 119.109375 231.875 " fill-opacity="1" fill-rule="nonzero"/><path fill="#fed57a" d="M 117.777344 230.007812 C 119.554688 231.03125 119.550781 232.695312 117.796875 233.714844 C 116.03125 234.742188 113.171875 234.742188 111.390625 233.714844 C 109.613281 232.691406 109.605469 231.03125 111.371094 230.007812 C 113.125 228.988281 115.996094 228.980469 117.777344 230.007812 Z M 117.777344 230.007812 " fill-opacity="1" fill-rule="nonzero"/><path fill="#75ca75" d="M 129.816406 238.054688 L 129.695312 267.742188 C 129.691406 268.410156 129.253906 269.078125 128.382812 269.582031 C 126.613281 270.609375 123.753906 270.609375 121.976562 269.582031 C 121.082031 269.066406 120.632812 268.390625 120.636719 267.714844 L 120.753906 238.027344 C 120.753906 238.703125 121.199219 239.378906 122.09375 239.894531 C 123.875 240.921875 126.734375 240.921875 128.5 239.894531 C 129.375 239.390625 129.8125 238.722656 129.816406 238.054688 Z M 129.816406 238.054688 " fill-opacity="1" fill-rule="nonzero"/><path fill="#9ad898" d="M 128.480469 236.1875 C 130.257812 237.210938 130.253906 238.875 128.5 239.894531 C 126.734375 240.921875 123.875 240.921875 122.09375 239.894531 C 120.316406 238.871094 120.308594 237.210938 122.074219 236.1875 C 123.828125 235.167969 126.699219 235.160156 128.480469 236.1875 Z M 128.480469 236.1875 " fill-opacity="1" fill-rule="nonzero"/><g clip-path="url(#980e6b8f1b)"><path fill="#fa5168" d="M 140.523438 244.234375 L 140.40625 273.925781 C 140.402344 274.59375 139.964844 275.261719 139.089844 275.765625 C 137.324219 276.792969 134.464844 276.792969 132.683594 275.765625 C 131.789062 275.25 131.34375 274.574219 131.34375 273.898438 L 131.464844 244.210938 C 131.464844 244.886719 131.910156 245.5625 132.804688 246.078125 C 134.582031 247.105469 137.445312 247.105469 139.210938 246.078125 C 140.082031 245.570312 140.523438 244.90625 140.523438 244.234375 Z M 140.523438 244.234375 " fill-opacity="1" fill-rule="nonzero"/></g><path fill="#f9607f" d="M 139.191406 242.371094 C 140.96875 243.394531 140.964844 245.058594 139.210938 246.078125 C 137.445312 247.105469 134.582031 247.105469 132.804688 246.078125 C 131.027344 245.054688 131.019531 243.394531 132.785156 242.371094 C 134.539062 241.351562 137.410156 241.34375 139.191406 242.371094 Z M 139.191406 242.371094 " fill-opacity="1" fill-rule="nonzero"/><path fill="#f34858" d="M 253.777344 249.304688 L 253.828125 254.097656 L 250.546875 256.613281 L 250.492188 251.820312 Z M 253.777344 249.304688 " fill-opacity="1" fill-rule="nonzero"/><path fill="#f34858" d="M 223.597656 252.636719 L 223.648438 257.429688 L 219.625 254.558594 L 219.574219 249.765625 Z M 223.597656 252.636719 " fill-opacity="1" fill-rule="nonzero"/><path fill="#fa5168" d="M 245.816406 256.503906 L 245.863281 260.617188 C 245.847656 259.273438 244.941406 257.9375 243.15625 256.9375 C 239.601562 254.949219 233.90625 255.035156 230.429688 257.117188 C 228.699219 258.15625 227.839844 259.492188 227.855469 260.820312 L 227.8125 256.710938 C 227.796875 255.382812 228.65625 254.042969 230.386719 253.007812 C 233.859375 250.921875 239.558594 250.835938 243.109375 252.824219 C 244.898438 253.824219 245.804688 255.160156 245.816406 256.503906 Z M 245.816406 256.503906 " fill-opacity="1" fill-rule="nonzero"/><path fill="#e4e8f4" d="M 216.15625 258.875 L 216.1875 262.164062 L 216.128906 259.65625 L 216.078125 254.863281 Z M 216.15625 258.875 " fill-opacity="1" fill-rule="nonzero"/><path fill="#f34858" d="M 257.5625 258.347656 L 257.59375 261.640625 L 251.855469 262.097656 L 251.824219 258.804688 Z M 257.5625 258.347656 " fill-opacity="1" fill-rule="nonzero"/><path fill="#f34858" d="M 223.011719 259.28125 L 223.042969 262.570312 L 216.1875 262.164062 L 216.15625 258.875 Z M 223.011719 259.28125 " fill-opacity="1" fill-rule="nonzero"/><path fill="#fa5168" d="M 224.085938 260.675781 L 224.136719 265.46875 C 223.699219 265.03125 223.316406 264.558594 223.0625 264.074219 L 223.011719 259.28125 C 223.265625 259.765625 223.648438 260.234375 224.085938 260.675781 Z M 224.085938 260.675781 " fill-opacity="1" fill-rule="nonzero"/><path fill="#fa5168" d="M 251.824219 258.804688 L 251.875 263.597656 C 251.535156 264.285156 251.023438 264.921875 250.378906 265.546875 L 250.328125 260.753906 C 250.972656 260.128906 251.484375 259.492188 251.824219 258.804688 Z M 251.824219 258.804688 " fill-opacity="1" fill-rule="nonzero"/><path fill="#fa5168" d="M 232.679688 264.6875 L 232.710938 267.980469 C 231.867188 267.851562 231.039062 267.644531 230.265625 267.40625 L 230.234375 264.113281 C 231.007812 264.351562 231.835938 264.558594 232.679688 264.6875 Z M 232.679688 264.6875 " fill-opacity="1" fill-rule="nonzero"/><path fill="#fa5168" d="M 244.121094 264.121094 L 244.152344 267.414062 C 243.203125 267.699219 242.253906 267.917969 241.265625 268.050781 L 241.234375 264.757812 C 242.222656 264.625 243.171875 264.40625 244.121094 264.121094 Z M 244.121094 264.121094 " fill-opacity="1" fill-rule="nonzero"/><path fill="#fa5168" d="M 254.046875 263.4375 L 254.078125 266.726562 L 249.230469 269.632812 L 249.199219 266.339844 Z M 254.046875 263.4375 " fill-opacity="1" fill-rule="nonzero"/><path fill="#f34858" d="M 249.199219 266.339844 L 249.230469 269.632812 L 244.152344 267.414062 L 244.121094 264.121094 Z M 249.199219 266.339844 " fill-opacity="1" fill-rule="nonzero"/><path fill="#fa5168" d="M 224.800781 266.671875 L 224.832031 269.960938 L 219.875 267.1875 L 219.84375 263.898438 Z M 224.800781 266.671875 " fill-opacity="1" fill-rule="nonzero"/><path fill="#f34858" d="M 230.234375 264.113281 L 230.265625 267.40625 L 224.832031 269.960938 L 224.800781 266.671875 Z M 230.234375 264.113281 " fill-opacity="1" fill-rule="nonzero"/><path fill="#f34858" d="M 241.234375 264.757812 L 241.265625 268.050781 L 240.570312 271.839844 L 240.539062 268.550781 Z M 241.234375 264.757812 " fill-opacity="1" fill-rule="nonzero"/><path fill="#f34858" d="M 233.597656 268.632812 L 233.628906 271.925781 L 232.710938 267.980469 L 232.679688 264.6875 Z M 233.597656 268.632812 " fill-opacity="1" fill-rule="nonzero"/><path fill="#f9607f" d="M 249.199219 266.339844 L 244.121094 264.121094 C 243.171875 264.40625 242.222656 264.625 241.234375 264.757812 L 240.539062 268.550781 L 233.597656 268.632812 L 232.679688 264.6875 C 231.835938 264.558594 231.007812 264.351562 230.234375 264.113281 L 224.800781 266.671875 L 219.84375 263.898438 L 224.085938 260.675781 C 223.648438 260.234375 223.265625 259.765625 223.011719 259.28125 L 216.15625 258.875 L 216.078125 254.863281 L 222.582031 254.320312 C 222.792969 253.753906 223.121094 253.1875 223.597656 252.636719 L 219.574219 249.765625 L 224.421875 246.859375 L 229.175781 248.921875 C 230.21875 248.515625 231.316406 248.207031 232.492188 247.984375 L 233.101562 244.660156 L 240.042969 244.554688 L 240.777344 247.710938 C 242.109375 247.855469 243.425781 248.140625 244.609375 248.527344 L 248.820312 246.53125 L 253.777344 249.304688 L 250.492188 251.820312 C 251.199219 252.492188 251.738281 253.246094 252.03125 254.011719 L 257.484375 254.316406 L 257.5625 258.347656 L 251.824219 258.804688 C 251.484375 259.492188 250.972656 260.128906 250.328125 260.753906 L 254.046875 263.433594 Z M 230.511719 260.375 C 234.0625 262.363281 239.777344 262.289062 243.253906 260.207031 C 246.726562 258.121094 246.664062 254.8125 243.109375 252.824219 C 239.558594 250.835938 233.859375 250.921875 230.386719 253.007812 C 226.910156 255.089844 226.957031 258.390625 230.511719 260.375 " fill-opacity="1" fill-rule="nonzero"/><path fill="#fa5168" d="M 240.539062 268.550781 L 240.570312 271.839844 L 233.628906 271.925781 L 233.597656 268.632812 Z M 240.539062 268.550781 " fill-opacity="1" fill-rule="nonzero"/><path fill="#416e84" d="M 270.585938 230.988281 L 270.621094 234.40625 L 268.28125 236.199219 L 268.242188 232.78125 Z M 270.585938 230.988281 " fill-opacity="1" fill-rule="nonzero"/><path fill="#416e84" d="M 249.0625 233.363281 L 249.097656 236.78125 L 246.230469 234.734375 L 246.195312 231.316406 Z M 249.0625 233.363281 " fill-opacity="1" fill-rule="nonzero"/><path fill="#37617b" d="M 264.910156 236.121094 L 264.941406 239.054688 C 264.929688 238.09375 264.285156 237.144531 263.007812 236.429688 C 260.476562 235.011719 256.414062 235.074219 253.933594 236.558594 C 252.699219 237.296875 252.089844 238.253906 252.097656 239.199219 L 252.066406 236.269531 C 252.058594 235.320312 252.667969 234.367188 253.902344 233.625 C 256.382812 232.140625 260.445312 232.078125 262.976562 233.496094 C 264.253906 234.210938 264.898438 235.164062 264.910156 236.121094 Z M 264.910156 236.121094 " fill-opacity="1" fill-rule="nonzero"/><path fill="#e4e8f4" d="M 243.753906 237.8125 L 243.777344 240.160156 L 243.738281 238.371094 L 243.699219 234.953125 Z M 243.753906 237.8125 " fill-opacity="1" fill-rule="nonzero"/><path fill="#416e84" d="M 273.285156 237.4375 L 273.304688 239.78125 L 269.214844 240.109375 L 269.191406 237.761719 Z M 273.285156 237.4375 " fill-opacity="1" fill-rule="nonzero"/><path fill="#416e84" d="M 248.644531 238.101562 L 248.667969 240.449219 L 243.777344 240.160156 L 243.753906 237.8125 Z M 248.644531 238.101562 " fill-opacity="1" fill-rule="nonzero"/><path fill="#37617b" d="M 249.410156 239.09375 L 249.449219 242.515625 C 249.136719 242.203125 248.863281 241.863281 248.683594 241.519531 L 248.644531 238.101562 C 248.824219 238.445312 249.097656 238.78125 249.410156 239.09375 Z M 249.410156 239.09375 " fill-opacity="1" fill-rule="nonzero"/><path fill="#37617b" d="M 269.191406 237.761719 L 269.230469 241.179688 C 268.984375 241.671875 268.621094 242.125 268.160156 242.570312 L 268.125 239.152344 C 268.582031 238.703125 268.949219 238.25 269.191406 237.761719 Z M 269.191406 237.761719 " fill-opacity="1" fill-rule="nonzero"/><path fill="#37617b" d="M 255.539062 241.957031 L 255.5625 244.304688 C 254.960938 244.210938 254.367188 244.066406 253.816406 243.894531 L 253.796875 241.546875 C 254.347656 241.71875 254.9375 241.867188 255.539062 241.957031 Z M 255.539062 241.957031 " fill-opacity="1" fill-rule="nonzero"/><path fill="#37617b" d="M 263.699219 241.554688 L 263.722656 243.902344 C 263.046875 244.101562 262.367188 244.257812 261.660156 244.355469 L 261.640625 242.007812 C 262.34375 241.914062 263.023438 241.757812 263.699219 241.554688 Z M 263.699219 241.554688 " fill-opacity="1" fill-rule="nonzero"/><path fill="#37617b" d="M 270.777344 241.0625 L 270.800781 243.410156 L 267.34375 245.484375 L 267.320312 243.136719 Z M 270.777344 241.0625 " fill-opacity="1" fill-rule="nonzero"/><path fill="#416e84" d="M 267.320312 243.136719 L 267.34375 245.484375 L 263.722656 243.902344 L 263.699219 241.554688 Z M 267.320312 243.136719 " fill-opacity="1" fill-rule="nonzero"/><path fill="#37617b" d="M 249.921875 243.371094 L 249.941406 245.71875 L 246.40625 243.742188 L 246.386719 241.394531 Z M 249.921875 243.371094 " fill-opacity="1" fill-rule="nonzero"/><path fill="#416e84" d="M 253.796875 241.546875 L 253.820312 243.894531 L 249.941406 245.71875 L 249.921875 243.371094 Z M 253.796875 241.546875 " fill-opacity="1" fill-rule="nonzero"/><path fill="#416e84" d="M 261.640625 242.007812 L 261.660156 244.355469 L 261.167969 247.058594 L 261.144531 244.710938 Z M 261.640625 242.007812 " fill-opacity="1" fill-rule="nonzero"/><path fill="#416e84" d="M 256.195312 244.769531 L 256.214844 247.117188 L 255.5625 244.304688 L 255.539062 241.957031 Z M 256.195312 244.769531 " fill-opacity="1" fill-rule="nonzero"/><path fill="#4c7891" d="M 267.320312 243.136719 L 263.699219 241.554688 C 263.023438 241.757812 262.34375 241.914062 261.640625 242.007812 L 261.144531 244.710938 L 256.195312 244.769531 L 255.539062 241.957031 C 254.9375 241.867188 254.347656 241.71875 253.796875 241.546875 L 249.921875 243.371094 L 246.386719 241.394531 L 249.410156 239.09375 C 249.097656 238.78125 248.824219 238.445312 248.644531 238.101562 L 243.753906 237.8125 L 243.699219 234.953125 L 248.335938 234.5625 C 248.488281 234.160156 248.722656 233.753906 249.0625 233.363281 L 246.191406 231.316406 L 249.648438 229.242188 L 253.042969 230.714844 C 253.785156 230.425781 254.566406 230.207031 255.40625 230.046875 L 255.839844 227.675781 L 260.789062 227.601562 L 261.3125 229.851562 C 262.261719 229.953125 263.203125 230.160156 264.046875 230.433594 L 267.050781 229.007812 L 270.585938 230.988281 L 268.242188 232.78125 C 268.746094 233.261719 269.128906 233.796875 269.339844 234.34375 L 273.230469 234.5625 L 273.285156 237.4375 L 269.191406 237.761719 C 268.949219 238.253906 268.582031 238.707031 268.125 239.152344 L 270.777344 241.0625 Z M 253.992188 238.882812 C 256.527344 240.300781 260.601562 240.246094 263.078125 238.761719 C 265.558594 237.273438 265.511719 234.914062 262.976562 233.496094 C 260.445312 232.078125 256.382812 232.140625 253.902344 233.625 C 251.425781 235.113281 251.457031 237.464844 253.992188 238.882812 " fill-opacity="1" fill-rule="nonzero"/><path fill="#37617b" d="M 261.144531 244.710938 L 261.167969 247.058594 L 256.214844 247.117188 L 256.195312 244.769531 Z M 261.144531 244.710938 " fill-opacity="1" fill-rule="nonzero"/><path fill="#d4dae8" d="M 174.554688 166.515625 C 175.746094 165.828125 176.996094 165.792969 177.496094 166.929688 C 177.726562 167.46875 177.753906 168.15625 177.757812 168.925781 L 177.757812 169.546875 C 177.78125 171.828125 177.800781 174.191406 178.476562 175.933594 C 179.109375 177.582031 180.707031 178.820312 182.703125 177.671875 C 183.128906 177.425781 183.457031 177.136719 183.699219 176.816406 C 184.011719 176.40625 184.238281 175.851562 184.421875 175.335938 C 184.84375 174.203125 185.199219 173.035156 185.523438 171.914062 C 185.734375 171.199219 185.933594 170.511719 186.160156 169.808594 C 186.9375 167.394531 187.773438 165.617188 188.808594 164.183594 C 189.574219 163.132812 190.441406 162.320312 191.273438 161.839844 C 191.957031 161.445312 192.617188 161.273438 193.167969 161.386719 C 194.050781 161.566406 194.550781 162.375 195.023438 163.148438 C 195.28125 163.574219 195.554688 164.007812 195.882812 164.324219 C 196.269531 164.707031 196.769531 164.929688 197.339844 164.976562 C 197.707031 164.992188 198.03125 164.917969 198.3125 164.753906 C 198.417969 164.695312 198.515625 164.621094 198.609375 164.539062 L 198.824219 165.300781 C 198.667969 165.441406 198.503906 165.5625 198.332031 165.660156 C 197.910156 165.90625 197.445312 166.015625 196.957031 165.984375 C 196.289062 165.945312 195.703125 165.675781 195.246094 165.234375 C 194.886719 164.882812 194.601562 164.425781 194.328125 163.976562 C 193.871094 163.242188 193.441406 162.539062 192.726562 162.394531 C 192.289062 162.304688 191.796875 162.445312 191.300781 162.730469 C 190.566406 163.15625 189.828125 163.898438 189.269531 164.671875 C 188.359375 165.933594 187.59375 167.554688 186.886719 169.765625 C 186.660156 170.453125 186.464844 171.140625 186.25 171.835938 C 185.910156 173 185.574219 174.179688 185.121094 175.375 C 184.878906 176.019531 184.582031 176.714844 184.128906 177.324219 C 183.757812 177.832031 183.289062 178.25 182.734375 178.570312 C 180.3125 179.96875 178.484375 178.613281 177.722656 176.664062 C 177.019531 174.808594 176.996094 172.378906 176.976562 170.015625 L 176.960938 169.402344 C 176.957031 168.714844 176.941406 168.101562 176.757812 167.699219 C 176.394531 166.859375 175.433594 166.917969 174.53125 167.441406 C 174.289062 167.578125 174.054688 167.75 173.832031 167.945312 C 172.851562 168.839844 171.898438 170.273438 170.921875 172.347656 C 169.136719 176.164062 168.035156 180.207031 166.960938 184.121094 L 166.46875 185.929688 C 166.230469 186.804688 165.960938 187.648438 165.421875 188.402344 C 164.996094 189.007812 164.496094 189.394531 164.097656 189.660156 C 163.898438 189.789062 163.699219 189.921875 163.5 190.035156 C 160.4375 191.804688 157.5 191.011719 156.507812 188.027344 C 156.378906 187.644531 156.277344 187.210938 156.175781 186.792969 C 156.015625 186.113281 155.871094 185.476562 155.601562 184.996094 C 154.949219 183.792969 153.492188 183.648438 152.058594 184.472656 C 151.632812 184.71875 151.210938 185.050781 150.808594 185.464844 L 150.523438 184.78125 C 151.007812 184.277344 151.519531 183.878906 152.035156 183.582031 C 153.769531 182.578125 155.527344 182.75 156.3125 184.191406 C 156.625 184.746094 156.785156 185.457031 156.945312 186.136719 C 157.03125 186.546875 157.132812 186.945312 157.261719 187.3125 C 158.125 189.957031 160.816406 190.679688 163.511719 189.121094 C 163.683594 189.023438 163.855469 188.917969 164.023438 188.800781 C 164.324219 188.59375 164.691406 188.316406 164.960938 187.929688 C 165.316406 187.429688 165.53125 186.75 165.726562 186.03125 L 166.222656 184.238281 C 167.308594 180.25 168.4375 176.140625 170.292969 172.167969 C 171.371094 169.875 172.449219 168.253906 173.632812 167.195312 C 173.925781 166.929688 174.238281 166.699219 174.554688 166.515625 Z M 174.554688 166.515625 " fill-opacity="1" fill-rule="nonzero"/><path fill="#bac1ce" d="M 148.089844 166.4375 L 148.171875 205.339844 L 206.632812 171.589844 L 206.636719 172.503906 L 147.390625 206.710938 L 147.304688 166.890625 Z M 148.089844 166.4375 " fill-opacity="1" fill-rule="nonzero"/><path fill="#4c7891" d="M 150.949219 183.476562 C 150.25 183.878906 149.652344 184.914062 149.65625 185.714844 C 149.660156 186.558594 150.257812 186.859375 150.957031 186.457031 C 151.6875 186.035156 152.253906 185.058594 152.25 184.21875 C 152.25 183.414062 151.679688 183.054688 150.949219 183.476562 Z M 150.949219 183.476562 " fill-opacity="1" fill-rule="nonzero"/><path fill="#5b5e71" d="M 185.878906 170.304688 C 185.179688 170.707031 184.585938 171.738281 184.585938 172.542969 C 184.589844 173.382812 185.191406 173.6875 185.886719 173.285156 C 186.621094 172.863281 187.183594 171.886719 187.179688 171.046875 C 187.179688 170.242188 186.609375 169.882812 185.878906 170.304688 Z M 185.878906 170.304688 " fill-opacity="1" fill-rule="nonzero"/><path fill="#fa5168" d="M 198.527344 163.507812 C 197.828125 163.910156 197.230469 164.941406 197.234375 165.746094 C 197.234375 166.585938 197.835938 166.890625 198.535156 166.488281 C 199.265625 166.066406 199.828125 165.089844 199.828125 164.25 C 199.824219 163.445312 199.257812 163.082031 198.527344 163.507812 Z M 198.527344 163.507812 " fill-opacity="1" fill-rule="nonzero"/><path fill="#efac41" d="M 165.160156 186.640625 C 164.460938 187.042969 163.867188 188.078125 163.867188 188.878906 C 163.871094 189.71875 164.472656 190.023438 165.167969 189.621094 C 165.902344 189.199219 166.464844 188.222656 166.460938 187.382812 C 166.460938 186.578125 165.890625 186.21875 165.160156 186.640625 Z M 165.160156 186.640625 " fill-opacity="1" fill-rule="nonzero"/><path fill="#75ca75" d="M 176.820312 165.601562 C 176.121094 166.003906 175.527344 167.039062 175.527344 167.839844 C 175.53125 168.683594 176.128906 168.984375 176.828125 168.582031 C 177.5625 168.160156 178.125 167.183594 178.121094 166.34375 C 178.121094 165.539062 177.550781 165.179688 176.820312 165.601562 Z M 176.820312 165.601562 " fill-opacity="1" fill-rule="nonzero"/><path fill="#fa5168" d="M 181.316406 144.328125 L 181.355469 158.601562 L 179.132812 159.886719 L 179.089844 145.613281 Z M 181.316406 144.328125 " fill-opacity="1" fill-rule="nonzero"/><path fill="#748bfd" d="M 186.105469 145.203125 L 186.136719 155.839844 L 183.898438 157.132812 L 183.867188 146.496094 Z M 186.105469 145.203125 " fill-opacity="1" fill-rule="nonzero"/><path fill="#4c7891" d="M 190.859375 138.820312 L 190.902344 153.089844 L 188.679688 154.375 L 188.636719 140.101562 Z M 190.859375 138.820312 " fill-opacity="1" fill-rule="nonzero"/><path fill="#75ca75" d="M 195.652344 139.691406 L 195.683594 150.328125 L 193.441406 151.621094 L 193.414062 140.984375 Z M 195.652344 139.691406 " fill-opacity="1" fill-rule="nonzero"/><path fill="#f9bb4a" d="M 200.40625 133.308594 L 200.449219 147.578125 L 198.222656 148.863281 L 198.183594 134.589844 Z M 200.40625 133.308594 " fill-opacity="1" fill-rule="nonzero"/><path fill="#bac1ce" d="M 205.199219 135.378906 L 205.226562 144.820312 L 203.003906 146.101562 L 202.976562 136.664062 Z M 205.199219 135.378906 " fill-opacity="1" fill-rule="nonzero"/></svg>