<svg xmlns="http://www.w3.org/2000/svg" xmlns:xlink="http://www.w3.org/1999/xlink" width="500" zoomAndPan="magnify" viewBox="0 0 375 374.999991" height="500" preserveAspectRatio="xMidYMid meet" version="1.0"><defs><clipPath id="6eb255e1bc"><path d="M 125 112.5 L 250.21875 112.5 L 250.21875 262.5 L 125 262.5 Z M 125 112.5 " clip-rule="nonzero"/></clipPath></defs><g clip-path="url(#6eb255e1bc)"><path fill="#000000" d="M 187.59375 112.5 C 152.496094 112.5 125 124.855469 125 140.625 L 125 234.375 C 125 250.144531 152.496094 262.5 187.59375 262.5 C 222.691406 262.5 250.1875 250.144531 250.1875 234.375 L 250.1875 140.625 C 250.1875 124.855469 222.691406 112.5 187.59375 112.5 Z M 243.929688 203.125 C 243.929688 213.46875 220.792969 225 187.59375 225 C 154.394531 225 131.257812 213.46875 131.257812 203.125 L 131.257812 184.261719 C 141.292969 193.648438 162.460938 200 187.59375 200 C 212.726562 200 233.894531 193.648438 243.929688 184.261719 Z M 243.929688 171.875 C 243.929688 182.21875 220.792969 193.75 187.59375 193.75 C 154.394531 193.75 131.257812 182.21875 131.257812 171.875 L 131.257812 153.011719 C 141.292969 162.398438 162.460938 168.75 187.59375 168.75 C 212.726562 168.75 233.894531 162.398438 243.929688 153.011719 Z M 187.59375 118.75 C 220.792969 118.75 243.929688 130.28125 243.929688 140.625 C 243.929688 150.96875 220.792969 162.5 187.59375 162.5 C 154.394531 162.5 131.257812 150.96875 131.257812 140.625 C 131.257812 130.28125 154.394531 118.75 187.59375 118.75 Z M 187.59375 256.25 C 154.394531 256.25 131.257812 244.71875 131.257812 234.375 L 131.257812 215.511719 C 141.292969 224.898438 162.460938 231.25 187.59375 231.25 C 212.726562 231.25 233.894531 224.898438 243.929688 215.511719 L 243.929688 234.375 C 243.929688 244.71875 220.792969 256.25 187.59375 256.25 Z M 187.59375 256.25 " fill-opacity="1" fill-rule="nonzero"/></g></svg>