<svg xmlns="http://www.w3.org/2000/svg" xmlns:xlink="http://www.w3.org/1999/xlink" width="500" zoomAndPan="magnify" viewBox="0 0 375 374.999991" height="500" preserveAspectRatio="xMidYMid meet" version="1.0"><defs><clipPath id="ff8c0be86f"><path d="M 112.5 115 L 262.5 115 L 262.5 210 L 112.5 210 Z M 112.5 115 " clip-rule="nonzero"/></clipPath><clipPath id="85836cafae"><path d="M 137 179 L 238 179 L 238 259.75 L 137 259.75 Z M 137 179 " clip-rule="nonzero"/></clipPath></defs><g clip-path="url(#ff8c0be86f)"><path fill="#000000" d="M 227.5 144.949219 C 225.722656 144.949219 223.972656 145.097656 222.175781 145.371094 C 219.925781 128.128906 205.222656 115 187.5 115 C 169.777344 115 155.074219 128.128906 152.824219 145.371094 C 151.027344 145.074219 149.25 144.949219 147.5 144.949219 C 128.203125 144.949219 112.503906 160.621094 112.503906 179.886719 C 112.503906 191.84375 118.550781 202.847656 128.652344 209.3125 C 129.800781 210.0625 131.351562 209.710938 132.101562 208.5625 C 132.851562 207.414062 132.5 205.867188 131.351562 205.121094 C 122.675781 199.578125 117.5 190.144531 117.5 179.886719 C 117.5 163.367188 130.953125 149.941406 147.5 149.941406 C 149.777344 149.941406 152.074219 150.214844 154.5 150.789062 C 155.226562 150.964844 155.976562 150.789062 156.574219 150.363281 C 157.175781 149.914062 157.527344 149.242188 157.574219 148.492188 C 158.351562 132.519531 171.476562 119.992188 187.5 119.992188 C 203.523438 119.992188 216.648438 132.519531 217.425781 148.492188 C 217.449219 149.242188 217.824219 149.914062 218.425781 150.363281 C 219.023438 150.8125 219.773438 150.964844 220.5 150.789062 C 222.925781 150.214844 225.222656 149.941406 227.5 149.941406 C 244.046875 149.941406 257.5 163.367188 257.5 179.886719 C 257.5 190.144531 252.324219 199.578125 243.648438 205.121094 C 242.5 205.867188 242.148438 207.414062 242.898438 208.5625 C 243.375 209.3125 244.171875 209.710938 245 209.710938 C 245.449219 209.710938 245.921875 209.585938 246.347656 209.3125 C 256.472656 202.847656 262.496094 191.84375 262.496094 179.886719 C 262.496094 160.621094 246.796875 144.949219 227.5 144.949219 Z M 227.5 144.949219 " fill-opacity="1" fill-rule="nonzero"/></g><g clip-path="url(#85836cafae)"><path fill="#000000" d="M 225 179.886719 L 150 179.886719 C 143.101562 179.886719 137.5 185.476562 137.5 192.367188 L 137.5 247.273438 C 137.5 254.160156 143.101562 259.75 150 259.75 L 225 259.75 C 231.898438 259.75 237.5 254.160156 237.5 247.273438 L 237.5 192.367188 C 237.5 185.476562 231.898438 179.886719 225 179.886719 Z M 232.5 247.273438 C 232.5 251.390625 229.125 254.757812 225 254.757812 L 150 254.757812 C 145.875 254.757812 142.5 251.390625 142.5 247.273438 L 142.5 192.367188 C 142.5 188.25 145.875 184.878906 150 184.878906 L 225 184.878906 C 229.125 184.878906 232.5 188.25 232.5 192.367188 Z M 232.5 247.273438 " fill-opacity="1" fill-rule="nonzero"/></g><path fill="#000000" d="M 197.5 202.347656 L 185 202.347656 C 183.625 202.347656 182.5 203.472656 182.5 204.84375 L 182.5 234.792969 C 182.5 236.164062 183.625 237.289062 185 237.289062 C 186.375 237.289062 187.5 236.164062 187.5 234.792969 L 187.5 222.316406 L 197.5 222.316406 C 203.023438 222.316406 207.5 217.847656 207.5 212.332031 C 207.5 206.816406 203.023438 202.347656 197.5 202.347656 Z M 197.5 217.324219 L 187.5 217.324219 L 187.5 207.339844 L 197.5 207.339844 C 200.25 207.339844 202.5 209.585938 202.5 212.332031 C 202.5 215.078125 200.25 217.324219 197.5 217.324219 Z M 197.5 217.324219 " fill-opacity="1" fill-rule="nonzero"/><path fill="#000000" d="M 215 202.347656 C 213.625 202.347656 212.5 203.472656 212.5 204.84375 L 212.5 234.792969 C 212.5 236.164062 213.625 237.289062 215 237.289062 C 216.375 237.289062 217.5 236.164062 217.5 234.792969 L 217.5 204.84375 C 217.5 203.472656 216.375 202.347656 215 202.347656 Z M 215 202.347656 " fill-opacity="1" fill-rule="nonzero"/><path fill="#000000" d="M 167.375 204.046875 C 167.027344 203.023438 166.074219 202.347656 165 202.347656 C 163.925781 202.347656 162.976562 203.046875 162.625 204.046875 L 152.625 233.996094 C 152.199219 235.292969 152.902344 236.714844 154.199219 237.140625 C 155.527344 237.589844 156.925781 236.863281 157.351562 235.566406 L 160.949219 224.785156 L 169.027344 224.785156 L 172.625 235.566406 C 172.976562 236.613281 173.949219 237.265625 175 237.265625 C 175.25 237.265625 175.523438 237.214844 175.800781 237.140625 C 177.101562 236.714844 177.824219 235.292969 177.375 233.996094 Z M 162.652344 219.820312 L 165.027344 212.730469 L 167.402344 219.820312 Z M 162.652344 219.820312 " fill-opacity="1" fill-rule="nonzero"/></svg>