<svg xmlns="http://www.w3.org/2000/svg" xmlns:xlink="http://www.w3.org/1999/xlink" width="500" zoomAndPan="magnify" viewBox="0 0 375 374.999991" height="500" preserveAspectRatio="xMidYMid meet" version="1.0"><defs><clipPath id="6203667bc5"><path d="M 127.21875 112.5 L 247.96875 112.5 L 247.96875 262.5 L 127.21875 262.5 Z M 127.21875 112.5 " clip-rule="nonzero"/></clipPath></defs><path fill="#000000" d="M 173.722656 133.152344 C 174.511719 131.683594 175.640625 130.550781 177.105469 129.75 C 178.625 128.910156 180.25 128.519531 181.988281 128.570312 C 184.101562 128.507812 186.015625 129.097656 187.726562 130.339844 C 188.527344 130.929688 189.203125 131.640625 189.75 132.46875 C 190.300781 133.296875 190.691406 134.195312 190.921875 135.160156 L 185.875 135.160156 C 185.523438 134.410156 184.996094 133.8125 184.292969 133.367188 C 183.5625 132.945312 182.777344 132.738281 181.933594 132.75 C 181.28125 132.734375 180.65625 132.855469 180.054688 133.113281 C 179.457031 133.371094 178.9375 133.738281 178.5 134.222656 C 177.558594 135.367188 177.121094 136.679688 177.183594 138.160156 C 177.148438 139.59375 177.585938 140.859375 178.5 141.964844 C 178.867188 142.347656 179.285156 142.660156 179.757812 142.902344 C 180.226562 143.144531 180.726562 143.304688 181.25 143.382812 C 181.773438 143.460938 182.296875 143.453125 182.820312 143.355469 C 183.339844 143.257812 183.832031 143.082031 184.292969 142.820312 C 185.007812 142.386719 185.539062 141.789062 185.875 141.027344 L 190.921875 141.027344 C 190.691406 141.992188 190.300781 142.890625 189.75 143.71875 C 189.203125 144.546875 188.527344 145.257812 187.726562 145.847656 C 186.007812 147.066406 184.09375 147.648438 181.988281 147.589844 C 180.253906 147.621094 178.625 147.21875 177.105469 146.382812 C 175.65625 145.570312 174.527344 144.4375 173.722656 142.980469 C 172.886719 141.4375 172.484375 139.785156 172.515625 138.027344 C 172.5 136.296875 172.902344 134.671875 173.722656 133.152344 Z M 173.722656 133.152344 " fill-opacity="1" fill-rule="nonzero"/><path fill="#000000" d="M 196.847656 147.054688 C 195.757812 146.660156 194.863281 145.996094 194.167969 145.070312 C 193.515625 144.136719 193.191406 143.101562 193.199219 141.964844 L 198.082031 141.964844 C 198.125 142.589844 198.367188 143.125 198.808594 143.570312 C 199.277344 143.945312 199.816406 144.125 200.417969 144.105469 C 201.003906 144.132812 201.539062 143.980469 202.027344 143.652344 C 202.449219 143.316406 202.644531 142.878906 202.617188 142.339844 C 202.621094 141.894531 202.46875 141.507812 202.160156 141.1875 C 201.816406 140.878906 201.429688 140.628906 201.007812 140.4375 C 200.550781 140.25 199.90625 140.035156 199.050781 139.769531 C 198.027344 139.464844 197.035156 139.089844 196.070312 138.644531 C 195.277344 138.246094 194.613281 137.695312 194.085938 136.980469 C 193.488281 136.117188 193.210938 135.164062 193.253906 134.117188 C 193.222656 133.320312 193.371094 132.558594 193.707031 131.835938 C 194.042969 131.113281 194.527344 130.507812 195.160156 130.019531 C 195.898438 129.527344 196.695312 129.15625 197.542969 128.902344 C 198.394531 128.644531 199.261719 128.519531 200.148438 128.519531 C 201.035156 128.519531 201.90625 128.644531 202.753906 128.902344 C 203.605469 129.15625 204.398438 129.527344 205.140625 130.019531 C 205.773438 130.515625 206.265625 131.128906 206.625 131.851562 C 206.980469 132.574219 207.164062 133.335938 207.175781 134.144531 L 202.214844 134.144531 C 202.214844 133.566406 201.988281 133.089844 201.542969 132.722656 C 201.085938 132.34375 200.554688 132.167969 199.960938 132.1875 C 199.457031 132.175781 199.011719 132.324219 198.621094 132.644531 C 198.261719 132.988281 198.089844 133.40625 198.109375 133.902344 C 198.105469 134.203125 198.179688 134.480469 198.332031 134.734375 C 198.488281 134.992188 198.699219 135.1875 198.96875 135.320312 C 199.820312 135.785156 200.714844 136.152344 201.652344 136.417969 C 202.664062 136.757812 203.660156 137.148438 204.628906 137.597656 C 205.40625 137.992188 206.058594 138.539062 206.585938 139.230469 C 207.171875 140.03125 207.449219 140.921875 207.417969 141.910156 C 207.4375 142.960938 207.167969 143.9375 206.613281 144.832031 C 206.019531 145.757812 205.222656 146.453125 204.226562 146.917969 C 203.066406 147.480469 201.839844 147.738281 200.550781 147.695312 C 199.273438 147.730469 198.039062 147.515625 196.847656 147.054688 Z M 196.847656 147.054688 " fill-opacity="1" fill-rule="nonzero"/><path fill="#000000" d="M 227.835938 128.730469 L 221.15625 147.480469 L 215.496094 147.480469 L 208.8125 128.730469 L 213.695312 128.730469 L 218.363281 142.929688 L 223.058594 128.730469 Z M 227.835938 128.730469 " fill-opacity="1" fill-rule="nonzero"/><path fill="#000000" d="M 231.457031 198.457031 L 207.605469 198.457031 L 207.605469 184.820312 C 207.601562 184.414062 207.523438 184.023438 207.363281 183.648438 C 207.207031 183.269531 206.984375 182.9375 206.695312 182.652344 C 206.40625 182.363281 206.074219 182.140625 205.699219 181.984375 C 205.320312 181.824219 204.929688 181.746094 204.523438 181.742188 L 143.730469 181.742188 C 143.324219 181.746094 142.929688 181.824219 142.554688 181.984375 C 142.179688 182.140625 141.847656 182.363281 141.558594 182.652344 C 141.269531 182.9375 141.046875 183.269531 140.886719 183.648438 C 140.730469 184.023438 140.648438 184.414062 140.644531 184.820312 L 140.644531 234.777344 C 140.648438 235.183594 140.730469 235.574219 140.886719 235.953125 C 141.046875 236.328125 141.269531 236.660156 141.558594 236.945312 C 141.847656 237.234375 142.179688 237.457031 142.554688 237.617188 C 142.929688 237.773438 143.324219 237.855469 143.730469 237.855469 L 231.457031 237.855469 C 231.863281 237.855469 232.257812 237.773438 232.632812 237.617188 C 233.007812 237.457031 233.339844 237.234375 233.628906 236.945312 C 233.917969 236.660156 234.140625 236.328125 234.300781 235.953125 C 234.457031 235.574219 234.539062 235.183594 234.542969 234.777344 L 234.542969 201.535156 C 234.542969 201.128906 234.464844 200.734375 234.308594 200.355469 C 234.148438 199.980469 233.925781 199.644531 233.636719 199.359375 C 233.347656 199.070312 233.015625 198.847656 232.636719 198.691406 C 232.257812 198.535156 231.867188 198.457031 231.457031 198.457031 Z M 228.371094 215.0625 L 207.605469 215.0625 L 207.605469 204.617188 L 228.371094 204.617188 Z M 146.816406 204.617188 L 176.164062 204.617188 L 176.164062 215.0625 L 146.816406 215.0625 Z M 182.308594 204.617188 L 201.4375 204.617188 L 201.4375 215.0625 L 182.226562 215.0625 Z M 201.4375 198.457031 L 182.226562 198.457031 L 182.226562 187.980469 L 201.355469 187.980469 Z M 146.816406 187.980469 L 176.164062 187.980469 L 176.164062 198.457031 L 146.816406 198.457031 Z M 146.816406 221.222656 L 176.164062 221.222656 L 176.164062 231.695312 L 146.816406 231.695312 Z M 182.308594 221.222656 L 201.4375 221.222656 L 201.4375 231.695312 L 182.226562 231.695312 Z M 228.371094 231.695312 L 207.605469 231.695312 L 207.605469 221.222656 L 228.371094 221.222656 Z M 228.371094 231.695312 " fill-opacity="1" fill-rule="nonzero"/><g clip-path="url(#6203667bc5)"><path fill="#000000" d="M 234.542969 112.5 L 158.324219 112.5 L 127.230469 143.542969 L 127.230469 249.105469 C 127.230469 249.988281 127.316406 250.859375 127.488281 251.71875 C 127.660156 252.582031 127.917969 253.417969 128.253906 254.230469 C 128.589844 255.042969 129.003906 255.816406 129.492188 256.546875 C 129.980469 257.277344 130.539062 257.957031 131.160156 258.578125 C 131.785156 259.199219 132.460938 259.753906 133.195312 260.242188 C 133.925781 260.730469 134.699219 261.144531 135.511719 261.480469 C 136.328125 261.816406 137.164062 262.070312 138.027344 262.242188 C 138.894531 262.414062 139.765625 262.5 140.644531 262.5 L 234.542969 262.5 C 235.421875 262.5 236.292969 262.414062 237.160156 262.242188 C 238.023438 262.070312 238.859375 261.816406 239.675781 261.480469 C 240.488281 261.144531 241.261719 260.730469 241.992188 260.242188 C 242.726562 259.753906 243.402344 259.199219 244.027344 258.578125 C 244.648438 257.957031 245.207031 257.277344 245.695312 256.546875 C 246.183594 255.816406 246.597656 255.042969 246.933594 254.230469 C 247.269531 253.417969 247.527344 252.582031 247.699219 251.71875 C 247.871094 250.859375 247.957031 249.988281 247.957031 249.105469 L 247.957031 125.894531 C 247.957031 125.011719 247.871094 124.140625 247.699219 123.28125 C 247.527344 122.417969 247.269531 121.578125 246.933594 120.769531 C 246.597656 119.957031 246.183594 119.183594 245.695312 118.453125 C 245.207031 117.722656 244.648438 117.042969 244.027344 116.421875 C 243.402344 115.800781 242.726562 115.246094 241.992188 114.757812 C 241.261719 114.269531 240.488281 113.855469 239.675781 113.519531 C 238.859375 113.183594 238.023438 112.929688 237.160156 112.757812 C 236.292969 112.585938 235.421875 112.5 234.542969 112.5 Z M 156.742188 121.632812 L 156.742188 135.722656 C 156.742188 139.285156 152.71875 141.964844 149.363281 141.964844 L 136.378906 141.964844 Z M 149.363281 147.320312 C 155.402344 147.320312 162.109375 142.554688 162.109375 135.722656 L 162.109375 117.855469 L 234.542969 117.855469 C 235.070312 117.855469 235.59375 117.910156 236.113281 118.011719 C 236.628906 118.113281 237.132812 118.265625 237.621094 118.46875 C 238.109375 118.671875 238.574219 118.917969 239.011719 119.210938 C 239.453125 119.503906 239.859375 119.835938 240.234375 120.210938 C 240.605469 120.582031 240.941406 120.988281 241.234375 121.429688 C 241.527344 121.867188 241.773438 122.332031 241.976562 122.816406 C 242.179688 123.304688 242.332031 123.808594 242.433594 124.324219 C 242.539062 124.84375 242.589844 125.363281 242.589844 125.894531 L 242.589844 158.035156 L 132.597656 158.035156 L 132.597656 147.320312 Z M 234.542969 257.144531 L 140.644531 257.144531 C 140.117188 257.144531 139.59375 257.089844 139.074219 256.988281 C 138.558594 256.886719 138.054688 256.734375 137.566406 256.53125 C 137.078125 256.328125 136.613281 256.082031 136.175781 255.789062 C 135.734375 255.496094 135.328125 255.164062 134.953125 254.789062 C 134.582031 254.417969 134.246094 254.011719 133.953125 253.570312 C 133.660156 253.132812 133.414062 252.667969 133.210938 252.183594 C 133.007812 251.695312 132.855469 251.191406 132.753906 250.675781 C 132.648438 250.15625 132.597656 249.632812 132.597656 249.105469 L 132.597656 163.394531 L 242.589844 163.394531 L 242.589844 249.105469 C 242.589844 249.632812 242.539062 250.15625 242.433594 250.675781 C 242.332031 251.191406 242.179688 251.695312 241.976562 252.183594 C 241.773438 252.667969 241.527344 253.132812 241.234375 253.570312 C 240.941406 254.011719 240.605469 254.417969 240.234375 254.789062 C 239.859375 255.164062 239.453125 255.496094 239.011719 255.789062 C 238.574219 256.082031 238.109375 256.328125 237.621094 256.53125 C 237.132812 256.734375 236.628906 256.886719 236.113281 256.988281 C 235.59375 257.089844 235.070312 257.144531 234.542969 257.144531 Z M 234.542969 257.144531 " fill-opacity="1" fill-rule="nonzero"/></g></svg>