<svg xmlns="http://www.w3.org/2000/svg" xmlns:xlink="http://www.w3.org/1999/xlink" width="500" zoomAndPan="magnify" viewBox="0 0 375 374.999991" height="500" preserveAspectRatio="xMidYMid meet" version="1.0"><defs><clipPath id="71caaa109b"><path d="M 112 123.011719 L 263 123.011719 L 263 252.011719 L 112 252.011719 Z M 112 123.011719 " clip-rule="nonzero"/></clipPath></defs><g clip-path="url(#71caaa109b)"><path fill="#000000" d="M 254.089844 123.03125 L 121.050781 123.03125 C 116.164062 123.03125 112.1875 127.011719 112.1875 131.886719 L 112.1875 223.335938 C 112.1875 228.226562 116.164062 232.203125 121.050781 232.203125 L 164.320312 232.203125 L 164.320312 242.851562 L 163.164062 242.851562 C 160.644531 242.851562 158.589844 244.902344 158.589844 247.421875 C 158.589844 249.949219 160.644531 252.003906 163.164062 252.003906 L 211.960938 252.003906 C 214.492188 252.003906 216.535156 249.949219 216.535156 247.421875 C 216.535156 244.902344 214.492188 242.851562 211.960938 242.851562 L 210.820312 242.851562 L 210.820312 232.203125 L 254.089844 232.203125 C 258.976562 232.203125 262.953125 228.226562 262.953125 223.335938 L 262.953125 131.886719 C 262.953125 127.011719 258.976562 123.03125 254.089844 123.03125 Z M 256.089844 223.332031 C 256.089844 224.433594 255.1875 225.335938 254.089844 225.335938 L 121.050781 225.335938 C 119.945312 225.335938 119.050781 224.4375 119.050781 223.332031 L 119.050781 131.886719 C 119.050781 130.796875 119.941406 129.890625 121.050781 129.890625 L 254.089844 129.890625 C 255.183594 129.890625 256.089844 130.789062 256.089844 131.886719 Z M 256.089844 223.332031 " fill-opacity="1" fill-rule="nonzero"/></g><path fill="#000000" d="M 140.667969 182.753906 L 131.523438 182.753906 C 128.992188 182.753906 126.9375 184.796875 126.9375 187.324219 L 126.9375 217.230469 L 145.242188 217.230469 L 145.242188 187.324219 C 145.242188 184.796875 143.1875 182.753906 140.667969 182.753906 Z M 140.667969 182.753906 " fill-opacity="1" fill-rule="nonzero"/><path fill="#000000" d="M 166.40625 173.796875 L 157.261719 173.796875 C 154.730469 173.796875 152.675781 175.851562 152.675781 178.371094 L 152.675781 217.230469 L 170.980469 217.230469 L 170.980469 178.371094 C 170.980469 175.847656 168.925781 173.796875 166.40625 173.796875 Z M 166.40625 173.796875 " fill-opacity="1" fill-rule="nonzero"/><path fill="#000000" d="M 192.144531 191.230469 L 183 191.230469 C 180.46875 191.230469 178.417969 193.285156 178.417969 195.804688 L 178.417969 217.230469 L 196.71875 217.230469 L 196.71875 195.804688 C 196.714844 193.285156 194.664062 191.230469 192.144531 191.230469 Z M 192.144531 191.230469 " fill-opacity="1" fill-rule="nonzero"/><path fill="#000000" d="M 217.882812 169.226562 L 208.738281 169.226562 C 206.207031 169.226562 204.15625 171.28125 204.15625 173.796875 L 204.15625 217.230469 L 222.457031 217.230469 L 222.457031 173.796875 C 222.453125 171.28125 220.414062 169.226562 217.882812 169.226562 Z M 217.882812 169.226562 " fill-opacity="1" fill-rule="nonzero"/><path fill="#000000" d="M 243.617188 160.089844 L 234.472656 160.089844 C 231.941406 160.089844 229.886719 162.132812 229.886719 164.660156 L 229.886719 217.230469 L 248.191406 217.230469 L 248.191406 164.660156 C 248.191406 162.128906 246.152344 160.089844 243.617188 160.089844 Z M 243.617188 160.089844 " fill-opacity="1" fill-rule="nonzero"/><path fill="#000000" d="M 136.09375 171.867188 C 139.121094 171.867188 141.578125 169.40625 141.578125 166.378906 C 141.578125 166.351562 141.566406 166.3125 141.566406 166.285156 L 157.488281 160.746094 C 158.492188 162.050781 160.054688 162.910156 161.832031 162.910156 C 163.09375 162.910156 164.234375 162.464844 165.164062 161.75 L 182.308594 173.363281 C 182.179688 173.84375 182.078125 174.339844 182.078125 174.851562 C 182.078125 177.890625 184.53125 180.34375 187.570312 180.34375 C 190.601562 180.34375 193.054688 177.890625 193.054688 174.851562 C 193.054688 174.117188 192.910156 173.417969 192.640625 172.777344 L 210.472656 157.53125 C 211.300781 158.035156 212.269531 158.339844 213.308594 158.339844 C 216.339844 158.339844 218.792969 155.890625 218.792969 152.851562 C 218.792969 152.816406 218.785156 152.765625 218.785156 152.734375 L 234.730469 147.0625 C 235.734375 148.355469 237.289062 149.203125 239.046875 149.203125 C 242.078125 149.203125 244.542969 146.742188 244.542969 143.714844 C 244.542969 140.675781 242.078125 138.222656 239.046875 138.222656 C 236.007812 138.222656 233.554688 140.675781 233.554688 143.714844 C 233.554688 143.75 233.5625 143.796875 233.574219 143.832031 L 217.625 149.503906 C 216.621094 148.210938 215.066406 147.363281 213.308594 147.363281 C 210.269531 147.363281 207.816406 149.816406 207.816406 152.851562 C 207.816406 153.585938 207.972656 154.296875 208.230469 154.9375 L 190.40625 170.183594 C 189.566406 169.679688 188.613281 169.371094 187.570312 169.371094 C 186.308594 169.371094 185.160156 169.816406 184.230469 170.53125 L 167.085938 158.90625 C 167.222656 158.4375 167.316406 157.941406 167.316406 157.417969 C 167.316406 154.390625 164.863281 151.9375 161.832031 151.9375 C 158.792969 151.9375 156.339844 154.390625 156.339844 157.417969 C 156.339844 157.457031 156.347656 157.484375 156.347656 157.519531 L 140.429688 163.054688 C 139.425781 161.75 137.859375 160.882812 136.09375 160.882812 C 133.054688 160.882812 130.601562 163.347656 130.601562 166.375 C 130.601562 169.402344 133.058594 171.867188 136.09375 171.867188 Z M 136.09375 171.867188 " fill-opacity="1" fill-rule="nonzero"/></svg>