<svg xmlns="http://www.w3.org/2000/svg" xmlns:xlink="http://www.w3.org/1999/xlink" width="500" zoomAndPan="magnify" viewBox="0 0 375 374.999991" height="500" preserveAspectRatio="xMidYMid meet" version="1.0"><defs><clipPath id="7f4f83f05f"><path d="M 112 153 L 263.761719 153 L 263.761719 239.234375 L 112 239.234375 Z M 112 153 " clip-rule="nonzero"/></clipPath><clipPath id="1ee999867a"><path d="M 140 135.734375 L 251 135.734375 L 251 214 L 140 214 Z M 140 135.734375 " clip-rule="nonzero"/></clipPath></defs><g clip-path="url(#7f4f83f05f)"><path fill="#000000" d="M 261.382812 230.992188 L 247.105469 219.214844 C 246.871094 219.097656 246.75 218.980469 246.515625 218.863281 C 246.515625 218.628906 246.632812 218.390625 246.632812 218.15625 L 246.632812 158.105469 C 246.632812 155.632812 244.746094 153.75 242.386719 153.394531 L 237.664062 158.105469 L 241.796875 158.105469 L 241.796875 218.15625 L 133.359375 218.15625 L 133.359375 190.367188 C 132.417969 190.015625 131.589844 189.542969 130.648438 189.074219 L 128.640625 191.074219 L 128.640625 218.15625 C 128.640625 218.390625 128.640625 218.628906 128.757812 218.863281 C 128.523438 218.980469 128.40625 219.097656 128.167969 219.214844 L 113.890625 230.992188 C 112.359375 232.285156 111.769531 234.289062 112.476562 236.171875 C 113.183594 238.054688 114.953125 239.234375 116.960938 239.234375 L 258.550781 239.234375 C 260.554688 239.234375 262.328125 237.9375 263.035156 236.171875 C 263.507812 234.40625 262.917969 232.285156 261.382812 230.992188 Z M 116.84375 234.640625 L 131.117188 222.867188 L 244.15625 222.867188 L 258.433594 234.640625 Z M 116.84375 234.640625 " fill-opacity="1" fill-rule="nonzero"/></g><path fill="#000000" d="M 114.480469 197.550781 C 115.070312 197.550781 115.664062 197.316406 116.132812 196.84375 L 130.058594 182.949219 C 134.421875 186.246094 139.613281 188.132812 145.160156 188.132812 C 151.769531 188.132812 158.019531 185.539062 162.621094 180.832031 C 172.296875 171.175781 172.296875 155.515625 162.621094 145.859375 C 157.902344 141.148438 151.769531 138.558594 145.160156 138.558594 C 138.550781 138.558594 132.300781 141.148438 127.699219 145.859375 C 118.375 155.160156 118.023438 170.117188 126.636719 179.769531 L 112.832031 193.546875 C 111.886719 194.488281 111.886719 195.902344 112.832031 196.84375 C 113.300781 197.316406 113.890625 197.550781 114.480469 197.550781 Z M 131 149.273438 C 134.894531 145.386719 140.085938 143.386719 145.160156 143.386719 C 150.351562 143.386719 155.425781 145.386719 159.320312 149.273438 C 167.105469 157.046875 167.105469 169.761719 159.320312 177.535156 C 155.425781 181.417969 150.234375 183.421875 145.160156 183.421875 C 139.96875 183.421875 134.894531 181.417969 131 177.535156 C 123.09375 169.761719 123.09375 157.046875 131 149.273438 Z M 131 149.273438 " fill-opacity="1" fill-rule="nonzero"/><g clip-path="url(#1ee999867a)"><path fill="#000000" d="M 156.960938 193.429688 C 156.371094 193.429688 155.78125 193.664062 155.308594 194.136719 L 145.160156 205.441406 L 145.160156 192.839844 C 143.507812 192.839844 141.972656 192.722656 140.441406 192.488281 L 140.441406 211.089844 C 140.441406 212.386719 141.503906 213.445312 142.800781 213.445312 L 234.835938 213.445312 C 236.132812 213.445312 237.195312 212.386719 237.195312 211.089844 C 237.195312 209.796875 236.132812 208.738281 234.835938 208.738281 L 233.652344 208.738281 L 233.652344 179.300781 C 233.652344 176.710938 231.53125 174.589844 228.933594 174.589844 L 224.214844 174.589844 C 221.617188 174.589844 219.496094 176.710938 219.496094 179.300781 L 219.496094 208.738281 L 214.777344 208.738281 L 214.777344 188.71875 C 214.777344 186.128906 212.652344 184.011719 210.054688 184.011719 L 205.335938 184.011719 C 202.742188 184.011719 200.617188 186.128906 200.617188 188.71875 L 200.617188 208.738281 L 195.898438 208.738281 L 195.898438 198.140625 C 195.898438 195.550781 193.773438 193.429688 191.175781 193.429688 L 186.457031 193.429688 C 183.863281 193.429688 181.738281 195.550781 181.738281 198.140625 L 181.738281 208.738281 L 148.464844 208.738281 L 157.902344 198.140625 L 173.476562 198.140625 C 174.066406 198.140625 174.65625 197.902344 175.128906 197.433594 L 199.199219 173.414062 L 214.777344 173.414062 C 215.367188 173.414062 215.957031 173.175781 216.425781 172.707031 L 245.453125 143.738281 L 245.453125 146.332031 C 245.453125 147.625 246.515625 148.6875 247.8125 148.6875 C 249.109375 148.6875 250.171875 147.625 250.171875 146.332031 L 250.171875 138.089844 C 250.171875 138.089844 250.171875 137.96875 250.171875 137.96875 C 250.171875 137.96875 250.171875 137.851562 250.171875 137.851562 C 250.171875 137.617188 250.054688 137.5 250.054688 137.265625 C 249.9375 137.027344 249.820312 136.910156 249.699219 136.675781 C 249.699219 136.675781 249.582031 136.558594 249.582031 136.558594 C 249.464844 136.441406 249.347656 136.320312 249.109375 136.085938 C 248.992188 135.96875 248.757812 135.851562 248.519531 135.851562 C 248.519531 135.851562 248.402344 135.851562 248.402344 135.851562 C 248.167969 135.851562 248.050781 135.734375 247.8125 135.734375 L 238.375 135.734375 C 237.074219 135.734375 236.015625 136.792969 236.015625 138.089844 C 236.015625 139.382812 237.074219 140.441406 238.375 140.441406 L 242.148438 140.441406 L 213.832031 168.703125 L 198.257812 168.703125 C 197.667969 168.703125 197.078125 168.9375 196.605469 169.410156 L 172.535156 193.429688 Z M 224.214844 179.300781 L 228.933594 179.300781 L 228.933594 208.738281 L 224.214844 208.738281 Z M 205.335938 188.71875 L 210.054688 188.71875 L 210.054688 208.738281 L 205.335938 208.738281 Z M 186.457031 198.140625 L 191.175781 198.140625 L 191.175781 208.738281 L 186.457031 208.738281 Z M 186.457031 198.140625 " fill-opacity="1" fill-rule="nonzero"/></g><path fill="#000000" d="M 222.445312 153.394531 L 172.886719 153.394531 C 173.476562 154.925781 173.832031 156.457031 174.1875 158.105469 L 217.726562 158.105469 Z M 222.445312 153.394531 " fill-opacity="1" fill-rule="nonzero"/></svg>