<svg xmlns="http://www.w3.org/2000/svg" xmlns:xlink="http://www.w3.org/1999/xlink" width="500" zoomAndPan="magnify" viewBox="0 0 375 374.999991" height="500" preserveAspectRatio="xMidYMid meet" version="1.0"><defs><clipPath id="16a12a821f"><path d="M 161 112.5 L 214 112.5 L 214 192 L 161 192 Z M 161 112.5 " clip-rule="nonzero"/></clipPath><clipPath id="63bc418d63"><path d="M 112.5 138 L 262.5 138 L 262.5 262.5 L 112.5 262.5 Z M 112.5 138 " clip-rule="nonzero"/></clipPath></defs><path fill="#000000" d="M 179.648438 194.0625 C 180.9375 194.0625 181.992188 193.007812 181.992188 191.71875 L 181.992188 187.5 C 181.992188 186.210938 180.9375 185.15625 179.648438 185.15625 C 178.359375 185.15625 177.304688 186.210938 177.304688 187.5 L 177.304688 191.71875 C 177.304688 193.007812 178.359375 194.0625 179.648438 194.0625 Z M 179.648438 194.0625 " fill-opacity="1" fill-rule="nonzero"/><path fill="#000000" d="M 179.648438 203.789062 C 180.9375 203.789062 181.992188 202.734375 181.992188 201.445312 L 181.992188 199.101562 C 181.992188 197.8125 180.9375 196.757812 179.648438 196.757812 C 178.359375 196.757812 177.304688 197.8125 177.304688 199.101562 L 177.304688 201.445312 C 177.304688 202.734375 178.359375 203.789062 179.648438 203.789062 Z M 179.648438 203.789062 " fill-opacity="1" fill-rule="nonzero"/><path fill="#000000" d="M 195.117188 194.0625 C 196.40625 194.0625 197.460938 193.007812 197.460938 191.71875 L 197.460938 187.5 C 197.460938 186.210938 196.40625 185.15625 195.117188 185.15625 C 193.828125 185.15625 192.773438 186.210938 192.773438 187.5 L 192.773438 191.71875 C 192.773438 193.007812 193.828125 194.0625 195.117188 194.0625 Z M 195.117188 194.0625 " fill-opacity="1" fill-rule="nonzero"/><path fill="#000000" d="M 195.117188 203.789062 C 196.40625 203.789062 197.460938 202.734375 197.460938 201.445312 L 197.460938 199.101562 C 197.460938 197.8125 196.40625 196.757812 195.117188 196.757812 C 193.828125 196.757812 192.773438 197.8125 192.773438 199.101562 L 192.773438 201.445312 C 192.773438 202.734375 193.828125 203.789062 195.117188 203.789062 Z M 195.117188 203.789062 " fill-opacity="1" fill-rule="nonzero"/><path fill="#000000" d="M 187.5 146.71875 C 189.609375 146.71875 191.484375 145.898438 193.007812 144.492188 C 194.53125 143.085938 195.351562 141.09375 195.351562 139.101562 C 195.351562 134.882812 191.835938 131.484375 187.5 131.484375 C 185.390625 131.484375 183.515625 132.304688 181.992188 133.710938 C 180.46875 135.117188 179.648438 137.109375 179.648438 139.101562 C 179.648438 143.320312 183.164062 146.71875 187.5 146.71875 Z M 185.273438 136.992188 C 185.859375 136.40625 186.679688 136.054688 187.5 136.054688 C 189.257812 136.054688 190.664062 137.34375 190.664062 138.984375 C 190.664062 139.804688 190.3125 140.507812 189.726562 141.09375 C 189.140625 141.679688 188.320312 142.03125 187.5 142.03125 C 185.742188 142.03125 184.335938 140.742188 184.335938 139.101562 C 184.335938 138.28125 184.6875 137.578125 185.273438 136.992188 Z M 185.273438 136.992188 " fill-opacity="1" fill-rule="nonzero"/><g clip-path="url(#16a12a821f)"><path fill="#000000" d="M 202.851562 135.46875 C 201.914062 130.546875 200.15625 126.328125 197.578125 122.695312 L 191.71875 114.609375 C 190.78125 113.320312 189.140625 112.5 187.5 112.5 C 185.742188 112.5 184.21875 113.320312 183.164062 114.726562 L 177.304688 122.8125 C 174.726562 126.445312 172.96875 130.546875 172.03125 135.585938 C 171.09375 140.625 171.09375 146.015625 172.148438 151.523438 L 174.140625 162.1875 C 170.625 162.773438 167.578125 164.53125 165.351562 167.226562 C 163.007812 170.273438 161.71875 174.375 161.71875 179.296875 L 161.71875 185.390625 C 161.71875 186.210938 162.1875 186.914062 162.773438 187.382812 C 163.125 187.617188 163.59375 187.734375 164.0625 187.734375 C 164.414062 187.734375 164.765625 187.617188 165.117188 187.5 L 177.65625 181.40625 C 178.125 182.109375 178.828125 182.460938 179.648438 182.460938 C 180.820312 182.460938 181.757812 181.640625 181.992188 180.585938 L 185.273438 180.585938 L 185.273438 189.609375 C 185.273438 190.898438 186.328125 191.953125 187.617188 191.953125 C 188.90625 191.953125 189.960938 190.898438 189.960938 189.609375 L 189.960938 180.585938 L 193.007812 180.585938 C 193.242188 181.640625 194.179688 182.460938 195.351562 182.460938 C 196.171875 182.460938 196.992188 181.992188 197.34375 181.289062 L 209.882812 187.5 C 210.234375 187.617188 210.585938 187.734375 210.9375 187.734375 C 211.40625 187.734375 211.757812 187.617188 212.226562 187.382812 C 212.929688 186.914062 213.28125 186.210938 213.28125 185.390625 L 213.28125 179.296875 C 213.28125 169.804688 208.476562 163.359375 200.859375 162.070312 L 202.734375 151.40625 C 203.789062 145.898438 203.789062 140.507812 202.851562 135.46875 Z M 176.71875 136.289062 C 177.421875 132.539062 178.59375 129.375 180.351562 126.679688 L 194.53125 126.679688 C 196.289062 129.492188 197.460938 132.65625 198.164062 136.40625 C 198.984375 140.859375 198.984375 145.664062 198.046875 150.703125 L 195.820312 163.359375 C 195.703125 163.59375 195.703125 163.710938 195.585938 163.945312 L 194.882812 167.578125 L 189.726562 167.578125 L 189.726562 158.90625 C 189.726562 157.617188 188.671875 156.5625 187.382812 156.5625 C 186.09375 156.5625 185.039062 157.617188 185.039062 158.90625 L 185.039062 167.460938 L 179.882812 167.460938 L 179.296875 163.828125 C 179.296875 163.710938 179.179688 163.59375 179.179688 163.359375 L 176.835938 150.585938 C 176.015625 145.546875 175.898438 140.742188 176.71875 136.289062 Z M 181.40625 175.78125 L 181.054688 173.90625 L 180.703125 172.148438 L 194.0625 172.148438 L 193.59375 175.78125 Z M 181.40625 175.78125 " fill-opacity="1" fill-rule="nonzero"/></g><path fill="#000000" d="M 187.734375 198.164062 C 186.445312 198.164062 185.390625 199.21875 185.390625 200.507812 L 185.390625 203.90625 C 185.390625 205.195312 186.445312 206.25 187.734375 206.25 C 189.023438 206.25 190.078125 205.195312 190.078125 203.90625 L 190.078125 200.507812 C 190.078125 199.21875 189.023438 198.164062 187.734375 198.164062 Z M 187.734375 198.164062 " fill-opacity="1" fill-rule="nonzero"/><path fill="#000000" d="M 225 183.984375 C 225 185.273438 226.054688 186.328125 227.34375 186.328125 L 246.09375 186.328125 C 247.382812 186.328125 248.4375 185.273438 248.4375 183.984375 C 248.4375 182.695312 247.382812 181.640625 246.09375 181.640625 L 227.34375 181.640625 C 226.054688 181.640625 225 182.695312 225 183.984375 Z M 225 183.984375 " fill-opacity="1" fill-rule="nonzero"/><path fill="#000000" d="M 217.96875 194.53125 C 217.96875 195.820312 219.023438 196.875 220.3125 196.875 L 246.09375 196.875 C 247.382812 196.875 248.4375 195.820312 248.4375 194.53125 C 248.4375 193.242188 247.382812 192.1875 246.09375 192.1875 L 220.3125 192.1875 C 219.023438 192.1875 217.96875 193.242188 217.96875 194.53125 Z M 217.96875 194.53125 " fill-opacity="1" fill-rule="nonzero"/><path fill="#000000" d="M 232.03125 173.4375 C 232.03125 174.726562 233.085938 175.78125 234.375 175.78125 L 246.09375 175.78125 C 247.382812 175.78125 248.4375 174.726562 248.4375 173.4375 C 248.4375 172.148438 247.382812 171.09375 246.09375 171.09375 L 234.375 171.09375 C 233.085938 171.09375 232.03125 172.148438 232.03125 173.4375 Z M 232.03125 173.4375 " fill-opacity="1" fill-rule="nonzero"/><path fill="#000000" d="M 246.09375 165.234375 C 247.382812 165.234375 248.4375 164.179688 248.4375 162.890625 C 248.4375 161.601562 247.382812 160.546875 246.09375 160.546875 L 239.0625 160.546875 C 237.773438 160.546875 236.71875 161.601562 236.71875 162.890625 C 236.71875 164.179688 237.773438 165.234375 239.0625 165.234375 Z M 246.09375 165.234375 " fill-opacity="1" fill-rule="nonzero"/><path fill="#000000" d="M 128.90625 186.328125 L 147.65625 186.328125 C 148.945312 186.328125 150 185.273438 150 183.984375 C 150 182.695312 148.945312 181.640625 147.65625 181.640625 L 128.90625 181.640625 C 127.617188 181.640625 126.5625 182.695312 126.5625 183.984375 C 126.5625 185.273438 127.617188 186.328125 128.90625 186.328125 Z M 128.90625 186.328125 " fill-opacity="1" fill-rule="nonzero"/><path fill="#000000" d="M 128.90625 196.875 L 154.6875 196.875 C 155.976562 196.875 157.03125 195.820312 157.03125 194.53125 C 157.03125 193.242188 155.976562 192.1875 154.6875 192.1875 L 128.90625 192.1875 C 127.617188 192.1875 126.5625 193.242188 126.5625 194.53125 C 126.5625 195.820312 127.617188 196.875 128.90625 196.875 Z M 128.90625 196.875 " fill-opacity="1" fill-rule="nonzero"/><path fill="#000000" d="M 128.90625 175.78125 L 140.625 175.78125 C 141.914062 175.78125 142.96875 174.726562 142.96875 173.4375 C 142.96875 172.148438 141.914062 171.09375 140.625 171.09375 L 128.90625 171.09375 C 127.617188 171.09375 126.5625 172.148438 126.5625 173.4375 C 126.5625 174.726562 127.617188 175.78125 128.90625 175.78125 Z M 128.90625 175.78125 " fill-opacity="1" fill-rule="nonzero"/><path fill="#000000" d="M 128.90625 165.234375 L 135.9375 165.234375 C 137.226562 165.234375 138.28125 164.179688 138.28125 162.890625 C 138.28125 161.601562 137.226562 160.546875 135.9375 160.546875 L 128.90625 160.546875 C 127.617188 160.546875 126.5625 161.601562 126.5625 162.890625 C 126.5625 164.179688 127.617188 165.234375 128.90625 165.234375 Z M 128.90625 165.234375 " fill-opacity="1" fill-rule="nonzero"/><g clip-path="url(#63bc418d63)"><path fill="#000000" d="M 257.578125 138.28125 L 208.007812 138.28125 C 208.125 139.804688 208.242188 141.445312 208.242188 142.96875 L 257.578125 142.96875 C 257.695312 142.96875 257.8125 143.085938 257.8125 143.203125 L 257.8125 215.625 L 117.1875 215.625 L 117.1875 143.203125 C 117.1875 143.085938 117.304688 142.96875 117.421875 142.96875 L 166.757812 142.96875 C 166.757812 141.445312 166.875 139.804688 166.992188 138.28125 L 117.421875 138.28125 C 114.726562 138.28125 112.5 140.507812 112.5 143.203125 L 112.5 229.453125 C 112.5 232.148438 114.726562 234.375 117.421875 234.375 L 175.429688 234.375 L 171.796875 247.5 C 171.445312 248.789062 170.15625 249.492188 168.867188 249.140625 C 167.578125 248.789062 166.875 247.5 167.226562 246.210938 L 168.632812 241.40625 L 163.125 241.40625 C 161.132812 241.40625 159.257812 242.578125 158.554688 244.453125 L 152.8125 255.703125 C 152.226562 257.226562 152.34375 258.984375 153.28125 260.273438 C 154.21875 261.679688 155.742188 262.5 157.5 262.5 L 217.851562 262.5 C 219.492188 262.5 221.132812 261.679688 222.070312 260.273438 C 223.007812 258.867188 223.125 257.226562 222.539062 255.703125 L 216.796875 244.453125 C 215.976562 242.578125 214.21875 241.40625 212.226562 241.40625 L 206.71875 241.40625 L 208.125 246.210938 C 208.476562 247.5 207.773438 248.789062 206.484375 249.140625 C 205.195312 249.492188 203.90625 248.789062 203.554688 247.5 L 199.570312 234.375 L 257.578125 234.375 C 260.273438 234.375 262.5 232.148438 262.5 229.453125 L 262.5 143.203125 C 262.5 140.507812 260.273438 138.28125 257.578125 138.28125 Z M 187.5 222.65625 C 188.789062 222.65625 189.84375 223.710938 189.84375 225 C 189.84375 226.289062 188.789062 227.34375 187.5 227.34375 C 186.210938 227.34375 185.15625 226.289062 185.15625 225 C 185.15625 223.710938 186.210938 222.65625 187.5 222.65625 Z M 187.5 222.65625 " fill-opacity="1" fill-rule="nonzero"/></g></svg>