<svg xmlns="http://www.w3.org/2000/svg" xmlns:xlink="http://www.w3.org/1999/xlink" width="500" zoomAndPan="magnify" viewBox="0 0 375 374.999991" height="500" preserveAspectRatio="xMidYMid meet" version="1.0"><defs><clipPath id="aed272cc4d"><path d="M 115.03125 112.5 L 259.78125 112.5 L 259.78125 262.5 L 115.03125 262.5 Z M 115.03125 112.5 " clip-rule="nonzero"/></clipPath></defs><path fill="#000000" d="M 187.40625 199.996094 C 188.777344 199.996094 189.902344 198.871094 189.902344 197.496094 L 189.902344 190 L 192.398438 190 C 196.515625 190 199.882812 186.625 199.882812 182.503906 C 199.882812 178.378906 196.515625 175.003906 192.398438 175.003906 L 187.40625 175.003906 C 186.035156 175.003906 184.910156 176.128906 184.910156 177.503906 L 184.910156 197.496094 C 184.910156 198.871094 186.035156 199.996094 187.40625 199.996094 Z M 189.902344 180.003906 L 192.398438 180.003906 C 193.769531 180.003906 194.894531 181.128906 194.894531 182.503906 C 194.894531 183.875 193.769531 185 192.398438 185 L 189.902344 185 Z M 189.902344 180.003906 " fill-opacity="1" fill-rule="nonzero"/><path fill="#000000" d="M 207.371094 199.996094 C 208.746094 199.996094 209.867188 198.871094 209.867188 197.496094 L 209.867188 177.503906 C 209.867188 176.128906 208.746094 175.003906 207.371094 175.003906 C 206 175.003906 204.875 176.128906 204.875 177.503906 L 204.875 197.496094 C 204.875 198.871094 206 199.996094 207.371094 199.996094 Z M 207.371094 199.996094 " fill-opacity="1" fill-rule="nonzero"/><path fill="#000000" d="M 167.441406 199.996094 C 168.8125 199.996094 169.9375 198.871094 169.9375 197.496094 L 169.9375 190 L 174.929688 190 L 174.929688 197.496094 C 174.929688 198.871094 176.050781 199.996094 177.421875 199.996094 C 178.796875 199.996094 179.917969 198.871094 179.917969 197.496094 L 179.917969 182.503906 C 179.917969 178.378906 176.550781 175.003906 172.433594 175.003906 C 168.3125 175.003906 164.945312 178.378906 164.945312 182.503906 L 164.945312 197.496094 C 164.945312 198.871094 166.066406 199.996094 167.441406 199.996094 Z M 169.9375 182.503906 C 169.9375 181.128906 171.058594 180.003906 172.433594 180.003906 C 173.804688 180.003906 174.929688 181.128906 174.929688 182.503906 L 174.929688 185 L 169.9375 185 Z M 169.9375 182.503906 " fill-opacity="1" fill-rule="nonzero"/><path fill="#000000" d="M 187.40625 224.984375 C 208.058594 224.984375 224.839844 208.179688 224.839844 187.5 C 224.839844 166.820312 208.058594 150.015625 187.40625 150.015625 C 166.753906 150.015625 149.972656 166.820312 149.972656 187.5 C 149.972656 208.179688 166.753906 224.984375 187.40625 224.984375 Z M 187.40625 155.015625 C 205.28125 155.015625 219.851562 169.601562 219.851562 187.5 C 219.851562 205.398438 205.28125 219.984375 187.40625 219.984375 C 169.53125 219.984375 154.960938 205.398438 154.960938 187.5 C 154.960938 169.601562 169.53125 155.015625 187.40625 155.015625 Z M 187.40625 155.015625 " fill-opacity="1" fill-rule="nonzero"/><g clip-path="url(#aed272cc4d)"><path fill="#000000" d="M 122.519531 242.476562 C 126.636719 242.476562 130.003906 239.101562 130.003906 234.980469 C 130.003906 231.730469 127.914062 228.949219 125.015625 227.921875 L 125.015625 221.203125 L 143.792969 206.148438 C 144.917969 208.742188 146.257812 211.269531 147.820312 213.613281 L 143.234375 218.207031 C 142.265625 219.171875 142.265625 220.765625 143.234375 221.734375 L 153.214844 231.730469 C 154.183594 232.699219 155.773438 232.699219 156.742188 231.730469 L 161.328125 227.140625 C 166.222656 230.355469 171.714844 232.667969 177.421875 233.917969 L 177.421875 242.476562 C 177.421875 243.851562 178.546875 244.976562 179.917969 244.976562 L 194.894531 244.976562 C 196.265625 244.976562 197.390625 243.851562 197.390625 242.476562 L 197.390625 233.917969 C 199.480469 233.480469 201.539062 232.886719 203.535156 232.136719 L 207.402344 255.378906 C 207.589844 256.59375 208.652344 257.46875 209.867188 257.46875 L 217.792969 257.46875 C 218.820312 260.375 221.597656 262.46875 224.839844 262.46875 C 228.960938 262.46875 232.328125 259.09375 232.328125 254.972656 C 232.328125 250.847656 228.960938 247.472656 224.839844 247.472656 C 221.597656 247.472656 218.820312 249.566406 217.792969 252.472656 L 211.988281 252.472656 L 208.277344 230.136719 C 210.085938 229.261719 211.832031 228.261719 213.515625 227.140625 L 218.101562 231.730469 C 219.070312 232.699219 220.660156 232.699219 221.628906 231.730469 L 231.609375 221.734375 C 232.578125 220.765625 232.578125 219.171875 231.609375 218.207031 L 227.023438 213.613281 C 227.273438 213.238281 227.523438 212.863281 227.742188 212.488281 L 245.242188 212.488281 C 246.273438 215.394531 249.050781 217.488281 252.292969 217.488281 C 256.410156 217.488281 259.78125 214.113281 259.78125 209.992188 C 259.78125 205.867188 256.410156 202.492188 252.292969 202.492188 C 249.050781 202.492188 246.273438 204.585938 245.242188 207.492188 L 230.425781 207.492188 C 231.921875 204.304688 233.046875 200.933594 233.792969 197.496094 L 242.3125 197.496094 C 243.683594 197.496094 244.808594 196.371094 244.808594 194.996094 L 244.808594 180.003906 C 244.808594 178.628906 243.683594 177.503906 242.3125 177.503906 L 233.765625 177.503906 C 232.546875 171.789062 230.238281 166.289062 226.992188 161.386719 L 231.578125 156.792969 C 232.546875 155.824219 232.546875 154.234375 231.578125 153.265625 L 221.597656 143.269531 C 220.628906 142.300781 219.039062 142.300781 218.070312 143.269531 L 213.484375 147.859375 C 211.800781 146.765625 210.054688 145.769531 208.277344 144.863281 L 221.285156 122.527344 L 230.269531 122.527344 C 231.300781 125.433594 234.074219 127.527344 237.320312 127.527344 C 241.4375 127.527344 244.808594 124.152344 244.808594 120.027344 C 244.808594 115.90625 241.4375 112.53125 237.320312 112.53125 C 234.074219 112.53125 231.300781 114.625 230.269531 117.53125 L 219.851562 117.53125 C 218.976562 117.53125 218.132812 118 217.699219 118.78125 L 203.660156 142.894531 C 201.632812 142.144531 199.542969 141.550781 197.421875 141.082031 L 197.421875 132.523438 C 197.421875 131.148438 196.296875 130.023438 194.925781 130.023438 L 179.949219 130.023438 C 178.578125 130.023438 177.453125 131.148438 177.453125 132.523438 L 177.453125 141.082031 C 171.746094 142.300781 166.253906 144.613281 161.359375 147.859375 L 156.773438 143.269531 C 155.804688 142.300781 154.214844 142.300781 153.246094 143.269531 L 149.660156 146.796875 L 137.492188 138.675781 L 137.492188 127.089844 C 140.394531 126.058594 142.484375 123.277344 142.484375 120.027344 C 142.484375 115.90625 139.113281 112.53125 134.996094 112.53125 C 130.878906 112.53125 127.507812 115.90625 127.507812 120.027344 C 127.507812 123.277344 129.601562 126.058594 132.5 127.089844 L 132.5 140.019531 C 132.5 140.863281 132.90625 141.644531 133.625 142.113281 L 146.070312 150.421875 L 143.234375 153.265625 C 142.265625 154.234375 142.265625 155.824219 143.234375 156.792969 L 147.820312 161.386719 C 144.605469 166.289062 142.296875 171.789062 141.046875 177.503906 L 132.5 177.503906 C 131.128906 177.503906 130.003906 178.628906 130.003906 180.003906 L 130.003906 194.996094 C 130.003906 196.371094 131.128906 197.496094 132.5 197.496094 L 141.046875 197.496094 C 141.328125 198.746094 141.640625 199.964844 142.015625 201.179688 L 120.988281 218.050781 C 120.398438 218.519531 120.054688 219.234375 120.054688 219.984375 L 120.054688 227.921875 C 117.152344 228.949219 115.0625 231.730469 115.0625 234.980469 C 115.03125 239.101562 118.402344 242.476562 122.519531 242.476562 Z M 224.839844 252.472656 C 226.214844 252.472656 227.335938 253.597656 227.335938 254.972656 C 227.335938 256.34375 226.214844 257.46875 224.839844 257.46875 C 223.46875 257.46875 222.347656 256.34375 222.347656 254.972656 C 222.347656 253.597656 223.46875 252.472656 224.839844 252.472656 Z M 252.292969 207.492188 C 253.667969 207.492188 254.789062 208.617188 254.789062 209.992188 C 254.789062 211.363281 253.667969 212.488281 252.292969 212.488281 C 250.921875 212.488281 249.796875 211.363281 249.796875 209.992188 C 249.796875 208.617188 250.921875 207.492188 252.292969 207.492188 Z M 237.320312 117.53125 C 238.691406 117.53125 239.816406 118.65625 239.816406 120.027344 C 239.816406 121.402344 238.691406 122.527344 237.320312 122.527344 C 235.949219 122.527344 234.824219 121.402344 234.824219 120.027344 C 234.824219 118.65625 235.949219 117.53125 237.320312 117.53125 Z M 134.996094 122.527344 C 133.625 122.527344 132.5 121.402344 132.5 120.027344 C 132.5 118.65625 133.625 117.53125 134.996094 117.53125 C 136.371094 117.53125 137.492188 118.65625 137.492188 120.027344 C 137.492188 121.402344 136.371094 122.527344 134.996094 122.527344 Z M 134.996094 192.496094 L 134.996094 182.503906 L 143.109375 182.503906 C 144.324219 182.503906 145.355469 181.628906 145.570312 180.410156 C 146.632812 174.003906 149.253906 167.820312 153.058594 162.542969 C 153.777344 161.542969 153.683594 160.167969 152.808594 159.292969 L 148.503906 155.015625 L 154.960938 148.546875 L 159.265625 152.859375 C 160.140625 153.734375 161.511719 153.828125 162.511719 153.109375 C 167.785156 149.265625 173.960938 146.675781 180.355469 145.613281 C 181.574219 145.425781 182.445312 144.363281 182.445312 143.144531 L 182.445312 135.023438 L 192.429688 135.023438 L 192.429688 143.144531 C 192.429688 144.363281 193.300781 145.394531 194.519531 145.613281 C 200.914062 146.675781 207.089844 149.296875 212.363281 153.109375 C 213.363281 153.828125 214.734375 153.734375 215.609375 152.859375 L 219.914062 148.546875 L 226.371094 155.015625 L 222.066406 159.324219 C 221.191406 160.199219 221.097656 161.574219 221.816406 162.574219 C 225.652344 167.851562 228.242188 174.035156 229.300781 180.441406 C 229.488281 181.660156 230.550781 182.535156 231.765625 182.535156 L 239.878906 182.535156 L 239.878906 192.527344 L 231.765625 192.527344 C 230.550781 192.527344 229.519531 193.402344 229.300781 194.621094 C 228.242188 201.027344 225.621094 207.210938 221.816406 212.488281 C 221.097656 213.488281 221.191406 214.863281 222.066406 215.738281 L 226.371094 220.046875 L 219.851562 226.453125 L 215.546875 222.140625 C 214.671875 221.265625 213.300781 221.171875 212.300781 221.890625 C 207.027344 225.734375 200.851562 228.324219 194.457031 229.386719 C 193.238281 229.574219 192.367188 230.636719 192.367188 231.855469 L 192.367188 239.976562 L 182.382812 239.976562 L 182.382812 231.855469 C 182.382812 230.636719 181.511719 229.605469 180.292969 229.386719 C 173.898438 228.324219 167.722656 225.734375 162.449219 221.890625 C 161.449219 221.171875 160.078125 221.265625 159.203125 222.140625 L 154.960938 226.453125 L 148.503906 219.984375 L 152.808594 215.675781 C 153.683594 214.800781 153.777344 213.425781 153.058594 212.425781 C 149.222656 207.148438 146.632812 200.964844 145.570312 194.558594 C 145.386719 193.339844 144.324219 192.464844 143.109375 192.464844 L 134.996094 192.464844 Z M 122.519531 232.480469 C 123.890625 232.480469 125.015625 233.605469 125.015625 234.980469 C 125.015625 236.355469 123.890625 237.476562 122.519531 237.476562 C 121.144531 237.476562 120.023438 236.355469 120.023438 234.980469 C 120.023438 233.605469 121.144531 232.480469 122.519531 232.480469 Z M 122.519531 232.480469 " fill-opacity="1" fill-rule="nonzero"/></g></svg>