<svg xmlns="http://www.w3.org/2000/svg" xmlns:xlink="http://www.w3.org/1999/xlink" width="500" zoomAndPan="magnify" viewBox="0 0 375 374.999991" height="500" preserveAspectRatio="xMidYMid meet" version="1.0"><defs><clipPath id="b7f715e0c6"><path d="M 112.5 118.875 L 262.5 118.875 L 262.5 254 L 112.5 254 Z M 112.5 118.875 " clip-rule="nonzero"/></clipPath></defs><g clip-path="url(#b7f715e0c6)"><path fill="#000000" d="M 237.914062 182.644531 C 237.914062 184.371094 235.285156 184.371094 235.285156 182.644531 L 235.285156 181.71875 C 235.285156 180.003906 237.914062 180.003906 237.914062 181.71875 Z M 244.863281 182.644531 C 244.863281 184.371094 242.25 184.371094 242.25 182.644531 L 242.25 181.71875 C 242.25 180.003906 244.863281 180.003906 244.863281 181.71875 Z M 230.953125 182.644531 C 230.953125 184.371094 228.335938 184.371094 228.335938 182.644531 L 228.335938 181.71875 C 228.335938 180.003906 230.953125 180.003906 230.953125 181.71875 Z M 244.863281 199.152344 C 244.863281 200.878906 242.25 200.878906 242.25 199.152344 L 242.25 198.226562 C 242.25 196.5 244.863281 196.5 244.863281 198.226562 Z M 230.953125 199.152344 C 230.953125 200.878906 228.335938 200.878906 228.335938 199.152344 L 228.335938 198.226562 C 228.335938 196.5 230.953125 196.5 230.953125 198.226562 Z M 237.914062 199.152344 C 237.914062 200.878906 235.285156 200.878906 235.285156 199.152344 L 235.285156 198.226562 C 235.285156 196.5 237.914062 196.5 237.914062 198.226562 Z M 230.953125 215.101562 C 230.953125 216.824219 228.335938 216.824219 228.335938 215.101562 L 228.335938 214.175781 C 228.335938 212.449219 230.953125 212.449219 230.953125 214.175781 Z M 237.914062 215.101562 C 237.914062 216.824219 235.285156 216.824219 235.285156 215.101562 L 235.285156 214.175781 C 235.285156 212.449219 237.914062 212.449219 237.914062 214.175781 Z M 244.863281 215.101562 C 244.863281 216.824219 242.25 216.824219 242.25 215.101562 L 242.25 214.175781 C 242.25 212.449219 244.863281 212.449219 244.863281 214.175781 Z M 236.605469 154.53125 C 243.519531 154.53125 249.8125 155.523438 254.382812 157.121094 C 258.410156 158.519531 261.195312 160.460938 262.121094 162.734375 C 262.316406 163.046875 262.476562 163.152344 262.445312 163.714844 L 262.445312 182.191406 L 262.457031 182.191406 C 262.457031 182.480469 262.425781 182.765625 262.371094 183.046875 C 262.371094 183.109375 262.460938 183.203125 262.445312 183.632812 L 262.445312 197.972656 L 262.457031 197.972656 L 262.445312 214.640625 L 262.457031 214.640625 C 262.457031 217.628906 259.375 220.1875 254.382812 221.933594 C 244.511719 225.375 228.691406 225.375 218.820312 221.933594 C 213.828125 220.1875 210.746094 217.628906 210.746094 214.640625 L 210.746094 183.519531 C 210.746094 183.351562 210.773438 183.195312 210.832031 183.046875 C 210.777344 182.765625 210.746094 182.480469 210.746094 182.191406 L 210.746094 163.605469 C 210.746094 163.269531 210.878906 162.964844 211.082031 162.734375 C 212.007812 160.460938 214.792969 158.519531 218.820312 157.121094 C 223.390625 155.523438 229.683594 154.53125 236.605469 154.53125 Z M 259.839844 168.882812 C 250.757812 176.054688 222.464844 176.054688 213.363281 168.894531 L 213.363281 182.191406 C 213.363281 184.222656 216.640625 185.949219 219.671875 187.003906 C 228.96875 190.253906 244.234375 190.253906 253.53125 187.003906 C 256.566406 185.949219 259.84375 184.222656 259.84375 182.191406 L 259.84375 168.882812 Z M 253.527344 159.578125 C 244.234375 156.339844 228.96875 156.339844 219.671875 159.578125 C 211.679688 162.371094 210.890625 166.167969 219.671875 169.226562 C 228.964844 172.464844 244.230469 172.464844 253.527344 169.226562 C 262.308594 166.15625 261.519531 162.371094 253.527344 159.578125 Z M 259.839844 186.671875 C 250.757812 193.84375 222.464844 193.84375 213.363281 186.671875 L 213.363281 197.972656 C 213.363281 199.71875 215.773438 201.433594 219.671875 202.800781 C 228.96875 206.035156 244.234375 206.035156 253.53125 202.800781 C 257.429688 201.433594 259.84375 199.71875 259.84375 197.972656 L 259.84375 186.671875 Z M 259.839844 202.457031 C 250.757812 209.628906 222.464844 209.628906 213.363281 202.464844 L 213.363281 214.640625 C 213.363281 216.382812 215.773438 218.097656 219.671875 219.464844 C 228.96875 222.703125 244.234375 222.703125 253.53125 219.464844 C 257.429688 218.097656 259.84375 216.382812 259.84375 214.640625 L 259.84375 202.457031 Z M 174.289062 215.910156 C 172.5625 215.910156 172.5625 213.292969 174.289062 213.292969 L 180.117188 213.292969 C 181.839844 213.292969 181.839844 215.910156 180.117188 215.910156 Z M 195.007812 215.910156 C 193.285156 215.910156 193.285156 213.292969 195.007812 213.292969 L 200.835938 213.292969 C 202.558594 213.292969 202.558594 215.910156 200.835938 215.910156 Z M 184.644531 215.910156 C 182.929688 215.910156 182.929688 213.292969 184.644531 213.292969 L 190.480469 213.292969 C 192.207031 213.292969 192.207031 215.910156 190.480469 215.910156 Z M 150.238281 208.050781 L 167.046875 208.050781 C 168.648438 208.050781 169.96875 209.367188 169.96875 210.972656 L 169.96875 218.230469 C 169.96875 219.832031 168.660156 221.144531 167.046875 221.144531 L 150.238281 221.144531 C 148.636719 221.144531 147.316406 219.824219 147.316406 218.230469 L 147.316406 210.972656 C 147.316406 209.367188 148.636719 208.050781 150.238281 208.050781 Z M 167.042969 210.675781 L 150.238281 210.675781 C 150.070312 210.675781 149.9375 210.804688 149.9375 210.972656 L 149.9375 218.230469 C 149.9375 218.398438 150.070312 218.527344 150.238281 218.527344 L 167.042969 218.527344 C 167.207031 218.527344 167.347656 218.386719 167.347656 218.230469 L 167.347656 210.972656 C 167.347656 210.804688 167.21875 210.675781 167.042969 210.675781 Z M 145.738281 203.140625 L 203.730469 203.140625 C 206.175781 203.140625 208.15625 205.132812 208.15625 207.574219 L 208.15625 221.625 C 208.15625 224.066406 206.171875 226.050781 203.730469 226.050781 L 145.738281 226.050781 C 143.296875 226.050781 141.304688 224.0625 141.304688 221.625 L 141.304688 207.574219 C 141.304688 205.136719 143.300781 203.140625 145.738281 203.140625 Z M 203.730469 205.769531 L 145.738281 205.769531 C 144.746094 205.769531 143.929688 206.582031 143.929688 207.578125 L 143.929688 221.625 C 143.929688 222.617188 144.742188 223.433594 145.738281 223.433594 L 203.730469 223.433594 C 204.722656 223.433594 205.542969 222.621094 205.542969 221.625 L 205.542969 207.574219 C 205.539062 206.582031 204.722656 205.769531 203.730469 205.769531 Z M 174.289062 187.449219 C 172.5625 187.449219 172.5625 184.824219 174.289062 184.824219 L 180.117188 184.824219 C 181.839844 184.824219 181.839844 187.449219 180.117188 187.449219 Z M 195.007812 187.449219 C 193.285156 187.449219 193.285156 184.824219 195.007812 184.824219 L 200.835938 184.824219 C 202.558594 184.824219 202.558594 187.449219 200.835938 187.449219 Z M 184.644531 187.449219 C 182.929688 187.449219 182.929688 184.824219 184.644531 184.824219 L 190.480469 184.824219 C 192.207031 184.824219 192.207031 187.449219 190.480469 187.449219 Z M 150.238281 179.589844 L 167.046875 179.589844 C 168.648438 179.589844 169.96875 180.910156 169.96875 182.515625 L 169.96875 189.761719 C 169.96875 191.375 168.660156 192.683594 167.046875 192.683594 L 150.238281 192.683594 C 148.636719 192.683594 147.316406 191.367188 147.316406 189.761719 L 147.316406 182.515625 C 147.316406 180.902344 148.636719 179.589844 150.238281 179.589844 Z M 167.042969 182.210938 L 150.238281 182.210938 C 150.070312 182.210938 149.9375 182.351562 149.9375 182.519531 L 149.9375 189.765625 C 149.9375 189.933594 150.070312 190.074219 150.238281 190.074219 L 167.042969 190.074219 C 167.207031 190.074219 167.347656 189.933594 167.347656 189.765625 L 167.347656 182.519531 C 167.347656 182.339844 167.21875 182.210938 167.042969 182.210938 Z M 145.738281 174.683594 L 203.730469 174.683594 C 206.175781 174.683594 208.15625 176.679688 208.15625 179.121094 L 208.15625 193.160156 C 208.15625 195.601562 206.171875 197.59375 203.730469 197.59375 L 145.738281 197.59375 C 143.296875 197.59375 141.304688 195.601562 141.304688 193.160156 L 141.304688 179.121094 C 141.304688 176.679688 143.300781 174.683594 145.738281 174.683594 Z M 203.730469 177.300781 L 145.738281 177.300781 C 144.746094 177.300781 143.929688 178.117188 143.929688 179.121094 L 143.929688 193.160156 C 143.929688 194.160156 144.742188 194.980469 145.738281 194.980469 L 203.730469 194.980469 C 204.722656 194.980469 205.542969 194.164062 205.542969 193.160156 L 205.542969 179.121094 C 205.539062 178.117188 204.722656 177.300781 203.730469 177.300781 Z M 174.289062 158.984375 C 172.5625 158.984375 172.5625 156.367188 174.289062 156.367188 L 180.117188 156.367188 C 181.839844 156.367188 181.839844 158.984375 180.117188 158.984375 Z M 195.007812 158.984375 C 193.285156 158.984375 193.285156 156.367188 195.007812 156.367188 L 200.835938 156.367188 C 202.558594 156.367188 202.558594 158.984375 200.835938 158.984375 Z M 184.644531 158.984375 C 182.929688 158.984375 182.929688 156.367188 184.644531 156.367188 L 190.480469 156.367188 C 192.207031 156.367188 192.207031 158.984375 190.480469 158.984375 Z M 150.238281 151.132812 L 167.046875 151.132812 C 168.648438 151.132812 169.96875 152.453125 169.96875 154.046875 L 169.96875 161.304688 C 169.96875 162.90625 168.660156 164.226562 167.046875 164.226562 L 150.238281 164.226562 C 148.636719 164.226562 147.316406 162.90625 147.316406 161.304688 L 147.316406 154.046875 C 147.316406 152.441406 148.636719 151.132812 150.238281 151.132812 Z M 167.042969 153.753906 L 150.238281 153.753906 C 150.070312 153.753906 149.9375 153.894531 149.9375 154.050781 L 149.9375 161.308594 C 149.9375 161.472656 150.070312 161.605469 150.238281 161.605469 L 167.042969 161.605469 C 167.207031 161.605469 167.347656 161.464844 167.347656 161.308594 L 167.347656 154.050781 C 167.347656 153.878906 167.21875 153.753906 167.042969 153.753906 Z M 145.738281 146.226562 L 203.730469 146.226562 C 206.175781 146.226562 208.15625 148.214844 208.15625 150.652344 L 208.15625 164.703125 C 208.15625 167.144531 206.171875 169.136719 203.730469 169.136719 L 145.738281 169.136719 C 143.296875 169.136719 141.304688 167.144531 141.304688 164.703125 L 141.304688 150.652344 C 141.304688 148.210938 143.300781 146.226562 145.738281 146.226562 Z M 203.730469 148.84375 L 145.738281 148.84375 C 144.746094 148.84375 143.929688 149.65625 143.929688 150.652344 L 143.929688 164.703125 C 143.929688 165.691406 144.742188 166.511719 145.738281 166.511719 L 203.730469 166.511719 C 204.722656 166.511719 205.542969 165.695312 205.542969 164.703125 L 205.542969 150.652344 C 205.539062 149.660156 204.722656 148.84375 203.730469 148.84375 Z M 229.292969 128.761719 C 236.074219 128.761719 239.488281 137.003906 234.695312 141.800781 C 229.894531 146.601562 221.65625 143.175781 221.65625 136.398438 C 221.65625 132.1875 225.082031 128.761719 229.292969 128.761719 Z M 232.839844 132.855469 C 229.691406 129.699219 224.28125 131.945312 224.28125 136.398438 C 224.28125 140.855469 229.691406 143.101562 232.839844 139.945312 C 234.796875 137.988281 234.796875 134.8125 232.839844 132.855469 Z M 229.292969 241.066406 C 233.75 241.066406 235.992188 235.652344 232.839844 232.507812 C 229.691406 229.351562 224.28125 231.597656 224.28125 236.054688 C 224.28125 238.820312 226.527344 241.066406 229.292969 241.066406 Z M 234.695312 241.453125 C 229.894531 246.253906 221.65625 242.828125 221.65625 236.054688 C 221.65625 229.269531 229.894531 225.855469 234.695312 230.652344 C 237.671875 233.628906 237.671875 238.464844 234.695312 241.453125 Z M 120.179688 241.066406 C 124.632812 241.066406 126.867188 235.652344 123.722656 232.507812 C 120.566406 229.351562 115.160156 231.597656 115.160156 236.054688 C 115.15625 238.820312 117.402344 241.066406 120.179688 241.066406 Z M 125.570312 241.453125 C 120.769531 246.253906 112.542969 242.828125 112.542969 236.054688 C 112.542969 229.269531 120.769531 225.855469 125.570312 230.652344 C 128.554688 233.628906 128.554688 238.464844 125.570312 241.453125 Z M 174.734375 250.945312 C 179.1875 250.945312 181.433594 245.535156 178.277344 242.382812 C 175.125 239.238281 169.714844 241.484375 169.714844 245.9375 C 169.714844 248.699219 171.960938 250.945312 174.734375 250.945312 Z M 180.136719 251.328125 C 175.335938 256.125 167.097656 252.707031 167.097656 245.933594 C 167.097656 239.152344 175.335938 235.738281 180.136719 240.535156 C 183.113281 243.511719 183.113281 248.347656 180.136719 251.328125 Z M 120.179688 128.761719 C 126.949219 128.761719 130.363281 137.003906 125.570312 141.800781 C 120.769531 146.601562 112.542969 143.175781 112.542969 136.398438 C 112.542969 132.1875 115.957031 128.761719 120.179688 128.761719 Z M 123.71875 132.855469 C 120.5625 129.699219 115.15625 131.945312 115.15625 136.398438 C 115.15625 140.855469 120.566406 143.101562 123.71875 139.945312 C 125.679688 137.988281 125.679688 134.8125 123.71875 132.855469 Z M 174.734375 118.882812 C 181.507812 118.882812 184.929688 127.121094 180.136719 131.917969 C 175.335938 136.71875 167.097656 133.300781 167.097656 126.519531 C 167.097656 122.304688 170.519531 118.882812 174.734375 118.882812 Z M 178.277344 122.972656 C 175.125 119.816406 169.714844 122.0625 169.714844 126.519531 C 169.714844 130.972656 175.125 133.21875 178.277344 130.0625 C 180.238281 128.105469 180.238281 124.929688 178.277344 122.972656 Z M 197.066406 237.1875 C 196.34375 237.1875 195.757812 236.601562 195.757812 235.875 L 195.757812 227.773438 L 198.375 227.773438 L 198.375 234.566406 L 219.59375 234.566406 C 221.308594 234.566406 221.308594 237.183594 219.59375 237.183594 L 197.066406 237.183594 Z M 129.875 237.1875 C 128.148438 237.1875 128.148438 234.570312 129.875 234.570312 L 151.085938 234.570312 L 151.085938 227.777344 L 153.710938 227.777344 L 153.710938 235.878906 C 153.710938 236.601562 153.117188 237.1875 152.390625 237.1875 Z M 129.875 137.710938 C 128.148438 137.710938 128.148438 135.09375 129.875 135.09375 L 152.394531 135.09375 C 153.117188 135.09375 153.710938 135.679688 153.710938 136.402344 L 153.710938 144.019531 L 151.085938 144.019531 L 151.085938 137.710938 Z M 195.761719 136.398438 C 195.761719 135.675781 196.347656 135.089844 197.070312 135.089844 L 219.601562 135.089844 C 221.316406 135.089844 221.316406 137.707031 219.601562 137.707031 L 198.378906 137.707031 L 198.378906 144.015625 L 195.765625 144.015625 L 195.765625 136.398438 Z M 153.710938 170.0625 L 153.710938 173.507812 L 151.085938 173.507812 L 151.085938 170.0625 Z M 153.710938 199.003906 L 153.710938 201.894531 L 151.085938 201.894531 L 151.085938 199.003906 Z M 176.042969 136.398438 L 176.042969 144.015625 L 173.429688 144.015625 L 173.429688 136.398438 Z M 176.042969 227.773438 L 176.042969 235.875 L 173.429688 235.875 L 173.429688 227.773438 Z M 198.378906 170.0625 L 198.378906 173.507812 L 195.761719 173.507812 L 195.761719 170.0625 Z M 198.378906 199.003906 L 198.378906 201.894531 L 195.761719 201.894531 L 195.761719 199.003906 Z M 198.378906 199.003906 " fill-opacity="1" fill-rule="nonzero"/></g></svg>