<svg xmlns="http://www.w3.org/2000/svg" xmlns:xlink="http://www.w3.org/1999/xlink" width="500" zoomAndPan="magnify" viewBox="0 0 375 374.999991" height="500" preserveAspectRatio="xMidYMid meet" version="1.0"><defs><clipPath id="ea9549ef26"><path d="M 112.601562 112.601562 L 262.601562 112.601562 L 262.601562 262.601562 L 112.601562 262.601562 Z M 112.601562 112.601562 " clip-rule="nonzero"/></clipPath></defs><g clip-path="url(#ea9549ef26)"><path fill="#000000" d="M 246.449219 112.601562 L 128.757812 112.601562 C 119.847656 112.601562 112.601562 119.847656 112.601562 128.757812 L 112.601562 222.921875 C 112.601562 231.828125 119.847656 239.074219 128.757812 239.074219 L 172.898438 239.074219 L 172.898438 244.957031 L 169.957031 244.957031 C 161.847656 244.957031 155.25 251.554688 155.25 259.664062 C 155.25 261.285156 156.566406 262.601562 158.191406 262.601562 L 217.015625 262.601562 C 218.640625 262.601562 219.957031 261.285156 219.957031 259.664062 C 219.957031 251.554688 213.359375 244.957031 205.25 244.957031 L 202.308594 244.957031 L 202.308594 239.074219 L 246.449219 239.074219 C 255.355469 239.074219 262.601562 231.828125 262.601562 222.921875 L 262.601562 128.757812 C 262.601562 119.847656 255.355469 112.601562 246.449219 112.601562 Z M 128.757812 118.484375 L 246.449219 118.484375 C 252.113281 118.484375 256.722656 123.09375 256.722656 128.757812 L 256.722656 209.664062 L 118.484375 209.664062 L 118.484375 128.757812 C 118.484375 123.09375 123.09375 118.484375 128.757812 118.484375 Z M 213.570312 256.722656 L 161.636719 256.722656 C 162.851562 253.296875 166.121094 250.839844 169.957031 250.839844 L 205.25 250.839844 C 209.085938 250.839844 212.355469 253.296875 213.570312 256.722656 Z M 196.425781 244.957031 L 178.78125 244.957031 L 178.78125 239.074219 L 196.425781 239.074219 Z M 246.449219 233.191406 L 128.757812 233.191406 C 123.09375 233.191406 118.484375 228.585938 118.484375 222.921875 L 118.484375 215.542969 L 256.722656 215.542969 L 256.722656 222.921875 C 256.722656 228.585938 252.113281 233.191406 246.449219 233.191406 Z M 246.449219 233.191406 " fill-opacity="1" fill-rule="nonzero"/></g><path fill="#000000" d="M 155.25 159.664062 C 160.5625 159.664062 164.722656 154.964844 163.988281 149.632812 L 173.054688 139.898438 C 175.882812 142.316406 179.808594 142.648438 182.933594 140.972656 L 193.546875 149.816406 C 192.933594 155.097656 197.078125 159.664062 202.308594 159.664062 C 207.175781 159.664062 211.132812 155.703125 211.132812 150.839844 L 220.964844 146.421875 C 222.359375 147.355469 224.039062 147.898438 225.839844 147.898438 C 230.703125 147.898438 234.664062 143.9375 234.664062 139.074219 C 234.664062 134.207031 230.703125 130.25 225.839844 130.25 C 219.972656 130.25 215.695312 135.914062 217.382812 141.582031 L 209.15625 145.28125 C 205.921875 141.308594 200.011719 140.886719 196.261719 144.421875 L 186.90625 136.625 C 189.371094 130.820312 185.074219 124.367188 178.78125 124.367188 C 173.429688 124.367188 169.257812 129.132812 170.054688 134.492188 L 161.03125 144.179688 C 159.480469 142.832031 157.460938 142.015625 155.25 142.015625 C 150.386719 142.015625 146.425781 145.972656 146.425781 150.839844 C 146.425781 155.703125 150.386719 159.664062 155.25 159.664062 Z M 225.839844 136.132812 C 227.460938 136.132812 228.78125 137.453125 228.78125 139.074219 C 228.78125 140.695312 227.460938 142.015625 225.839844 142.015625 C 224.21875 142.015625 222.898438 140.695312 222.898438 139.074219 C 222.898438 137.453125 224.21875 136.132812 225.839844 136.132812 Z M 202.308594 147.898438 C 203.929688 147.898438 205.25 149.21875 205.25 150.839844 C 205.25 152.460938 203.929688 153.78125 202.308594 153.78125 C 200.6875 153.78125 199.367188 152.460938 199.367188 150.839844 C 199.367188 149.21875 200.6875 147.898438 202.308594 147.898438 Z M 178.78125 130.25 C 180.402344 130.25 181.722656 131.570312 181.722656 133.191406 C 181.722656 134.8125 180.402344 136.132812 178.78125 136.132812 C 177.15625 136.132812 175.839844 134.8125 175.839844 133.191406 C 175.839844 131.570312 177.15625 130.25 178.78125 130.25 Z M 155.25 147.898438 C 156.871094 147.898438 158.191406 149.21875 158.191406 150.839844 C 158.191406 152.460938 156.871094 153.78125 155.25 153.78125 C 153.628906 153.78125 152.308594 152.460938 152.308594 150.839844 C 152.308594 149.21875 153.628906 147.898438 155.25 147.898438 Z M 155.25 147.898438 " fill-opacity="1" fill-rule="nonzero"/><path fill="#000000" d="M 137.601562 203.78125 C 138.515625 203.78125 235.234375 203.78125 237.601562 203.78125 C 239.226562 203.78125 240.542969 202.460938 240.542969 200.839844 C 240.542969 199.214844 239.226562 197.898438 237.601562 197.898438 L 234.664062 197.898438 L 234.664062 156.722656 C 234.664062 155.097656 233.34375 153.78125 231.722656 153.78125 L 219.957031 153.78125 C 218.332031 153.78125 217.015625 155.097656 217.015625 156.722656 L 217.015625 197.898438 L 211.132812 197.898438 L 211.132812 174.367188 C 211.132812 172.742188 209.816406 171.425781 208.191406 171.425781 L 196.425781 171.425781 C 194.804688 171.425781 193.484375 172.742188 193.484375 174.367188 L 193.484375 197.898438 L 187.601562 197.898438 L 187.601562 156.722656 C 187.601562 155.097656 186.285156 153.78125 184.664062 153.78125 L 172.898438 153.78125 C 171.273438 153.78125 169.957031 155.097656 169.957031 156.722656 L 169.957031 197.898438 L 164.074219 197.898438 L 164.074219 171.425781 C 164.074219 169.800781 162.757812 168.484375 161.132812 168.484375 L 149.367188 168.484375 C 147.742188 168.484375 146.425781 169.800781 146.425781 171.425781 L 146.425781 197.898438 L 137.601562 197.898438 C 135.980469 197.898438 134.664062 199.214844 134.664062 200.839844 C 134.664062 202.460938 135.980469 203.78125 137.601562 203.78125 Z M 222.898438 159.664062 L 228.78125 159.664062 L 228.78125 197.898438 L 222.898438 197.898438 Z M 199.367188 177.308594 L 205.25 177.308594 L 205.25 197.898438 L 199.367188 197.898438 Z M 175.839844 159.664062 L 181.722656 159.664062 L 181.722656 197.898438 L 175.839844 197.898438 Z M 152.308594 174.367188 L 158.191406 174.367188 L 158.191406 197.898438 L 152.308594 197.898438 Z M 152.308594 174.367188 " fill-opacity="1" fill-rule="nonzero"/><path fill="#000000" d="M 250.839844 224.367188 C 250.839844 224.757812 250.765625 225.132812 250.613281 225.492188 C 250.464844 225.855469 250.253906 226.171875 249.976562 226.449219 C 249.703125 226.722656 249.382812 226.9375 249.023438 227.085938 C 248.664062 227.234375 248.289062 227.308594 247.898438 227.308594 C 247.507812 227.308594 247.132812 227.234375 246.773438 227.085938 C 246.410156 226.9375 246.09375 226.722656 245.816406 226.449219 C 245.542969 226.171875 245.328125 225.855469 245.179688 225.492188 C 245.03125 225.132812 244.957031 224.757812 244.957031 224.367188 C 244.957031 223.976562 245.03125 223.601562 245.179688 223.242188 C 245.328125 222.882812 245.542969 222.5625 245.816406 222.289062 C 246.09375 222.011719 246.410156 221.800781 246.773438 221.652344 C 247.132812 221.5 247.507812 221.425781 247.898438 221.425781 C 248.289062 221.425781 248.664062 221.5 249.023438 221.652344 C 249.382812 221.800781 249.703125 222.011719 249.976562 222.289062 C 250.253906 222.5625 250.464844 222.882812 250.613281 223.242188 C 250.765625 223.601562 250.839844 223.976562 250.839844 224.367188 Z M 250.839844 224.367188 " fill-opacity="1" fill-rule="nonzero"/><path fill="#000000" d="M 236.132812 221.425781 L 230.25 221.425781 C 228.625 221.425781 227.308594 222.742188 227.308594 224.367188 C 227.308594 225.992188 228.625 227.308594 230.25 227.308594 L 236.132812 227.308594 C 237.757812 227.308594 239.074219 225.992188 239.074219 224.367188 C 239.074219 222.742188 237.757812 221.425781 236.132812 221.425781 Z M 236.132812 221.425781 " fill-opacity="1" fill-rule="nonzero"/><path fill="#000000" d="M 218.484375 221.425781 L 212.601562 221.425781 C 210.980469 221.425781 209.664062 222.742188 209.664062 224.367188 C 209.664062 225.992188 210.980469 227.308594 212.601562 227.308594 L 218.484375 227.308594 C 220.109375 227.308594 221.425781 225.992188 221.425781 224.367188 C 221.425781 222.742188 220.109375 221.425781 218.484375 221.425781 Z M 218.484375 221.425781 " fill-opacity="1" fill-rule="nonzero"/></svg>