<svg xmlns="http://www.w3.org/2000/svg" xmlns:xlink="http://www.w3.org/1999/xlink" width="500" zoomAndPan="magnify" viewBox="0 0 375 374.999991" height="500" preserveAspectRatio="xMidYMid meet" version="1.0"><defs><clipPath id="f353c3fd53"><path d="M 142 121.394531 L 186 121.394531 L 186 181 L 142 181 Z M 142 121.394531 " clip-rule="nonzero"/></clipPath><clipPath id="09898c865f"><path d="M 122.597656 148 L 184 148 L 184 224 L 122.597656 224 Z M 122.597656 148 " clip-rule="nonzero"/></clipPath><clipPath id="42db0284d6"><path d="M 144 137 L 252.347656 137 L 252.347656 253.394531 L 144 253.394531 Z M 144 137 " clip-rule="nonzero"/></clipPath></defs><g clip-path="url(#f353c3fd53)"><path fill="#272525" d="M 184.058594 180.296875 C 184.488281 180.132812 184.835938 179.859375 185.09375 179.480469 C 185.355469 179.105469 185.488281 178.683594 185.488281 178.226562 L 185.488281 123.675781 C 185.488281 123.375 185.425781 123.089844 185.308594 122.8125 C 185.191406 122.539062 185.023438 122.292969 184.808594 122.085938 C 184.59375 121.875 184.347656 121.714844 184.070312 121.605469 C 183.792969 121.492188 183.5 121.4375 183.203125 121.441406 C 179.476562 121.429688 175.785156 121.769531 172.128906 122.460938 C 168.46875 123.152344 164.910156 124.183594 161.445312 125.554688 C 157.984375 126.929688 154.683594 128.613281 151.546875 130.613281 C 148.40625 132.617188 145.484375 134.894531 142.78125 137.453125 C 142.566406 137.65625 142.394531 137.894531 142.273438 138.167969 C 142.15625 138.441406 142.09375 138.726562 142.085938 139.023438 C 142.082031 139.320312 142.136719 139.609375 142.246094 139.882812 C 142.359375 140.160156 142.519531 140.40625 142.730469 140.617188 L 181.5625 179.78125 C 181.890625 180.109375 182.28125 180.316406 182.734375 180.410156 C 183.1875 180.503906 183.628906 180.46875 184.058594 180.296875 Z M 180.917969 172.710938 L 147.632812 139.136719 C 149.933594 137.136719 152.386719 135.34375 154.988281 133.761719 C 157.59375 132.175781 160.3125 130.824219 163.148438 129.703125 C 165.980469 128.578125 168.890625 127.703125 171.871094 127.074219 C 174.855469 126.445312 177.871094 126.074219 180.917969 125.957031 Z M 180.917969 172.710938 " fill-opacity="1" fill-rule="nonzero"/></g><g clip-path="url(#09898c865f)"><path fill="#272525" d="M 183.019531 189.890625 C 183.085938 189.203125 182.875 188.617188 182.386719 188.132812 L 143.554688 148.957031 C 143.109375 148.511719 142.574219 148.285156 141.949219 148.277344 C 141.320312 148.277344 140.777344 148.484375 140.316406 148.910156 C 128.90625 159.710938 122.628906 174.191406 122.628906 189.6875 C 122.625 192.621094 122.851562 195.535156 123.3125 198.429688 C 123.769531 201.328125 124.453125 204.167969 125.363281 206.957031 C 126.273438 209.746094 127.398438 212.445312 128.734375 215.054688 C 130.074219 217.667969 131.609375 220.15625 133.339844 222.523438 C 133.558594 222.820312 133.832031 223.054688 134.160156 223.21875 C 134.488281 223.386719 134.839844 223.46875 135.207031 223.464844 C 135.691406 223.464844 136.128906 223.328125 136.523438 223.054688 L 182.066406 191.507812 C 182.636719 191.117188 182.953125 190.578125 183.019531 189.890625 Z M 135.789062 218.082031 C 132.984375 213.875 130.851562 209.355469 129.390625 204.519531 C 127.925781 199.683594 127.199219 194.738281 127.207031 189.6875 C 127.207031 176.15625 132.402344 163.464844 141.894531 153.703125 L 177.25 189.367188 Z M 135.789062 218.082031 " fill-opacity="1" fill-rule="nonzero"/></g><g clip-path="url(#42db0284d6)"><path fill="#272525" d="M 251.777344 187.917969 C 251.652344 186.988281 251.503906 186.070312 251.335938 185.160156 C 250.96875 183.203125 250.503906 181.269531 249.933594 179.363281 C 249.691406 178.550781 249.425781 177.734375 249.148438 176.921875 C 248.542969 175.1875 247.847656 173.453125 247.070312 171.785156 C 246.734375 171.050781 246.382812 170.332031 246.015625 169.613281 C 245.21875 168.066406 244.332031 166.519531 243.378906 165 C 242.960938 164.347656 242.539062 163.703125 242.097656 163.070312 C 241.011719 161.507812 239.832031 159.976562 238.59375 158.527344 C 238.101562 157.953125 237.597656 157.378906 237.074219 156.816406 C 235.9375 155.585938 234.710938 154.375 233.429688 153.203125 C 232.871094 152.695312 232.296875 152.195312 231.710938 151.703125 C 230.398438 150.59375 229.015625 149.53125 227.617188 148.546875 C 226.980469 148.09375 226.335938 147.65625 225.6875 147.238281 C 224.164062 146.246094 222.617188 145.339844 221.097656 144.546875 C 220.390625 144.171875 219.671875 143.808594 218.941406 143.460938 C 217.074219 142.566406 215.164062 141.777344 213.210938 141.085938 C 212.394531 140.8125 211.582031 140.527344 210.765625 140.269531 C 208.863281 139.691406 206.902344 139.183594 204.921875 138.796875 C 204.007812 138.617188 203.089844 138.457031 202.15625 138.3125 C 199.933594 137.980469 197.699219 137.773438 195.457031 137.691406 C 194.664062 137.660156 193.875 137.636719 193.078125 137.636719 C 192.632812 137.632812 192.203125 137.710938 191.789062 137.878906 C 191.378906 138.042969 191.011719 138.28125 190.691406 138.59375 C 190.375 138.902344 190.128906 139.261719 189.953125 139.671875 C 189.777344 140.082031 189.6875 140.507812 189.683594 140.953125 L 189.683594 193.828125 L 145.59375 224.363281 C 144.824219 224.890625 144.359375 225.613281 144.199219 226.535156 C 144.050781 227.4375 144.242188 228.261719 144.785156 229 L 145.003906 229.289062 C 145.964844 230.589844 147.027344 231.898438 148.265625 233.292969 C 148.765625 233.863281 149.277344 234.425781 149.800781 234.972656 C 150.941406 236.167969 152.1875 237.363281 153.507812 238.523438 C 154.082031 239.027344 154.664062 239.519531 155.257812 240 C 156.886719 241.324219 158.40625 242.441406 159.902344 243.4375 C 160.445312 243.796875 161.007812 244.136719 161.5625 244.472656 L 161.894531 244.675781 C 163.429688 245.609375 165.011719 246.46875 166.605469 247.261719 C 167.332031 247.613281 168.0625 247.964844 168.800781 248.285156 C 170.429688 249 172.144531 249.660156 174.082031 250.304688 C 174.898438 250.578125 175.714844 250.847656 176.550781 251.074219 C 178.503906 251.636719 180.480469 252.101562 182.480469 252.46875 C 183.417969 252.632812 184.359375 252.765625 185.300781 252.886719 C 187.8125 253.21875 190.339844 253.390625 192.875 253.402344 L 193.09375 253.402344 C 194.164062 253.402344 195.222656 253.371094 196.277344 253.316406 C 199.101562 253.167969 201.902344 252.824219 204.675781 252.285156 C 206.070312 252.011719 207.476562 251.679688 208.972656 251.269531 C 213.261719 250.117188 217.367188 248.496094 221.289062 246.414062 C 225.210938 244.328125 228.851562 241.835938 232.210938 238.929688 C 237.457031 234.40625 241.773438 229.128906 245.160156 223.089844 C 247.28125 219.265625 248.941406 215.253906 250.136719 211.050781 C 250.558594 209.566406 250.894531 208.191406 251.171875 206.847656 C 251.71875 204.132812 252.070312 201.398438 252.226562 198.632812 C 252.28125 197.605469 252.3125 196.574219 252.3125 195.53125 L 252.3125 195.371094 C 252.296875 192.875 252.117188 190.390625 251.777344 187.917969 Z M 247.65625 198.402344 C 247.511719 200.949219 247.1875 203.472656 246.679688 205.972656 C 246.425781 207.210938 246.113281 208.480469 245.722656 209.851562 C 244.625 213.734375 243.09375 217.4375 241.136719 220.964844 C 239.15625 224.515625 236.800781 227.800781 234.074219 230.816406 C 229.765625 235.582031 224.78125 239.476562 219.113281 242.5 C 215.492188 244.417969 211.703125 245.914062 207.746094 246.984375 C 206.359375 247.359375 205.066406 247.667969 203.78125 247.914062 C 201.222656 248.414062 198.640625 248.730469 196.035156 248.867188 C 195.0625 248.921875 194.089844 248.957031 193.105469 248.949219 L 192.949219 248.949219 C 190.589844 248.9375 188.242188 248.78125 185.90625 248.46875 C 185.03125 248.359375 184.164062 248.238281 183.300781 248.082031 C 181.457031 247.746094 179.632812 247.320312 177.832031 246.796875 C 177.066406 246.578125 176.304688 246.335938 175.554688 246.085938 C 173.761719 245.492188 172.171875 244.878906 170.679688 244.222656 C 169.992188 243.921875 169.320312 243.597656 168.65625 243.277344 C 167.195312 242.554688 165.730469 241.75 164.308594 240.890625 L 163.972656 240.683594 C 163.460938 240.378906 162.957031 240.074219 162.464844 239.75 C 161.105469 238.84375 159.691406 237.804688 158.183594 236.578125 C 157.636719 236.132812 157.09375 235.675781 156.566406 235.222656 C 155.34375 234.148438 154.191406 233.050781 153.140625 231.941406 C 152.652344 231.4375 152.183594 230.910156 151.722656 230.394531 C 150.792969 229.34375 149.972656 228.34375 149.21875 227.359375 L 193.296875 196.796875 C 193.597656 196.589844 193.835938 196.324219 194.003906 196.003906 C 194.175781 195.679688 194.261719 195.335938 194.261719 194.972656 L 194.261719 142.148438 L 195.28125 142.1875 C 197.351562 142.261719 199.414062 142.453125 201.464844 142.757812 C 202.324219 142.886719 203.175781 143.039062 204.019531 143.203125 C 205.84375 143.570312 207.65625 144.019531 209.410156 144.5625 C 210.164062 144.792969 210.910156 145.042969 211.652344 145.308594 C 213.449219 145.9375 215.210938 146.664062 216.933594 147.480469 C 217.609375 147.796875 218.273438 148.132812 218.933594 148.480469 C 220.328125 149.210938 221.75 150.046875 223.167969 150.972656 C 223.765625 151.355469 224.351562 151.753906 224.941406 152.171875 C 226.238281 153.078125 227.511719 154.070312 228.730469 155.089844 C 229.273438 155.539062 229.800781 156.003906 230.316406 156.480469 C 231.5 157.550781 232.632812 158.671875 233.683594 159.8125 C 234.160156 160.332031 234.625 160.859375 235.082031 161.390625 C 236.226562 162.734375 237.316406 164.140625 238.324219 165.585938 C 238.730469 166.175781 239.117188 166.769531 239.5 167.367188 C 240.378906 168.753906 241.199219 170.179688 241.929688 171.613281 C 242.269531 172.265625 242.589844 172.929688 242.902344 173.609375 C 243.617188 175.15625 244.261719 176.75 244.820312 178.351562 C 245.078125 179.089844 245.320312 179.832031 245.542969 180.59375 C 246.074219 182.355469 246.503906 184.144531 246.835938 185.957031 C 246.996094 186.800781 247.132812 187.648438 247.25 188.5 C 247.558594 190.785156 247.71875 193.078125 247.730469 195.378906 L 247.730469 195.53125 C 247.734375 196.5 247.703125 197.457031 247.65625 198.402344 Z M 247.65625 198.402344 " fill-opacity="1" fill-rule="nonzero"/></g></svg>