<svg xmlns="http://www.w3.org/2000/svg" xmlns:xlink="http://www.w3.org/1999/xlink" width="500" zoomAndPan="magnify" viewBox="0 0 375 374.999991" height="500" preserveAspectRatio="xMidYMid meet" version="1.0"><defs><clipPath id="2af486a007"><path d="M 254 191 L 272 191 L 272 256.121094 L 254 256.121094 Z M 254 191 " clip-rule="nonzero"/></clipPath><clipPath id="b94f788360"><path d="M 184 191 L 202 191 L 202 256.121094 L 184 256.121094 Z M 184 191 " clip-rule="nonzero"/></clipPath><clipPath id="bbbc535c95"><path d="M 230 197 L 249 197 L 249 256.121094 L 230 256.121094 Z M 230 197 " clip-rule="nonzero"/></clipPath><clipPath id="746e034192"><path d="M 207 213 L 225 213 L 225 256.121094 L 207 256.121094 Z M 207 213 " clip-rule="nonzero"/></clipPath><clipPath id="2d844ad592"><path d="M 277 222 L 295.238281 222 L 295.238281 256.121094 L 277 256.121094 Z M 277 222 " clip-rule="nonzero"/></clipPath><clipPath id="5d4912fb10"><path d="M 129 118.871094 L 157 118.871094 L 157 167 L 129 167 Z M 129 118.871094 " clip-rule="nonzero"/></clipPath></defs><g clip-path="url(#2af486a007)"><path fill="#00a9a3" d="M 271.785156 224.105469 C 271.785156 213.851562 271.765625 203.59375 271.808594 193.335938 C 271.8125 192.226562 271.597656 191.835938 270.390625 191.855469 C 265.5625 191.929688 260.730469 191.914062 255.902344 191.867188 C 254.894531 191.855469 254.476562 192.019531 254.476562 193.175781 C 254.515625 213.691406 254.515625 234.207031 254.476562 254.71875 C 254.476562 255.867188 254.882812 256.046875 255.894531 256.035156 C 260.726562 255.988281 265.558594 255.972656 270.386719 256.046875 C 271.582031 256.0625 271.8125 255.6875 271.808594 254.570312 C 271.765625 244.417969 271.785156 234.261719 271.785156 224.105469 Z M 271.785156 224.105469 " fill-opacity="1" fill-rule="nonzero"/></g><g clip-path="url(#b94f788360)"><path fill="#00a9a3" d="M 200.035156 191.804688 C 195.304688 191.855469 190.574219 191.875 185.84375 191.796875 C 184.523438 191.773438 184.105469 192.070312 184.113281 193.472656 C 184.179688 203.632812 184.148438 213.792969 184.148438 223.949219 C 184.148438 234.160156 184.164062 244.371094 184.125 254.582031 C 184.121094 255.667969 184.3125 256.117188 185.539062 256.097656 C 190.371094 256.027344 195.207031 256.039062 200.039062 256.089844 C 201.089844 256.101562 201.453125 255.839844 201.449219 254.730469 C 201.417969 234.207031 201.417969 213.679688 201.449219 193.15625 C 201.453125 192.042969 201.074219 191.796875 200.035156 191.804688 Z M 200.035156 191.804688 " fill-opacity="1" fill-rule="nonzero"/></g><g clip-path="url(#bbbc535c95)"><path fill="#00a9a3" d="M 248.050781 198.917969 C 248.050781 197.765625 247.617188 197.589844 246.613281 197.601562 C 241.988281 197.644531 237.363281 197.679688 232.738281 197.585938 C 231.238281 197.554688 230.742188 197.859375 230.757812 199.488281 C 230.851562 208.566406 230.804688 217.648438 230.804688 226.726562 C 230.804688 235.957031 230.824219 245.191406 230.777344 254.425781 C 230.773438 255.671875 231.097656 256.121094 232.414062 256.101562 C 237.136719 256.03125 241.871094 256.050781 246.597656 256.089844 C 247.589844 256.097656 248.050781 255.945312 248.050781 254.777344 C 248.011719 236.15625 248.011719 217.535156 248.050781 198.917969 Z M 248.050781 198.917969 " fill-opacity="1" fill-rule="nonzero"/></g><g clip-path="url(#746e034192)"><path fill="#00a9a3" d="M 223.140625 213.414062 C 218.355469 213.484375 213.578125 213.472656 208.796875 213.421875 C 207.738281 213.410156 207.382812 213.691406 207.386719 214.792969 C 207.417969 228.085938 207.417969 241.375 207.386719 254.664062 C 207.386719 255.769531 207.742188 256.046875 208.796875 256.035156 C 213.582031 255.988281 218.359375 255.972656 223.140625 256.042969 C 224.402344 256.0625 224.804688 255.742188 224.792969 254.433594 C 224.726562 247.867188 224.761719 241.296875 224.761719 234.726562 C 224.761719 228.160156 224.726562 221.589844 224.792969 215.023438 C 224.804688 213.714844 224.398438 213.398438 223.140625 213.414062 Z M 223.140625 213.414062 " fill-opacity="1" fill-rule="nonzero"/></g><g clip-path="url(#2d844ad592)"><path fill="#00a9a3" d="M 293.804688 222.546875 C 288.976562 222.597656 284.148438 222.609375 279.324219 222.539062 C 278.074219 222.523438 277.65625 222.828125 277.675781 224.136719 C 277.75 229.160156 277.707031 234.183594 277.707031 239.203125 C 277.707031 244.332031 277.730469 249.453125 277.6875 254.578125 C 277.675781 255.695312 277.980469 256.113281 279.15625 256.101562 C 284.035156 256.046875 288.914062 256.042969 293.792969 256.097656 C 294.886719 256.105469 295.199219 255.722656 295.191406 254.667969 C 295.164062 244.417969 295.164062 234.167969 295.199219 223.917969 C 295.203125 222.824219 294.867188 222.53125 293.804688 222.546875 Z M 293.804688 222.546875 " fill-opacity="1" fill-rule="nonzero"/></g><path fill="#00a9a3" d="M 226.289062 145.21875 C 226.292969 144.859375 226.320312 144.5 226.300781 144.140625 C 226.078125 139.738281 222.359375 136.371094 218.308594 136.902344 C 212.398438 137.675781 209.75 143.003906 212.59375 148.394531 L 214.398438 150.261719 C 218.59375 152.8125 222.363281 151.957031 225.511719 147.742188 C 225.769531 146.902344 226.03125 146.0625 226.289062 145.21875 Z M 218.847656 147.855469 C 216.796875 147.882812 215.234375 146.382812 215.183594 144.347656 C 215.132812 142.296875 216.78125 140.578125 218.808594 140.570312 C 220.730469 140.558594 222.472656 142.230469 222.535156 144.144531 C 222.597656 146.113281 220.890625 147.832031 218.847656 147.859375 Z M 218.847656 147.855469 " fill-opacity="1" fill-rule="nonzero"/><path fill="#00a9a3" d="M 85.863281 228.109375 C 82.523438 228.84375 80.027344 231.921875 80.042969 235.425781 C 80.058594 238.957031 82.644531 242.003906 86.164062 242.640625 C 89.683594 243.28125 93.089844 241.425781 94.347656 238.195312 C 95.625 234.914062 94.742188 232.121094 92.40625 229.65625 L 90.101562 228.351562 C 88.703125 228.019531 87.324219 227.789062 85.863281 228.109375 Z M 91.191406 235.488281 C 91.101562 237.523438 89.363281 239.09375 87.296875 239.015625 C 85.300781 238.9375 83.8125 237.308594 83.859375 235.257812 C 83.90625 233.277344 85.585938 231.640625 87.535156 231.683594 C 89.519531 231.722656 91.28125 233.558594 91.191406 235.488281 Z M 91.191406 235.488281 " fill-opacity="1" fill-rule="nonzero"/><path fill="#00a9a3" d="M 279.234375 135.726562 C 280.5 136.304688 281.785156 136.691406 283.222656 136.660156 C 286.753906 136.585938 289.734375 134.15625 290.414062 130.675781 C 291.050781 127.425781 289.214844 123.832031 286.25 122.523438 C 282.925781 121.058594 279.050781 122.0625 277.058594 124.957031 C 274.929688 128.050781 275.316406 131.105469 277.332031 134.09375 Z M 283.21875 125.558594 C 285.140625 125.632812 286.742188 127.332031 286.726562 129.296875 C 286.710938 131.40625 285.097656 133 283.035156 132.945312 C 281.039062 132.894531 279.332031 131.136719 279.382812 129.183594 C 279.433594 127.285156 281.332031 125.492188 283.21875 125.558594 Z M 283.21875 125.558594 " fill-opacity="1" fill-rule="nonzero"/><path fill="#00a9a3" d="M 259.179688 169.453125 C 262.980469 167.070312 263.632812 162.171875 260.6875 158.191406 L 258.730469 156.632812 C 255.488281 155.242188 252.507812 155.601562 249.816406 157.941406 L 248.304688 160.085938 C 248.175781 160.578125 248.035156 161.070312 247.925781 161.566406 C 247.238281 164.585938 248.355469 167.550781 250.824219 169.269531 C 253.386719 171.054688 256.519531 171.125 259.179688 169.453125 Z M 251.421875 163.277344 C 251.417969 161.265625 253.101562 159.605469 255.136719 159.613281 C 257.253906 159.617188 258.832031 161.183594 258.824219 163.273438 C 258.820312 165.230469 257.023438 166.980469 255.0625 166.933594 C 253.203125 166.886719 251.421875 165.101562 251.417969 163.277344 Z M 251.421875 163.277344 " fill-opacity="1" fill-rule="nonzero"/><path fill="#00a9a3" d="M 144.648438 198.34375 C 141.515625 197.390625 138.71875 197.957031 136.304688 200.214844 L 134.882812 202.542969 C 134.828125 202.796875 134.78125 203.046875 134.714844 203.296875 C 133.699219 207.070312 135.542969 210.796875 139.117188 212.183594 C 142.78125 213.605469 146.789062 212.09375 148.492188 208.566406 C 150.097656 205.246094 149.253906 202.316406 146.871094 199.695312 Z M 141.832031 209.011719 C 139.871094 208.984375 138.132812 207.191406 138.167969 205.242188 C 138.207031 203.230469 139.9375 201.578125 141.957031 201.625 C 143.835938 201.667969 145.574219 203.433594 145.574219 205.292969 C 145.570312 207.230469 143.75 209.039062 141.832031 209.011719 Z M 141.832031 209.011719 " fill-opacity="1" fill-rule="nonzero"/><path fill="#00a9a3" d="M 171.507812 164.710938 C 171.308594 164.304688 171.121094 163.886719 170.902344 163.488281 C 169.492188 160.90625 167.363281 159.449219 164.363281 159.4375 C 161.328125 159.429688 158.996094 160.75 157.640625 163.4375 C 156.0625 166.554688 156.765625 169.46875 158.894531 172.117188 L 161.03125 173.621094 C 162.695312 174.144531 164.382812 174.519531 166.113281 174.03125 C 169.46875 173.078125 171.195312 170.710938 171.765625 167.382812 C 171.679688 166.492188 171.59375 165.605469 171.507812 164.714844 Z M 164.273438 170.519531 C 162.242188 170.503906 160.558594 168.820312 160.566406 166.808594 C 160.578125 164.796875 162.277344 163.121094 164.300781 163.128906 C 166.222656 163.132812 167.886719 164.804688 167.917969 166.761719 C 167.953125 168.773438 166.253906 170.53125 164.273438 170.519531 Z M 164.273438 170.519531 " fill-opacity="1" fill-rule="nonzero"/><path fill="#00a9a3" d="M 199.222656 163.566406 C 194.46875 161.175781 190.15625 162.652344 188.078125 167.371094 L 187.585938 169.84375 C 187.675781 170.398438 187.742188 170.957031 187.863281 171.503906 C 188.945312 176.25 194.339844 178.6875 198.617188 176.394531 C 201.988281 174.589844 204.109375 169.882812 201.085938 165.296875 C 200.464844 164.722656 199.84375 164.144531 199.222656 163.566406 Z M 195.136719 173.558594 C 193.199219 173.585938 191.414062 171.804688 191.425781 169.851562 C 191.4375 167.769531 193.050781 166.191406 195.144531 166.207031 C 197.230469 166.222656 198.820312 167.851562 198.777344 169.925781 C 198.738281 171.820312 197.023438 173.535156 195.136719 173.558594 Z M 195.136719 173.558594 " fill-opacity="1" fill-rule="nonzero"/><path fill="#00a9a3" d="M 117.191406 191.492188 C 116.300781 187.195312 112.128906 184.699219 107.882812 185.851562 C 102.746094 187.246094 100.191406 194.128906 105.164062 198.78125 L 107.402344 200.09375 C 112.722656 200.789062 114.910156 199.671875 117.148438 195.125 C 117.25 194.203125 117.355469 193.28125 117.457031 192.359375 C 117.367188 192.070312 117.25 191.789062 117.191406 191.492188 Z M 113.609375 193.101562 C 113.550781 195.0625 111.878906 196.695312 109.933594 196.695312 C 107.929688 196.695312 106.230469 194.964844 106.261719 192.949219 C 106.289062 190.9375 108.011719 189.257812 110.011719 189.304688 C 112.015625 189.351562 113.671875 191.101562 113.609375 193.101562 Z M 113.609375 193.101562 " fill-opacity="1" fill-rule="nonzero"/><path fill="#00a9a3" d="M 161.078125 243.550781 C 150.242188 243.5625 139.402344 243.558594 128.566406 243.539062 C 127.515625 243.535156 127.019531 243.671875 127.007812 244.925781 C 126.992188 246.28125 127.6875 246.238281 128.632812 246.234375 C 134.027344 246.214844 139.417969 246.226562 144.8125 246.226562 C 150.207031 246.226562 155.597656 246.226562 160.992188 246.226562 C 161.898438 246.226562 162.828125 246.457031 162.847656 244.9375 C 162.859375 243.488281 162.0625 243.550781 161.078125 243.550781 Z M 161.078125 243.550781 " fill-opacity="1" fill-rule="nonzero"/><path fill="#00a9a3" d="M 161.285156 248.78125 C 155.789062 248.804688 150.292969 248.792969 144.796875 248.792969 C 139.355469 248.792969 133.910156 248.816406 128.464844 248.773438 C 127.449219 248.765625 127.003906 248.964844 127.015625 250.109375 C 127.027344 251.191406 127.359375 251.484375 128.425781 251.480469 C 139.363281 251.449219 150.304688 251.445312 161.242188 251.476562 C 162.285156 251.480469 162.851562 251.316406 162.835938 250.070312 C 162.824219 248.859375 162.21875 248.777344 161.285156 248.78125 Z M 161.285156 248.78125 " fill-opacity="1" fill-rule="nonzero"/><path fill="#00a9a3" d="M 128.300781 229.976562 C 139.351562 229.941406 150.40625 229.9375 161.457031 229.972656 C 162.398438 229.972656 162.835938 229.804688 162.832031 228.726562 C 162.832031 227.644531 162.40625 227.46875 161.460938 227.476562 C 155.960938 227.511719 150.457031 227.492188 144.957031 227.492188 C 139.40625 227.492188 133.855469 227.507812 128.304688 227.476562 C 127.421875 227.472656 127.007812 227.632812 127.027344 228.644531 C 127.042969 229.601562 127.242188 229.980469 128.300781 229.976562 Z M 128.300781 229.976562 " fill-opacity="1" fill-rule="nonzero"/><path fill="#00a9a3" d="M 128.578125 235.199219 C 139.476562 235.1875 150.375 235.1875 161.269531 235.199219 C 162.132812 235.199219 162.828125 235.300781 162.847656 233.996094 C 162.863281 232.597656 162.085938 232.71875 161.1875 232.722656 C 155.789062 232.734375 150.390625 232.734375 144.996094 232.726562 C 139.546875 232.726562 134.097656 232.734375 128.648438 232.722656 C 127.738281 232.722656 126.992188 232.613281 127.015625 234.003906 C 127.03125 235.308594 127.71875 235.199219 128.578125 235.199219 Z M 128.578125 235.199219 " fill-opacity="1" fill-rule="nonzero"/><path fill="#00a9a3" d="M 105.164062 198.785156 C 100.144531 208.640625 95.121094 218.496094 90.097656 228.351562 C 91.109375 228.359375 91.835938 228.867188 92.402344 229.65625 C 94.085938 226.324219 95.773438 222.992188 97.457031 219.65625 C 100.765625 213.136719 104.082031 206.613281 107.402344 200.09375 C 106.457031 200 105.601562 199.742188 105.164062 198.785156 Z M 105.164062 198.785156 " fill-opacity="1" fill-rule="nonzero"/><path fill="#00a9a3" d="M 90.097656 228.351562 L 92.40625 229.65625 C 91.835938 228.867188 91.109375 228.359375 90.097656 228.351562 Z M 90.097656 228.351562 " fill-opacity="1" fill-rule="nonzero"/><path fill="#00a9a3" d="M 105.164062 198.785156 C 105.601562 199.742188 106.457031 200 107.402344 200.09375 Z M 105.164062 198.785156 " fill-opacity="1" fill-rule="nonzero"/><path fill="#00a9a3" d="M 158.894531 172.117188 L 144.648438 198.34375 C 145.699219 198.285156 146.359375 198.867188 146.867188 199.699219 L 161.03125 173.621094 C 160.027344 173.53125 159.316406 173.03125 158.894531 172.117188 Z M 158.894531 172.117188 " fill-opacity="1" fill-rule="nonzero"/><path fill="#00a9a3" d="M 144.648438 198.34375 L 146.867188 199.699219 C 146.359375 198.867188 145.703125 198.285156 144.648438 198.34375 Z M 144.648438 198.34375 " fill-opacity="1" fill-rule="nonzero"/><path fill="#00a9a3" d="M 158.894531 172.117188 C 159.316406 173.03125 160.03125 173.53125 161.03125 173.621094 Z M 158.894531 172.117188 " fill-opacity="1" fill-rule="nonzero"/><path fill="#00a9a3" d="M 260.6875 158.191406 C 266.871094 150.703125 273.050781 143.214844 279.234375 135.726562 C 278.226562 135.613281 277.605469 135.054688 277.332031 134.09375 C 273.699219 138.441406 270.050781 142.777344 266.441406 147.140625 C 263.84375 150.285156 261.296875 153.46875 258.730469 156.632812 C 259.75 156.691406 260.296875 157.34375 260.6875 158.191406 Z M 260.6875 158.191406 " fill-opacity="1" fill-rule="nonzero"/><path fill="#00a9a3" d="M 279.234375 135.726562 L 277.332031 134.09375 C 277.605469 135.054688 278.226562 135.613281 279.234375 135.726562 Z M 279.234375 135.726562 " fill-opacity="1" fill-rule="nonzero"/><path fill="#00a9a3" d="M 260.6875 158.191406 C 260.296875 157.34375 259.753906 156.691406 258.730469 156.632812 Z M 260.6875 158.191406 " fill-opacity="1" fill-rule="nonzero"/><path fill="#00a9a3" d="M 249.816406 157.941406 C 249.304688 157.703125 248.777344 157.496094 248.285156 157.226562 C 240.949219 153.230469 233.621094 149.226562 226.292969 145.222656 C 226.550781 146.226562 226.210938 147.042969 225.511719 147.75 L 248.304688 160.089844 C 248.394531 159.085938 248.894531 158.363281 249.816406 157.941406 Z M 249.816406 157.941406 " fill-opacity="1" fill-rule="nonzero"/><path fill="#00a9a3" d="M 226.289062 145.21875 C 226.03125 146.058594 225.773438 146.902344 225.511719 147.746094 C 226.210938 147.039062 226.550781 146.222656 226.289062 145.21875 Z M 226.289062 145.21875 " fill-opacity="1" fill-rule="nonzero"/><path fill="#00a9a3" d="M 249.816406 157.941406 C 248.894531 158.363281 248.394531 159.082031 248.300781 160.085938 Z M 249.816406 157.941406 " fill-opacity="1" fill-rule="nonzero"/><path fill="#00a9a3" d="M 136.304688 200.214844 L 117.457031 192.359375 C 117.628906 193.3125 117.878906 194.273438 117.148438 195.125 C 119.132812 195.640625 120.9375 196.605469 122.8125 197.382812 C 126.855469 199.058594 130.863281 200.820312 134.882812 202.546875 C 134.929688 201.507812 135.320312 200.679688 136.304688 200.214844 Z M 136.304688 200.214844 " fill-opacity="1" fill-rule="nonzero"/><path fill="#00a9a3" d="M 134.882812 202.546875 L 136.304688 200.214844 C 135.320312 200.679688 134.929688 201.507812 134.882812 202.546875 Z M 134.882812 202.546875 " fill-opacity="1" fill-rule="nonzero"/><path fill="#00a9a3" d="M 117.457031 192.359375 C 117.355469 193.28125 117.25 194.203125 117.148438 195.125 C 117.878906 194.273438 117.628906 193.3125 117.457031 192.359375 Z M 117.457031 192.359375 " fill-opacity="1" fill-rule="nonzero"/><path fill="#00a9a3" d="M 212.59375 148.398438 C 211.070312 150.117188 209.546875 151.839844 208.019531 153.5625 C 205.085938 156.894531 202.152344 160.230469 199.222656 163.566406 C 200.246094 163.710938 200.738281 164.425781 201.085938 165.296875 L 214.402344 150.261719 C 213.289062 150.128906 212.785156 149.414062 212.59375 148.398438 Z M 212.59375 148.398438 " fill-opacity="1" fill-rule="nonzero"/><path fill="#00a9a3" d="M 212.59375 148.398438 C 212.785156 149.414062 213.289062 150.128906 214.398438 150.261719 Z M 212.59375 148.398438 " fill-opacity="1" fill-rule="nonzero"/><path fill="#00a9a3" d="M 199.222656 163.566406 C 199.84375 164.144531 200.464844 164.71875 201.085938 165.296875 C 200.738281 164.425781 200.246094 163.710938 199.222656 163.566406 Z M 199.222656 163.566406 " fill-opacity="1" fill-rule="nonzero"/><path fill="#00a9a3" d="M 119.96875 227.796875 C 116.683594 227.796875 116.683594 227.796875 116.683594 231.019531 C 116.683594 234.460938 116.683594 234.460938 120.109375 234.460938 C 123.554688 234.460938 123.554688 234.460938 123.554688 231.339844 C 123.550781 227.796875 123.550781 227.796875 119.96875 227.796875 Z M 119.96875 227.796875 " fill-opacity="1" fill-rule="nonzero"/><path fill="#00a9a3" d="M 120.027344 244.234375 C 116.683594 244.234375 116.683594 244.234375 116.683594 247.605469 C 116.683594 250.898438 116.683594 250.898438 120.050781 250.898438 C 123.550781 250.898438 123.550781 250.898438 123.550781 247.734375 C 123.550781 244.234375 123.550781 244.234375 120.027344 244.234375 Z M 120.027344 244.234375 " fill-opacity="1" fill-rule="nonzero"/><path fill="#00a9a3" d="M 188.078125 167.371094 L 171.507812 164.710938 C 172.082031 165.554688 172.035156 166.457031 171.765625 167.378906 L 187.582031 169.84375 C 187.308594 168.933594 187.304688 168.074219 188.078125 167.371094 Z M 188.078125 167.371094 " fill-opacity="1" fill-rule="nonzero"/><path fill="#00a9a3" d="M 171.507812 164.710938 C 171.59375 165.601562 171.679688 166.492188 171.765625 167.378906 C 172.039062 166.457031 172.082031 165.554688 171.507812 164.710938 Z M 171.507812 164.710938 " fill-opacity="1" fill-rule="nonzero"/><path fill="#00a9a3" d="M 188.078125 167.371094 C 187.304688 168.074219 187.308594 168.933594 187.582031 169.84375 Z M 188.078125 167.371094 " fill-opacity="1" fill-rule="nonzero"/><path fill="#00a9a3" d="M 109.667969 150.117188 C 105.832031 150.117188 101.960938 150.128906 98.023438 150.128906 C 99.765625 162.773438 106.058594 170.78125 116.894531 174.691406 C 126.910156 178.308594 136.476562 176.972656 145.660156 169.636719 C 142.925781 166.921875 140.261719 164.277344 137.632812 161.671875 C 136.109375 162.835938 134.441406 163.722656 132.625 164.332031 C 130.808594 164.945312 128.941406 165.25 127.027344 165.246094 C 118.15625 165.246094 110.828125 158.660156 109.667969 150.117188 Z M 109.667969 150.117188 " fill-opacity="1" fill-rule="nonzero"/><g clip-path="url(#5d4912fb10)"><path fill="#00a9a3" d="M 144.542969 147.746094 C 144.546875 149.675781 144.238281 151.550781 143.617188 153.375 C 142.996094 155.199219 142.097656 156.875 140.921875 158.402344 C 143.460938 161.003906 146 163.605469 148.546875 166.207031 C 156.445312 157.601562 158.210938 145.820312 153.269531 135.535156 C 148.628906 125.871094 140.984375 120.277344 129.359375 118.871094 C 129.359375 122.820312 129.351562 126.648438 129.347656 130.402344 C 137.925781 131.535156 144.542969 138.871094 144.542969 147.746094 Z M 144.542969 147.746094 " fill-opacity="1" fill-rule="nonzero"/></g><path fill="#00a9a3" d="M 124.070312 130.496094 L 124.070312 119.492188 C 110.820312 119.460938 98.859375 131.375 98.777344 144.726562 L 109.769531 144.726562 C 111.035156 137.460938 116.789062 131.734375 124.070312 130.496094 Z M 124.070312 130.496094 " fill-opacity="1" fill-rule="nonzero"/></svg>