<svg xmlns="http://www.w3.org/2000/svg" xmlns:xlink="http://www.w3.org/1999/xlink" width="500" zoomAndPan="magnify" viewBox="0 0 375 374.999991" height="500" preserveAspectRatio="xMidYMid meet" version="1.0"><defs><clipPath id="52ddcaecab"><path d="M 40.796875 206 L 48 206 L 48 213 L 40.796875 213 Z M 40.796875 206 " clip-rule="nonzero"/></clipPath><clipPath id="a81b0a91cb"><path d="M 184 206 L 190.796875 206 L 190.796875 213 L 184 213 Z M 184 206 " clip-rule="nonzero"/></clipPath><clipPath id="3d24378c06"><path d="M 71 208 L 75 208 L 75 225.40625 L 71 225.40625 Z M 71 208 " clip-rule="nonzero"/></clipPath><clipPath id="1151627989"><path d="M 100 193.90625 L 103 193.90625 L 103 212 L 100 212 Z M 100 193.90625 " clip-rule="nonzero"/></clipPath><clipPath id="a423106ba1"><path d="M 128 208 L 132 208 L 132 225.40625 L 128 225.40625 Z M 128 208 " clip-rule="nonzero"/></clipPath><clipPath id="b449745188"><path d="M 157 193.90625 L 161 193.90625 L 161 212 L 157 212 Z M 157 193.90625 " clip-rule="nonzero"/></clipPath><clipPath id="46224a0c93"><path d="M 184.203125 206 L 191 206 L 191 213 L 184.203125 213 Z M 184.203125 206 " clip-rule="nonzero"/></clipPath><clipPath id="94fdae2a70"><path d="M 327 206 L 334.203125 206 L 334.203125 213 L 327 213 Z M 327 206 " clip-rule="nonzero"/></clipPath><clipPath id="cbb3d7352a"><path d="M 214 208 L 218 208 L 218 225.40625 L 214 225.40625 Z M 214 208 " clip-rule="nonzero"/></clipPath><clipPath id="fe0ad6ad68"><path d="M 243 193.90625 L 247 193.90625 L 247 212 L 243 212 Z M 243 193.90625 " clip-rule="nonzero"/></clipPath><clipPath id="187fb69229"><path d="M 272 208 L 275 208 L 275 225.40625 L 272 225.40625 Z M 272 208 " clip-rule="nonzero"/></clipPath><clipPath id="ec2a2b8f76"><path d="M 300 193.90625 L 304 193.90625 L 304 212 L 300 212 Z M 300 193.90625 " clip-rule="nonzero"/></clipPath></defs><path fill="#000000" d="M 44.183594 208.652344 L 187.363281 208.652344 C 187.917969 208.652344 188.367188 209.101562 188.367188 209.660156 C 188.367188 210.214844 187.917969 210.664062 187.363281 210.664062 L 44.183594 210.664062 C 43.625 210.664062 43.175781 210.214844 43.175781 209.65625 C 43.175781 209.101562 43.625 208.652344 44.183594 208.652344 Z M 44.183594 208.652344 " fill-opacity="1" fill-rule="nonzero"/><g clip-path="url(#52ddcaecab)"><path fill="#000000" d="M 47.421875 209.65625 L 47.421875 209.660156 C 47.421875 211.449219 45.972656 212.898438 44.183594 212.898438 C 42.390625 212.898438 40.941406 211.449219 40.941406 209.660156 L 40.941406 209.65625 C 40.941406 207.867188 42.390625 206.417969 44.183594 206.417969 C 45.972656 206.417969 47.421875 207.867188 47.421875 209.65625 Z M 47.421875 209.65625 " fill-opacity="1" fill-rule="nonzero"/></g><path fill="#000000" d="M 76.058594 209.65625 L 76.058594 209.660156 C 76.058594 211.449219 74.609375 212.898438 72.816406 212.898438 C 71.027344 212.898438 69.578125 211.449219 69.578125 209.660156 L 69.578125 209.65625 C 69.578125 207.867188 71.027344 206.417969 72.816406 206.417969 C 74.609375 206.417969 76.058594 207.867188 76.058594 209.65625 Z M 76.058594 209.65625 " fill-opacity="1" fill-rule="nonzero"/><path fill="#000000" d="M 104.695312 209.65625 L 104.695312 209.660156 C 104.695312 211.449219 103.246094 212.898438 101.453125 212.898438 C 99.664062 212.898438 98.214844 211.449219 98.214844 209.660156 L 98.214844 209.65625 C 98.214844 207.867188 99.664062 206.417969 101.453125 206.417969 C 103.246094 206.417969 104.695312 207.867188 104.695312 209.65625 Z M 104.695312 209.65625 " fill-opacity="1" fill-rule="nonzero"/><path fill="#000000" d="M 133.332031 209.65625 L 133.332031 209.660156 C 133.332031 211.449219 131.882812 212.898438 130.089844 212.898438 C 128.300781 212.898438 126.847656 211.449219 126.847656 209.660156 L 126.847656 209.65625 C 126.847656 207.867188 128.300781 206.417969 130.089844 206.417969 C 131.882812 206.417969 133.332031 207.867188 133.332031 209.65625 Z M 133.332031 209.65625 " fill-opacity="1" fill-rule="nonzero"/><path fill="#000000" d="M 161.96875 209.65625 L 161.96875 209.660156 C 161.96875 211.449219 160.515625 212.898438 158.726562 212.898438 C 156.9375 212.898438 155.484375 211.449219 155.484375 209.660156 L 155.484375 209.65625 C 155.484375 207.867188 156.9375 206.417969 158.726562 206.417969 C 160.515625 206.417969 161.96875 207.867188 161.96875 209.65625 Z M 161.96875 209.65625 " fill-opacity="1" fill-rule="nonzero"/><g clip-path="url(#a81b0a91cb)"><path fill="#000000" d="M 190.605469 209.65625 L 190.605469 209.660156 C 190.605469 211.449219 189.152344 212.898438 187.363281 212.898438 C 185.574219 212.898438 184.121094 211.449219 184.121094 209.660156 L 184.121094 209.65625 C 184.121094 207.867188 185.574219 206.417969 187.363281 206.417969 C 189.152344 206.417969 190.605469 207.867188 190.605469 209.65625 Z M 190.605469 209.65625 " fill-opacity="1" fill-rule="nonzero"/></g><g clip-path="url(#3d24378c06)"><path fill="#000000" d="M 74.25 209.65625 L 74.25 223.976562 C 74.25 224.765625 73.609375 225.40625 72.816406 225.40625 C 72.027344 225.40625 71.386719 224.765625 71.386719 223.976562 L 71.386719 209.65625 C 71.386719 208.867188 72.027344 208.226562 72.816406 208.226562 C 73.609375 208.226562 74.25 208.867188 74.25 209.65625 Z M 74.25 209.65625 " fill-opacity="0.996" fill-rule="nonzero"/></g><g clip-path="url(#1151627989)"><path fill="#000000" d="M 100.023438 209.65625 L 100.023438 195.339844 C 100.023438 194.550781 100.664062 193.910156 101.453125 193.910156 C 102.246094 193.910156 102.882812 194.550781 102.882812 195.339844 L 102.882812 209.65625 C 102.882812 210.449219 102.246094 211.089844 101.453125 211.089844 C 100.664062 211.089844 100.023438 210.449219 100.023438 209.65625 Z M 100.023438 209.65625 " fill-opacity="0.996" fill-rule="nonzero"/></g><g clip-path="url(#a423106ba1)"><path fill="#000000" d="M 131.519531 209.65625 L 131.519531 223.976562 C 131.519531 224.765625 130.878906 225.40625 130.089844 225.40625 C 129.300781 225.40625 128.660156 224.765625 128.660156 223.976562 L 128.660156 209.65625 C 128.660156 208.867188 129.300781 208.226562 130.089844 208.226562 C 130.878906 208.226562 131.519531 208.867188 131.519531 209.65625 Z M 131.519531 209.65625 " fill-opacity="0.996" fill-rule="nonzero"/></g><g clip-path="url(#b449745188)"><path fill="#000000" d="M 157.296875 209.65625 L 157.296875 195.339844 C 157.296875 194.550781 157.9375 193.910156 158.726562 193.910156 C 159.515625 193.910156 160.15625 194.550781 160.15625 195.339844 L 160.15625 209.65625 C 160.15625 210.449219 159.515625 211.089844 158.726562 211.089844 C 157.9375 211.089844 157.296875 210.449219 157.296875 209.65625 Z M 157.296875 209.65625 " fill-opacity="0.996" fill-rule="nonzero"/></g><path fill="#000000" d="M 187.589844 208.652344 L 330.773438 208.652344 C 331.328125 208.652344 331.777344 209.101562 331.777344 209.660156 C 331.777344 210.214844 331.328125 210.664062 330.773438 210.664062 L 187.589844 210.664062 C 187.035156 210.664062 186.585938 210.214844 186.585938 209.65625 C 186.585938 209.101562 187.035156 208.652344 187.589844 208.652344 Z M 187.589844 208.652344 " fill-opacity="1" fill-rule="nonzero"/><g clip-path="url(#46224a0c93)"><path fill="#000000" d="M 190.832031 209.65625 L 190.832031 209.660156 C 190.832031 211.449219 189.382812 212.898438 187.589844 212.898438 C 185.800781 212.898438 184.351562 211.449219 184.351562 209.660156 L 184.351562 209.65625 C 184.351562 207.867188 185.800781 206.417969 187.589844 206.417969 C 189.382812 206.417969 190.832031 207.867188 190.832031 209.65625 Z M 190.832031 209.65625 " fill-opacity="1" fill-rule="nonzero"/></g><path fill="#000000" d="M 219.46875 209.65625 L 219.46875 209.660156 C 219.46875 211.449219 218.019531 212.898438 216.226562 212.898438 C 214.4375 212.898438 212.988281 211.449219 212.988281 209.660156 L 212.988281 209.65625 C 212.988281 207.867188 214.4375 206.417969 216.226562 206.417969 C 218.019531 206.417969 219.46875 207.867188 219.46875 209.65625 Z M 219.46875 209.65625 " fill-opacity="1" fill-rule="nonzero"/><path fill="#000000" d="M 248.105469 209.65625 L 248.105469 209.660156 C 248.105469 211.449219 246.65625 212.898438 244.863281 212.898438 C 243.074219 212.898438 241.621094 211.449219 241.621094 209.660156 L 241.621094 209.65625 C 241.621094 207.867188 243.074219 206.417969 244.863281 206.417969 C 246.65625 206.417969 248.105469 207.867188 248.105469 209.65625 Z M 248.105469 209.65625 " fill-opacity="1" fill-rule="nonzero"/><path fill="#000000" d="M 276.742188 209.65625 L 276.742188 209.660156 C 276.742188 211.449219 275.289062 212.898438 273.5 212.898438 C 271.710938 212.898438 270.257812 211.449219 270.257812 209.660156 L 270.257812 209.65625 C 270.257812 207.867188 271.710938 206.417969 273.5 206.417969 C 275.289062 206.417969 276.742188 207.867188 276.742188 209.65625 Z M 276.742188 209.65625 " fill-opacity="1" fill-rule="nonzero"/><path fill="#000000" d="M 305.378906 209.65625 L 305.378906 209.660156 C 305.378906 211.449219 303.925781 212.898438 302.136719 212.898438 C 300.347656 212.898438 298.894531 211.449219 298.894531 209.660156 L 298.894531 209.65625 C 298.894531 207.867188 300.347656 206.417969 302.136719 206.417969 C 303.925781 206.417969 305.378906 207.867188 305.378906 209.65625 Z M 305.378906 209.65625 " fill-opacity="1" fill-rule="nonzero"/><g clip-path="url(#94fdae2a70)"><path fill="#000000" d="M 334.015625 209.65625 L 334.015625 209.660156 C 334.015625 211.449219 332.5625 212.898438 330.773438 212.898438 C 328.984375 212.898438 327.53125 211.449219 327.53125 209.660156 L 327.53125 209.65625 C 327.53125 207.867188 328.984375 206.417969 330.773438 206.417969 C 332.5625 206.417969 334.015625 207.867188 334.015625 209.65625 Z M 334.015625 209.65625 " fill-opacity="1" fill-rule="nonzero"/></g><g clip-path="url(#cbb3d7352a)"><path fill="#000000" d="M 217.65625 209.65625 L 217.65625 223.976562 C 217.65625 224.765625 217.019531 225.40625 216.226562 225.40625 C 215.4375 225.40625 214.796875 224.765625 214.796875 223.976562 L 214.796875 209.65625 C 214.796875 208.867188 215.4375 208.226562 216.226562 208.226562 C 217.019531 208.226562 217.65625 208.867188 217.65625 209.65625 Z M 217.65625 209.65625 " fill-opacity="0.996" fill-rule="nonzero"/></g><g clip-path="url(#fe0ad6ad68)"><path fill="#000000" d="M 243.433594 209.65625 L 243.433594 195.339844 C 243.433594 194.550781 244.074219 193.910156 244.863281 193.910156 C 245.652344 193.910156 246.292969 194.550781 246.292969 195.339844 L 246.292969 209.65625 C 246.292969 210.449219 245.652344 211.089844 244.863281 211.089844 C 244.074219 211.089844 243.433594 210.449219 243.433594 209.65625 Z M 243.433594 209.65625 " fill-opacity="0.996" fill-rule="nonzero"/></g><g clip-path="url(#187fb69229)"><path fill="#000000" d="M 274.929688 209.65625 L 274.929688 223.976562 C 274.929688 224.765625 274.289062 225.40625 273.5 225.40625 C 272.710938 225.40625 272.070312 224.765625 272.070312 223.976562 L 272.070312 209.65625 C 272.070312 208.867188 272.710938 208.226562 273.5 208.226562 C 274.289062 208.226562 274.929688 208.867188 274.929688 209.65625 Z M 274.929688 209.65625 " fill-opacity="0.996" fill-rule="nonzero"/></g><g clip-path="url(#ec2a2b8f76)"><path fill="#000000" d="M 300.707031 209.65625 L 300.707031 195.339844 C 300.707031 194.550781 301.347656 193.910156 302.136719 193.910156 C 302.925781 193.910156 303.566406 194.550781 303.566406 195.339844 L 303.566406 209.65625 C 303.566406 210.449219 302.925781 211.089844 302.136719 211.089844 C 301.347656 211.089844 300.707031 210.449219 300.707031 209.65625 Z M 300.707031 209.65625 " fill-opacity="0.996" fill-rule="nonzero"/></g></svg>