<svg xmlns="http://www.w3.org/2000/svg" xmlns:xlink="http://www.w3.org/1999/xlink" width="500" zoomAndPan="magnify" viewBox="0 0 375 374.999991" height="500" preserveAspectRatio="xMidYMid meet" version="1.0"><defs><clipPath id="b802a80e32"><path d="M 48.253906 207.328125 L 60 207.328125 L 60 217.828125 L 48.253906 217.828125 Z M 48.253906 207.328125 " clip-rule="nonzero"/></clipPath><clipPath id="929fe2e3c2"><path d="M 83 207.328125 L 94 207.328125 L 94 217.828125 L 83 217.828125 Z M 83 207.328125 " clip-rule="nonzero"/></clipPath><clipPath id="5dd08982c3"><path d="M 117 207.328125 L 129 207.328125 L 129 217.828125 L 117 217.828125 Z M 117 207.328125 " clip-rule="nonzero"/></clipPath><clipPath id="49706f47bb"><path d="M 152 207.328125 L 164 207.328125 L 164 217.828125 L 152 217.828125 Z M 152 207.328125 " clip-rule="nonzero"/></clipPath><clipPath id="a377560c52"><path d="M 187 207.328125 L 198 207.328125 L 198 217.828125 L 187 217.828125 Z M 187 207.328125 " clip-rule="nonzero"/></clipPath><clipPath id="9a6f817447"><path d="M 187.5 207.328125 L 199 207.328125 L 199 217.828125 L 187.5 217.828125 Z M 187.5 207.328125 " clip-rule="nonzero"/></clipPath><clipPath id="9306110d5a"><path d="M 222 207.328125 L 234 207.328125 L 234 217.828125 L 222 217.828125 Z M 222 207.328125 " clip-rule="nonzero"/></clipPath><clipPath id="c36d7c607d"><path d="M 257 207.328125 L 268 207.328125 L 268 217.828125 L 257 217.828125 Z M 257 207.328125 " clip-rule="nonzero"/></clipPath><clipPath id="ff2f7db5e0"><path d="M 291 207.328125 L 303 207.328125 L 303 217.828125 L 291 217.828125 Z M 291 207.328125 " clip-rule="nonzero"/></clipPath><clipPath id="491c8ec61b"><path d="M 326 207.328125 L 337.5 207.328125 L 337.5 217.828125 L 326 217.828125 Z M 326 207.328125 " clip-rule="nonzero"/></clipPath></defs><g clip-path="url(#b802a80e32)"><path fill="#000000" d="M 59.207031 212.5625 C 59.207031 215.453125 56.832031 217.800781 53.90625 217.800781 C 50.980469 217.800781 48.609375 215.453125 48.609375 212.5625 C 48.609375 209.667969 50.980469 207.324219 53.90625 207.324219 C 56.832031 207.324219 59.207031 209.667969 59.207031 212.5625 M 56.953125 212.5625 C 56.953125 210.898438 55.589844 209.550781 53.90625 209.550781 C 52.226562 209.550781 50.863281 210.898438 50.863281 212.5625 C 50.863281 214.222656 52.226562 215.574219 53.90625 215.574219 C 55.589844 215.574219 56.953125 214.222656 56.953125 212.5625 Z M 56.953125 212.5625 " fill-opacity="0.996" fill-rule="nonzero"/></g><g clip-path="url(#929fe2e3c2)"><path fill="#000000" d="M 93.875 212.5625 C 93.875 215.453125 91.5 217.800781 88.578125 217.800781 C 85.652344 217.800781 83.277344 215.453125 83.277344 212.5625 C 83.277344 209.667969 85.652344 207.324219 88.578125 207.324219 C 91.5 207.324219 93.875 209.667969 93.875 212.5625 M 91.621094 212.5625 C 91.621094 210.898438 90.257812 209.550781 88.578125 209.550781 C 86.894531 209.550781 85.53125 210.898438 85.53125 212.5625 C 85.53125 214.222656 86.894531 215.574219 88.578125 215.574219 C 90.257812 215.574219 91.621094 214.222656 91.621094 212.5625 Z M 91.621094 212.5625 " fill-opacity="0.996" fill-rule="nonzero"/></g><g clip-path="url(#5dd08982c3)"><path fill="#000000" d="M 128.542969 212.5625 C 128.542969 215.453125 126.171875 217.800781 123.246094 217.800781 C 120.320312 217.800781 117.949219 215.453125 117.949219 212.5625 C 117.949219 209.667969 120.320312 207.324219 123.246094 207.324219 C 126.171875 207.324219 128.542969 209.667969 128.542969 212.5625 M 126.289062 212.5625 C 126.289062 210.898438 124.925781 209.550781 123.246094 209.550781 C 121.5625 209.550781 120.199219 210.898438 120.199219 212.5625 C 120.199219 214.222656 121.5625 215.574219 123.246094 215.574219 C 124.925781 215.574219 126.289062 214.222656 126.289062 212.5625 Z M 126.289062 212.5625 " fill-opacity="0.996" fill-rule="nonzero"/></g><g clip-path="url(#49706f47bb)"><path fill="#000000" d="M 157.914062 209.550781 C 159.59375 209.550781 160.957031 210.898438 160.957031 212.5625 C 160.957031 214.222656 159.59375 215.574219 157.914062 215.574219 C 156.230469 215.574219 154.867188 214.222656 154.867188 212.5625 C 154.867188 210.898438 156.230469 209.550781 157.914062 209.550781 Z M 157.914062 207.324219 C 154.988281 207.324219 152.617188 209.667969 152.617188 212.5625 C 152.617188 215.453125 154.988281 217.800781 157.914062 217.800781 C 160.839844 217.800781 163.210938 215.453125 163.210938 212.5625 C 163.210938 209.667969 160.839844 207.324219 157.914062 207.324219 Z M 157.914062 207.324219 " fill-opacity="0.996" fill-rule="nonzero"/></g><g clip-path="url(#a377560c52)"><path fill="#000000" d="M 197.878906 212.5625 C 197.878906 215.453125 195.507812 217.800781 192.582031 217.800781 C 189.65625 217.800781 187.285156 215.453125 187.285156 212.5625 C 187.285156 209.667969 189.65625 207.324219 192.582031 207.324219 C 195.507812 207.324219 197.878906 209.667969 197.878906 212.5625 M 195.625 212.5625 C 195.625 210.898438 194.261719 209.550781 192.582031 209.550781 C 190.898438 209.550781 189.535156 210.898438 189.535156 212.5625 C 189.535156 214.222656 190.898438 215.574219 192.582031 215.574219 C 194.261719 215.574219 195.625 214.222656 195.625 212.5625 Z M 195.625 212.5625 " fill-opacity="0.996" fill-rule="nonzero"/></g><path fill="#000000" d="M 126.226562 211.917969 L 126.21875 211.917969 C 126.265625 212.125 126.289062 212.339844 126.289062 212.5625 C 126.289062 212.976562 126.207031 213.371094 126.050781 213.730469 L 126.058594 213.730469 L 128.402344 213.726562 L 128.40625 213.726562 L 128.402344 213.726562 L 128.410156 213.726562 L 128.417969 213.730469 L 152.742188 213.726562 L 152.746094 213.726562 C 152.746094 213.726562 152.746094 213.730469 152.746094 213.730469 L 152.753906 213.730469 L 155.097656 213.726562 L 155.105469 213.726562 C 154.953125 213.367188 154.867188 212.972656 154.867188 212.5625 C 154.867188 212.339844 154.890625 212.128906 154.9375 211.921875 L 152.664062 211.917969 L 152.65625 211.917969 L 152.664062 211.921875 L 152.65625 211.921875 C 152.65625 211.921875 152.65625 211.917969 152.65625 211.917969 L 128.503906 211.917969 C 128.503906 211.917969 128.503906 211.917969 128.503906 211.921875 Z M 126.226562 211.917969 " fill-opacity="0.996" fill-rule="nonzero"/><path fill="#000000" d="M 160.886719 211.917969 C 160.933594 212.125 160.957031 212.339844 160.957031 212.5625 C 160.957031 212.972656 160.875 213.367188 160.722656 213.726562 L 160.714844 213.726562 L 160.722656 213.726562 L 160.726562 213.730469 L 163.070312 213.726562 L 163.078125 213.726562 C 163.078125 213.726562 163.078125 213.726562 163.078125 213.730469 L 163.085938 213.730469 L 187.410156 213.726562 L 187.414062 213.726562 C 187.414062 213.726562 187.417969 213.726562 187.417969 213.730469 L 187.421875 213.730469 L 189.765625 213.726562 L 189.773438 213.726562 C 189.621094 213.367188 189.535156 212.972656 189.535156 212.5625 C 189.535156 212.339844 189.558594 212.125 189.605469 211.917969 L 187.324219 211.917969 L 187.332031 211.917969 L 187.324219 211.921875 L 163.175781 211.917969 L 163.171875 211.917969 C 163.171875 211.917969 163.171875 211.917969 163.171875 211.921875 L 160.894531 211.917969 Z M 160.886719 211.917969 " fill-opacity="0.996" fill-rule="nonzero"/><path fill="#000000" d="M 93.839844 211.917969 L 91.550781 211.917969 C 91.597656 212.125 91.621094 212.339844 91.621094 212.5625 C 91.621094 212.976562 91.539062 213.371094 91.382812 213.726562 L 91.390625 213.730469 L 93.734375 213.726562 L 93.738281 213.726562 L 93.734375 213.726562 L 93.742188 213.726562 L 93.746094 213.730469 L 118.070312 213.726562 L 118.078125 213.726562 L 118.085938 213.730469 L 120.429688 213.726562 L 120.433594 213.726562 C 120.285156 213.367188 120.199219 212.972656 120.199219 212.5625 C 120.199219 212.339844 120.222656 212.125 120.269531 211.917969 L 117.988281 211.917969 L 117.992188 211.917969 L 117.988281 211.921875 C 117.988281 211.921875 117.988281 211.917969 117.988281 211.917969 Z M 93.839844 211.917969 " fill-opacity="0.996" fill-rule="nonzero"/><path fill="#000000" d="M 83.320312 211.917969 L 83.324219 211.917969 L 83.320312 211.917969 L 83.316406 211.921875 C 83.316406 211.917969 83.320312 211.917969 83.320312 211.917969 L 83.324219 211.917969 L 56.882812 211.917969 C 56.929688 212.125 56.953125 212.339844 56.953125 212.5625 C 56.953125 212.976562 56.867188 213.367188 56.714844 213.726562 L 85.765625 213.726562 C 85.613281 213.367188 85.53125 212.972656 85.53125 212.5625 C 85.53125 212.339844 85.554688 212.125 85.601562 211.917969 L 85.605469 211.917969 Z M 83.320312 211.917969 " fill-opacity="0.996" fill-rule="nonzero"/><g clip-path="url(#9a6f817447)"><path fill="#000000" d="M 198.453125 212.5625 C 198.453125 215.453125 196.078125 217.800781 193.152344 217.800781 C 190.230469 217.800781 187.855469 215.453125 187.855469 212.5625 C 187.855469 209.667969 190.230469 207.324219 193.152344 207.324219 C 196.078125 207.324219 198.453125 209.667969 198.453125 212.5625 M 196.199219 212.5625 C 196.199219 210.898438 194.835938 209.550781 193.152344 209.550781 C 191.472656 209.550781 190.109375 210.898438 190.109375 212.5625 C 190.109375 214.222656 191.472656 215.574219 193.152344 215.574219 C 194.835938 215.574219 196.199219 214.222656 196.199219 212.5625 Z M 196.199219 212.5625 " fill-opacity="0.996" fill-rule="nonzero"/></g><g clip-path="url(#9306110d5a)"><path fill="#000000" d="M 233.121094 212.5625 C 233.121094 215.453125 230.75 217.800781 227.824219 217.800781 C 224.898438 217.800781 222.527344 215.453125 222.527344 212.5625 C 222.527344 209.667969 224.898438 207.324219 227.824219 207.324219 C 230.75 207.324219 233.121094 209.667969 233.121094 212.5625 M 230.867188 212.5625 C 230.867188 210.898438 229.503906 209.550781 227.824219 209.550781 C 226.140625 209.550781 224.777344 210.898438 224.777344 212.5625 C 224.777344 214.222656 226.140625 215.574219 227.824219 215.574219 C 229.503906 215.574219 230.867188 214.222656 230.867188 212.5625 Z M 230.867188 212.5625 " fill-opacity="0.996" fill-rule="nonzero"/></g><g clip-path="url(#c36d7c607d)"><path fill="#000000" d="M 267.789062 212.5625 C 267.789062 215.453125 265.417969 217.800781 262.492188 217.800781 C 259.566406 217.800781 257.195312 215.453125 257.195312 212.5625 C 257.195312 209.667969 259.566406 207.324219 262.492188 207.324219 C 265.417969 207.324219 267.789062 209.667969 267.789062 212.5625 M 265.535156 212.5625 C 265.535156 210.898438 264.171875 209.550781 262.492188 209.550781 C 260.808594 209.550781 259.445312 210.898438 259.445312 212.5625 C 259.445312 214.222656 260.808594 215.574219 262.492188 215.574219 C 264.171875 215.574219 265.535156 214.222656 265.535156 212.5625 Z M 265.535156 212.5625 " fill-opacity="0.996" fill-rule="nonzero"/></g><g clip-path="url(#ff2f7db5e0)"><path fill="#000000" d="M 297.160156 209.550781 C 298.839844 209.550781 300.203125 210.898438 300.203125 212.5625 C 300.203125 214.222656 298.839844 215.574219 297.160156 215.574219 C 295.476562 215.574219 294.113281 214.222656 294.113281 212.5625 C 294.113281 210.898438 295.476562 209.550781 297.160156 209.550781 Z M 297.160156 207.324219 C 294.234375 207.324219 291.863281 209.667969 291.863281 212.5625 C 291.863281 215.453125 294.234375 217.800781 297.160156 217.800781 C 300.085938 217.800781 302.457031 215.453125 302.457031 212.5625 C 302.457031 209.667969 300.085938 207.324219 297.160156 207.324219 Z M 297.160156 207.324219 " fill-opacity="0.996" fill-rule="nonzero"/></g><g clip-path="url(#491c8ec61b)"><path fill="#000000" d="M 337.125 212.5625 C 337.125 215.453125 334.753906 217.800781 331.828125 217.800781 C 328.902344 217.800781 326.53125 215.453125 326.53125 212.5625 C 326.53125 209.667969 328.902344 207.324219 331.828125 207.324219 C 334.753906 207.324219 337.125 209.667969 337.125 212.5625 M 334.871094 212.5625 C 334.871094 210.898438 333.507812 209.550781 331.828125 209.550781 C 330.144531 209.550781 328.78125 210.898438 328.78125 212.5625 C 328.78125 214.222656 330.144531 215.574219 331.828125 215.574219 C 333.507812 215.574219 334.871094 214.222656 334.871094 212.5625 Z M 334.871094 212.5625 " fill-opacity="0.996" fill-rule="nonzero"/></g><path fill="#000000" d="M 265.472656 211.917969 L 265.464844 211.917969 C 265.511719 212.125 265.535156 212.339844 265.535156 212.5625 C 265.535156 212.976562 265.453125 213.371094 265.296875 213.730469 L 265.304688 213.730469 L 267.648438 213.726562 L 267.652344 213.726562 L 267.648438 213.726562 L 267.65625 213.726562 L 267.664062 213.730469 L 291.988281 213.726562 L 291.992188 213.726562 C 291.992188 213.726562 291.992188 213.730469 291.996094 213.730469 L 292 213.730469 L 294.34375 213.726562 L 294.351562 213.726562 C 294.199219 213.367188 294.113281 212.972656 294.113281 212.5625 C 294.113281 212.339844 294.136719 212.128906 294.183594 211.921875 L 291.910156 211.917969 L 291.902344 211.917969 L 291.910156 211.921875 L 291.902344 211.921875 C 291.902344 211.921875 291.902344 211.917969 291.902344 211.917969 L 267.75 211.917969 C 267.75 211.917969 267.75 211.917969 267.75 211.921875 Z M 265.472656 211.917969 " fill-opacity="0.996" fill-rule="nonzero"/><path fill="#000000" d="M 300.136719 211.917969 C 300.179688 212.125 300.203125 212.339844 300.203125 212.5625 C 300.203125 212.972656 300.121094 213.367188 299.96875 213.726562 L 299.960938 213.726562 L 299.96875 213.726562 L 299.972656 213.730469 L 302.316406 213.726562 L 302.324219 213.726562 C 302.324219 213.726562 302.324219 213.726562 302.324219 213.730469 L 302.332031 213.730469 L 326.65625 213.726562 L 326.660156 213.726562 C 326.664062 213.726562 326.664062 213.726562 326.664062 213.730469 L 326.667969 213.730469 L 329.011719 213.726562 L 329.019531 213.726562 C 328.867188 213.367188 328.78125 212.972656 328.78125 212.5625 C 328.78125 212.339844 328.804688 212.125 328.851562 211.917969 L 326.570312 211.917969 L 326.578125 211.917969 L 326.570312 211.921875 L 302.425781 211.917969 L 302.417969 211.917969 C 302.417969 211.917969 302.417969 211.917969 302.417969 211.921875 L 300.140625 211.917969 Z M 300.136719 211.917969 " fill-opacity="0.996" fill-rule="nonzero"/><path fill="#000000" d="M 233.085938 211.917969 L 230.796875 211.917969 C 230.84375 212.125 230.867188 212.339844 230.867188 212.5625 C 230.867188 212.976562 230.785156 213.371094 230.628906 213.726562 L 230.636719 213.730469 L 232.980469 213.726562 L 232.984375 213.726562 L 232.980469 213.726562 L 232.988281 213.726562 L 232.996094 213.730469 L 257.320312 213.726562 L 257.324219 213.726562 L 257.332031 213.730469 L 259.675781 213.726562 L 259.683594 213.726562 C 259.53125 213.367188 259.445312 212.972656 259.445312 212.5625 C 259.445312 212.339844 259.46875 212.125 259.515625 211.917969 L 257.234375 211.917969 L 257.238281 211.917969 L 257.234375 211.921875 C 257.234375 211.921875 257.234375 211.917969 257.234375 211.917969 Z M 233.085938 211.917969 " fill-opacity="0.996" fill-rule="nonzero"/><path fill="#000000" d="M 222.566406 211.917969 L 222.570312 211.917969 L 222.566406 211.917969 L 222.566406 211.921875 C 222.566406 211.917969 222.566406 211.917969 222.566406 211.917969 L 222.570312 211.917969 L 198.410156 211.917969 C 198.410156 211.917969 198.410156 211.917969 198.414062 211.917969 L 196.128906 211.917969 C 196.175781 212.125 196.199219 212.339844 196.199219 212.5625 C 196.199219 212.976562 196.113281 213.367188 195.960938 213.726562 L 225.011719 213.726562 C 224.863281 213.367188 224.777344 212.972656 224.777344 212.5625 C 224.777344 212.339844 224.800781 212.125 224.847656 211.917969 L 224.851562 211.917969 Z M 222.566406 211.917969 " fill-opacity="0.996" fill-rule="nonzero"/></svg>