<svg xmlns="http://www.w3.org/2000/svg" xmlns:xlink="http://www.w3.org/1999/xlink" width="500" zoomAndPan="magnify" viewBox="0 0 375 374.999991" height="500" preserveAspectRatio="xMidYMid meet" version="1.0"><defs><clipPath id="c148b836de"><path d="M 100.355469 100.355469 L 274.355469 100.355469 L 274.355469 274.355469 L 100.355469 274.355469 Z M 100.355469 100.355469 " clip-rule="nonzero"/></clipPath><clipPath id="670185367b"><path d="M 187.496094 100.355469 C 139.371094 100.355469 100.355469 139.371094 100.355469 187.496094 C 100.355469 235.621094 139.371094 274.636719 187.496094 274.636719 C 235.621094 274.636719 274.636719 235.621094 274.636719 187.496094 C 274.636719 139.371094 235.621094 100.355469 187.496094 100.355469 Z M 187.496094 100.355469 " clip-rule="nonzero"/></clipPath></defs><g clip-path="url(#c148b836de)"><g clip-path="url(#670185367b)"><path stroke-linecap="butt" transform="matrix(0.75, 0, 0, 0.75, 100.355117, 100.35512)" fill="none" stroke-linejoin="miter" d="M 116.187976 0.000465253 C 52.021306 0.000465253 0.000468853 52.021302 0.000468853 116.187973 C 0.000468853 180.354644 52.021306 232.375481 116.187976 232.375481 C 180.354647 232.375481 232.375484 180.354644 232.375484 116.187973 C 232.375484 52.021302 180.354647 0.000465253 116.187976 0.000465253 Z M 116.187976 0.000465253 " stroke="#000000" stroke-width="8" stroke-opacity="1" stroke-miterlimit="4"/></g></g></svg>