<svg xmlns="http://www.w3.org/2000/svg" xmlns:xlink="http://www.w3.org/1999/xlink" width="500" zoomAndPan="magnify" viewBox="0 0 375 374.999991" height="500" preserveAspectRatio="xMidYMid meet" version="1.0"><defs><clipPath id="ac5c83d319"><path d="M 131.25 131.25 L 243.75 131.25 L 243.75 243.75 L 131.25 243.75 Z M 131.25 131.25 " clip-rule="nonzero"/></clipPath><clipPath id="4288a665c1"><path d="M 187.5 131.25 C 156.433594 131.25 131.25 156.433594 131.25 187.5 C 131.25 218.566406 156.433594 243.75 187.5 243.75 C 218.566406 243.75 243.75 218.566406 243.75 187.5 C 243.75 156.433594 218.566406 131.25 187.5 131.25 Z M 187.5 131.25 " clip-rule="nonzero"/></clipPath></defs><g clip-path="url(#ac5c83d319)"><g clip-path="url(#4288a665c1)"><path stroke-linecap="butt" transform="matrix(0.75, 0, 0, 0.75, 131.249996, 131.249991)" fill="none" stroke-linejoin="miter" d="M 75.00001 0.0000114917 C 33.578133 0.0000114917 0.00000549167 33.578139 0.00000549167 75.000016 C 0.00000549167 116.421894 33.578133 150.000021 75.00001 150.000021 C 116.421888 150.000021 150.000015 116.421894 150.000015 75.000016 C 150.000015 33.578139 116.421888 0.0000114917 75.00001 0.0000114917 Z M 75.00001 0.0000114917 " stroke="#000000" stroke-width="8" stroke-opacity="1" stroke-miterlimit="4"/></g></g></svg>