<svg xmlns="http://www.w3.org/2000/svg" xmlns:xlink="http://www.w3.org/1999/xlink" width="500" zoomAndPan="magnify" viewBox="0 0 375 374.999991" height="500" preserveAspectRatio="xMidYMid meet" version="1.0"><defs><clipPath id="7c3031330b"><path d="M 194 112.5 L 197 112.5 L 197 115 L 194 115 Z M 194 112.5 " clip-rule="nonzero"/></clipPath><clipPath id="263ecd4547"><path d="M 123.703125 183 L 126 183 L 126 185 L 123.703125 185 Z M 123.703125 183 " clip-rule="nonzero"/></clipPath><clipPath id="7b431f35ce"><path d="M 192 260 L 194 260 L 194 262.5 L 192 262.5 Z M 192 260 " clip-rule="nonzero"/></clipPath><clipPath id="5eb688111f"><path d="M 248 169 L 251.203125 169 L 251.203125 172 L 248 172 Z M 248 169 " clip-rule="nonzero"/></clipPath></defs><path fill="#000000" d="M 139.035156 199.929688 C 139.035156 200.066406 139.007812 200.199219 138.957031 200.324219 C 138.90625 200.453125 138.832031 200.5625 138.734375 200.660156 C 138.636719 200.757812 138.523438 200.832031 138.398438 200.882812 C 138.273438 200.9375 138.140625 200.960938 138.003906 200.960938 C 137.867188 200.960938 137.738281 200.9375 137.609375 200.882812 C 137.484375 200.832031 137.371094 200.757812 137.277344 200.660156 C 137.179688 200.5625 137.105469 200.453125 137.050781 200.324219 C 137 200.199219 136.972656 200.066406 136.972656 199.929688 C 136.972656 199.792969 137 199.664062 137.050781 199.535156 C 137.105469 199.410156 137.179688 199.296875 137.277344 199.203125 C 137.371094 199.105469 137.484375 199.03125 137.609375 198.976562 C 137.738281 198.925781 137.867188 198.898438 138.003906 198.898438 C 138.140625 198.898438 138.273438 198.925781 138.398438 198.976562 C 138.523438 199.03125 138.636719 199.105469 138.734375 199.203125 C 138.832031 199.296875 138.90625 199.410156 138.957031 199.535156 C 139.007812 199.664062 139.035156 199.792969 139.035156 199.929688 Z M 139.035156 199.929688 " fill-opacity="1" fill-rule="nonzero"/><path fill="#000000" d="M 175.582031 237.042969 C 175.582031 237.199219 175.527344 237.332031 175.417969 237.441406 C 175.308594 237.550781 175.175781 237.605469 175.019531 237.605469 C 174.867188 237.605469 174.734375 237.550781 174.625 237.441406 C 174.511719 237.332031 174.457031 237.199219 174.457031 237.042969 C 174.457031 236.886719 174.511719 236.753906 174.625 236.644531 C 174.734375 236.535156 174.867188 236.480469 175.019531 236.480469 C 175.175781 236.480469 175.308594 236.535156 175.417969 236.644531 C 175.527344 236.753906 175.582031 236.886719 175.582031 237.042969 Z M 175.582031 237.042969 " fill-opacity="1" fill-rule="nonzero"/><path fill="#000000" d="M 201.210938 145.804688 C 201.210938 146 201.140625 146.164062 201.003906 146.304688 C 200.867188 146.441406 200.703125 146.507812 200.507812 146.507812 C 200.3125 146.507812 200.148438 146.441406 200.011719 146.304688 C 199.875 146.164062 199.804688 146 199.804688 145.804688 C 199.804688 145.613281 199.875 145.445312 200.011719 145.308594 C 200.148438 145.171875 200.3125 145.101562 200.507812 145.101562 C 200.703125 145.101562 200.867188 145.171875 201.003906 145.308594 C 201.140625 145.445312 201.210938 145.613281 201.210938 145.804688 Z M 201.210938 145.804688 " fill-opacity="1" fill-rule="nonzero"/><path fill="#000000" d="M 174.882812 156.496094 C 174.882812 156.675781 174.820312 156.832031 174.691406 156.960938 C 174.5625 157.089844 174.410156 157.152344 174.226562 157.152344 C 174.046875 157.152344 173.890625 157.089844 173.765625 156.960938 C 173.636719 156.832031 173.570312 156.675781 173.570312 156.496094 C 173.570312 156.316406 173.636719 156.160156 173.765625 156.03125 C 173.890625 155.902344 174.046875 155.839844 174.226562 155.839844 C 174.410156 155.839844 174.5625 155.902344 174.691406 156.03125 C 174.820312 156.160156 174.882812 156.316406 174.882812 156.496094 Z M 174.882812 156.496094 " fill-opacity="1" fill-rule="nonzero"/><path fill="#000000" d="M 161.726562 228.644531 C 161.726562 228.777344 161.679688 228.886719 161.589844 228.976562 C 161.496094 229.070312 161.386719 229.113281 161.257812 229.113281 C 161.128906 229.113281 161.019531 229.070312 160.925781 228.976562 C 160.835938 228.886719 160.789062 228.777344 160.789062 228.644531 C 160.789062 228.515625 160.835938 228.40625 160.925781 228.316406 C 161.019531 228.222656 161.128906 228.175781 161.257812 228.175781 C 161.386719 228.175781 161.496094 228.222656 161.589844 228.316406 C 161.679688 228.40625 161.726562 228.515625 161.726562 228.644531 Z M 161.726562 228.644531 " fill-opacity="1" fill-rule="nonzero"/><path fill="#000000" d="M 214.777344 253.550781 C 214.777344 253.707031 214.722656 253.839844 214.613281 253.949219 C 214.5 254.058594 214.367188 254.113281 214.214844 254.113281 C 214.058594 254.113281 213.925781 254.058594 213.816406 253.949219 C 213.707031 253.839844 213.652344 253.707031 213.652344 253.550781 C 213.652344 253.394531 213.707031 253.261719 213.816406 253.152344 C 213.925781 253.042969 214.058594 252.988281 214.214844 252.988281 C 214.367188 252.988281 214.5 253.042969 214.613281 253.152344 C 214.722656 253.261719 214.777344 253.394531 214.777344 253.550781 Z M 214.777344 253.550781 " fill-opacity="1" fill-rule="nonzero"/><path fill="#000000" d="M 238.785156 174.242188 C 238.785156 174.515625 238.691406 174.746094 238.5 174.941406 C 238.304688 175.132812 238.074219 175.226562 237.804688 175.226562 C 237.53125 175.226562 237.300781 175.132812 237.105469 174.941406 C 236.914062 174.746094 236.820312 174.515625 236.820312 174.242188 C 236.820312 173.972656 236.914062 173.738281 237.105469 173.546875 C 237.300781 173.355469 237.53125 173.257812 237.804688 173.257812 C 238.074219 173.257812 238.304688 173.355469 238.5 173.546875 C 238.691406 173.738281 238.785156 173.972656 238.785156 174.242188 Z M 238.785156 174.242188 " fill-opacity="1" fill-rule="nonzero"/><path fill="#000000" d="M 190.019531 193.007812 C 190.019531 193.144531 189.996094 193.277344 189.941406 193.402344 C 189.890625 193.53125 189.816406 193.640625 189.71875 193.738281 C 189.621094 193.835938 189.511719 193.910156 189.386719 193.960938 C 189.257812 194.015625 189.128906 194.039062 188.992188 194.039062 C 188.855469 194.039062 188.722656 194.015625 188.597656 193.960938 C 188.46875 193.910156 188.359375 193.835938 188.261719 193.738281 C 188.164062 193.640625 188.089844 193.53125 188.039062 193.402344 C 187.988281 193.277344 187.960938 193.144531 187.960938 193.007812 C 187.960938 192.871094 187.988281 192.742188 188.039062 192.613281 C 188.089844 192.488281 188.164062 192.375 188.261719 192.28125 C 188.359375 192.183594 188.46875 192.109375 188.597656 192.054688 C 188.722656 192.003906 188.855469 191.976562 188.992188 191.976562 C 189.128906 191.976562 189.257812 192.003906 189.386719 192.054688 C 189.511719 192.109375 189.621094 192.183594 189.71875 192.28125 C 189.816406 192.375 189.890625 192.488281 189.941406 192.613281 C 189.996094 192.742188 190.019531 192.871094 190.019531 193.007812 Z M 190.019531 193.007812 " fill-opacity="1" fill-rule="nonzero"/><path fill="#000000" d="M 163.667969 190.726562 C 163.667969 190.972656 163.578125 191.183594 163.40625 191.355469 C 163.230469 191.53125 163.023438 191.617188 162.777344 191.617188 C 162.53125 191.617188 162.320312 191.53125 162.148438 191.355469 C 161.972656 191.183594 161.886719 190.972656 161.886719 190.726562 C 161.886719 190.480469 161.972656 190.273438 162.148438 190.097656 C 162.320312 189.921875 162.53125 189.835938 162.777344 189.835938 C 163.023438 189.835938 163.230469 189.921875 163.40625 190.097656 C 163.578125 190.273438 163.667969 190.480469 163.667969 190.726562 Z M 163.667969 190.726562 " fill-opacity="1" fill-rule="nonzero"/><path fill="#000000" d="M 182.464844 193.738281 C 182.464844 193.882812 182.414062 194.003906 182.3125 194.105469 C 182.210938 194.207031 182.089844 194.253906 181.949219 194.253906 C 181.804688 194.253906 181.683594 194.207031 181.585938 194.105469 C 181.484375 194.003906 181.433594 193.882812 181.433594 193.738281 C 181.433594 193.597656 181.484375 193.476562 181.585938 193.375 C 181.683594 193.273438 181.804688 193.222656 181.949219 193.222656 C 182.089844 193.222656 182.210938 193.273438 182.3125 193.375 C 182.414062 193.476562 182.464844 193.597656 182.464844 193.738281 Z M 182.464844 193.738281 " fill-opacity="1" fill-rule="nonzero"/><path fill="#000000" d="M 161.753906 249.941406 C 161.753906 250.121094 161.691406 250.277344 161.5625 250.40625 C 161.433594 250.535156 161.28125 250.597656 161.097656 250.597656 C 160.917969 250.597656 160.761719 250.535156 160.636719 250.40625 C 160.507812 250.277344 160.441406 250.121094 160.441406 249.941406 C 160.441406 249.761719 160.507812 249.605469 160.636719 249.476562 C 160.761719 249.347656 160.917969 249.285156 161.097656 249.285156 C 161.28125 249.285156 161.433594 249.347656 161.5625 249.476562 C 161.691406 249.605469 161.753906 249.761719 161.753906 249.941406 Z M 161.753906 249.941406 " fill-opacity="1" fill-rule="nonzero"/><path fill="#000000" d="M 250.304688 140.179688 C 250.304688 140.308594 250.257812 140.417969 250.164062 140.511719 C 250.074219 140.601562 249.964844 140.648438 249.835938 140.648438 C 249.707031 140.648438 249.59375 140.601562 249.503906 140.511719 C 249.410156 140.417969 249.367188 140.308594 249.367188 140.179688 C 249.367188 140.050781 249.410156 139.941406 249.503906 139.847656 C 249.59375 139.757812 249.707031 139.710938 249.835938 139.710938 C 249.964844 139.710938 250.074219 139.757812 250.164062 139.847656 C 250.257812 139.941406 250.304688 140.050781 250.304688 140.179688 Z M 250.304688 140.179688 " fill-opacity="1" fill-rule="nonzero"/><path fill="#000000" d="M 234.335938 253.304688 C 234.335938 253.441406 234.308594 253.570312 234.257812 253.699219 C 234.207031 253.824219 234.132812 253.933594 234.035156 254.03125 C 233.9375 254.128906 233.828125 254.203125 233.699219 254.253906 C 233.574219 254.308594 233.441406 254.335938 233.304688 254.335938 C 233.167969 254.335938 233.039062 254.308594 232.910156 254.253906 C 232.785156 254.203125 232.671875 254.128906 232.578125 254.03125 C 232.480469 253.933594 232.40625 253.824219 232.355469 253.699219 C 232.300781 253.570312 232.273438 253.441406 232.273438 253.304688 C 232.273438 253.167969 232.300781 253.035156 232.355469 252.910156 C 232.40625 252.78125 232.480469 252.671875 232.578125 252.574219 C 232.671875 252.476562 232.785156 252.402344 232.910156 252.351562 C 233.039062 252.296875 233.167969 252.273438 233.304688 252.273438 C 233.441406 252.273438 233.574219 252.296875 233.699219 252.351562 C 233.828125 252.402344 233.9375 252.476562 234.035156 252.574219 C 234.132812 252.671875 234.207031 252.78125 234.257812 252.910156 C 234.308594 253.035156 234.335938 253.167969 234.335938 253.304688 Z M 234.335938 253.304688 " fill-opacity="1" fill-rule="nonzero"/><path fill="#000000" d="M 163.214844 212.542969 C 163.214844 212.671875 163.171875 212.78125 163.078125 212.875 C 162.988281 212.964844 162.875 213.011719 162.746094 213.011719 C 162.617188 213.011719 162.507812 212.964844 162.417969 212.875 C 162.324219 212.78125 162.277344 212.671875 162.277344 212.542969 C 162.277344 212.414062 162.324219 212.300781 162.417969 212.210938 C 162.507812 212.117188 162.617188 212.074219 162.746094 212.074219 C 162.875 212.074219 162.988281 212.117188 163.078125 212.210938 C 163.171875 212.300781 163.214844 212.414062 163.214844 212.542969 Z M 163.214844 212.542969 " fill-opacity="1" fill-rule="nonzero"/><path fill="#000000" d="M 223.21875 227.984375 C 223.21875 228.167969 223.183594 228.339844 223.113281 228.507812 C 223.042969 228.671875 222.945312 228.820312 222.820312 228.949219 C 222.691406 229.074219 222.542969 229.171875 222.378906 229.242188 C 222.210938 229.3125 222.039062 229.34375 221.859375 229.34375 C 221.679688 229.34375 221.503906 229.3125 221.339844 229.242188 C 221.171875 229.171875 221.023438 229.074219 220.898438 228.949219 C 220.769531 228.820312 220.671875 228.671875 220.601562 228.507812 C 220.535156 228.339844 220.5 228.167969 220.5 227.984375 C 220.5 227.804688 220.535156 227.632812 220.601562 227.464844 C 220.671875 227.300781 220.769531 227.152344 220.898438 227.023438 C 221.023438 226.898438 221.171875 226.800781 221.339844 226.730469 C 221.503906 226.660156 221.679688 226.625 221.859375 226.625 C 222.039062 226.625 222.210938 226.660156 222.378906 226.730469 C 222.542969 226.800781 222.691406 226.898438 222.820312 227.023438 C 222.945312 227.152344 223.042969 227.300781 223.113281 227.464844 C 223.183594 227.632812 223.21875 227.804688 223.21875 227.984375 Z M 223.21875 227.984375 " fill-opacity="1" fill-rule="nonzero"/><path fill="#000000" d="M 141.996094 192.351562 C 141.996094 192.535156 141.929688 192.6875 141.800781 192.816406 C 141.675781 192.945312 141.519531 193.007812 141.339844 193.007812 C 141.15625 193.007812 141.003906 192.945312 140.875 192.816406 C 140.746094 192.6875 140.683594 192.535156 140.683594 192.351562 C 140.683594 192.171875 140.746094 192.015625 140.875 191.890625 C 141.003906 191.761719 141.15625 191.695312 141.339844 191.695312 C 141.519531 191.695312 141.675781 191.761719 141.800781 191.890625 C 141.929688 192.015625 141.996094 192.171875 141.996094 192.351562 Z M 141.996094 192.351562 " fill-opacity="1" fill-rule="nonzero"/><path fill="#000000" d="M 222.347656 243.722656 C 222.347656 243.941406 222.269531 244.128906 222.113281 244.285156 C 221.957031 244.441406 221.769531 244.519531 221.550781 244.519531 C 221.328125 244.519531 221.140625 244.441406 220.988281 244.285156 C 220.832031 244.128906 220.753906 243.941406 220.753906 243.722656 C 220.753906 243.5 220.832031 243.3125 220.988281 243.160156 C 221.140625 243.003906 221.328125 242.925781 221.550781 242.925781 C 221.769531 242.925781 221.957031 243.003906 222.113281 243.160156 C 222.269531 243.3125 222.347656 243.5 222.347656 243.722656 Z M 222.347656 243.722656 " fill-opacity="1" fill-rule="nonzero"/><path fill="#000000" d="M 142.578125 221.546875 C 142.578125 221.816406 142.480469 222.050781 142.289062 222.242188 C 142.097656 222.433594 141.863281 222.53125 141.59375 222.53125 C 141.320312 222.53125 141.089844 222.433594 140.898438 222.242188 C 140.707031 222.050781 140.609375 221.816406 140.609375 221.546875 C 140.609375 221.273438 140.707031 221.042969 140.898438 220.851562 C 141.089844 220.65625 141.320312 220.5625 141.59375 220.5625 C 141.863281 220.5625 142.097656 220.65625 142.289062 220.851562 C 142.480469 221.042969 142.578125 221.273438 142.578125 221.546875 Z M 142.578125 221.546875 " fill-opacity="1" fill-rule="nonzero"/><path fill="#000000" d="M 218.949219 158.171875 C 218.949219 158.351562 218.886719 158.507812 218.757812 158.636719 C 218.628906 158.761719 218.476562 158.828125 218.292969 158.828125 C 218.113281 158.828125 217.960938 158.761719 217.832031 158.636719 C 217.703125 158.507812 217.640625 158.351562 217.640625 158.171875 C 217.640625 157.988281 217.703125 157.835938 217.832031 157.707031 C 217.960938 157.578125 218.113281 157.515625 218.292969 157.515625 C 218.476562 157.515625 218.628906 157.578125 218.757812 157.707031 C 218.886719 157.835938 218.949219 157.988281 218.949219 158.171875 Z M 218.949219 158.171875 " fill-opacity="1" fill-rule="nonzero"/><path fill="#000000" d="M 211.25 246.375 C 211.25 246.539062 211.21875 246.691406 211.160156 246.84375 C 211.097656 246.992188 211.007812 247.125 210.894531 247.238281 C 210.78125 247.351562 210.648438 247.441406 210.5 247.503906 C 210.351562 247.5625 210.195312 247.59375 210.03125 247.59375 C 209.871094 247.59375 209.714844 247.5625 209.566406 247.503906 C 209.417969 247.441406 209.285156 247.351562 209.171875 247.238281 C 209.058594 247.125 208.96875 246.992188 208.90625 246.84375 C 208.847656 246.691406 208.816406 246.539062 208.816406 246.375 C 208.816406 246.214844 208.847656 246.058594 208.90625 245.910156 C 208.96875 245.761719 209.058594 245.628906 209.171875 245.515625 C 209.285156 245.398438 209.417969 245.3125 209.566406 245.25 C 209.714844 245.1875 209.871094 245.15625 210.03125 245.15625 C 210.195312 245.15625 210.351562 245.1875 210.5 245.25 C 210.648438 245.3125 210.78125 245.398438 210.894531 245.515625 C 211.007812 245.628906 211.097656 245.761719 211.160156 245.910156 C 211.21875 246.058594 211.25 246.214844 211.25 246.375 Z M 211.25 246.375 " fill-opacity="1" fill-rule="nonzero"/><path fill="#000000" d="M 208.875 198.667969 C 208.875 198.769531 208.839844 198.859375 208.765625 198.933594 C 208.691406 199.003906 208.601562 199.042969 208.5 199.042969 C 208.394531 199.042969 208.308594 199.003906 208.234375 198.933594 C 208.160156 198.859375 208.125 198.769531 208.125 198.667969 C 208.125 198.5625 208.160156 198.476562 208.234375 198.402344 C 208.308594 198.328125 208.394531 198.292969 208.5 198.292969 C 208.601562 198.292969 208.691406 198.328125 208.765625 198.402344 C 208.839844 198.476562 208.875 198.5625 208.875 198.667969 Z M 208.875 198.667969 " fill-opacity="1" fill-rule="nonzero"/><path fill="#000000" d="M 218.324219 201.109375 C 218.324219 201.34375 218.242188 201.542969 218.078125 201.707031 C 217.914062 201.871094 217.714844 201.953125 217.480469 201.953125 C 217.25 201.953125 217.050781 201.871094 216.886719 201.707031 C 216.71875 201.542969 216.636719 201.34375 216.636719 201.109375 C 216.636719 200.878906 216.71875 200.679688 216.886719 200.515625 C 217.050781 200.347656 217.25 200.265625 217.480469 200.265625 C 217.714844 200.265625 217.914062 200.347656 218.078125 200.515625 C 218.242188 200.679688 218.324219 200.878906 218.324219 201.109375 Z M 218.324219 201.109375 " fill-opacity="1" fill-rule="nonzero"/><path fill="#000000" d="M 170.625 121.847656 C 170.625 122.035156 170.589844 122.214844 170.519531 122.386719 C 170.449219 122.558594 170.347656 122.710938 170.214844 122.84375 C 170.082031 122.976562 169.929688 123.078125 169.757812 123.148438 C 169.585938 123.21875 169.40625 123.253906 169.222656 123.253906 C 169.035156 123.253906 168.855469 123.21875 168.683594 123.148438 C 168.511719 123.078125 168.359375 122.976562 168.226562 122.84375 C 168.097656 122.710938 167.996094 122.558594 167.921875 122.386719 C 167.851562 122.214844 167.816406 122.035156 167.816406 121.847656 C 167.816406 121.664062 167.851562 121.484375 167.921875 121.308594 C 167.996094 121.136719 168.097656 120.984375 168.226562 120.855469 C 168.359375 120.722656 168.511719 120.621094 168.683594 120.550781 C 168.855469 120.476562 169.035156 120.441406 169.222656 120.441406 C 169.40625 120.441406 169.585938 120.476562 169.757812 120.550781 C 169.929688 120.621094 170.082031 120.722656 170.214844 120.855469 C 170.347656 120.984375 170.449219 121.136719 170.519531 121.308594 C 170.589844 121.484375 170.625 121.664062 170.625 121.847656 Z M 170.625 121.847656 " fill-opacity="1" fill-rule="nonzero"/><path fill="#000000" d="M 199.949219 196.289062 C 199.949219 196.417969 199.90625 196.53125 199.8125 196.621094 C 199.722656 196.714844 199.609375 196.757812 199.480469 196.757812 C 199.351562 196.757812 199.242188 196.714844 199.152344 196.621094 C 199.058594 196.53125 199.011719 196.417969 199.011719 196.289062 C 199.011719 196.160156 199.058594 196.050781 199.152344 195.957031 C 199.242188 195.867188 199.351562 195.820312 199.480469 195.820312 C 199.609375 195.820312 199.722656 195.867188 199.8125 195.957031 C 199.90625 196.050781 199.949219 196.160156 199.949219 196.289062 Z M 199.949219 196.289062 " fill-opacity="1" fill-rule="nonzero"/><path fill="#000000" d="M 206.875 168.4375 C 206.875 168.683594 206.789062 168.894531 206.613281 169.070312 C 206.441406 169.242188 206.230469 169.332031 205.984375 169.332031 C 205.738281 169.332031 205.53125 169.242188 205.355469 169.070312 C 205.183594 168.894531 205.09375 168.683594 205.09375 168.4375 C 205.09375 168.195312 205.183594 167.984375 205.355469 167.808594 C 205.53125 167.636719 205.738281 167.546875 205.984375 167.546875 C 206.230469 167.546875 206.441406 167.636719 206.613281 167.808594 C 206.789062 167.984375 206.875 168.195312 206.875 168.4375 Z M 206.875 168.4375 " fill-opacity="1" fill-rule="nonzero"/><path fill="#000000" d="M 144.066406 160.007812 C 144.066406 160.28125 143.96875 160.511719 143.777344 160.703125 C 143.585938 160.898438 143.355469 160.992188 143.082031 160.992188 C 142.8125 160.992188 142.578125 160.898438 142.386719 160.703125 C 142.195312 160.511719 142.097656 160.28125 142.097656 160.007812 C 142.097656 159.738281 142.195312 159.503906 142.386719 159.3125 C 142.578125 159.121094 142.8125 159.023438 143.082031 159.023438 C 143.355469 159.023438 143.585938 159.121094 143.777344 159.3125 C 143.96875 159.503906 144.066406 159.738281 144.066406 160.007812 Z M 144.066406 160.007812 " fill-opacity="1" fill-rule="nonzero"/><path fill="#000000" d="M 161.085938 148.660156 C 161.085938 148.867188 161.011719 149.042969 160.863281 149.191406 C 160.71875 149.335938 160.542969 149.410156 160.335938 149.410156 C 160.128906 149.410156 159.953125 149.335938 159.804688 149.191406 C 159.660156 149.042969 159.585938 148.867188 159.585938 148.660156 C 159.585938 148.453125 159.660156 148.277344 159.804688 148.128906 C 159.953125 147.984375 160.128906 147.910156 160.335938 147.910156 C 160.542969 147.910156 160.71875 147.984375 160.863281 148.128906 C 161.011719 148.277344 161.085938 148.453125 161.085938 148.660156 Z M 161.085938 148.660156 " fill-opacity="1" fill-rule="nonzero"/><path fill="#000000" d="M 229.382812 224.152344 C 229.382812 224.398438 229.296875 224.609375 229.121094 224.785156 C 228.949219 224.957031 228.738281 225.042969 228.492188 225.042969 C 228.246094 225.042969 228.039062 224.957031 227.863281 224.785156 C 227.691406 224.609375 227.601562 224.398438 227.601562 224.152344 C 227.601562 223.90625 227.691406 223.699219 227.863281 223.523438 C 228.039062 223.351562 228.246094 223.261719 228.492188 223.261719 C 228.738281 223.261719 228.949219 223.351562 229.121094 223.523438 C 229.296875 223.699219 229.382812 223.90625 229.382812 224.152344 Z M 229.382812 224.152344 " fill-opacity="1" fill-rule="nonzero"/><path fill="#000000" d="M 230.226562 145.234375 C 230.226562 145.492188 230.136719 145.714844 229.953125 145.898438 C 229.769531 146.082031 229.550781 146.171875 229.292969 146.171875 C 229.03125 146.171875 228.8125 146.082031 228.628906 145.898438 C 228.445312 145.714844 228.355469 145.492188 228.355469 145.234375 C 228.355469 144.976562 228.445312 144.753906 228.628906 144.570312 C 228.8125 144.390625 229.03125 144.296875 229.292969 144.296875 C 229.550781 144.296875 229.769531 144.390625 229.953125 144.570312 C 230.136719 144.753906 230.226562 144.976562 230.226562 145.234375 Z M 230.226562 145.234375 " fill-opacity="1" fill-rule="nonzero"/><path fill="#000000" d="M 199.132812 187.910156 C 199.132812 188.042969 199.085938 188.152344 198.992188 188.242188 C 198.902344 188.335938 198.792969 188.378906 198.664062 188.378906 C 198.535156 188.378906 198.421875 188.335938 198.332031 188.242188 C 198.238281 188.152344 198.195312 188.042969 198.195312 187.910156 C 198.195312 187.78125 198.238281 187.671875 198.332031 187.582031 C 198.421875 187.488281 198.535156 187.441406 198.664062 187.441406 C 198.792969 187.441406 198.902344 187.488281 198.992188 187.582031 C 199.085938 187.671875 199.132812 187.78125 199.132812 187.910156 Z M 199.132812 187.910156 " fill-opacity="1" fill-rule="nonzero"/><path fill="#000000" d="M 176.140625 220.875 C 176.140625 221.015625 176.113281 221.15625 176.058594 221.285156 C 176.003906 221.417969 175.925781 221.535156 175.824219 221.636719 C 175.722656 221.738281 175.605469 221.816406 175.472656 221.871094 C 175.339844 221.925781 175.203125 221.953125 175.0625 221.953125 C 174.917969 221.953125 174.78125 221.925781 174.648438 221.871094 C 174.515625 221.816406 174.402344 221.738281 174.300781 221.636719 C 174.199219 221.535156 174.121094 221.417969 174.066406 221.285156 C 174.011719 221.15625 173.984375 221.015625 173.984375 220.875 C 173.984375 220.730469 174.011719 220.59375 174.066406 220.460938 C 174.121094 220.328125 174.199219 220.210938 174.300781 220.113281 C 174.402344 220.011719 174.515625 219.933594 174.648438 219.878906 C 174.78125 219.824219 174.917969 219.796875 175.0625 219.796875 C 175.203125 219.796875 175.339844 219.824219 175.472656 219.878906 C 175.605469 219.933594 175.722656 220.011719 175.824219 220.113281 C 175.925781 220.210938 176.003906 220.328125 176.058594 220.460938 C 176.113281 220.59375 176.140625 220.730469 176.140625 220.875 Z M 176.140625 220.875 " fill-opacity="1" fill-rule="nonzero"/><path fill="#000000" d="M 214.671875 261.335938 C 214.671875 261.515625 214.605469 261.671875 214.480469 261.800781 C 214.351562 261.925781 214.195312 261.992188 214.015625 261.992188 C 213.835938 261.992188 213.679688 261.925781 213.550781 261.800781 C 213.421875 261.671875 213.359375 261.515625 213.359375 261.335938 C 213.359375 261.152344 213.421875 261 213.550781 260.871094 C 213.679688 260.742188 213.835938 260.679688 214.015625 260.679688 C 214.195312 260.679688 214.351562 260.742188 214.480469 260.871094 C 214.605469 261 214.671875 261.152344 214.671875 261.335938 Z M 214.671875 261.335938 " fill-opacity="1" fill-rule="nonzero"/><path fill="#000000" d="M 250.734375 193.011719 C 250.734375 193.257812 250.648438 193.46875 250.476562 193.640625 C 250.300781 193.816406 250.089844 193.902344 249.84375 193.902344 C 249.601562 193.902344 249.390625 193.816406 249.214844 193.640625 C 249.042969 193.46875 248.957031 193.257812 248.957031 193.011719 C 248.957031 192.765625 249.042969 192.554688 249.214844 192.382812 C 249.390625 192.207031 249.601562 192.121094 249.84375 192.121094 C 250.089844 192.121094 250.300781 192.207031 250.476562 192.382812 C 250.648438 192.554688 250.734375 192.765625 250.734375 193.011719 Z M 250.734375 193.011719 " fill-opacity="1" fill-rule="nonzero"/><path fill="#000000" d="M 217.597656 222.660156 C 217.597656 222.929688 217.503906 223.164062 217.3125 223.355469 C 217.117188 223.546875 216.886719 223.644531 216.617188 223.644531 C 216.34375 223.644531 216.113281 223.546875 215.921875 223.355469 C 215.726562 223.164062 215.632812 222.929688 215.632812 222.660156 C 215.632812 222.386719 215.726562 222.15625 215.921875 221.960938 C 216.113281 221.769531 216.34375 221.675781 216.617188 221.675781 C 216.886719 221.675781 217.117188 221.769531 217.3125 221.960938 C 217.503906 222.15625 217.597656 222.386719 217.597656 222.660156 Z M 217.597656 222.660156 " fill-opacity="1" fill-rule="nonzero"/><path fill="#000000" d="M 190.988281 251.234375 C 190.988281 251.421875 190.953125 251.601562 190.882812 251.773438 C 190.808594 251.945312 190.707031 252.097656 190.578125 252.230469 C 190.445312 252.359375 190.292969 252.460938 190.121094 252.535156 C 189.949219 252.605469 189.769531 252.640625 189.582031 252.640625 C 189.398438 252.640625 189.21875 252.605469 189.046875 252.535156 C 188.871094 252.460938 188.722656 252.359375 188.589844 252.230469 C 188.457031 252.097656 188.355469 251.945312 188.285156 251.773438 C 188.214844 251.601562 188.175781 251.421875 188.175781 251.234375 C 188.175781 251.046875 188.214844 250.867188 188.285156 250.695312 C 188.355469 250.523438 188.457031 250.371094 188.589844 250.238281 C 188.722656 250.109375 188.871094 250.007812 189.046875 249.933594 C 189.21875 249.863281 189.398438 249.828125 189.582031 249.828125 C 189.769531 249.828125 189.949219 249.863281 190.121094 249.933594 C 190.292969 250.007812 190.445312 250.109375 190.578125 250.238281 C 190.707031 250.371094 190.808594 250.523438 190.882812 250.695312 C 190.953125 250.867188 190.988281 251.046875 190.988281 251.234375 Z M 190.988281 251.234375 " fill-opacity="1" fill-rule="nonzero"/><path fill="#000000" d="M 178.683594 125.964844 C 178.683594 126.183594 178.605469 126.371094 178.449219 126.527344 C 178.296875 126.683594 178.109375 126.761719 177.886719 126.761719 C 177.667969 126.761719 177.480469 126.683594 177.324219 126.527344 C 177.167969 126.371094 177.089844 126.183594 177.089844 125.964844 C 177.089844 125.742188 177.167969 125.554688 177.324219 125.398438 C 177.480469 125.246094 177.667969 125.167969 177.886719 125.167969 C 178.109375 125.167969 178.296875 125.246094 178.449219 125.398438 C 178.605469 125.554688 178.683594 125.742188 178.683594 125.964844 Z M 178.683594 125.964844 " fill-opacity="1" fill-rule="nonzero"/><path fill="#000000" d="M 183.382812 209.152344 C 183.382812 209.359375 183.308594 209.539062 183.160156 209.683594 C 183.015625 209.832031 182.839844 209.902344 182.632812 209.902344 C 182.425781 209.902344 182.25 209.832031 182.101562 209.683594 C 181.957031 209.539062 181.882812 209.359375 181.882812 209.152344 C 181.882812 208.945312 181.957031 208.769531 182.101562 208.625 C 182.25 208.476562 182.425781 208.402344 182.632812 208.402344 C 182.839844 208.402344 183.015625 208.476562 183.160156 208.625 C 183.308594 208.769531 183.382812 208.945312 183.382812 209.152344 Z M 183.382812 209.152344 " fill-opacity="1" fill-rule="nonzero"/><path fill="#000000" d="M 170.433594 212.195312 C 170.433594 212.429688 170.351562 212.628906 170.1875 212.792969 C 170.023438 212.957031 169.824219 213.039062 169.589844 213.039062 C 169.359375 213.039062 169.160156 212.957031 168.996094 212.792969 C 168.832031 212.628906 168.746094 212.429688 168.746094 212.195312 C 168.746094 211.964844 168.832031 211.765625 168.996094 211.601562 C 169.160156 211.4375 169.359375 211.351562 169.589844 211.351562 C 169.824219 211.351562 170.023438 211.4375 170.1875 211.601562 C 170.351562 211.765625 170.433594 211.964844 170.433594 212.195312 Z M 170.433594 212.195312 " fill-opacity="1" fill-rule="nonzero"/><g clip-path="url(#7c3031330b)"><path fill="#000000" d="M 196.742188 113.71875 C 196.742188 113.878906 196.710938 114.035156 196.648438 114.183594 C 196.589844 114.335938 196.5 114.464844 196.386719 114.582031 C 196.273438 114.695312 196.140625 114.78125 195.992188 114.84375 C 195.839844 114.90625 195.6875 114.9375 195.523438 114.9375 C 195.363281 114.9375 195.207031 114.90625 195.058594 114.84375 C 194.910156 114.78125 194.777344 114.695312 194.664062 114.582031 C 194.550781 114.464844 194.460938 114.335938 194.398438 114.183594 C 194.335938 114.035156 194.304688 113.878906 194.304688 113.71875 C 194.304688 113.558594 194.335938 113.402344 194.398438 113.253906 C 194.460938 113.101562 194.550781 112.972656 194.664062 112.855469 C 194.777344 112.742188 194.910156 112.65625 195.058594 112.59375 C 195.207031 112.53125 195.363281 112.5 195.523438 112.5 C 195.6875 112.5 195.839844 112.53125 195.992188 112.59375 C 196.140625 112.65625 196.273438 112.742188 196.386719 112.855469 C 196.5 112.972656 196.589844 113.101562 196.648438 113.253906 C 196.710938 113.402344 196.742188 113.558594 196.742188 113.71875 Z M 196.742188 113.71875 " fill-opacity="1" fill-rule="nonzero"/></g><path fill="#000000" d="M 209.261719 205.65625 C 209.261719 205.796875 209.210938 205.921875 209.109375 206.019531 C 209.007812 206.121094 208.886719 206.171875 208.746094 206.171875 C 208.605469 206.171875 208.480469 206.121094 208.382812 206.019531 C 208.28125 205.921875 208.230469 205.796875 208.230469 205.65625 C 208.230469 205.515625 208.28125 205.390625 208.382812 205.292969 C 208.480469 205.191406 208.605469 205.140625 208.746094 205.140625 C 208.886719 205.140625 209.007812 205.191406 209.109375 205.292969 C 209.210938 205.390625 209.261719 205.515625 209.261719 205.65625 Z M 209.261719 205.65625 " fill-opacity="1" fill-rule="nonzero"/><path fill="#000000" d="M 206.378906 155.003906 C 206.378906 155.222656 206.304688 155.410156 206.148438 155.566406 C 205.992188 155.722656 205.804688 155.800781 205.585938 155.800781 C 205.363281 155.800781 205.175781 155.722656 205.019531 155.566406 C 204.867188 155.410156 204.789062 155.222656 204.789062 155.003906 C 204.789062 154.78125 204.867188 154.59375 205.019531 154.4375 C 205.175781 154.285156 205.363281 154.207031 205.585938 154.207031 C 205.804688 154.207031 205.992188 154.285156 206.148438 154.4375 C 206.304688 154.59375 206.378906 154.78125 206.378906 155.003906 Z M 206.378906 155.003906 " fill-opacity="1" fill-rule="nonzero"/><path fill="#000000" d="M 216.699219 120.554688 C 216.699219 120.789062 216.617188 120.988281 216.453125 121.152344 C 216.289062 121.316406 216.089844 121.398438 215.855469 121.398438 C 215.625 121.398438 215.425781 121.316406 215.261719 121.152344 C 215.09375 120.988281 215.011719 120.789062 215.011719 120.554688 C 215.011719 120.324219 215.09375 120.125 215.261719 119.960938 C 215.425781 119.792969 215.625 119.710938 215.855469 119.710938 C 216.089844 119.710938 216.289062 119.792969 216.453125 119.960938 C 216.617188 120.125 216.699219 120.324219 216.699219 120.554688 Z M 216.699219 120.554688 " fill-opacity="1" fill-rule="nonzero"/><path fill="#000000" d="M 200.117188 180.386719 C 200.117188 180.488281 200.082031 180.578125 200.007812 180.652344 C 199.933594 180.722656 199.84375 180.761719 199.742188 180.761719 C 199.636719 180.761719 199.550781 180.722656 199.476562 180.652344 C 199.402344 180.578125 199.367188 180.488281 199.367188 180.386719 C 199.367188 180.28125 199.402344 180.195312 199.476562 180.121094 C 199.550781 180.046875 199.636719 180.011719 199.742188 180.011719 C 199.84375 180.011719 199.933594 180.046875 200.007812 180.121094 C 200.082031 180.195312 200.117188 180.28125 200.117188 180.386719 Z M 200.117188 180.386719 " fill-opacity="1" fill-rule="nonzero"/><path fill="#000000" d="M 227.152344 170.445312 C 227.152344 170.644531 227.113281 170.835938 227.039062 171.019531 C 226.960938 171.203125 226.851562 171.363281 226.710938 171.503906 C 226.570312 171.644531 226.410156 171.753906 226.226562 171.832031 C 226.042969 171.90625 225.851562 171.945312 225.652344 171.945312 C 225.453125 171.945312 225.261719 171.90625 225.078125 171.832031 C 224.894531 171.753906 224.734375 171.644531 224.59375 171.503906 C 224.453125 171.363281 224.34375 171.203125 224.265625 171.019531 C 224.191406 170.835938 224.152344 170.644531 224.152344 170.445312 C 224.152344 170.246094 224.191406 170.054688 224.265625 169.871094 C 224.34375 169.6875 224.453125 169.523438 224.59375 169.382812 C 224.734375 169.242188 224.894531 169.136719 225.078125 169.058594 C 225.261719 168.984375 225.453125 168.945312 225.652344 168.945312 C 225.851562 168.945312 226.042969 168.984375 226.226562 169.058594 C 226.410156 169.136719 226.570312 169.242188 226.710938 169.382812 C 226.851562 169.523438 226.960938 169.6875 227.039062 169.871094 C 227.113281 170.054688 227.152344 170.246094 227.152344 170.445312 Z M 227.152344 170.445312 " fill-opacity="1" fill-rule="nonzero"/><path fill="#000000" d="M 168.71875 153.832031 C 168.71875 154.007812 168.683594 154.175781 168.617188 154.335938 C 168.550781 154.496094 168.457031 154.636719 168.332031 154.761719 C 168.210938 154.882812 168.070312 154.980469 167.90625 155.046875 C 167.746094 155.113281 167.582031 155.144531 167.40625 155.144531 C 167.230469 155.144531 167.066406 155.113281 166.90625 155.046875 C 166.742188 154.980469 166.601562 154.882812 166.480469 154.761719 C 166.355469 154.636719 166.261719 154.496094 166.195312 154.335938 C 166.128906 154.175781 166.09375 154.007812 166.09375 153.832031 C 166.09375 153.660156 166.128906 153.492188 166.195312 153.332031 C 166.261719 153.167969 166.355469 153.027344 166.480469 152.90625 C 166.601562 152.78125 166.742188 152.6875 166.90625 152.621094 C 167.066406 152.554688 167.230469 152.519531 167.40625 152.519531 C 167.582031 152.519531 167.746094 152.554688 167.90625 152.621094 C 168.070312 152.6875 168.210938 152.78125 168.332031 152.90625 C 168.457031 153.027344 168.550781 153.167969 168.617188 153.332031 C 168.683594 153.492188 168.71875 153.660156 168.71875 153.832031 Z M 168.71875 153.832031 " fill-opacity="1" fill-rule="nonzero"/><path fill="#000000" d="M 189.207031 245.578125 C 189.207031 245.734375 189.148438 245.867188 189.039062 245.976562 C 188.929688 246.085938 188.796875 246.140625 188.644531 246.140625 C 188.488281 246.140625 188.355469 246.085938 188.246094 245.976562 C 188.136719 245.867188 188.082031 245.734375 188.082031 245.578125 C 188.082031 245.421875 188.136719 245.289062 188.246094 245.179688 C 188.355469 245.070312 188.488281 245.015625 188.644531 245.015625 C 188.796875 245.015625 188.929688 245.070312 189.039062 245.179688 C 189.148438 245.289062 189.207031 245.421875 189.207031 245.578125 Z M 189.207031 245.578125 " fill-opacity="1" fill-rule="nonzero"/><g clip-path="url(#263ecd4547)"><path fill="#000000" d="M 125.019531 184.304688 C 125.019531 184.484375 124.957031 184.640625 124.828125 184.769531 C 124.699219 184.898438 124.546875 184.960938 124.363281 184.960938 C 124.183594 184.960938 124.027344 184.898438 123.902344 184.769531 C 123.773438 184.640625 123.707031 184.484375 123.707031 184.304688 C 123.707031 184.125 123.773438 183.96875 123.902344 183.839844 C 124.027344 183.710938 124.183594 183.648438 124.363281 183.648438 C 124.546875 183.648438 124.699219 183.710938 124.828125 183.839844 C 124.957031 183.96875 125.019531 184.125 125.019531 184.304688 Z M 125.019531 184.304688 " fill-opacity="1" fill-rule="nonzero"/></g><path fill="#000000" d="M 203.925781 251.554688 C 203.925781 251.707031 203.871094 251.839844 203.761719 251.949219 C 203.652344 252.0625 203.519531 252.117188 203.363281 252.117188 C 203.207031 252.117188 203.074219 252.0625 202.964844 251.949219 C 202.855469 251.839844 202.800781 251.707031 202.800781 251.554688 C 202.800781 251.398438 202.855469 251.265625 202.964844 251.15625 C 203.074219 251.046875 203.207031 250.992188 203.363281 250.992188 C 203.519531 250.992188 203.652344 251.046875 203.761719 251.15625 C 203.871094 251.265625 203.925781 251.398438 203.925781 251.554688 Z M 203.925781 251.554688 " fill-opacity="1" fill-rule="nonzero"/><path fill="#000000" d="M 229.105469 236.457031 C 229.105469 236.625 229.046875 236.769531 228.925781 236.890625 C 228.808594 237.007812 228.664062 237.066406 228.496094 237.066406 C 228.328125 237.066406 228.183594 237.007812 228.066406 236.890625 C 227.945312 236.769531 227.886719 236.625 227.886719 236.457031 C 227.886719 236.289062 227.945312 236.144531 228.066406 236.027344 C 228.183594 235.90625 228.328125 235.847656 228.496094 235.847656 C 228.664062 235.847656 228.808594 235.90625 228.925781 236.027344 C 229.046875 236.144531 229.105469 236.289062 229.105469 236.457031 Z M 229.105469 236.457031 " fill-opacity="1" fill-rule="nonzero"/><path fill="#000000" d="M 153.222656 182.730469 C 153.222656 182.914062 153.15625 183.066406 153.03125 183.195312 C 152.902344 183.324219 152.746094 183.386719 152.566406 183.386719 C 152.386719 183.386719 152.230469 183.324219 152.101562 183.195312 C 151.972656 183.066406 151.910156 182.914062 151.910156 182.730469 C 151.910156 182.550781 151.972656 182.394531 152.101562 182.269531 C 152.230469 182.140625 152.386719 182.074219 152.566406 182.074219 C 152.746094 182.074219 152.902344 182.140625 153.03125 182.269531 C 153.15625 182.394531 153.222656 182.550781 153.222656 182.730469 Z M 153.222656 182.730469 " fill-opacity="1" fill-rule="nonzero"/><path fill="#000000" d="M 192.703125 215.40625 C 192.703125 215.578125 192.644531 215.71875 192.523438 215.839844 C 192.40625 215.957031 192.261719 216.015625 192.09375 216.015625 C 191.925781 216.015625 191.78125 215.957031 191.664062 215.839844 C 191.542969 215.71875 191.484375 215.578125 191.484375 215.40625 C 191.484375 215.238281 191.542969 215.097656 191.664062 214.976562 C 191.78125 214.859375 191.925781 214.796875 192.09375 214.796875 C 192.261719 214.796875 192.40625 214.859375 192.523438 214.976562 C 192.644531 215.097656 192.703125 215.238281 192.703125 215.40625 Z M 192.703125 215.40625 " fill-opacity="1" fill-rule="nonzero"/><path fill="#000000" d="M 160.1875 233.789062 C 160.1875 233.972656 160.152344 234.152344 160.078125 234.324219 C 160.007812 234.496094 159.90625 234.648438 159.773438 234.78125 C 159.644531 234.914062 159.492188 235.015625 159.320312 235.085938 C 159.144531 235.15625 158.96875 235.195312 158.78125 235.195312 C 158.59375 235.195312 158.414062 235.15625 158.242188 235.085938 C 158.070312 235.015625 157.917969 234.914062 157.789062 234.78125 C 157.65625 234.648438 157.554688 234.496094 157.484375 234.324219 C 157.410156 234.152344 157.375 233.972656 157.375 233.789062 C 157.375 233.601562 157.410156 233.421875 157.484375 233.25 C 157.554688 233.078125 157.65625 232.925781 157.789062 232.792969 C 157.917969 232.660156 158.070312 232.558594 158.242188 232.488281 C 158.414062 232.417969 158.59375 232.382812 158.78125 232.382812 C 158.96875 232.382812 159.144531 232.417969 159.320312 232.488281 C 159.492188 232.558594 159.644531 232.660156 159.773438 232.792969 C 159.90625 232.925781 160.007812 233.078125 160.078125 233.25 C 160.152344 233.421875 160.1875 233.601562 160.1875 233.789062 Z M 160.1875 233.789062 " fill-opacity="1" fill-rule="nonzero"/><path fill="#000000" d="M 240.085938 134.371094 C 240.085938 134.527344 240.03125 134.660156 239.921875 134.769531 C 239.8125 134.878906 239.679688 134.933594 239.523438 134.933594 C 239.371094 134.933594 239.238281 134.878906 239.128906 134.769531 C 239.015625 134.660156 238.960938 134.527344 238.960938 134.371094 C 238.960938 134.214844 239.015625 134.082031 239.128906 133.972656 C 239.238281 133.863281 239.371094 133.808594 239.523438 133.808594 C 239.679688 133.808594 239.8125 133.863281 239.921875 133.972656 C 240.03125 134.082031 240.085938 134.214844 240.085938 134.371094 Z M 240.085938 134.371094 " fill-opacity="1" fill-rule="nonzero"/><path fill="#000000" d="M 185.421875 169.203125 C 185.421875 169.359375 185.390625 169.507812 185.332031 169.652344 C 185.273438 169.792969 185.1875 169.921875 185.078125 170.03125 C 184.96875 170.140625 184.839844 170.226562 184.699219 170.285156 C 184.554688 170.34375 184.40625 170.375 184.25 170.375 C 184.09375 170.375 183.945312 170.34375 183.800781 170.285156 C 183.65625 170.226562 183.53125 170.140625 183.421875 170.03125 C 183.3125 169.921875 183.226562 169.792969 183.167969 169.652344 C 183.109375 169.507812 183.078125 169.359375 183.078125 169.203125 C 183.078125 169.046875 183.109375 168.898438 183.167969 168.753906 C 183.226562 168.609375 183.3125 168.484375 183.421875 168.375 C 183.53125 168.265625 183.65625 168.179688 183.800781 168.121094 C 183.945312 168.058594 184.09375 168.03125 184.25 168.03125 C 184.40625 168.03125 184.554688 168.058594 184.699219 168.121094 C 184.839844 168.179688 184.96875 168.265625 185.078125 168.375 C 185.1875 168.484375 185.273438 168.609375 185.332031 168.753906 C 185.390625 168.898438 185.421875 169.046875 185.421875 169.203125 Z M 185.421875 169.203125 " fill-opacity="1" fill-rule="nonzero"/><path fill="#000000" d="M 156.839844 202.832031 C 156.839844 202.996094 156.808594 203.148438 156.746094 203.300781 C 156.683594 203.449219 156.597656 203.582031 156.484375 203.695312 C 156.367188 203.808594 156.238281 203.898438 156.085938 203.960938 C 155.9375 204.019531 155.78125 204.050781 155.621094 204.050781 C 155.460938 204.050781 155.304688 204.019531 155.15625 203.960938 C 155.007812 203.898438 154.875 203.808594 154.761719 203.695312 C 154.644531 203.582031 154.558594 203.449219 154.496094 203.300781 C 154.433594 203.148438 154.402344 202.996094 154.402344 202.832031 C 154.402344 202.671875 154.433594 202.515625 154.496094 202.367188 C 154.558594 202.21875 154.644531 202.085938 154.761719 201.972656 C 154.875 201.855469 155.007812 201.769531 155.15625 201.707031 C 155.304688 201.644531 155.460938 201.613281 155.621094 201.613281 C 155.78125 201.613281 155.9375 201.644531 156.085938 201.707031 C 156.238281 201.769531 156.367188 201.855469 156.484375 201.972656 C 156.597656 202.085938 156.683594 202.21875 156.746094 202.367188 C 156.808594 202.515625 156.839844 202.671875 156.839844 202.832031 Z M 156.839844 202.832031 " fill-opacity="1" fill-rule="nonzero"/><path fill="#000000" d="M 169.597656 225.632812 C 169.597656 225.863281 169.515625 226.0625 169.351562 226.226562 C 169.1875 226.394531 168.988281 226.476562 168.753906 226.476562 C 168.523438 226.476562 168.324219 226.394531 168.160156 226.226562 C 167.996094 226.0625 167.910156 225.863281 167.910156 225.632812 C 167.910156 225.398438 167.996094 225.199219 168.160156 225.035156 C 168.324219 224.871094 168.523438 224.789062 168.753906 224.789062 C 168.988281 224.789062 169.1875 224.871094 169.351562 225.035156 C 169.515625 225.199219 169.597656 225.398438 169.597656 225.632812 Z M 169.597656 225.632812 " fill-opacity="1" fill-rule="nonzero"/><path fill="#000000" d="M 190.003906 151.0625 C 190.003906 151.242188 189.96875 151.414062 189.902344 151.582031 C 189.832031 151.75 189.734375 151.894531 189.605469 152.023438 C 189.480469 152.152344 189.332031 152.25 189.164062 152.316406 C 189 152.386719 188.824219 152.421875 188.644531 152.421875 C 188.464844 152.421875 188.292969 152.386719 188.125 152.316406 C 187.960938 152.25 187.8125 152.152344 187.683594 152.023438 C 187.558594 151.894531 187.460938 151.75 187.390625 151.582031 C 187.320312 151.414062 187.289062 151.242188 187.289062 151.0625 C 187.289062 150.882812 187.320312 150.707031 187.390625 150.542969 C 187.460938 150.375 187.558594 150.226562 187.683594 150.101562 C 187.8125 149.972656 187.960938 149.875 188.125 149.804688 C 188.292969 149.738281 188.464844 149.703125 188.644531 149.703125 C 188.824219 149.703125 189 149.738281 189.164062 149.804688 C 189.332031 149.875 189.480469 149.972656 189.605469 150.101562 C 189.734375 150.226562 189.832031 150.375 189.902344 150.542969 C 189.96875 150.707031 190.003906 150.882812 190.003906 151.0625 Z M 190.003906 151.0625 " fill-opacity="1" fill-rule="nonzero"/><path fill="#000000" d="M 230.542969 200.882812 C 230.542969 201.15625 230.445312 201.386719 230.253906 201.582031 C 230.0625 201.773438 229.832031 201.867188 229.558594 201.867188 C 229.285156 201.867188 229.054688 201.773438 228.863281 201.582031 C 228.671875 201.386719 228.574219 201.15625 228.574219 200.882812 C 228.574219 200.613281 228.671875 200.378906 228.863281 200.1875 C 229.054688 199.996094 229.285156 199.898438 229.558594 199.898438 C 229.832031 199.898438 230.0625 199.996094 230.253906 200.1875 C 230.445312 200.378906 230.542969 200.613281 230.542969 200.882812 Z M 230.542969 200.882812 " fill-opacity="1" fill-rule="nonzero"/><path fill="#000000" d="M 245.234375 219.921875 C 245.234375 220.066406 245.207031 220.203125 245.152344 220.335938 C 245.097656 220.464844 245.019531 220.582031 244.917969 220.683594 C 244.816406 220.785156 244.703125 220.863281 244.570312 220.917969 C 244.4375 220.972656 244.300781 221 244.15625 221 C 244.015625 221 243.878906 220.972656 243.746094 220.917969 C 243.613281 220.863281 243.496094 220.785156 243.394531 220.683594 C 243.292969 220.582031 243.21875 220.464844 243.164062 220.335938 C 243.109375 220.203125 243.082031 220.066406 243.082031 219.921875 C 243.082031 219.777344 243.109375 219.640625 243.164062 219.507812 C 243.21875 219.378906 243.292969 219.261719 243.394531 219.160156 C 243.496094 219.058594 243.613281 218.980469 243.746094 218.925781 C 243.878906 218.871094 244.015625 218.84375 244.15625 218.84375 C 244.300781 218.84375 244.4375 218.871094 244.570312 218.925781 C 244.703125 218.980469 244.816406 219.058594 244.917969 219.160156 C 245.019531 219.261719 245.097656 219.378906 245.152344 219.507812 C 245.207031 219.640625 245.234375 219.777344 245.234375 219.921875 Z M 245.234375 219.921875 " fill-opacity="1" fill-rule="nonzero"/><path fill="#000000" d="M 231.460938 124.023438 C 231.460938 124.167969 231.433594 124.304688 231.378906 124.4375 C 231.324219 124.570312 231.246094 124.6875 231.148438 124.789062 C 231.046875 124.886719 230.929688 124.964844 230.796875 125.019531 C 230.664062 125.074219 230.527344 125.101562 230.382812 125.101562 C 230.242188 125.101562 230.105469 125.074219 229.972656 125.019531 C 229.839844 124.964844 229.722656 124.886719 229.621094 124.789062 C 229.523438 124.6875 229.445312 124.570312 229.390625 124.4375 C 229.335938 124.304688 229.308594 124.167969 229.308594 124.023438 C 229.308594 123.882812 229.335938 123.746094 229.390625 123.613281 C 229.445312 123.480469 229.523438 123.363281 229.621094 123.261719 C 229.722656 123.160156 229.839844 123.082031 229.972656 123.027344 C 230.105469 122.972656 230.242188 122.945312 230.382812 122.945312 C 230.527344 122.945312 230.664062 122.972656 230.796875 123.027344 C 230.929688 123.082031 231.046875 123.160156 231.148438 123.261719 C 231.246094 123.363281 231.324219 123.480469 231.378906 123.613281 C 231.433594 123.746094 231.460938 123.882812 231.460938 124.023438 Z M 231.460938 124.023438 " fill-opacity="1" fill-rule="nonzero"/><path fill="#000000" d="M 180.507812 186.507812 C 180.507812 186.65625 180.480469 186.800781 180.425781 186.9375 C 180.367188 187.074219 180.285156 187.199219 180.179688 187.304688 C 180.074219 187.410156 179.953125 187.488281 179.816406 187.546875 C 179.679688 187.605469 179.535156 187.632812 179.386719 187.632812 C 179.234375 187.632812 179.09375 187.605469 178.957031 187.546875 C 178.816406 187.488281 178.695312 187.410156 178.589844 187.304688 C 178.484375 187.199219 178.402344 187.074219 178.347656 186.9375 C 178.289062 186.800781 178.261719 186.65625 178.261719 186.507812 C 178.261719 186.359375 178.289062 186.214844 178.347656 186.078125 C 178.402344 185.9375 178.484375 185.816406 178.589844 185.710938 C 178.695312 185.605469 178.816406 185.523438 178.957031 185.46875 C 179.09375 185.410156 179.234375 185.382812 179.386719 185.382812 C 179.535156 185.382812 179.679688 185.410156 179.816406 185.46875 C 179.953125 185.523438 180.074219 185.605469 180.179688 185.710938 C 180.285156 185.816406 180.367188 185.9375 180.425781 186.078125 C 180.480469 186.214844 180.507812 186.359375 180.507812 186.507812 Z M 180.507812 186.507812 " fill-opacity="1" fill-rule="nonzero"/><path fill="#000000" d="M 173.574219 201.722656 C 173.574219 201.90625 173.511719 202.058594 173.382812 202.1875 C 173.253906 202.316406 173.101562 202.378906 172.917969 202.378906 C 172.738281 202.378906 172.582031 202.316406 172.457031 202.1875 C 172.328125 202.058594 172.261719 201.90625 172.261719 201.722656 C 172.261719 201.542969 172.328125 201.386719 172.457031 201.257812 C 172.582031 201.132812 172.738281 201.066406 172.917969 201.066406 C 173.101562 201.066406 173.253906 201.132812 173.382812 201.257812 C 173.511719 201.386719 173.574219 201.542969 173.574219 201.722656 Z M 173.574219 201.722656 " fill-opacity="1" fill-rule="nonzero"/><path fill="#000000" d="M 199.335938 239.378906 C 199.335938 239.585938 199.296875 239.78125 199.21875 239.972656 C 199.140625 240.160156 199.027344 240.328125 198.882812 240.472656 C 198.738281 240.617188 198.570312 240.730469 198.382812 240.808594 C 198.191406 240.886719 197.996094 240.925781 197.789062 240.925781 C 197.585938 240.925781 197.386719 240.886719 197.199219 240.808594 C 197.007812 240.730469 196.839844 240.617188 196.695312 240.472656 C 196.550781 240.328125 196.441406 240.160156 196.363281 239.972656 C 196.28125 239.78125 196.242188 239.585938 196.242188 239.378906 C 196.242188 239.175781 196.28125 238.976562 196.363281 238.789062 C 196.441406 238.597656 196.550781 238.429688 196.695312 238.285156 C 196.839844 238.140625 197.007812 238.027344 197.199219 237.949219 C 197.386719 237.871094 197.585938 237.832031 197.789062 237.832031 C 197.996094 237.832031 198.191406 237.871094 198.382812 237.949219 C 198.570312 238.027344 198.738281 238.140625 198.882812 238.285156 C 199.027344 238.429688 199.140625 238.597656 199.21875 238.789062 C 199.296875 238.976562 199.335938 239.175781 199.335938 239.378906 Z M 199.335938 239.378906 " fill-opacity="1" fill-rule="nonzero"/><path fill="#000000" d="M 172.917969 196.371094 C 172.917969 196.550781 172.882812 196.722656 172.816406 196.890625 C 172.746094 197.058594 172.648438 197.203125 172.519531 197.332031 C 172.394531 197.457031 172.246094 197.558594 172.082031 197.625 C 171.914062 197.695312 171.742188 197.730469 171.5625 197.730469 C 171.378906 197.730469 171.207031 197.695312 171.039062 197.625 C 170.875 197.558594 170.726562 197.457031 170.601562 197.332031 C 170.472656 197.203125 170.375 197.058594 170.304688 196.890625 C 170.238281 196.722656 170.203125 196.550781 170.203125 196.371094 C 170.203125 196.191406 170.238281 196.015625 170.304688 195.851562 C 170.375 195.683594 170.472656 195.535156 170.601562 195.410156 C 170.726562 195.28125 170.875 195.183594 171.039062 195.113281 C 171.207031 195.046875 171.378906 195.011719 171.5625 195.011719 C 171.742188 195.011719 171.914062 195.046875 172.082031 195.113281 C 172.246094 195.183594 172.394531 195.28125 172.519531 195.410156 C 172.648438 195.535156 172.746094 195.683594 172.816406 195.851562 C 172.882812 196.015625 172.917969 196.191406 172.917969 196.371094 Z M 172.917969 196.371094 " fill-opacity="1" fill-rule="nonzero"/><path fill="#000000" d="M 166.496094 202.839844 C 166.496094 203.074219 166.414062 203.273438 166.246094 203.4375 C 166.082031 203.601562 165.882812 203.683594 165.652344 203.683594 C 165.417969 203.683594 165.21875 203.601562 165.054688 203.4375 C 164.890625 203.273438 164.808594 203.074219 164.808594 202.839844 C 164.808594 202.605469 164.890625 202.410156 165.054688 202.242188 C 165.21875 202.078125 165.417969 201.996094 165.652344 201.996094 C 165.882812 201.996094 166.082031 202.078125 166.246094 202.242188 C 166.414062 202.410156 166.496094 202.605469 166.496094 202.839844 Z M 166.496094 202.839844 " fill-opacity="1" fill-rule="nonzero"/><path fill="#000000" d="M 205.664062 115.742188 C 205.664062 115.910156 205.601562 116.054688 205.484375 116.171875 C 205.363281 116.292969 205.222656 116.351562 205.054688 116.351562 C 204.886719 116.351562 204.742188 116.292969 204.621094 116.171875 C 204.503906 116.054688 204.445312 115.910156 204.445312 115.742188 C 204.445312 115.574219 204.503906 115.429688 204.621094 115.308594 C 204.742188 115.191406 204.886719 115.132812 205.054688 115.132812 C 205.222656 115.132812 205.363281 115.191406 205.484375 115.308594 C 205.601562 115.429688 205.664062 115.574219 205.664062 115.742188 Z M 205.664062 115.742188 " fill-opacity="1" fill-rule="nonzero"/><path fill="#000000" d="M 194.167969 171.546875 C 194.167969 171.761719 194.128906 171.972656 194.042969 172.171875 C 193.960938 172.375 193.84375 172.550781 193.6875 172.707031 C 193.535156 172.859375 193.359375 172.976562 193.15625 173.0625 C 192.957031 173.144531 192.746094 173.1875 192.53125 173.1875 C 192.3125 173.1875 192.101562 173.144531 191.902344 173.0625 C 191.703125 172.976562 191.523438 172.859375 191.371094 172.707031 C 191.214844 172.550781 191.097656 172.375 191.015625 172.171875 C 190.933594 171.972656 190.890625 171.761719 190.890625 171.546875 C 190.890625 171.328125 190.933594 171.117188 191.015625 170.917969 C 191.097656 170.71875 191.214844 170.539062 191.371094 170.386719 C 191.523438 170.230469 191.703125 170.113281 191.902344 170.03125 C 192.101562 169.945312 192.3125 169.90625 192.53125 169.90625 C 192.746094 169.90625 192.957031 169.945312 193.15625 170.03125 C 193.359375 170.113281 193.535156 170.230469 193.6875 170.386719 C 193.84375 170.539062 193.960938 170.71875 194.042969 170.917969 C 194.128906 171.117188 194.167969 171.328125 194.167969 171.546875 Z M 194.167969 171.546875 " fill-opacity="1" fill-rule="nonzero"/><path fill="#000000" d="M 185.925781 231.824219 C 185.925781 232.019531 185.886719 232.203125 185.816406 232.382812 C 185.742188 232.558594 185.636719 232.714844 185.5 232.851562 C 185.363281 232.988281 185.207031 233.09375 185.027344 233.167969 C 184.851562 233.242188 184.664062 233.277344 184.472656 233.277344 C 184.28125 233.277344 184.09375 233.242188 183.917969 233.167969 C 183.738281 233.09375 183.582031 232.988281 183.445312 232.851562 C 183.308594 232.714844 183.207031 232.558594 183.132812 232.382812 C 183.058594 232.203125 183.019531 232.019531 183.019531 231.824219 C 183.019531 231.632812 183.058594 231.449219 183.132812 231.269531 C 183.207031 231.089844 183.308594 230.933594 183.445312 230.796875 C 183.582031 230.660156 183.738281 230.554688 183.917969 230.484375 C 184.09375 230.410156 184.28125 230.371094 184.472656 230.371094 C 184.664062 230.371094 184.851562 230.410156 185.027344 230.484375 C 185.207031 230.554688 185.363281 230.660156 185.5 230.796875 C 185.636719 230.933594 185.742188 231.089844 185.816406 231.269531 C 185.886719 231.449219 185.925781 231.632812 185.925781 231.824219 Z M 185.925781 231.824219 " fill-opacity="1" fill-rule="nonzero"/><path fill="#000000" d="M 211.027344 233.65625 C 211.027344 233.925781 210.933594 234.160156 210.742188 234.351562 C 210.546875 234.542969 210.316406 234.640625 210.042969 234.640625 C 209.773438 234.640625 209.542969 234.542969 209.347656 234.351562 C 209.15625 234.160156 209.0625 233.925781 209.0625 233.65625 C 209.0625 233.382812 209.15625 233.152344 209.347656 232.957031 C 209.542969 232.765625 209.773438 232.671875 210.042969 232.671875 C 210.316406 232.671875 210.546875 232.765625 210.742188 232.957031 C 210.933594 233.152344 211.027344 233.382812 211.027344 233.65625 Z M 211.027344 233.65625 " fill-opacity="1" fill-rule="nonzero"/><path fill="#000000" d="M 156.066406 157.480469 C 156.066406 157.726562 155.980469 157.9375 155.808594 158.109375 C 155.632812 158.285156 155.421875 158.371094 155.175781 158.371094 C 154.933594 158.371094 154.722656 158.285156 154.546875 158.109375 C 154.375 157.9375 154.289062 157.726562 154.289062 157.480469 C 154.289062 157.234375 154.375 157.023438 154.546875 156.851562 C 154.722656 156.675781 154.933594 156.589844 155.175781 156.589844 C 155.421875 156.589844 155.632812 156.675781 155.808594 156.851562 C 155.980469 157.023438 156.066406 157.234375 156.066406 157.480469 Z M 156.066406 157.480469 " fill-opacity="1" fill-rule="nonzero"/><path fill="#000000" d="M 210.550781 184.8125 C 210.550781 185.070312 210.460938 185.292969 210.277344 185.476562 C 210.09375 185.660156 209.875 185.75 209.613281 185.75 C 209.355469 185.75 209.136719 185.660156 208.953125 185.476562 C 208.769531 185.292969 208.675781 185.070312 208.675781 184.8125 C 208.675781 184.554688 208.769531 184.332031 208.953125 184.148438 C 209.136719 183.96875 209.355469 183.875 209.613281 183.875 C 209.875 183.875 210.09375 183.96875 210.277344 184.148438 C 210.460938 184.332031 210.550781 184.554688 210.550781 184.8125 Z M 210.550781 184.8125 " fill-opacity="1" fill-rule="nonzero"/><path fill="#000000" d="M 158.285156 167.242188 C 158.285156 167.4375 158.246094 167.628906 158.171875 167.816406 C 158.09375 168 157.984375 168.160156 157.84375 168.300781 C 157.703125 168.441406 157.542969 168.550781 157.359375 168.625 C 157.175781 168.703125 156.984375 168.742188 156.785156 168.742188 C 156.585938 168.742188 156.394531 168.703125 156.210938 168.625 C 156.027344 168.550781 155.867188 168.441406 155.726562 168.300781 C 155.585938 168.160156 155.476562 168 155.398438 167.816406 C 155.324219 167.628906 155.285156 167.4375 155.285156 167.242188 C 155.285156 167.042969 155.324219 166.851562 155.398438 166.667969 C 155.476562 166.484375 155.585938 166.320312 155.726562 166.179688 C 155.867188 166.039062 156.027344 165.929688 156.210938 165.855469 C 156.394531 165.777344 156.585938 165.742188 156.785156 165.742188 C 156.984375 165.742188 157.175781 165.777344 157.359375 165.855469 C 157.542969 165.929688 157.703125 166.039062 157.84375 166.179688 C 157.984375 166.320312 158.09375 166.484375 158.171875 166.667969 C 158.246094 166.851562 158.285156 167.042969 158.285156 167.242188 Z M 158.285156 167.242188 " fill-opacity="1" fill-rule="nonzero"/><path fill="#000000" d="M 230.1875 246.386719 C 230.1875 246.570312 230.121094 246.722656 229.996094 246.851562 C 229.867188 246.980469 229.710938 247.042969 229.53125 247.042969 C 229.347656 247.042969 229.195312 246.980469 229.066406 246.851562 C 228.9375 246.722656 228.875 246.570312 228.875 246.386719 C 228.875 246.207031 228.9375 246.050781 229.066406 245.921875 C 229.195312 245.796875 229.347656 245.730469 229.53125 245.730469 C 229.710938 245.730469 229.867188 245.796875 229.996094 245.921875 C 230.121094 246.050781 230.1875 246.207031 230.1875 246.386719 Z M 230.1875 246.386719 " fill-opacity="1" fill-rule="nonzero"/><path fill="#000000" d="M 222.832031 233.953125 C 222.832031 234.152344 222.792969 234.34375 222.71875 234.527344 C 222.640625 234.710938 222.535156 234.875 222.394531 235.015625 C 222.253906 235.15625 222.089844 235.265625 221.90625 235.339844 C 221.722656 235.417969 221.53125 235.453125 221.332031 235.453125 C 221.136719 235.453125 220.945312 235.417969 220.761719 235.339844 C 220.578125 235.265625 220.414062 235.15625 220.273438 235.015625 C 220.132812 234.875 220.023438 234.710938 219.949219 234.527344 C 219.871094 234.34375 219.835938 234.152344 219.835938 233.953125 C 219.835938 233.753906 219.871094 233.5625 219.949219 233.378906 C 220.023438 233.195312 220.132812 233.035156 220.273438 232.894531 C 220.414062 232.753906 220.578125 232.644531 220.761719 232.570312 C 220.945312 232.492188 221.136719 232.453125 221.332031 232.453125 C 221.53125 232.453125 221.722656 232.492188 221.90625 232.570312 C 222.089844 232.644531 222.253906 232.753906 222.394531 232.894531 C 222.535156 233.035156 222.640625 233.195312 222.71875 233.378906 C 222.792969 233.5625 222.832031 233.753906 222.832031 233.953125 Z M 222.832031 233.953125 " fill-opacity="1" fill-rule="nonzero"/><path fill="#000000" d="M 145.832031 138.972656 C 145.832031 139.152344 145.796875 139.324219 145.726562 139.492188 C 145.660156 139.660156 145.5625 139.804688 145.433594 139.933594 C 145.304688 140.0625 145.160156 140.160156 144.992188 140.226562 C 144.828125 140.296875 144.652344 140.332031 144.472656 140.332031 C 144.292969 140.332031 144.121094 140.296875 143.953125 140.226562 C 143.785156 140.160156 143.640625 140.0625 143.511719 139.933594 C 143.386719 139.804688 143.285156 139.660156 143.21875 139.492188 C 143.148438 139.324219 143.113281 139.152344 143.113281 138.972656 C 143.113281 138.792969 143.148438 138.617188 143.21875 138.453125 C 143.285156 138.285156 143.386719 138.136719 143.511719 138.011719 C 143.640625 137.882812 143.785156 137.785156 143.953125 137.714844 C 144.121094 137.648438 144.292969 137.613281 144.472656 137.613281 C 144.652344 137.613281 144.828125 137.648438 144.992188 137.714844 C 145.160156 137.785156 145.304688 137.882812 145.433594 138.011719 C 145.5625 138.136719 145.660156 138.285156 145.726562 138.453125 C 145.796875 138.617188 145.832031 138.792969 145.832031 138.972656 Z M 145.832031 138.972656 " fill-opacity="1" fill-rule="nonzero"/><path fill="#000000" d="M 132.515625 206.964844 C 132.515625 207.09375 132.472656 207.203125 132.378906 207.296875 C 132.289062 207.386719 132.179688 207.433594 132.046875 207.433594 C 131.917969 207.433594 131.808594 207.386719 131.71875 207.296875 C 131.625 207.203125 131.578125 207.09375 131.578125 206.964844 C 131.578125 206.835938 131.625 206.722656 131.71875 206.632812 C 131.808594 206.539062 131.917969 206.496094 132.046875 206.496094 C 132.179688 206.496094 132.289062 206.539062 132.378906 206.632812 C 132.472656 206.722656 132.515625 206.835938 132.515625 206.964844 Z M 132.515625 206.964844 " fill-opacity="1" fill-rule="nonzero"/><path fill="#000000" d="M 175.363281 138.597656 C 175.363281 138.816406 175.285156 139.003906 175.128906 139.160156 C 174.972656 139.316406 174.785156 139.394531 174.566406 139.394531 C 174.347656 139.394531 174.160156 139.316406 174.003906 139.160156 C 173.847656 139.003906 173.769531 138.816406 173.769531 138.597656 C 173.769531 138.375 173.847656 138.1875 174.003906 138.03125 C 174.160156 137.878906 174.347656 137.800781 174.566406 137.800781 C 174.785156 137.800781 174.972656 137.878906 175.128906 138.03125 C 175.285156 138.1875 175.363281 138.375 175.363281 138.597656 Z M 175.363281 138.597656 " fill-opacity="1" fill-rule="nonzero"/><g clip-path="url(#7b431f35ce)"><path fill="#000000" d="M 193.96875 261.652344 C 193.96875 261.886719 193.886719 262.085938 193.71875 262.25 C 193.554688 262.414062 193.355469 262.496094 193.125 262.496094 C 192.890625 262.496094 192.691406 262.414062 192.527344 262.25 C 192.363281 262.085938 192.28125 261.886719 192.28125 261.652344 C 192.28125 261.421875 192.363281 261.222656 192.527344 261.058594 C 192.691406 260.894531 192.890625 260.808594 193.125 260.808594 C 193.355469 260.808594 193.554688 260.894531 193.71875 261.058594 C 193.886719 261.222656 193.96875 261.421875 193.96875 261.652344 Z M 193.96875 261.652344 " fill-opacity="1" fill-rule="nonzero"/></g><path fill="#000000" d="M 156.46875 193.1875 C 156.46875 193.324219 156.441406 193.453125 156.390625 193.582031 C 156.335938 193.707031 156.261719 193.820312 156.164062 193.914062 C 156.070312 194.011719 155.957031 194.085938 155.832031 194.140625 C 155.703125 194.191406 155.574219 194.21875 155.4375 194.21875 C 155.300781 194.21875 155.167969 194.191406 155.042969 194.140625 C 154.917969 194.085938 154.804688 194.011719 154.707031 193.914062 C 154.613281 193.820312 154.535156 193.707031 154.484375 193.582031 C 154.433594 193.453125 154.40625 193.324219 154.40625 193.1875 C 154.40625 193.050781 154.433594 192.917969 154.484375 192.792969 C 154.535156 192.664062 154.613281 192.554688 154.707031 192.457031 C 154.804688 192.359375 154.917969 192.285156 155.042969 192.234375 C 155.167969 192.179688 155.300781 192.15625 155.4375 192.15625 C 155.574219 192.15625 155.703125 192.179688 155.832031 192.234375 C 155.957031 192.285156 156.070312 192.359375 156.164062 192.457031 C 156.261719 192.554688 156.335938 192.664062 156.390625 192.792969 C 156.441406 192.917969 156.46875 193.050781 156.46875 193.1875 Z M 156.46875 193.1875 " fill-opacity="1" fill-rule="nonzero"/><path fill="#000000" d="M 233.804688 218.953125 C 233.804688 219.183594 233.722656 219.382812 233.554688 219.546875 C 233.390625 219.710938 233.191406 219.796875 232.960938 219.796875 C 232.726562 219.796875 232.527344 219.710938 232.363281 219.546875 C 232.199219 219.382812 232.117188 219.183594 232.117188 218.953125 C 232.117188 218.71875 232.199219 218.519531 232.363281 218.355469 C 232.527344 218.191406 232.726562 218.109375 232.960938 218.109375 C 233.191406 218.109375 233.390625 218.191406 233.554688 218.355469 C 233.722656 218.519531 233.804688 218.71875 233.804688 218.953125 Z M 233.804688 218.953125 " fill-opacity="1" fill-rule="nonzero"/><path fill="#000000" d="M 156.734375 221.644531 C 156.734375 221.839844 156.664062 222.003906 156.527344 222.144531 C 156.390625 222.28125 156.226562 222.347656 156.03125 222.347656 C 155.835938 222.347656 155.671875 222.28125 155.535156 222.144531 C 155.398438 222.003906 155.328125 221.839844 155.328125 221.644531 C 155.328125 221.453125 155.398438 221.285156 155.535156 221.148438 C 155.671875 221.011719 155.835938 220.941406 156.03125 220.941406 C 156.226562 220.941406 156.390625 221.011719 156.527344 221.148438 C 156.664062 221.285156 156.734375 221.453125 156.734375 221.644531 Z M 156.734375 221.644531 " fill-opacity="1" fill-rule="nonzero"/><path fill="#000000" d="M 222.988281 216.65625 C 222.988281 216.851562 222.917969 217.015625 222.78125 217.152344 C 222.644531 217.289062 222.480469 217.359375 222.285156 217.359375 C 222.089844 217.359375 221.925781 217.289062 221.789062 217.152344 C 221.652344 217.015625 221.582031 216.851562 221.582031 216.65625 C 221.582031 216.460938 221.652344 216.296875 221.789062 216.160156 C 221.925781 216.019531 222.089844 215.953125 222.285156 215.953125 C 222.480469 215.953125 222.644531 216.019531 222.78125 216.160156 C 222.917969 216.296875 222.988281 216.460938 222.988281 216.65625 Z M 222.988281 216.65625 " fill-opacity="1" fill-rule="nonzero"/><path fill="#000000" d="M 185.96875 224.085938 C 185.96875 224.34375 185.875 224.566406 185.695312 224.746094 C 185.511719 224.929688 185.289062 225.023438 185.03125 225.023438 C 184.773438 225.023438 184.550781 224.929688 184.367188 224.746094 C 184.1875 224.566406 184.09375 224.34375 184.09375 224.085938 C 184.09375 223.824219 184.1875 223.605469 184.367188 223.421875 C 184.550781 223.238281 184.773438 223.148438 185.03125 223.148438 C 185.289062 223.148438 185.511719 223.238281 185.695312 223.421875 C 185.875 223.605469 185.96875 223.824219 185.96875 224.085938 Z M 185.96875 224.085938 " fill-opacity="1" fill-rule="nonzero"/><g clip-path="url(#5eb688111f)"><path fill="#000000" d="M 251.195312 170.570312 C 251.195312 170.71875 251.167969 170.863281 251.109375 171 C 251.054688 171.136719 250.972656 171.257812 250.867188 171.363281 C 250.761719 171.46875 250.640625 171.550781 250.503906 171.609375 C 250.363281 171.664062 250.222656 171.695312 250.074219 171.695312 C 249.921875 171.695312 249.78125 171.664062 249.640625 171.609375 C 249.503906 171.550781 249.382812 171.46875 249.277344 171.363281 C 249.171875 171.257812 249.089844 171.136719 249.035156 171 C 248.976562 170.863281 248.949219 170.71875 248.949219 170.570312 C 248.949219 170.421875 248.976562 170.277344 249.035156 170.140625 C 249.089844 170 249.171875 169.878906 249.277344 169.773438 C 249.382812 169.667969 249.503906 169.585938 249.640625 169.53125 C 249.78125 169.472656 249.921875 169.445312 250.074219 169.445312 C 250.222656 169.445312 250.363281 169.472656 250.503906 169.53125 C 250.640625 169.585938 250.761719 169.667969 250.867188 169.773438 C 250.972656 169.878906 251.054688 170 251.109375 170.140625 C 251.167969 170.277344 251.195312 170.421875 251.195312 170.570312 Z M 251.195312 170.570312 " fill-opacity="1" fill-rule="nonzero"/></g><path fill="#000000" d="M 147.78125 210.546875 C 147.78125 210.683594 147.753906 210.816406 147.703125 210.941406 C 147.652344 211.070312 147.574219 211.179688 147.480469 211.277344 C 147.382812 211.375 147.269531 211.449219 147.144531 211.5 C 147.019531 211.550781 146.886719 211.578125 146.75 211.578125 C 146.613281 211.578125 146.484375 211.550781 146.355469 211.5 C 146.230469 211.449219 146.117188 211.375 146.023438 211.277344 C 145.925781 211.179688 145.851562 211.070312 145.796875 210.941406 C 145.746094 210.816406 145.71875 210.683594 145.71875 210.546875 C 145.71875 210.410156 145.746094 210.277344 145.796875 210.152344 C 145.851562 210.027344 145.925781 209.914062 146.023438 209.816406 C 146.117188 209.722656 146.230469 209.648438 146.355469 209.59375 C 146.484375 209.542969 146.613281 209.515625 146.75 209.515625 C 146.886719 209.515625 147.019531 209.542969 147.144531 209.59375 C 147.269531 209.648438 147.382812 209.722656 147.480469 209.816406 C 147.574219 209.914062 147.652344 210.027344 147.703125 210.152344 C 147.753906 210.277344 147.78125 210.410156 147.78125 210.546875 Z M 147.78125 210.546875 " fill-opacity="1" fill-rule="nonzero"/><path fill="#000000" d="M 178.410156 201.914062 C 178.410156 202.160156 178.320312 202.371094 178.148438 202.542969 C 177.972656 202.71875 177.765625 202.804688 177.519531 202.804688 C 177.273438 202.804688 177.0625 202.71875 176.890625 202.542969 C 176.714844 202.371094 176.628906 202.160156 176.628906 201.914062 C 176.628906 201.667969 176.714844 201.457031 176.890625 201.285156 C 177.0625 201.109375 177.273438 201.023438 177.519531 201.023438 C 177.765625 201.023438 177.972656 201.109375 178.148438 201.285156 C 178.320312 201.457031 178.410156 201.667969 178.410156 201.914062 Z M 178.410156 201.914062 " fill-opacity="1" fill-rule="nonzero"/><path fill="#000000" d="M 172.914062 180.992188 C 172.914062 181.1875 172.875 181.371094 172.804688 181.550781 C 172.730469 181.726562 172.625 181.882812 172.488281 182.019531 C 172.351562 182.15625 172.195312 182.261719 172.015625 182.335938 C 171.839844 182.410156 171.652344 182.445312 171.460938 182.445312 C 171.269531 182.445312 171.082031 182.410156 170.90625 182.335938 C 170.726562 182.261719 170.570312 182.15625 170.433594 182.019531 C 170.296875 181.882812 170.195312 181.726562 170.121094 181.550781 C 170.046875 181.371094 170.007812 181.1875 170.007812 180.992188 C 170.007812 180.800781 170.046875 180.613281 170.121094 180.4375 C 170.195312 180.257812 170.296875 180.101562 170.433594 179.964844 C 170.570312 179.828125 170.726562 179.722656 170.90625 179.652344 C 171.082031 179.578125 171.269531 179.539062 171.460938 179.539062 C 171.652344 179.539062 171.839844 179.578125 172.015625 179.652344 C 172.195312 179.722656 172.351562 179.828125 172.488281 179.964844 C 172.625 180.101562 172.730469 180.257812 172.804688 180.4375 C 172.875 180.613281 172.914062 180.800781 172.914062 180.992188 Z M 172.914062 180.992188 " fill-opacity="1" fill-rule="nonzero"/><path fill="#000000" d="M 186.644531 158.4375 C 186.644531 158.660156 186.601562 158.875 186.515625 159.082031 C 186.433594 159.289062 186.308594 159.472656 186.152344 159.628906 C 185.992188 159.789062 185.8125 159.910156 185.605469 159.996094 C 185.398438 160.082031 185.183594 160.125 184.960938 160.125 C 184.734375 160.125 184.519531 160.082031 184.3125 159.996094 C 184.105469 159.910156 183.925781 159.789062 183.765625 159.628906 C 183.609375 159.472656 183.488281 159.289062 183.402344 159.082031 C 183.316406 158.875 183.273438 158.660156 183.273438 158.4375 C 183.273438 158.210938 183.316406 157.996094 183.402344 157.789062 C 183.488281 157.582031 183.609375 157.402344 183.765625 157.242188 C 183.925781 157.085938 184.105469 156.960938 184.3125 156.875 C 184.519531 156.789062 184.734375 156.75 184.960938 156.75 C 185.183594 156.75 185.398438 156.789062 185.605469 156.875 C 185.8125 156.960938 185.992188 157.085938 186.152344 157.242188 C 186.308594 157.402344 186.433594 157.582031 186.515625 157.789062 C 186.601562 157.996094 186.644531 158.210938 186.644531 158.4375 Z M 186.644531 158.4375 " fill-opacity="1" fill-rule="nonzero"/><path fill="#000000" d="M 205.722656 210.882812 C 205.722656 211.078125 205.652344 211.246094 205.515625 211.382812 C 205.378906 211.519531 205.214844 211.585938 205.019531 211.585938 C 204.824219 211.585938 204.660156 211.519531 204.523438 211.382812 C 204.386719 211.246094 204.316406 211.078125 204.316406 210.882812 C 204.316406 210.691406 204.386719 210.523438 204.523438 210.386719 C 204.660156 210.25 204.824219 210.179688 205.019531 210.179688 C 205.214844 210.179688 205.378906 210.25 205.515625 210.386719 C 205.652344 210.523438 205.722656 210.691406 205.722656 210.882812 Z M 205.722656 210.882812 " fill-opacity="1" fill-rule="nonzero"/><path fill="#000000" d="M 134.402344 161.542969 C 134.402344 161.722656 134.339844 161.878906 134.210938 162.007812 C 134.082031 162.132812 133.929688 162.199219 133.746094 162.199219 C 133.566406 162.199219 133.410156 162.132812 133.285156 162.007812 C 133.15625 161.878906 133.089844 161.722656 133.089844 161.542969 C 133.089844 161.359375 133.15625 161.207031 133.285156 161.078125 C 133.410156 160.949219 133.566406 160.886719 133.746094 160.886719 C 133.929688 160.886719 134.082031 160.949219 134.210938 161.078125 C 134.339844 161.207031 134.402344 161.359375 134.402344 161.542969 Z M 134.402344 161.542969 " fill-opacity="1" fill-rule="nonzero"/><path fill="#000000" d="M 213.359375 174.285156 C 213.359375 174.453125 213.300781 174.597656 213.183594 174.714844 C 213.0625 174.832031 212.921875 174.894531 212.75 174.894531 C 212.582031 174.894531 212.441406 174.832031 212.320312 174.714844 C 212.203125 174.597656 212.144531 174.453125 212.144531 174.285156 C 212.144531 174.117188 212.203125 173.972656 212.320312 173.851562 C 212.441406 173.734375 212.582031 173.675781 212.75 173.675781 C 212.921875 173.675781 213.0625 173.734375 213.183594 173.851562 C 213.300781 173.972656 213.359375 174.117188 213.359375 174.285156 Z M 213.359375 174.285156 " fill-opacity="1" fill-rule="nonzero"/><path fill="#000000" d="M 152.546875 173.71875 C 152.546875 173.898438 152.484375 174.054688 152.355469 174.179688 C 152.226562 174.308594 152.074219 174.375 151.890625 174.375 C 151.710938 174.375 151.554688 174.308594 151.429688 174.179688 C 151.300781 174.054688 151.238281 173.898438 151.238281 173.71875 C 151.238281 173.535156 151.300781 173.382812 151.429688 173.253906 C 151.554688 173.125 151.710938 173.0625 151.890625 173.0625 C 152.074219 173.0625 152.226562 173.125 152.355469 173.253906 C 152.484375 173.382812 152.546875 173.535156 152.546875 173.71875 Z M 152.546875 173.71875 " fill-opacity="1" fill-rule="nonzero"/><path fill="#000000" d="M 175.171875 250.769531 C 175.171875 250.941406 175.136719 251.109375 175.070312 251.269531 C 175.003906 251.429688 174.910156 251.574219 174.785156 251.695312 C 174.664062 251.820312 174.519531 251.914062 174.359375 251.980469 C 174.199219 252.046875 174.03125 252.082031 173.859375 252.082031 C 173.683594 252.082031 173.515625 252.046875 173.355469 251.980469 C 173.195312 251.914062 173.054688 251.820312 172.929688 251.695312 C 172.808594 251.574219 172.714844 251.429688 172.648438 251.269531 C 172.582031 251.109375 172.546875 250.941406 172.546875 250.769531 C 172.546875 250.59375 172.582031 250.425781 172.648438 250.265625 C 172.714844 250.105469 172.808594 249.964844 172.929688 249.839844 C 173.054688 249.71875 173.195312 249.621094 173.355469 249.554688 C 173.515625 249.488281 173.683594 249.457031 173.859375 249.457031 C 174.03125 249.457031 174.199219 249.488281 174.359375 249.554688 C 174.519531 249.621094 174.664062 249.71875 174.785156 249.839844 C 174.910156 249.964844 175.003906 250.105469 175.070312 250.265625 C 175.136719 250.425781 175.171875 250.59375 175.171875 250.769531 Z M 175.171875 250.769531 " fill-opacity="1" fill-rule="nonzero"/><path fill="#000000" d="M 169.335938 173.496094 C 169.335938 173.707031 169.292969 173.910156 169.214844 174.105469 C 169.132812 174.300781 169.015625 174.472656 168.867188 174.625 C 168.71875 174.773438 168.546875 174.886719 168.351562 174.96875 C 168.15625 175.050781 167.953125 175.089844 167.742188 175.089844 C 167.53125 175.089844 167.328125 175.050781 167.132812 174.96875 C 166.9375 174.886719 166.765625 174.773438 166.617188 174.625 C 166.464844 174.472656 166.351562 174.300781 166.269531 174.105469 C 166.1875 173.910156 166.148438 173.707031 166.148438 173.496094 C 166.148438 173.285156 166.1875 173.082031 166.269531 172.886719 C 166.351562 172.691406 166.464844 172.519531 166.617188 172.367188 C 166.765625 172.21875 166.9375 172.105469 167.132812 172.023438 C 167.328125 171.941406 167.53125 171.902344 167.742188 171.902344 C 167.953125 171.902344 168.15625 171.941406 168.351562 172.023438 C 168.546875 172.105469 168.71875 172.21875 168.867188 172.367188 C 169.015625 172.519531 169.132812 172.691406 169.214844 172.886719 C 169.292969 173.082031 169.335938 173.285156 169.335938 173.496094 Z M 169.335938 173.496094 " fill-opacity="1" fill-rule="nonzero"/><path fill="#000000" d="M 238.957031 234.097656 C 238.957031 234.226562 238.910156 234.335938 238.820312 234.429688 C 238.726562 234.519531 238.617188 234.566406 238.488281 234.566406 C 238.359375 234.566406 238.25 234.519531 238.15625 234.429688 C 238.066406 234.335938 238.019531 234.226562 238.019531 234.097656 C 238.019531 233.96875 238.066406 233.859375 238.15625 233.765625 C 238.25 233.675781 238.359375 233.628906 238.488281 233.628906 C 238.617188 233.628906 238.726562 233.675781 238.820312 233.765625 C 238.910156 233.859375 238.957031 233.96875 238.957031 234.097656 Z M 238.957031 234.097656 " fill-opacity="1" fill-rule="nonzero"/><path fill="#000000" d="M 174.445312 189.558594 C 174.445312 189.832031 174.347656 190.0625 174.15625 190.257812 C 173.964844 190.449219 173.730469 190.542969 173.460938 190.542969 C 173.1875 190.542969 172.957031 190.449219 172.765625 190.257812 C 172.574219 190.0625 172.476562 189.832031 172.476562 189.558594 C 172.476562 189.289062 172.574219 189.054688 172.765625 188.863281 C 172.957031 188.671875 173.1875 188.574219 173.460938 188.574219 C 173.730469 188.574219 173.964844 188.671875 174.15625 188.863281 C 174.347656 189.054688 174.445312 189.289062 174.445312 189.558594 Z M 174.445312 189.558594 " fill-opacity="1" fill-rule="nonzero"/><path fill="#000000" d="M 187.523438 134.265625 C 187.523438 134.40625 187.472656 134.527344 187.371094 134.628906 C 187.269531 134.730469 187.148438 134.78125 187.007812 134.78125 C 186.863281 134.78125 186.742188 134.730469 186.640625 134.628906 C 186.542969 134.527344 186.492188 134.40625 186.492188 134.265625 C 186.492188 134.121094 186.542969 134 186.640625 133.898438 C 186.742188 133.800781 186.863281 133.75 187.007812 133.75 C 187.148438 133.75 187.269531 133.800781 187.371094 133.898438 C 187.472656 134 187.523438 134.121094 187.523438 134.265625 Z M 187.523438 134.265625 " fill-opacity="1" fill-rule="nonzero"/><path fill="#000000" d="M 242.105469 154.519531 C 242.105469 154.707031 242.070312 154.886719 242 155.058594 C 241.929688 155.230469 241.828125 155.382812 241.695312 155.515625 C 241.5625 155.644531 241.410156 155.746094 241.238281 155.820312 C 241.066406 155.890625 240.886719 155.925781 240.703125 155.925781 C 240.515625 155.925781 240.335938 155.890625 240.164062 155.820312 C 239.992188 155.746094 239.839844 155.644531 239.707031 155.515625 C 239.578125 155.382812 239.476562 155.230469 239.402344 155.058594 C 239.332031 154.886719 239.296875 154.707031 239.296875 154.519531 C 239.296875 154.332031 239.332031 154.152344 239.402344 153.980469 C 239.476562 153.808594 239.578125 153.65625 239.707031 153.527344 C 239.839844 153.394531 239.992188 153.292969 240.164062 153.222656 C 240.335938 153.148438 240.515625 153.113281 240.703125 153.113281 C 240.886719 153.113281 241.066406 153.148438 241.238281 153.222656 C 241.410156 153.292969 241.5625 153.394531 241.695312 153.527344 C 241.828125 153.65625 241.929688 153.808594 242 153.980469 C 242.070312 154.152344 242.105469 154.332031 242.105469 154.519531 Z M 242.105469 154.519531 " fill-opacity="1" fill-rule="nonzero"/><path fill="#000000" d="M 185.78125 179.183594 C 185.78125 179.339844 185.75 179.488281 185.691406 179.632812 C 185.632812 179.777344 185.546875 179.902344 185.4375 180.011719 C 185.328125 180.121094 185.203125 180.207031 185.058594 180.265625 C 184.914062 180.328125 184.765625 180.355469 184.609375 180.355469 C 184.453125 180.355469 184.304688 180.328125 184.160156 180.265625 C 184.019531 180.207031 183.890625 180.121094 183.78125 180.011719 C 183.671875 179.902344 183.585938 179.777344 183.527344 179.632812 C 183.46875 179.488281 183.4375 179.339844 183.4375 179.183594 C 183.4375 179.027344 183.46875 178.878906 183.527344 178.734375 C 183.585938 178.59375 183.671875 178.464844 183.78125 178.355469 C 183.890625 178.246094 184.019531 178.160156 184.160156 178.101562 C 184.304688 178.042969 184.453125 178.011719 184.609375 178.011719 C 184.765625 178.011719 184.914062 178.042969 185.058594 178.101562 C 185.203125 178.160156 185.328125 178.246094 185.4375 178.355469 C 185.546875 178.464844 185.632812 178.59375 185.691406 178.734375 C 185.75 178.878906 185.78125 179.027344 185.78125 179.183594 Z M 185.78125 179.183594 " fill-opacity="1" fill-rule="nonzero"/><path fill="#000000" d="M 197.789062 163.757812 C 197.789062 163.992188 197.707031 164.191406 197.542969 164.355469 C 197.378906 164.519531 197.179688 164.601562 196.945312 164.601562 C 196.714844 164.601562 196.515625 164.519531 196.347656 164.355469 C 196.183594 164.191406 196.101562 163.992188 196.101562 163.757812 C 196.101562 163.523438 196.183594 163.324219 196.347656 163.160156 C 196.515625 162.996094 196.714844 162.914062 196.945312 162.914062 C 197.179688 162.914062 197.378906 162.996094 197.542969 163.160156 C 197.707031 163.324219 197.789062 163.523438 197.789062 163.757812 Z M 197.789062 163.757812 " fill-opacity="1" fill-rule="nonzero"/><path fill="#000000" d="M 212.863281 144.328125 C 212.863281 144.507812 212.800781 144.664062 212.671875 144.792969 C 212.542969 144.921875 212.386719 144.984375 212.207031 144.984375 C 212.027344 144.984375 211.871094 144.921875 211.742188 144.792969 C 211.617188 144.664062 211.550781 144.507812 211.550781 144.328125 C 211.550781 144.148438 211.617188 143.992188 211.742188 143.863281 C 211.871094 143.734375 212.027344 143.671875 212.207031 143.671875 C 212.386719 143.671875 212.542969 143.734375 212.671875 143.863281 C 212.800781 143.992188 212.863281 144.148438 212.863281 144.328125 Z M 212.863281 144.328125 " fill-opacity="1" fill-rule="nonzero"/><path fill="#000000" d="M 180.898438 201.308594 C 180.898438 201.425781 180.859375 201.523438 180.777344 201.605469 C 180.691406 201.6875 180.59375 201.730469 180.476562 201.730469 C 180.359375 201.730469 180.261719 201.6875 180.179688 201.605469 C 180.097656 201.523438 180.054688 201.425781 180.054688 201.308594 C 180.054688 201.191406 180.097656 201.089844 180.179688 201.007812 C 180.261719 200.925781 180.359375 200.886719 180.476562 200.886719 C 180.59375 200.886719 180.691406 200.925781 180.777344 201.007812 C 180.859375 201.089844 180.898438 201.191406 180.898438 201.308594 Z M 180.898438 201.308594 " fill-opacity="1" fill-rule="nonzero"/><path fill="#000000" d="M 195.703125 136.347656 C 195.703125 136.496094 195.675781 136.640625 195.617188 136.777344 C 195.558594 136.914062 195.480469 137.035156 195.375 137.140625 C 195.269531 137.246094 195.144531 137.328125 195.007812 137.386719 C 194.871094 137.441406 194.726562 137.472656 194.578125 137.472656 C 194.429688 137.472656 194.285156 137.441406 194.148438 137.386719 C 194.011719 137.328125 193.890625 137.246094 193.785156 137.140625 C 193.679688 137.035156 193.597656 136.914062 193.539062 136.777344 C 193.484375 136.640625 193.453125 136.496094 193.453125 136.347656 C 193.453125 136.195312 193.484375 136.054688 193.539062 135.914062 C 193.597656 135.777344 193.679688 135.65625 193.785156 135.550781 C 193.890625 135.445312 194.011719 135.363281 194.148438 135.308594 C 194.285156 135.25 194.429688 135.222656 194.578125 135.222656 C 194.726562 135.222656 194.871094 135.25 195.007812 135.308594 C 195.144531 135.363281 195.269531 135.445312 195.375 135.550781 C 195.480469 135.65625 195.558594 135.777344 195.617188 135.914062 C 195.675781 136.054688 195.703125 136.195312 195.703125 136.347656 Z M 195.703125 136.347656 " fill-opacity="1" fill-rule="nonzero"/><path fill="#000000" d="M 136.363281 176.109375 C 136.363281 176.265625 136.308594 176.398438 136.199219 176.507812 C 136.089844 176.617188 135.957031 176.671875 135.800781 176.671875 C 135.648438 176.671875 135.515625 176.617188 135.40625 176.507812 C 135.292969 176.398438 135.238281 176.265625 135.238281 176.109375 C 135.238281 175.953125 135.292969 175.820312 135.40625 175.710938 C 135.515625 175.601562 135.648438 175.546875 135.800781 175.546875 C 135.957031 175.546875 136.089844 175.601562 136.199219 175.710938 C 136.308594 175.820312 136.363281 175.953125 136.363281 176.109375 Z M 136.363281 176.109375 " fill-opacity="1" fill-rule="nonzero"/><path fill="#000000" d="M 225.484375 182.277344 C 225.484375 182.433594 225.457031 182.582031 225.398438 182.726562 C 225.335938 182.871094 225.253906 182.996094 225.144531 183.105469 C 225.03125 183.214844 224.90625 183.300781 224.761719 183.359375 C 224.621094 183.417969 224.46875 183.449219 224.316406 183.449219 C 224.160156 183.449219 224.011719 183.417969 223.867188 183.359375 C 223.722656 183.300781 223.597656 183.214844 223.488281 183.105469 C 223.375 182.996094 223.292969 182.871094 223.234375 182.726562 C 223.171875 182.582031 223.144531 182.433594 223.144531 182.277344 C 223.144531 182.121094 223.171875 181.972656 223.234375 181.828125 C 223.292969 181.683594 223.375 181.558594 223.488281 181.449219 C 223.597656 181.339844 223.722656 181.253906 223.867188 181.195312 C 224.011719 181.136719 224.160156 181.105469 224.316406 181.105469 C 224.46875 181.105469 224.621094 181.136719 224.761719 181.195312 C 224.90625 181.253906 225.03125 181.339844 225.144531 181.449219 C 225.253906 181.558594 225.335938 181.683594 225.398438 181.828125 C 225.457031 181.972656 225.484375 182.121094 225.484375 182.277344 Z M 225.484375 182.277344 " fill-opacity="1" fill-rule="nonzero"/><path fill="#000000" d="M 201.859375 228.753906 C 201.859375 228.953125 201.824219 229.144531 201.746094 229.328125 C 201.671875 229.511719 201.5625 229.675781 201.421875 229.816406 C 201.28125 229.957031 201.121094 230.0625 200.9375 230.140625 C 200.753906 230.214844 200.5625 230.253906 200.363281 230.253906 C 200.164062 230.253906 199.972656 230.214844 199.789062 230.140625 C 199.605469 230.0625 199.441406 229.957031 199.300781 229.816406 C 199.160156 229.675781 199.054688 229.511719 198.976562 229.328125 C 198.902344 229.144531 198.863281 228.953125 198.863281 228.753906 C 198.863281 228.554688 198.902344 228.363281 198.976562 228.179688 C 199.054688 227.996094 199.160156 227.835938 199.300781 227.695312 C 199.441406 227.554688 199.605469 227.445312 199.789062 227.367188 C 199.972656 227.292969 200.164062 227.253906 200.363281 227.253906 C 200.5625 227.253906 200.753906 227.292969 200.9375 227.367188 C 201.121094 227.445312 201.28125 227.554688 201.421875 227.695312 C 201.5625 227.835938 201.671875 227.996094 201.746094 228.179688 C 201.824219 228.363281 201.859375 228.554688 201.859375 228.753906 Z M 201.859375 228.753906 " fill-opacity="1" fill-rule="nonzero"/><path fill="#000000" d="M 240.925781 193.050781 C 240.925781 193.230469 240.859375 193.386719 240.730469 193.515625 C 240.605469 193.640625 240.449219 193.707031 240.269531 193.707031 C 240.085938 193.707031 239.933594 193.640625 239.804688 193.515625 C 239.675781 193.386719 239.613281 193.230469 239.613281 193.050781 C 239.613281 192.867188 239.675781 192.714844 239.804688 192.585938 C 239.933594 192.457031 240.085938 192.394531 240.269531 192.394531 C 240.449219 192.394531 240.605469 192.457031 240.730469 192.585938 C 240.859375 192.714844 240.925781 192.867188 240.925781 193.050781 Z M 240.925781 193.050781 " fill-opacity="1" fill-rule="nonzero"/><path fill="#000000" d="M 162.042969 180.285156 C 162.042969 180.542969 161.953125 180.765625 161.769531 180.949219 C 161.585938 181.128906 161.367188 181.222656 161.105469 181.222656 C 160.847656 181.222656 160.628906 181.128906 160.445312 180.949219 C 160.261719 180.765625 160.171875 180.542969 160.171875 180.285156 C 160.171875 180.027344 160.261719 179.804688 160.445312 179.621094 C 160.628906 179.4375 160.847656 179.347656 161.105469 179.347656 C 161.367188 179.347656 161.585938 179.4375 161.769531 179.621094 C 161.953125 179.804688 162.042969 180.027344 162.042969 180.285156 Z M 162.042969 180.285156 " fill-opacity="1" fill-rule="nonzero"/><path fill="#000000" d="M 206.222656 135.046875 C 206.222656 135.242188 206.152344 135.40625 206.015625 135.542969 C 205.878906 135.683594 205.710938 135.75 205.519531 135.75 C 205.324219 135.75 205.160156 135.683594 205.019531 135.542969 C 204.882812 135.40625 204.816406 135.242188 204.816406 135.046875 C 204.816406 134.851562 204.882812 134.6875 205.019531 134.550781 C 205.160156 134.414062 205.324219 134.34375 205.519531 134.34375 C 205.710938 134.34375 205.878906 134.414062 206.015625 134.550781 C 206.152344 134.6875 206.222656 134.851562 206.222656 135.046875 Z M 206.222656 135.046875 " fill-opacity="1" fill-rule="nonzero"/><path fill="#000000" d="M 178.621094 172.519531 C 178.621094 172.664062 178.570312 172.785156 178.46875 172.886719 C 178.367188 172.984375 178.246094 173.035156 178.105469 173.035156 C 177.960938 173.035156 177.839844 172.984375 177.738281 172.886719 C 177.640625 172.785156 177.589844 172.664062 177.589844 172.519531 C 177.589844 172.378906 177.640625 172.257812 177.738281 172.15625 C 177.839844 172.054688 177.960938 172.003906 178.105469 172.003906 C 178.246094 172.003906 178.367188 172.054688 178.46875 172.15625 C 178.570312 172.257812 178.621094 172.378906 178.621094 172.519531 Z M 178.621094 172.519531 " fill-opacity="1" fill-rule="nonzero"/></svg>