<svg xmlns="http://www.w3.org/2000/svg" xmlns:xlink="http://www.w3.org/1999/xlink" width="500" zoomAndPan="magnify" viewBox="0 0 375 374.999991" height="500" preserveAspectRatio="xMidYMid meet" version="1.0"><defs><clipPath id="4e866bd9bf"><path d="M 112.5 146.34375 L 124 146.34375 L 124 156.84375 L 112.5 156.84375 Z M 112.5 146.34375 " clip-rule="nonzero"/></clipPath><clipPath id="0b65e15f93"><path d="M 147 146.34375 L 159 146.34375 L 159 156.84375 L 147 156.84375 Z M 147 146.34375 " clip-rule="nonzero"/></clipPath><clipPath id="510809dbed"><path d="M 182 146.34375 L 193 146.34375 L 193 156.84375 L 182 156.84375 Z M 182 146.34375 " clip-rule="nonzero"/></clipPath><clipPath id="87d6e0fcbf"><path d="M 216 146.34375 L 228 146.34375 L 228 156.84375 L 216 156.84375 Z M 216 146.34375 " clip-rule="nonzero"/></clipPath><clipPath id="e333a359c5"><path d="M 251 146.34375 L 262.5 146.34375 L 262.5 156.84375 L 251 156.84375 Z M 251 146.34375 " clip-rule="nonzero"/></clipPath></defs><g clip-path="url(#4e866bd9bf)"><path fill="#000000" d="M 123.453125 151.574219 C 123.453125 154.46875 121.078125 156.816406 118.152344 156.816406 C 115.230469 156.816406 112.855469 154.46875 112.855469 151.574219 C 112.855469 148.683594 115.230469 146.335938 118.152344 146.335938 C 121.078125 146.335938 123.453125 148.683594 123.453125 151.574219 M 121.199219 151.574219 C 121.199219 149.914062 119.835938 148.5625 118.152344 148.5625 C 116.472656 148.5625 115.109375 149.914062 115.109375 151.574219 C 115.109375 153.238281 116.472656 154.585938 118.152344 154.585938 C 119.835938 154.585938 121.199219 153.238281 121.199219 151.574219 Z M 121.199219 151.574219 " fill-opacity="0.996" fill-rule="nonzero"/></g><g clip-path="url(#0b65e15f93)"><path fill="#000000" d="M 158.121094 151.574219 C 158.121094 154.46875 155.75 156.816406 152.824219 156.816406 C 149.898438 156.816406 147.527344 154.46875 147.527344 151.574219 C 147.527344 148.683594 149.898438 146.335938 152.824219 146.335938 C 155.75 146.335938 158.121094 148.683594 158.121094 151.574219 M 155.867188 151.574219 C 155.867188 149.914062 154.503906 148.5625 152.824219 148.5625 C 151.140625 148.5625 149.777344 149.914062 149.777344 151.574219 C 149.777344 153.238281 151.140625 154.585938 152.824219 154.585938 C 154.503906 154.585938 155.867188 153.238281 155.867188 151.574219 Z M 155.867188 151.574219 " fill-opacity="0.996" fill-rule="nonzero"/></g><g clip-path="url(#510809dbed)"><path fill="#000000" d="M 192.789062 151.574219 C 192.789062 154.46875 190.417969 156.816406 187.492188 156.816406 C 184.566406 156.816406 182.195312 154.46875 182.195312 151.574219 C 182.195312 148.683594 184.566406 146.335938 187.492188 146.335938 C 190.417969 146.335938 192.789062 148.683594 192.789062 151.574219 M 190.535156 151.574219 C 190.535156 149.914062 189.171875 148.5625 187.492188 148.5625 C 185.808594 148.5625 184.445312 149.914062 184.445312 151.574219 C 184.445312 153.238281 185.808594 154.585938 187.492188 154.585938 C 189.171875 154.585938 190.535156 153.238281 190.535156 151.574219 Z M 190.535156 151.574219 " fill-opacity="0.996" fill-rule="nonzero"/></g><g clip-path="url(#87d6e0fcbf)"><path fill="#000000" d="M 222.160156 148.5625 C 223.839844 148.5625 225.203125 149.914062 225.203125 151.574219 C 225.203125 153.238281 223.839844 154.585938 222.160156 154.585938 C 220.476562 154.585938 219.113281 153.238281 219.113281 151.574219 C 219.113281 149.914062 220.476562 148.5625 222.160156 148.5625 Z M 222.160156 146.335938 C 219.234375 146.335938 216.863281 148.683594 216.863281 151.574219 C 216.863281 154.46875 219.234375 156.816406 222.160156 156.816406 C 225.085938 156.816406 227.457031 154.46875 227.457031 151.574219 C 227.457031 148.683594 225.085938 146.335938 222.160156 146.335938 Z M 222.160156 146.335938 " fill-opacity="0.996" fill-rule="nonzero"/></g><g clip-path="url(#e333a359c5)"><path fill="#000000" d="M 262.125 151.574219 C 262.125 154.46875 259.753906 156.816406 256.828125 156.816406 C 253.902344 156.816406 251.53125 154.46875 251.53125 151.574219 C 251.53125 148.683594 253.902344 146.335938 256.828125 146.335938 C 259.753906 146.335938 262.125 148.683594 262.125 151.574219 M 259.871094 151.574219 C 259.871094 149.914062 258.507812 148.5625 256.828125 148.5625 C 255.144531 148.5625 253.78125 149.914062 253.78125 151.574219 C 253.78125 153.238281 255.144531 154.585938 256.828125 154.585938 C 258.507812 154.585938 259.871094 153.238281 259.871094 151.574219 Z M 259.871094 151.574219 " fill-opacity="0.996" fill-rule="nonzero"/></g><path fill="#000000" d="M 190.472656 150.933594 L 190.464844 150.933594 C 190.511719 151.140625 190.535156 151.355469 190.535156 151.574219 C 190.535156 151.988281 190.453125 152.382812 190.296875 152.742188 L 190.304688 152.746094 L 192.648438 152.742188 L 192.652344 152.742188 L 192.648438 152.742188 L 192.65625 152.742188 L 192.664062 152.746094 L 216.988281 152.742188 L 216.992188 152.742188 C 216.992188 152.742188 216.992188 152.742188 216.996094 152.742188 L 217 152.746094 L 219.34375 152.742188 L 219.351562 152.742188 C 219.199219 152.382812 219.113281 151.988281 219.113281 151.574219 C 219.113281 151.355469 219.136719 151.140625 219.183594 150.9375 L 216.910156 150.933594 L 216.902344 150.933594 L 216.910156 150.933594 L 216.902344 150.9375 C 216.902344 150.933594 216.902344 150.933594 216.902344 150.933594 L 192.75 150.933594 L 192.75 150.9375 Z M 190.472656 150.933594 " fill-opacity="0.996" fill-rule="nonzero"/><path fill="#000000" d="M 225.136719 150.933594 C 225.179688 151.140625 225.203125 151.355469 225.203125 151.574219 C 225.203125 151.988281 225.121094 152.382812 224.96875 152.742188 L 224.960938 152.742188 L 224.96875 152.742188 L 224.972656 152.746094 L 227.316406 152.742188 L 227.324219 152.742188 L 227.332031 152.746094 L 251.65625 152.742188 L 251.660156 152.742188 C 251.664062 152.742188 251.664062 152.742188 251.664062 152.742188 L 254.019531 152.742188 C 253.867188 152.382812 253.78125 151.988281 253.78125 151.574219 C 253.78125 151.355469 253.804688 151.140625 253.851562 150.933594 L 251.570312 150.933594 L 251.578125 150.933594 L 251.570312 150.933594 C 251.570312 150.933594 251.570312 150.933594 251.570312 150.9375 L 227.425781 150.933594 L 227.417969 150.933594 L 227.417969 150.9375 L 225.140625 150.933594 Z M 225.136719 150.933594 " fill-opacity="0.996" fill-rule="nonzero"/><path fill="#000000" d="M 158.085938 150.933594 L 155.796875 150.933594 C 155.84375 151.140625 155.867188 151.355469 155.867188 151.574219 C 155.867188 151.988281 155.785156 152.382812 155.628906 152.742188 L 157.984375 152.742188 L 157.980469 152.742188 L 184.683594 152.742188 C 184.53125 152.382812 184.445312 151.988281 184.445312 151.574219 C 184.445312 151.355469 184.46875 151.140625 184.515625 150.933594 L 182.234375 150.933594 L 182.238281 150.933594 Z M 158.085938 150.933594 " fill-opacity="0.996" fill-rule="nonzero"/><path fill="#000000" d="M 147.566406 150.933594 L 147.570312 150.933594 L 147.566406 150.933594 L 147.570312 150.933594 L 123.410156 150.933594 C 123.410156 150.933594 123.410156 150.933594 123.414062 150.933594 L 121.128906 150.933594 C 121.175781 151.140625 121.199219 151.355469 121.199219 151.574219 C 121.199219 151.988281 121.113281 152.382812 120.960938 152.742188 L 150.011719 152.742188 C 149.863281 152.382812 149.777344 151.988281 149.777344 151.574219 C 149.777344 151.355469 149.800781 151.140625 149.847656 150.933594 L 149.851562 150.933594 Z M 147.566406 150.933594 " fill-opacity="0.996" fill-rule="nonzero"/></svg>